<?xml version="1.0"?>

<svg xmlns="http://www.w3.org/2000/svg" viewBox="0 0 64 64" width="512" height="512">
<g>

<path fill="#009688" d="M60,20a4.008,4.008,0,0,0-3-3.874V12a6,6,0,0,0-12,0v4.126A4.008,4.008,0,0,0,42,20a3.961,3.961,0,0,0,1.793,3.328A6.967,6.967,0,0,0,42,28v8.5A2.5,2.5,0,0,0,44.5,39a2.438,2.438,0,0,0,.589-.078l-1.072,5.9A1,1,0,0,0,45,46h1V56H45a3,3,0,0,0-3,3v2a1,1,0,0,0,1,1h6a1,1,0,0,0,.447-.1L51,61.118l1.553.777A1,1,0,0,0,53,62h6a1,1,0,0,0,1-1V59a3,3,0,0,0-3-3H56V46h1a1,1,0,0,0,.983-1.179l-1.072-5.9A2.438,2.438,0,0,0,57.5,39,2.5,2.5,0,0,0,60,36.5V28a6.968,6.968,0,0,0-1.8-4.671A3.96,3.96,0,0,0,60,20Zm-7.193,2.371a2.909,2.909,0,0,1-3.613,0,4.008,4.008,0,0,0,.7-1.5,4.673,4.673,0,0,0,2.222,0A3.966,3.966,0,0,0,52.807,22.371ZM54,16a3,3,0,0,1-6,0V15h.343a4.968,4.968,0,0,0,3.536-1.464L52,13.415l.707.706A2.96,2.96,0,0,0,54,14.87Zm-7-4a4,4,0,0,1,8,0v1h-.172a1.009,1.009,0,0,1-.707-.293l-1.414-1.414a1.028,1.028,0,0,0-1.414,0l-.828.829A2.983,2.983,0,0,1,48.343,13H47Zm-1,6a1,1,0,0,0,.387-.078A5.011,5.011,0,0,0,48,19.972c0,.009,0,.019,0,.028a1.96,1.96,0,0,1-.362,1.139,6.687,6.687,0,0,0-2.112.794A1.967,1.967,0,0,1,44,20,2,2,0,0,1,46,18ZM45,36.5a.5.5,0,0,1-1,0V35h1Zm5,22.882L48.764,60H44V59a1,1,0,0,1,1-1h5ZM50,56H48V46h2Zm7,2a1,1,0,0,1,1,1v1H53.236L52,59.382V58Zm-5-2V46h2V56Zm6-19.5a.5.5,0,0,1-1,0V35h1ZM58,33H56V31.123l.97-3.88-1.94-.486-1,4A1,1,0,0,0,54,31v3a.978.978,0,0,0,.017.179L55.8,44H46.2l1.785-9.821A.978.978,0,0,0,48,34V31a1,1,0,0,0-.03-.243l-1-4-1.94.486.97,3.88V33H44V28a4.984,4.984,0,0,1,2.271-4.186,4.757,4.757,0,0,1,1.108-.525,4.687,4.687,0,0,0,7.242,0,4.649,4.649,0,0,1,1.109.531A4.972,4.972,0,0,1,58,28ZM56.469,21.934a6.682,6.682,0,0,0-2.109-.794A2,2,0,0,1,54,20c0-.009,0-.019,0-.028a5.011,5.011,0,0,0,1.61-2.05A1,1,0,0,0,56,18a2,2,0,0,1,2,2A1.966,1.966,0,0,1,56.469,21.934Z"/>
<path fill="#009688" d="M16,20.071v-1.1A4.977,4.977,0,0,0,18,15V14a1,1,0,0,0,1-1V11A6,6,0,0,0,7,11v2a1,1,0,0,0,1,1v1a4.977,4.977,0,0,0,2,3.974v1.1A7.011,7.011,0,0,0,4,27V37.5a2.5,2.5,0,0,0,3,2.449V56a3,3,0,0,0-3,3v2a1,1,0,0,0,1,1h6a1,1,0,0,0,.447-.1L13,61.118l1.553.777A1,1,0,0,0,15,62h6a1,1,0,0,0,1-1V59a3,3,0,0,0-3-3V39.949A2.5,2.5,0,0,0,22,37.5V27A7.011,7.011,0,0,0,16,20.071ZM16,15a3,3,0,0,1-6,0V14h.343a4.966,4.966,0,0,0,3.535-1.464L14,12.414l.707.707A2.96,2.96,0,0,0,16,13.87Zm-2,4.9v.687l-1,1-1-1V19.9a5,5,0,0,0,2,0ZM9,12V11a4,4,0,0,1,8,0v1h-.171a1,1,0,0,1-.708-.293l-1.414-1.414a1,1,0,0,0-1.414,0l-.829.829A3.02,3.02,0,0,1,10.343,12ZM6.5,38a.5.5,0,0,1-.5-.5V36H7v1.5A.5.5,0,0,1,6.5,38ZM12,59.382,10.764,60H6V59a1,1,0,0,1,1-1h5ZM12,42V56H9V40h8V56H14V42Zm8,17v1H15.236L14,59.382V58h5A1,1,0,0,1,20,59Zm0-21.5a.5.5,0,0,1-1,0V36h1ZM20,34H19V26H17V38H9V26H7v8H6V27a4.991,4.991,0,0,1,4.624-4.962L12,23.414V35h2V23.414l1.376-1.376A4.991,4.991,0,0,1,20,27Z"/>
<path fill="#009688" d="M34.893,37.747A3.978,3.978,0,0,0,36,35V33a4,4,0,0,0-8,0v2a3.978,3.978,0,0,0,1.107,2.747A6,6,0,0,0,26,43v3.5a2.5,2.5,0,0,0,2,2.449v8.607A3.987,3.987,0,0,0,26,61a1,1,0,0,0,1,1H37a1,1,0,0,0,1-1,3.987,3.987,0,0,0-2-3.444V48.949A2.5,2.5,0,0,0,38,46.5V43A6,6,0,0,0,34.893,37.747ZM32,31a2,2,0,0,1,2,2h-.586l-.707-.707a1,1,0,0,0-1.414,0L30.586,33H30A2,2,0,0,1,32,31Zm-1,4a1,1,0,0,0,.707-.293L32,34.414l.293.293A1,1,0,0,0,33,35h1a2,2,0,0,1-4,0Zm2.51,4.3a1.98,1.98,0,0,1-3.02,0,3.938,3.938,0,0,1,3.02,0ZM28,46.5V46h1v.5a.5.5,0,0,1-1,0ZM31,60H28.269A2,2,0,0,1,30,59h1Zm0-9v6H30V49h4v8H33V51Zm2,9V59h1a2,2,0,0,1,1.731,1Zm3-13.5a.5.5,0,0,1-1,0V46h1ZM36,44H35V43H33v4H31V43H29v1H28V43a3.959,3.959,0,0,1,.89-2.484,4,4,0,0,0,6.22,0A3.961,3.961,0,0,1,36,43Z"/>
<path fill="#009688" d="M32,2A11,11,0,1,0,43,13,11.013,11.013,0,0,0,32,2Zm6,7V7.236l.318-.636A8.97,8.97,0,0,1,41,13H38.162L36,12.279V10.618L37.447,9.9A1,1,0,0,0,38,9ZM23.71,16.5a8.985,8.985,0,0,1,4.262-11.54L29,6.333V9a1,1,0,0,0,.293.707l.707.707v1.051l-2.555,1.7A1,1,0,0,0,27,14v2a1,1,0,0,0,.553.895L29,17.618V18h-1.8ZM34,21.768V20.414l.707-.707A1,1,0,0,0,35,19V18h.649l2.239,1.791A8.965,8.965,0,0,1,34,21.768Zm5.246-3.452-2.621-2.1A1,1,0,0,0,36,16H34a1,1,0,0,0-1,1v1.586l-.707.707A1,1,0,0,0,32,20v2a8.957,8.957,0,0,1-6.061-2.366l.667.285A.993.993,0,0,0,27,20h3a1,1,0,0,0,1-1V17a1,1,0,0,0-.553-.895L29,15.382v-.847l2.555-1.7A1,1,0,0,0,32,12V10a1,1,0,0,0-.293-.707L31,8.586V6a1,1,0,0,0-.2-.6l-.864-1.152a8.856,8.856,0,0,1,6.773,1.1l-.6,1.208A1,1,0,0,0,36,7V8.382l-1.447.723A1,1,0,0,0,34,10v3a1,1,0,0,0,.684.949l3,1A1,1,0,0,0,38,15h2.768A8.953,8.953,0,0,1,39.246,18.316Z"/></g></svg>
