<?xml version="1.0" encoding="utf-8"?>
<!-- Generator: Adobe Illustrator 22.0.1, SVG Export Plug-In . SVG Version: 6.00 Build 0)  -->
<svg version="1.1" id="Layer_1" xmlns="http://www.w3.org/2000/svg" xmlns:xlink="http://www.w3.org/1999/xlink" x="0px" y="0px"
	 viewBox="0 0 100 100" style="enable-background:new 0 0 100 100;" xml:space="preserve">
<style type="text/css">
	.st0{fill:#009688;}
	.st1{fill:#009688;}
</style>
<g>
	<g>
		<g>
			<g>
				<g>
					<path class="st0" d="M25.3,68.8c1.7,0.8,3.4,1.6,5.1,2.4c6.3,2.8,12.6,5.5,19.2,7.3c2.3,0.7,4.7,1.4,7.2,0.9
						c2-0.4,3.9-0.8,5.8-1.4c6.3-2.1,12.2-4.9,18.2-7.8c3-1.4,6-2.9,9.3-4.5c-0.5-0.3-0.8-0.6-1.2-0.8c-1.4-1-3.1-1.4-4.8-1.6
						c-2.5-0.2-4.9,0.2-7.3,0.9c-4,1.1-8.1,1.7-11.9,3.6c-1.9,1-4.2,1-6.3,0.9c-2.1-0.2-4.2-0.4-6.3-0.8c-4-0.9-8-1.9-12-2.9
						c-1-0.3-1.5-1.4-1.2-2.3c0.3-1,1.3-1.5,2.3-1.2c2.3,0.6,4.6,1.3,6.9,1.8c4.3,1,8.6,2,13.1,1.6c0.7-0.1,1.4-0.2,2.1-0.5
						c1-0.4,1.2-1.1,0.8-2.1c-0.2-0.4-0.5-0.9-0.9-1.1c-1.1-0.6-2.2-1.4-3.4-1.7c-2.6-0.8-5.3-1.4-8-2.1c-3.3-0.8-6.3-2.4-9.4-3.8
						c-1.4-0.6-2.8-1.2-4.2-1.3c-3.6-0.3-7.1,0.3-10.5,1.3c-0.3,0.1-0.5,0.4-0.6,0.7c-0.1,0.4-0.1,0.8-0.2,1.2
						C26.5,59.9,25.9,64.3,25.3,68.8z M9.9,72.3c3.3,0,6.5,0,9.8,0c0.8,0,1.5-0.7,1.6-1.6c0.4-2.9,0.8-5.8,1.2-8.7
						c0.5-3.3,1-6.7,1.5-10c0.2-1.1-0.4-1.9-1.5-2.2c-2.5-0.5-5-1-7.4-1.5c-1.7-0.3-3.4-0.7-5.2-1C9.9,55.6,9.9,63.8,9.9,72.3z"/>
				</g>
			</g>
		</g>
	</g>
	<g>
		<g>
			<g>
				<path class="st1" d="M56.8,57.1c3.9-6.2,8.5-11.6,13.9-16.4c-6.1,4.3-11.2,9.6-15.6,15.6c-0.1,0-0.1,0-0.2-0.1
					c0.1-0.7,0.2-1.3,0.4-2c1.2-5.3,3.9-9.8,8-13.4c3.4-3,7.4-4.9,11.9-5.6c0.7-0.1,1.3-0.2,2-0.3c0.7-0.1,1.3,0.4,1.2,1.1
					c-0.2,1.1-0.4,2.3-0.7,3.4c-1.3,4.6-3.8,8.4-7.4,11.6c-3.5,3.1-7.5,5-12.1,5.8C57.8,56.9,57.3,57,56.8,57.1z"/>
			</g>
		</g>
		<g>
			<g>
				<path class="st1" d="M54.3,48.6c0,0.7-0.5,1.2-1.2,1.1c-4-0.5-7.5-2-10.6-4.6c-3.3-2.8-5.4-6.2-6.4-10.4c-0.1-0.5-0.2-1-0.3-1.5
					c-0.1-0.8,0.5-1.3,1.2-1.2c3.6,0.5,7,1.8,9.9,4c3.8,2.9,6.1,6.7,7.2,11.4c0.1,0.3,0.1,0.5,0.2,0.8
					C54.3,48.4,54.3,48.5,54.3,48.6z"/>
			</g>
		</g>
		<g>
			<g>
				<path class="st1" d="M60.6,31.4c-0.1,3.8-1.2,7.2-3.3,10.3c-0.6,0.9-1.4,0.9-2.1,0c-1.8-2.4-2.8-5.1-3.2-8.1
					c-0.5-4.6,0.6-8.8,3.3-12.6c0.5-0.7,1.3-0.7,1.8,0c1.7,2.3,2.8,4.8,3.2,7.6C60.5,29.5,60.5,30.5,60.6,31.4z"/>
			</g>
		</g>
	</g>
</g>
</svg>
