<?xml version="1.0" encoding="utf-8"?>
<!-- Generator: Adobe Illustrator 22.1.0, SVG Export Plug-In . SVG Version: 6.00 Build 0)  -->
<svg version="1.1" id="Layer_1" xmlns="http://www.w3.org/2000/svg" xmlns:xlink="http://www.w3.org/1999/xlink" x="0px" y="0px"
	 viewBox="0 0 100 100" style="enable-background:new 0 0 100 100;" xml:space="preserve">
<g>
	<path fill="#009688" d="M54.2,89.1V70.8h12.7V58.1H76c-0.2-6.9-2.3-13.4-6.2-19c-0.9-1.3-1.9-2.5-2.8-3.5l-25.8-33L15.6,35.4
		c-1,1.2-2,2.4-2.9,3.6C8.5,44.9,6.4,51.8,6.4,59c0,19.2,15.7,35,34.8,35c6.5,0,12.5-1.8,17.7-4.9H54.2z"/>
	<path fill="#FFFFFF" d="M41.2,86.9c-3.7,0.6-7.5,0.1-11.1-1.1c-3.6-1.3-6.9-3.4-9.6-6.1c-2.7-2.7-4.8-6-6-9.6
		c-1.3-3.6-1.7-7.4-1.1-11.1C14,62.6,15,66,16.6,69.2c1.5,3.2,3.5,6,6,8.5c2.4,2.5,5.3,4.5,8.4,6.1C34.1,85.3,37.6,86.4,41.2,86.9z"
		/>
	<polygon fill="#F44336" points="93.6,75 80.9,75 80.9,62.3 71.1,62.3 71.1,75 58.4,75 58.4,84.8 71.1,84.8 71.1,97.5 80.9,97.5 
		80.9,84.8 93.6,84.8 	"/>
</g>
</svg>
