<?xml version="1.0" encoding="utf-8"?>
<!-- Generator: Adobe Illustrator 22.0.1, SVG Export Plug-In . SVG Version: 6.00 Build 0)  -->
<svg version="1.1" id="Layer_1" xmlns="http://www.w3.org/2000/svg" xmlns:xlink="http://www.w3.org/1999/xlink" x="0px" y="0px"
	 viewBox="0 0 100 100" style="enable-background:new 0 0 100 100;" xml:space="preserve">
<style type="text/css">
	.st0{fill:#009688;}
	.st1{fill:#009688;}
</style>
<g>
	<g>
		<g>
			<path class="st0" d="M97.9,48.2l1.6-2l-1.6-2l1.6-2l-1.6-2l1.5-1.9l-2.1-3.6h-0.8c-4,0-7.3-3.3-7.3-7.3v-1.5H10.9v1.5
				c0,4-3.3,7.3-7.3,7.3H2.7l-2.1,3.6l1.5,1.9l-1.6,2l1.6,2l-1.6,2l1.6,2l-1.6,2l1.6,2l-1.6,2l1.6,2l-1.6,2l1.6,2L0.6,62l2.1,3.6
				h0.8c3.9,0,7.1,3.1,7.3,7l0.1,1.4h78.2l0.1-1.4c0.2-3.9,3.4-7,7.3-7h0.8l2.1-3.6l-1.5-1.9l1.6-2l-1.6-2l1.6-2l-1.6-2l1.6-2
				L97.9,48.2z M95.8,42.3l-1.6,2l1.6,2l-1.6,2l1.6,2l-1.6,2l1.6,2l-1.6,2l1.6,2l-1.6,2l1.7,2.1l-0.3,0.4C91,63,87.2,66.5,86.4,71
				H35.8v-2.2h-2.9V71H13.6c-0.8-4.5-4.6-8-9.2-8.4l-0.3-0.4l1.7-2.1l-1.6-2l1.6-2l-1.6-2l1.6-2l-1.6-2l1.6-2l-1.6-2l1.6-2l-1.6-2
				l1.6-2l-1.7-2.1l0.3-0.4c4.8-0.4,8.6-4.1,9.3-8.7h19.2v1.7h2.9V29h50.5c0.7,4.7,4.5,8.4,9.3,8.7l0.3,0.4l-1.7,2.1L95.8,42.3z"/>
		</g>
	</g>
	<g>
		<g>
			<path class="st0" d="M18.8,65.2c-0.6-0.9-1.2-1.7-1.9-2.5l0-25c0.8-0.9,1.5-1.9,2.1-2.9h11.4v-2.9H17.3l-0.4,0.8
				c-0.7,1.3-1.5,2.4-2.5,3.4l-0.4,0.4l0,27.4l0.4,0.4c0.9,0.9,1.7,2,2.3,3.1l0.4,0.7h13.4v-2.9L18.8,65.2L18.8,65.2z"/>
		</g>
	</g>
	<g>
		<g>
			<path class="st0" d="M85.6,36.1c-1-1-1.8-2.2-2.5-3.4l-0.4-0.8H38.3v2.9H81c0.6,1,1.3,2,2.1,2.9l0,25c-0.7,0.8-1.3,1.6-1.9,2.5
				H38.3v2.9h44.6l0.4-0.7c0.6-1.1,1.4-2.2,2.3-3.1l0.4-0.4l0-27.4L85.6,36.1z"/>
		</g>
	</g>
	<g>
		<g>
			<rect x="32.9" y="51.2" class="st0" width="2.9" height="2.9"/>
		</g>
	</g>
	<g>
		<g>
			<rect x="32.9" y="57" class="st0" width="2.9" height="2.9"/>
		</g>
	</g>
	<g>
		<g>
			<rect x="32.9" y="62.9" class="st0" width="2.9" height="2.9"/>
		</g>
	</g>
	<g>
		<g>
			<rect x="32.9" y="45.3" class="st0" width="2.9" height="2.9"/>
		</g>
	</g>
	<g>
		<g>
			<rect x="32.9" y="39.5" class="st0" width="2.9" height="2.9"/>
		</g>
	</g>
	<g>
		<g>
			<rect x="32.9" y="33.6" class="st0" width="2.9" height="2.9"/>
		</g>
	</g>
	<g>
		<g>
			<path class="st1" d="M72.2,43.9L72.2,43.9c0-3.1-2.4-5.5-5.4-5.5H53.5c-3,0-5.4,2.4-5.4,5.4v0.1h-5.1V50H46v-3.2h2.1v14.8h4.3
				v2.4h2.9v-2.4h9.6v2.4h2.9v-2.4h4.3V46.8h2.1V50h2.9v-6.1H72.2z M51.1,43.8c0-1.3,1.1-2.4,2.4-2.4h5.2v8.4h-7.6L51.1,43.8
				L51.1,43.8z M69.2,58.7H51.1v-6.1h18.2V58.7z M69.2,49.7h-7.6v-8.4h5.2c1.3,0,2.4,1.1,2.4,2.4L69.2,49.7L69.2,49.7z"/>
		</g>
	</g>
	<g>
		<g>
			<rect x="53.2" y="54.2" class="st1" width="2.9" height="2.9"/>
		</g>
	</g>
	<g>
		<g>
			<rect x="64.2" y="54.2" class="st1" width="2.9" height="2.9"/>
		</g>
	</g>
</g>
</svg>
