<?xml version="1.0" encoding="utf-8"?>
<!-- Generator: Adobe Illustrator 22.1.0, SVG Export Plug-In . SVG Version: 6.00 Build 0)  -->
<svg version="1.1" id="Layer_1" xmlns="http://www.w3.org/2000/svg" xmlns:xlink="http://www.w3.org/1999/xlink" x="0px" y="0px"
	 viewBox="0 0 100 100" style="enable-background:new 0 0 100 100;" xml:space="preserve">
<g>
	<g>
		<path fill="#009688" d="M93.6,41.9c-0.3-2.4-2.3-4.2-4.7-4.2H74.1c-1.9,0-3.4,1.5-3.4,3.4v25.3c-1.1-0.3-2.2-0.5-3.4-0.5
			c-0.5,0-1.5,0.1-1.5,0.1V37.2c0-1.5-1.2-2.7-2.7-2.7h-2.9v-6.1l-0.5-0.1c-4-0.7-8.1-0.7-12.1,0.1v6.1H21.1c-8.8,0-16,7.2-16,16
			v19.8c-1.7,0-3,1.4-3,3v3C2,77.8,3.3,79,4.8,79h2.4c0,0,0,0,0,0.1c0.7,5.9,5.8,10.4,12,10.4c6.2,0,11.3-4.6,12-10.4c0,0,0,0,0-0.1
			h24.2c0,0,0,0,0,0.1c0.7,5.9,5.8,10.4,12,10.4c6.2,0,11.3-4.6,12-10.4c0,0,0,0,0-0.1h12.3c1.7,0,3.2-1.4,3.2-3.2
			c0.7,0,1.3-0.3,1.7-0.8c0.4-0.5,0.6-1.1,0.6-1.8L93.6,41.9z M26.3,51.2h5.5v-5.6h6.3v5.6h5.6v6.3h-5.6V63h-6.3v-5.5h-5.5V51.2z
			 M19.2,82.7c-2.9,0-5.2-2.2-5.2-4.9c0-2.7,2.3-4.9,5.2-4.9c2.9,0,5.2,2.2,5.2,4.9C24.4,80.5,22.1,82.7,19.2,82.7z M55.3,78.6
			L55.3,78.6L55.3,78.6z M75.2,45.9c0-1.9,1.5-3.4,3.4-3.4H86c1.6,0,3,1.2,3.2,2.9l1.5,15.5c0.1,1-0.2,1.9-0.9,2.6
			c-0.6,0.7-1.6,1.1-2.5,1.1h-8.6c-1.9,0-3.4-1.5-3.4-3.4C75.2,61.1,75.2,45.9,75.2,45.9z M67.3,82.7c-2.9,0-5.2-2.2-5.2-4.9
			c0-2.7,2.3-4.9,5.2-4.9s5.2,2.2,5.2,4.9C72.5,80.5,70.1,82.7,67.3,82.7z"/>
		<path fill="#F1FBF6" d="M34.9,30h9.5c0.9,0,1.7-0.8,1.7-1.8c0-0.9-0.8-1.8-1.7-1.8h-9.5c-0.9,0-1.7,0.8-1.7,1.8
			C33.2,29.2,34,30,34.9,30z"/>
		<path fill="#F1FBF6" d="M53.9,23.8c0.9,0,1.7-0.8,1.7-1.7v-9.5c0-0.9-0.8-1.7-1.7-1.7c-0.9,0-1.7,0.8-1.7,1.7v9.5
			C52.2,23,52.9,23.8,53.9,23.8z"/>
		<path fill="#F1FBF6" d="M60.4,25.5c0.4,0,0.9-0.2,1.2-0.5l6.7-6.7c0.7-0.7,0.7-1.8,0-2.4c-0.7-0.7-1.8-0.7-2.4,0l-6.7,6.7
			c-0.7,0.7-0.7,1.8,0,2.4C59.5,25.3,59.9,25.5,60.4,25.5z"/>
		<path fill="#F1FBF6" d="M46.5,25c0.3,0.3,0.8,0.5,1.2,0.5c0.4,0,0.9-0.2,1.2-0.5c0.7-0.7,0.7-1.8,0-2.4l-6.7-6.7
			c-0.7-0.7-1.8-0.7-2.4,0c-0.7,0.7-0.7,1.8,0,2.4L46.5,25z"/>
		<path fill="#F1FBF6" d="M62,28.2c0,0.9,0.8,1.8,1.7,1.8h9.5c0.9,0,1.7-0.8,1.7-1.8c0-0.9-0.8-1.8-1.7-1.8h-9.5
			C62.8,26.5,62,27.3,62,28.2z"/>
	</g>
</g>
</svg>
