<svg xmlns="http://www.w3.org/2000/svg" xmlns:xlink="http://www.w3.org/1999/xlink" version="1.1" style="enable-background:new 0 0 100 100;" xml:space="preserve" width="100" height="100"><rect id="backgroundrect" width="100%" height="100%" x="0" y="0" fill="none" stroke="none" class="" style=""/>
<style type="text/css">
	.st0{fill:none;stroke:#231F20;stroke-width:2;}
	.st1{fill:#009688;}
	.st2{fill:#009688;}
</style>

<g class="currentLayer" style=""><title>Layer 1</title><g id="svg_1" class="">
	<g id="svg_2">
		<path class="st0" d="M62.36890072710703,57.903218913078305 " id="svg_3"/>
	</g>
	<g id="svg_4">
		<path class="st0" d="M42.4951734174032,57.903218913078305 " id="svg_5"/>
	</g>
	<g id="svg_6">
		<g id="svg_7">
			<polygon class="st1" points="81.30000305175781,87.12466430664062 22.69999885559082,87.12466430664062 31.96916961669922,56.56782913208008 42.495174407958984,56.56782913208008 42.495174407958984,59.238609313964844 33.93297576904297,59.238609313964844 26.313404083251953,84.37533569335938 77.68659210205078,84.37533569335938 70.06702423095703,59.238609313964844 62.36890411376953,59.238609313964844 62.36890411376953,56.56782913208008 72.03083038330078,56.56782913208008 " id="svg_8"/>
		</g>
		<g id="svg_9">
			<path class="st1" d="M41.94530744440745,76.20590058565139 c-0.7069705367088319,0 -1.4139410734176636,-0.0785522818565369 -2.1209116101264955,-0.23565684556961064 l0.23565684556961064,-1.3353887915611269 c0.628418254852295,0.0785522818565369 1.25683650970459,0.1571045637130737 1.9638070464134216,0.1571045637130737 L41.94530744440745,76.20590058565139 zM44.06621905453394,76.20590058565139 l-0.1571045637130737,-1.3353887915611269 c0.628418254852295,-0.0785522818565369 1.25683650970459,-0.1571045637130737 1.9638070464134216,-0.3142091274261475 l0.3142091274261475,1.3353887915611269 C45.480160127951606,75.97024374008178 44.77318959124277,76.12734830379486 44.06621905453394,76.20590058565139 zM37.78203650601099,75.49893004894257 c-0.7069705367088319,-0.23565684556961064 -1.3353887915611269,-0.4713136911392214 -1.9638070464134216,-0.7855228185653687 l0.5498659729957581,-1.25683650970459 c0.5498659729957581,0.3142091274261475 1.178284227848053,0.5498659729957581 1.8067024827003477,0.7069705367088319 L37.78203650601099,75.49893004894257 zM48.2294899929304,75.34182548522949 l-0.3927614092826844,-1.25683650970459 c0.628418254852295,-0.1571045637130737 1.25683650970459,-0.3927614092826844 1.8852547645568847,-0.7069705367088319 l0.5498659729957581,1.25683650970459 C49.48632650263498,74.87051179409028 48.85790824778269,75.10616863965988 48.2294899929304,75.34182548522949 zM52.0785518039007,73.77077984809875 l-0.628418254852295,-1.25683650970459 l0.23565684556961064,-0.0785522818565369 c0.5498659729957581,-0.3142091274261475 1.099731945991516,-0.5498659729957581 1.6495979189872743,-0.7855228185653687 l0.5498659729957581,1.25683650970459 c-0.4713136911392214,0.23565684556961064 -1.0211796641349793,0.4713136911392214 -1.5710456371307375,0.7855228185653687 L52.0785518039007,73.77077984809875 zM33.932974695040684,73.69222756624222 c-0.5498659729957581,-0.3927614092826844 -1.178284227848053,-0.7855228185653687 -1.7281502008438112,-1.25683650970459 l0.8640751004219056,-1.0211796641349793 c0.4713136911392214,0.3927614092826844 1.0211796641349793,0.7855228185653687 1.5710456371307375,1.178284227848053 L33.932974695040684,73.69222756624222 zM74.54450441487025,73.53512300252915 l0.3927614092826844,-0.5498659729957581 l0.0785522818565369,0.0785522818565369 L74.54450441487025,73.53512300252915 zM75.56568407900522,73.37801843881607 l-0.628418254852295,-0.3927614092826844 l0.3927614092826844,-0.5498659729957581 C75.7227886427183,72.74960018396378 75.80134092457483,73.06380931138992 75.56568407900522,73.37801843881607 zM72.89490649588296,72.3568387746811 c-0.5498659729957581,-0.3142091274261475 -1.178284227848053,-0.5498659729957581 -1.7281502008438112,-0.8640751004219056 l0.4713136911392214,-1.25683650970459 c0.628418254852295,0.23565684556961064 1.3353887915611269,0.5498659729957581 1.8852547645568847,0.9426273822784424 L72.89490649588296,72.3568387746811 zM55.6919567693014,72.12118192911149 l-0.4713136911392214,-1.25683650970459 c0.7069705367088319,-0.23565684556961064 1.3353887915611269,-0.4713136911392214 1.9638070464134216,-0.7069705367088319 l0.3927614092826844,1.25683650970459 C56.94879327900598,71.64986823797226 56.32037502415369,71.88552508354186 55.6919567693014,72.12118192911149 zM30.71233113892267,70.94289770126343 c-0.8640751004219056,-0.9426273822784424 -1.3353887915611269,-1.6495979189872743 -1.3353887915611269,-1.7281502008438112 l1.178284227848053,-0.7069705367088319 c0,0 0.3927614092826844,0.628418254852295 1.178284227848053,1.4924933552742004 L30.71233113892267,70.94289770126343 zM69.28150153048227,70.94289770126343 c-0.628418254852295,-0.1571045637130737 -1.25683650970459,-0.3142091274261475 -1.8852547645568847,-0.3927614092826844 l0.23565684556961064,-1.3353887915611269 c0.7069705367088319,0.0785522818565369 1.4139410734176636,0.23565684556961064 2.0423593282699586,0.3927614092826844 L69.28150153048227,70.94289770126343 zM59.5410185802717,70.94289770126343 l-0.3142091274261475,-1.3353887915611269 c0.7069705367088319,-0.1571045637130737 1.4139410734176636,-0.3142091274261475 2.0423593282699586,-0.3927614092826844 l0.1571045637130737,1.3353887915611269 C60.797855089976295,70.62868857383728 60.169436835124,70.78579313755036 59.5410185802717,70.94289770126343 zM63.39008039124201,70.39303172826767 l-0.0785522818565369,-1.3353887915611269 c0.3927614092826844,0 0.7855228185653687,-0.0785522818565369 1.178284227848053,0 c0.3142091274261475,0 0.628418254852295,0 0.8640751004219056,0 L65.35388743765543,70.31447944641113 c-0.3142091274261475,0 -0.5498659729957581,0 -0.8640751004219056,0 C64.17560320980738,70.31447944641113 63.78284180052469,70.31447944641113 63.39008039124201,70.39303172826767 z" id="svg_10"/>
		</g>
	</g>
	<g id="svg_11">
		<g id="svg_12">
			<path class="st2" d="M52.0785518039007,72.27828649282455 l-1.0211796641349793,-1.0211796641349793 C50.428953884913426,70.62868857383728 49.64343106634806,69.76461347341538 48.77935596592615,68.66488152742386 c-0.8640751004219056,-1.099731945991516 -2.5136730194091803,-3.0635389924049377 -4.791689193248748,-6.127077984809875 c-2.356568455696106,-3.0635389924049377 -4.398927783966064,-6.048525702953339 -6.205630266666413,-8.954960131645203 c-1.8067024827003477,-2.906434428691864 -3.4563004016876224,-6.205630266666413 -4.948793756961822,-9.897587513923645 c-1.4924933552742004,-3.7705095291137694 -2.278016173839569,-7.148257648944854 -2.278016173839569,-10.05469207763672 c0,-5.812868857383728 2.1209116101264955,-10.840214896202088 6.362734830379486,-14.924933552742004 l0,0 C41.002680062129,14.542359328269958 46.1085783828039,12.5 51.99999952204416,12.5 s10.997319459915161,2.0423593282699586 15.160590398311616,6.205630266666413 c4.163270938396454,4.084718656539917 6.362734830379486,9.112064695358276 6.362734830379486,14.924933552742004 c0,4.556032347679138 -1.7281502008438112,10.05469207763672 -5.184450602531433,16.417426908016203 c-3.377748119831085,6.205630266666413 -6.8340485215187075,11.311528587341309 -10.211796641349792,15.317694962024689 L52.0785518039007,72.27828649282455 zM38.724663888289435,20.590885031223298 c-3.691957247257233,3.6134049654006954 -5.4986597299575815,7.8552281856536865 -5.4986597299575815,13.039678788185121 c0,2.5922253012657164 0.7069705367088319,5.6557642936706545 2.1209116101264955,9.03351241350174 c1.4139410734176636,3.534852683544159 3.0635389924049377,6.75549623966217 4.713136911392212,9.50482610464096 c1.7281502008438112,2.8278821468353272 3.7705095291137694,5.734316575527191 6.048525702953339,8.719303286075592 c2.278016173839569,2.9849867105484007 3.8490618109703068,5.02734603881836 4.713136911392212,6.048525702953339 c0.3927614092826844,0.4713136911392214 0.7855228185653687,0.9426273822784424 1.099731945991516,1.3353887915611269 l4.084718656539917,-4.634584629535675 c3.2991958379745485,-3.8490618109703068 6.598391675949097,-8.876407849788666 9.897587513923645,-14.846381270885466 c3.220643556118011,-5.891421139240265 4.870241475105286,-10.997319459915161 4.870241475105286,-15.082038116455077 c0,-5.105898320674896 -1.8067024827003477,-9.347721540927887 -5.4986597299575815,-13.039678788185121 C61.583377908541664,16.9774800658226 57.1844501245756,15.24932986497879 51.99999952204416,15.24932986497879 C46.81554891951273,15.24932986497879 42.41662113554666,16.9774800658226 38.724663888289435,20.590885031223298 L38.724663888289435,20.590885031223298 zM51.99999952204416,42.03565797805786 c-2.356568455696106,0 -4.398927783966064,-0.8640751004219056 -6.048525702953339,-2.4351207375526434 l0,0 c0,0 0,0 0,0 l0,0 c-1.6495979189872743,-1.6495979189872743 -2.5136730194091803,-3.6134049654006954 -2.5136730194091803,-5.969973421096801 s0.8640751004219056,-4.3203755021095285 2.5136730194091803,-5.969973421096801 c1.6495979189872743,-1.6495979189872743 3.691957247257233,-2.4351207375526434 6.048525702953339,-2.4351207375526434 s4.398927783966064,0.8640751004219056 6.048525702953339,2.5136730194091803 c1.6495979189872743,1.6495979189872743 2.4351207375526434,3.6134049654006954 2.4351207375526434,5.969973421096801 s-0.8640751004219056,4.3203755021095285 -2.4351207375526434,5.969973421096801 C56.39892730601023,41.171582877635956 54.35656797774027,42.03565797805786 51.99999952204416,42.03565797805786 zM51.99999952204416,27.896247243881227 c-1.6495979189872743,0 -2.9849867105484007,0.5498659729957581 -4.163270938396454,1.6495979189872743 s-1.6495979189872743,2.4351207375526434 -1.6495979189872743,4.00616637468338 s0.5498659729957581,2.906434428691864 1.6495979189872743,4.00616637468338 l0,0 c1.099731945991516,1.099731945991516 2.5136730194091803,1.6495979189872743 4.163270938396454,1.6495979189872743 s2.9849867105484007,-0.5498659729957581 4.163270938396454,-1.6495979189872743 c1.099731945991516,-1.099731945991516 1.6495979189872743,-2.4351207375526434 1.6495979189872743,-4.00616637468338 c0,-1.5710456371307375 -0.5498659729957581,-2.906434428691864 -1.6495979189872743,-4.00616637468338 C54.98498623259256,28.446113216876984 53.64959744103144,27.896247243881227 51.99999952204416,27.896247243881227 z" id="svg_13"/>
		</g>
	</g>
</g></g></svg>