<?xml version="1.0" encoding="utf-8"?>
<!-- Generator: Adobe Illustrator 22.1.0, SVG Export Plug-In . SVG Version: 6.00 Build 0)  -->
<svg version="1.1" id="Layer_1" xmlns="http://www.w3.org/2000/svg" xmlns:xlink="http://www.w3.org/1999/xlink" x="0px" y="0px"
	 viewBox="0 0 100 100" style="enable-background:new 0 0 100 100;" xml:space="preserve">
<g>
	<g>
		<path fill="#FFA55A" d="M69,13.5L17.3,43.9c-0.2,0.1-0.3,0.2-0.5,0.4h16l40.4-23.8c1.9-1.1,2.6-3.6,1.4-5.6C73.5,13,71,12.3,69,13.5z
			"/>
		<path fill="#009688" d="M95.5,68.5h-1.3V48.1c0-0.4-0.1-0.8-0.3-1.1l-7-11.2c-0.4-0.6-1-0.9-1.7-0.9H56.4c-1.1,0-2,0.9-2,2v10.5H27.9
			H13.6H7.9c-1.1,0-2.1,0.9-2.1,2.1v2.8h2.5v8.7H5.8v7.6H4.5c-1.1,0-2,0.9-2,2v4.8c0,1.1,0.9,2,2,2h1.3h2h5.5c0,0,0.1,0.8,0.2,0.9
			c0.2,0.8,0.4,1.6,0.8,2.3c0.3,0.7,0.7,1.3,1.1,1.9c0.4,0.6,0.9,1.1,1.5,1.6c0.5,0.5,1.1,0.9,1.7,1.3c0.6,0.4,1.3,0.7,2,1
			c0.7,0.3,1.4,0.4,2.2,0.6c0.5,0.1,1.1,0.1,1.6,0.1c3,0,5.9-1.3,8-3.4c1.7-1.8,2.7-4,3.1-6.4h31.7c-0.1,0,0.3,1.5,0.3,1.6
			c1.3,4.7,5.6,8.2,10.7,8.2c3,0,5.9-1.3,8-3.4c1.7-1.7,2.7-3.9,3-6.3h6.3c1.1,0,2-0.9,2-2v-4.8C97.5,69.4,96.6,68.5,95.5,68.5z
			 M14.6,60.9v-8.7H15h4.5h1.7v8.7H14.6z M34.2,60.9h-6.7v-8.7h6.7V60.9z M47.2,60.9h-6.8v-8.7h6.8V60.9z M60,60.9h-6.7v-8.7H60
			V60.9z M86.8,55.7H71.2c-0.8,0-1.6-0.7-1.6-1.5V41.6c0-0.8,0.7-1.5,1.6-1.5h11.6c0.5,0,1,0.2,1.3,0.7l4,6.3
			c0.2,0.2,0.2,0.5,0.2,0.8l0,6.3C88.3,55.1,87.7,55.7,86.8,55.7z M28.9,75.9c0,0.8-0.2,1.6-0.6,2.3c-0.8,1.3-2.3,2.3-3.9,2.3
			c-2.5,0-4.6-2-4.6-4.6s2-4.6,4.6-4.6S28.9,73.4,28.9,75.9z M82.7,75.9c0,0.8-0.2,1.6-0.6,2.3c-0.8,1.3-2.3,2.3-3.9,2.3
			c-2.5,0-4.6-2-4.6-4.6s2-4.6,4.6-4.6C80.6,71.4,82.7,73.4,82.7,75.9z"/>
	</g>
	<path fill="#009688" d="M79.1,35.3h-6.3v-3.1c0-1.5,1.2-2.8,2.8-2.8h0.8c1.5,0,2.8,1.2,2.8,2.8V35.3z"/>
	<g>
		<path fill="#FFA55A" d="M69.2,30.4h3.4c0.3,0,0.6-0.3,0.6-0.6s-0.3-0.6-0.6-0.6h-3.4c-0.3,0-0.6,0.3-0.6,0.6S68.8,30.4,69.2,30.4z"/>
		<path fill="#FFA55A" d="M75.9,28.1c0.3,0,0.6-0.3,0.6-0.6v-3.4c0-0.3-0.3-0.6-0.6-0.6c-0.3,0-0.6,0.3-0.6,0.6v3.4
			C75.3,27.9,75.6,28.1,75.9,28.1z"/>
		<path fill="#FFA55A" d="M78.2,28.8c0.2,0,0.3-0.1,0.4-0.2l2.4-2.4c0.2-0.2,0.2-0.6,0-0.9c-0.2-0.2-0.6-0.2-0.9,0l-2.4,2.4
			c-0.2,0.2-0.2,0.6,0,0.9C77.9,28.7,78.1,28.8,78.2,28.8z"/>
		<path fill="#FFA55A" d="M73.3,28.6c0.1,0.1,0.3,0.2,0.4,0.2s0.3-0.1,0.4-0.2c0.2-0.2,0.2-0.6,0-0.9l-2.4-2.4c-0.2-0.2-0.6-0.2-0.9,0
			c-0.2,0.2-0.2,0.6,0,0.9L73.3,28.6z"/>
		<path fill="#FFA55A" d="M78.8,29.7c0,0.3,0.3,0.6,0.6,0.6h3.4c0.3,0,0.6-0.3,0.6-0.6c0-0.3-0.3-0.6-0.6-0.6h-3.4
			C79.1,29.1,78.8,29.4,78.8,29.7z"/>
	</g>
</g>
</svg>
