<?xml version="1.0" encoding="utf-8"?>
<!-- Generator: Adobe Illustrator 22.0.1, SVG Export Plug-In . SVG Version: 6.00 Build 0)  -->
<svg version="1.1" id="Layer_1" xmlns="http://www.w3.org/2000/svg" xmlns:xlink="http://www.w3.org/1999/xlink" x="0px" y="0px"
	 viewBox="0 0 100 100" style="enable-background:new 0 0 100 100;" xml:space="preserve">
<style type="text/css">
	.st0{fill:#009688;}
	.st1{fill:#009688;}
</style>
<g>
	<g>
		<g>
			<path class="st0" d="M96.9,20.4l-0.5-1.2c-1-2.2-2.8-3.8-5.1-4.6c-3.9-1.4-9.1-0.6-15.2,2.3c0,0-0.1,0-0.1,0L52.6,29.9L30,17.8
				c-0.5-0.3-1.2-0.3-1.7,0l-10,4.7c-0.6,0.3-1,0.9-1.1,1.5c-0.1,0.7,0.2,1.3,0.7,1.7l17.9,13.6l-15.3,8.5l-8-4.3
				c-0.5-0.3-1.2-0.3-1.7,0L4,46.5c-0.6,0.3-1,0.9-1.1,1.5c-0.1,0.7,0.2,1.3,0.7,1.7l14.5,11c1.4,1,3,1.6,4.7,1.6
				c1.1,0,2.2-0.2,3.3-0.7l7.5-3.5L93,29.7c1.8-0.8,3.2-2.2,3.9-3.7C97.7,24.2,97.7,22.3,96.9,20.4z M22.8,24.5l6.3-2.9L55.9,36
				l-5.4,2.5L44,33.7c-0.8-0.6-2-0.4-2.6,0.4c-0.6,0.8-0.4,2,0.4,2.6l4.9,3.6l-1.9,0.9L22.8,24.5z M91.4,26.3L32,54.7l-7.4,3.5
				c-1.3,0.6-2.9,0.5-4.1-0.4l-12-9.2l3.1-1.5l8.1,4.3c0.6,0.3,1.2,0.3,1.8,0l17.7-9.8l4.3,3.2c0.3,0.3,0.7,0.4,1.1,0.4
				c0.3,0,0.5-0.1,0.8-0.2l15.6-7.3c0.6-0.3,1.1-0.9,1.1-1.7c0-0.7-0.4-1.4-1-1.7l-4.5-2.4l21.2-11.7c4.8-2.3,9-3.1,11.8-2.3l-7,3.5
				c-0.9,0.5-1.3,1.6-0.8,2.5c0.3,0.7,1,1,1.7,1c0.3,0,0.6-0.1,0.8-0.2l8.5-4.3c0,0,0.1,0.1,0.1,0.1l0.5,1.2
				C94.4,24,92.9,25.6,91.4,26.3z"/>
		</g>
	</g>
	<g>
		<g>
			<path class="st1" d="M72.4,72.8H8.4c-1,0-1.9,0.8-1.9,1.9s0.8,1.9,1.9,1.9h63.9c1,0,1.9-0.8,1.9-1.9
				C74.3,73.7,73.4,72.8,72.4,72.8z"/>
		</g>
	</g>
	<g>
		<g>
			<path class="st1" d="M88.7,72.8h-6.8c-1,0-1.9,0.8-1.9,1.9s0.8,1.9,1.9,1.9h6.8c1,0,1.9-0.8,1.9-1.9
				C90.6,73.7,89.8,72.8,88.7,72.8z"/>
		</g>
	</g>
	<g>
		<g>
			<path class="st1" d="M49.9,82.2H18.6c-1,0-1.9,0.8-1.9,1.9c0,1,0.8,1.9,1.9,1.9h31.2c1,0,1.9-0.8,1.9-1.9
				C51.7,83,50.9,82.2,49.9,82.2z"/>
		</g>
	</g>
	<g>
		<g>
			<path class="st1" d="M18.7,31.1c-0.4-1-1.5-1.4-2.5-1L3.7,35.2c-1,0.4-1.4,1.5-1,2.5c0.3,0.7,1,1.2,1.8,1.2c0.2,0,0.5,0,0.7-0.1
				l12.5-5.1C18.6,33.2,19.1,32.1,18.7,31.1z"/>
		</g>
	</g>
</g>
</svg>
