<?xml version="1.0" encoding="utf-8"?>
<!-- Generator: Adobe Illustrator 22.0.1, SVG Export Plug-In . SVG Version: 6.00 Build 0)  -->
<svg version="1.1" id="Layer_1" xmlns="http://www.w3.org/2000/svg" xmlns:xlink="http://www.w3.org/1999/xlink" x="0px" y="0px"
	 viewBox="0 0 100 100" style="enable-background:new 0 0 100 100;" xml:space="preserve">
<style type="text/css">
	.st0{fill:#009688;}
	.st1{fill:#FFFFFF;}
	.st2{fill:#009688;}
</style>
<g>
	<path class="st0" d="M84.6,65c-0.9,2.9-1.8,5.8-2.7,8.7c-0.6,1.8-1.1,3.6-1.6,5.4c-0.2,0.5-0.5,0.5-1,0.5c-4.5,0-8.9,0-13.4,0
		c-0.3,0-0.7,0-1.1,0c0,3.5,0,6.9,0,10.4c-9.9,0-19.8,0-29.7,0c0-3.4,0-6.8,0-10.4c-0.4,0-0.7,0-1,0c-4.5,0-8.9,0-13.4,0
		c-0.7,0-1-0.2-1.2-0.9c-1.4-4.6-2.8-9.2-4.2-13.9c23.1,0,46.2,0,69.3,0C84.6,64.9,84.6,65,84.6,65z M35.3,36.6
		c-3.4-0.1-5.9,1.5-7.8,4.1c-2,2.9-3.2,6.1-3,9.8c0.1,3.6,0,7.2,0,10.8c0,0.3,0,0.6,0,1c3.2,0,6.2,0,9.4,0c0-4.5,0-8.9,0-13.4
		c1,0,1.9,0,2.9,0c0,4.5,0,8.9,0,13.4c2.5,0,4.9,0,7.4,0c0-8.6,0-17.1,0-25.7C41.3,36.6,38.3,36.7,35.3,36.6z M38.1,21.6
		c0,6.5,5,11.6,11.3,11.7c7.1,0.2,12.1-5.1,12.2-11.7c0-6.2-5-11.8-11.7-11.6C43.3,9.8,38,15.3,38.1,21.6z M66.3,48.9
		c0,4.5,0,8.9,0,13.4c3.1,0,6.1,0,9.1,0c0-0.4,0-0.7,0-1c-0.1-3.9-0.2-7.7-0.2-11.6c0-3.3-0.9-6.4-2.9-9c-1.7-2.2-3.9-4.3-6.9-4.1
		c-1.6,0.1-3.1,0-4.7,0c-1.6,0-3.1,0-4.7,0c0,8.3,0,17.3,0,25.7c2.5,0,5,0,7.5,0c0-4.5,0-8.9,0-13.3C64.5,48.9,65.4,48.9,66.3,48.9z
		"/>
	<g>
		<path class="st1" d="M26.2,77.4v-9.8h2.7v3.8h3.6v-3.8h2.7v9.8h-2.7v-4h-3.6v4H26.2z"/>
		<path class="st1" d="M37.2,77.4v-9.8h6v2.2h-3.4v1.7h3.2v2.1h-3.2v1.7h3.4v2.2H37.2z"/>
		<path class="st1" d="M45,77.4v-9.8h2.7v7.5H51v2.3H45z"/>
		<path class="st1" d="M52.3,77.4v-9.8H55v7.5h3.3v2.3H52.3z"/>
		<path class="st1" d="M69.5,72.5c0,0.7-0.1,1.4-0.4,2c-0.3,0.6-0.6,1.2-1.1,1.7c-0.5,0.5-1.1,0.9-1.7,1.1c-0.6,0.3-1.3,0.4-2,0.4
			c-0.7,0-1.4-0.1-2-0.4c-0.6-0.3-1.2-0.6-1.7-1.1c-0.5-0.5-0.9-1-1.2-1.7c-0.3-0.6-0.4-1.3-0.4-2c0-0.7,0.1-1.4,0.4-2
			c0.3-0.6,0.6-1.2,1.2-1.7c0.5-0.5,1.1-0.9,1.7-1.1c0.6-0.3,1.3-0.4,2-0.4c0.7,0,1.4,0.1,2,0.4c0.6,0.3,1.2,0.6,1.7,1.1
			c0.5,0.5,0.9,1,1.1,1.7C69.4,71.2,69.5,71.8,69.5,72.5z M64.3,75.4c0.7,0,1.4-0.3,1.8-0.8c0.5-0.5,0.7-1.2,0.7-2.1
			c0-0.8-0.2-1.5-0.7-2.1c-0.5-0.6-1.1-0.8-1.8-0.8c-0.7,0-1.4,0.3-1.8,0.8c-0.5,0.5-0.7,1.2-0.7,2.1c0,0.8,0.2,1.5,0.7,2.1
			S63.5,75.4,64.3,75.4z"/>
		<path class="st1" d="M71.1,76.3c0-0.4,0.1-0.7,0.4-1c0.3-0.3,0.6-0.4,1-0.4c0.4,0,0.7,0.1,1,0.4c0.3,0.3,0.4,0.6,0.4,1
			c0,0.4-0.1,0.7-0.4,1c-0.3,0.3-0.6,0.4-1,0.4c-0.4,0-0.7-0.1-1-0.4C71.3,77,71.1,76.7,71.1,76.3z M71.2,74.2v-7h2.5v7H71.2z"/>
	</g>
	<path class="st2" d="M53,61.4c-0.2-2.1-0.4-4.2-0.5-6.3c-0.2-2.5-0.4-5.1-0.5-7.6c-0.1-2.1-0.1-4.3-0.4-6.4c-0.1-1,0.3-1.4,0.9-1.9
		c0.2-0.1,0.4-0.4,0.4-0.5c0-0.6-0.1-1.2-0.2-1.8c-1.7,0-3.4,0-5.1,0c0,0.1,0,0.3-0.1,0.4c-0.3,1-0.3,1.8,0.7,2.4
		c0.2,0.1,0.4,0.6,0.4,0.9c0,0.9-0.1,1.8-0.2,2.7c-0.2,2.5-0.4,5-0.5,7.5c-0.2,2.9-0.4,5.8-0.5,8.7c-0.1,1-0.2,1.9-0.3,2.9
		c2,0,3.9,0,6,0C53,62,53,61.7,53,61.4z"/>
</g>
</svg>
