<?xml version="1.0" encoding="utf-8"?>
<!-- Generator: Adobe Illustrator 22.0.1, SVG Export Plug-In . SVG Version: 6.00 Build 0)  -->
<svg version="1.1" id="Layer_1" xmlns="http://www.w3.org/2000/svg" xmlns:xlink="http://www.w3.org/1999/xlink" x="0px" y="0px"
	 viewBox="0 0 100 100" style="enable-background:new 0 0 100 100;" xml:space="preserve">
<style type="text/css">
	.st0{fill:#009688;}
	.st1{fill:#009688;}
</style>
<g>
	<g>
		<g>
			<path class="st0" d="M42.5,21c5.1,0,10.2,0,15.3,0c0.7,0.4,0.9,1,0.9,1.8c0,3.9,0,7.8,0,11.7c0,0.3,0,0.6,0.1,1
				c0.4,0,0.6,0,0.9,0c3.7,0,7.5,0,11.2,0c1.1,0,1.6,0.4,1.6,1.6c0,1.6,0,3.2,0,4.8c0,1-0.5,1.5-1.5,1.5c-0.6,0-1.1,0-1.7,0
				c0,0.9,0,1.7,0,2.6c0.3,0,0.6,0,0.9,0c2.6,0,5.2,0,7.8,0c0.8,0,1.4,0.2,1.8,0.9c0,2,0,4.1,0,6.1c-0.4,0.8-1.1,0.9-1.9,0.9
				c0,7.9,0,15.7,0,23.6c0.9-0.1,1.5,0.2,1.9,0.9c0,0.3,0,0.6,0,0.9c-0.4,0.7-1.1,0.8-1.9,0.8c-18.4,0-36.9,0-55.3,0
				c-0.2,0-0.4,0-0.6,0c-0.7-0.1-1.2-0.5-1.2-1.3c0-0.8,0.4-1.3,1.2-1.4c0.2,0,0.4,0,0.7-0.1c0-7.9,0-15.7,0-23.5
				c-1.8-0.3-1.9-0.4-1.9-2.2c0-1.4,0-2.8,0-4.2c0-1.1,0.4-1.6,1.6-1.6c2.7,0,5.3,0,8,0c0.3,0,0.6,0,0.9,0c0-0.9,0-1.7,0-2.6
				c-0.6,0-1.1,0-1.6,0c-1.2,0-1.6-0.5-1.6-1.6c0-1.5,0-3.1,0-4.6c0-1.2,0.4-1.6,1.7-1.6c3.7,0,7.5,0,11.2,0c0.3,0,0.6,0,0.9,0
				c0-0.4,0-0.6,0-0.9c0-3.9,0-7.8,0-11.7C41.6,22,41.8,21.4,42.5,21z M33.8,43.4c0,11.4,0,22.7,0,34c2.4,0,4.7,0,7.2,0
				c0-0.3,0-0.6,0-0.9c0-5.2,0-10.5,0-15.7c0-1.3,0.4-1.7,1.7-1.7c5,0,10,0,15,0c1.4,0,1.8,0.4,1.8,1.8c0,5.2,0,10.4,0,15.6
				c0,0.3,0,0.6,0,0.9c2.4,0,4.8,0,7.1,0c0-11.4,0-22.7,0-34C55.6,43.4,44.7,43.4,33.8,43.4z M25.3,53.9c0,7.9,0,15.7,0,23.5
				c2,0,3.9,0,5.8,0c0-1.5,0-3,0-4.5c-0.6,0-1.1,0-1.7,0c-0.9,0-1.5-0.5-1.5-1.3c0-0.8,0.6-1.3,1.6-1.4c0.5,0,1.1,0,1.7,0
				c0-1.1,0-2.2,0-3.2c-0.6,0-1.2,0-1.8,0c-0.9,0-1.4-0.6-1.4-1.3c0-0.8,0.6-1.3,1.4-1.3c0.6,0,1.2,0,1.8,0c0-1.1,0-2.2,0-3.2
				c-0.3,0-0.6,0-0.9,0c-1.7,0-2.4-0.4-2.4-1.4c0-1,0.7-1.3,2.3-1.3c0.3,0,0.6,0,0.9,0c0-1.6,0-3,0-4.5
				C29.1,53.9,27.2,53.9,25.3,53.9z M69.2,53.9c0,1.6,0,3,0,4.5c0.6,0,1.2,0,1.7,0c1,0,1.5,0.5,1.5,1.3c0,0.8-0.5,1.3-1.5,1.3
				c-0.6,0-1.1,0-1.7,0c0,1.1,0,2.2,0,3.2c0.6,0,1.2,0,1.8,0c0.9,0,1.4,0.5,1.4,1.3c0,0.8-0.5,1.3-1.4,1.3c-0.6,0-1.2,0-1.8,0
				c0,1.1,0,2.1,0,3.2c0.5,0,1,0,1.5,0c1.2,0,1.7,0.5,1.7,1.4c0,0.9-0.6,1.3-1.8,1.3c-0.5,0-1,0-1.5,0c0,1.6,0,3,0,4.5
				c2,0,3.9,0,5.8,0c0-7.9,0-15.7,0-23.5C73.1,53.9,71.2,53.9,69.2,53.9z M56,23.7c-3.9,0-7.8,0-11.7,0c0,3.9,0,7.8,0,11.7
				c3.9,0,7.8,0,11.7,0C56,31.5,56,27.6,56,23.7z M69.8,38.2c-13.1,0-26.2,0-39.2,0c0,0.9,0,1.7,0,2.5c13.1,0,26.1,0,39.2,0
				C69.8,39.8,69.8,39,69.8,38.2z M48.8,61.8c-1.7,0-3.4,0-5.1,0c0,5.2,0,10.4,0,15.6c1.7,0,3.4,0,5.1,0
				C48.8,72.2,48.8,67,48.8,61.8z M51.6,61.7c0,5.3,0,10.5,0,15.7c1.7,0,3.4,0,5.1,0c0-5.3,0-10.5,0-15.7
				C54.9,61.7,53.3,61.7,51.6,61.7z M77,48.6c-2.6,0-5.2,0-7.8,0c0,0.9,0,1.7,0,2.5c2.6,0,5.2,0,7.8,0C77,50.3,77,49.5,77,48.6z
				 M31.1,51.2c0-0.9,0-1.7,0-2.5c-2.6,0-5.2,0-7.8,0c0,0.9,0,1.7,0,2.5C25.9,51.2,28.4,51.2,31.1,51.2z"/>
		</g>
	</g>
	<g>
		<g>
			<path class="st0" d="M41.5,56.5c-1.2,0-2.5,0-3.7,0c-1,0-1.5-0.5-1.5-1.4c0-2.5,0-5.1,0-7.6c0-1,0.5-1.4,1.5-1.4c2.5,0,5,0,7.5,0
				c1.1,0,1.5,0.4,1.5,1.5c0,2.5,0,5,0,7.5c0,1-0.5,1.5-1.5,1.5C44.1,56.5,42.8,56.5,41.5,56.5z M44.2,53.8c0-1.8,0-3.5,0-5.2
				c-1.7,0-3.4,0-5.1,0c0,1.7,0,3.4,0,5.2C40.8,53.8,42.4,53.8,44.2,53.8z"/>
		</g>
	</g>
	<g>
		<g>
			<path class="st0" d="M58.7,46c1.3,0,2.5,0,3.8,0c1,0,1.5,0.5,1.5,1.5c0,2.5,0,5,0,7.5c0,1-0.5,1.4-1.5,1.4c-2.5,0-5.1,0-7.6,0
				c-1,0-1.5-0.5-1.5-1.5c0-2.5,0-5,0-7.5c0-1,0.5-1.5,1.5-1.5C56.2,45.9,57.4,46,58.7,46z M56.1,48.6c0,1.8,0,3.5,0,5.2
				c1.7,0,3.4,0,5.1,0c0-1.8,0-3.5,0-5.2C59.5,48.6,57.9,48.6,56.1,48.6z"/>
		</g>
	</g>
	<g>
		<g>
			<path class="st1" d="M51.5,28.2c2.1,0.2,2.6,0.5,2.6,1.4c0,0.9-0.5,1.2-2.6,1.4c0,0.4,0,0.8,0,1.2c0,0.9-0.6,1.4-1.4,1.4
				c-0.7,0-1.2-0.6-1.3-1.4c0-0.4,0-0.7,0-1.1c-1.1-0.2-2.7,0.3-2.6-1.5c0-1.6,1.5-1.1,2.6-1.3c0.1-1.1-0.4-2.6,1.4-2.6
				C51.8,25.7,51.4,27.1,51.5,28.2z"/>
		</g>
	</g>
	<g>
		<g>
			<path class="st0" d="M46.9,68.3c0.7,0,1.3,0.6,1.3,1.3c0,0.7-0.6,1.3-1.3,1.2c-0.7,0-1.4-0.6-1.4-1.2
				C45.5,68.9,46.1,68.3,46.9,68.3z"/>
		</g>
	</g>
	<g>
		<g>
			<path class="st0" d="M54.7,69.7c-0.1,0.7-0.7,1.3-1.4,1.2c-0.7,0-1.3-0.7-1.2-1.4c0.1-0.7,0.7-1.3,1.4-1.2
				C54.3,68.3,54.8,68.9,54.7,69.7z"/>
		</g>
	</g>
</g>
</svg>
