<?xml version="1.0" encoding="utf-8"?>
<!-- Generator: Adobe Illustrator 22.0.1, SVG Export Plug-In . SVG Version: 6.00 Build 0)  -->
<svg version="1.1" id="Layer_1" xmlns="http://www.w3.org/2000/svg" xmlns:xlink="http://www.w3.org/1999/xlink" x="0px" y="0px"
	 viewBox="0 0 100 100" style="enable-background:new 0 0 100 100;" xml:space="preserve">
<style type="text/css">
	.st0{fill:#009688;}
	.st1{fill:#009688;}
</style>
<g>
	<path class="st0" d="M61.3,45.4c-1.7-1.7-3.4-3.6-5.2-5.6c4.4-5,8.3-8.8,13.2-13.2c5,4.4,8.8,8.3,13.2,13.2c-1.8,2-3.5,3.9-5.2,5.6
		H61.3z"/>
	<path class="st0" d="M22.6,45.4c-1.7-1.7-3.4-3.6-5.2-5.6c4.4-5,8.3-8.8,13.2-13.2c5,4.4,8.8,8.3,13.2,13.2c-1.8,2-3.5,3.8-5.2,5.6
		H22.6z"/>
	<path class="st1" d="M92.6,45.5V22.1c0-3.2-2.6-5.8-5.8-5.8H13.2c-3.2,0-5.8,2.6-5.8,5.8v23.4c-2.8,0.4-4.9,2.8-4.9,5.7v14.5
		c0,1,0.8,1.8,1.8,1.8h2v9c0,1,0.8,1.8,1.8,1.8h3.3v3.5c0,1,0.8,1.8,1.8,1.8c1,0,1.8-0.8,1.8-1.8v-3.5h69.8v3.5c0,1,0.8,1.8,1.8,1.8
		c1,0,1.8-0.8,1.8-1.8v-3.5h3.3c1,0,1.8-0.8,1.8-1.8v-9h2c1,0,1.8-0.8,1.8-1.8V51.2C97.5,48.3,95.4,45.9,92.6,45.5z M11.1,22.1
		c0-1.2,1-2.2,2.2-2.2h73.6c1.2,0,2.2,1,2.2,2.2v23.3h-6.4h-65h-6.4V22.1z M90,74.7H10v-7.2H90V74.7z M93.8,63.9H6.2V51.2
		c0-1.2,0.9-2.1,2.1-2.1h83.5c1.2,0,2.1,0.9,2.1,2.1V63.9z"/>
</g>
</svg>
