<svg version="1.1" id="Layer_1" xmlns="http://www.w3.org/2000/svg" xmlns:xlink="http://www.w3.org/1999/xlink" x="0px" y="0px"
	 viewBox="0 0 100 100" style="enable-background:new 0 0 100 100;" xml:space="preserve">


		<g>
			<path fill="#009688" stroke="#009688" d="M27.94602281582327,49.451743776326005 c-0.5782255834355174,-0.15990331701448646 -1.239054821647537,0.15990331701448646 -1.404262131200542,0.719564926565189 c-0.16520730955300503,0.5596616095507025 0.16520730955300503,1.199274877608648 0.7434328929885223,1.3591781946231345 c0,0 3.0563352267305914,1.0393715605941616 3.551957155389606,6.236229363564969 c0.49562192865901494,5.356761119985294 7.269121620332218,9.594199020869183 9.33421298974478,13.751685263245829 c0.2478109643295074,0.5596616095507025 0.9912438573180297,0.7995165850724317 1.5694694407535472,0.47970995104345937 c0.5782255834355174,-0.23985497552172969 0.8260365477650247,-0.9594199020869183 0.49562192865901494,-1.5190815116376206 c-2.2302986789655668,-4.397341217898376 -8.673383751532759,-8.634779118782266 -9.086402025415271,-12.952168678173397 C32.4892238285309,50.89087362945639 28.111230125376274,49.531695434833246 27.94602281582327,49.451743776326005 z" id="svg_4"/>
			<path fill="#009688" stroke="#009688" d="M76.51697182440671,68.64014181806436 l-8.508176441979755,0 c-0.6608292382120201,0 -1.1564511668710344,0.47970995104345937 -1.1564511668710344,1.1193232191014046 c0,0.6396132680579455 0.49562192865901494,1.1193232191014046 1.1564511668710344,1.1193232191014046 l8.508176441979755,0 c0.6608292382120201,0 1.1564511668710344,-0.47970995104345937 1.1564511668710344,-1.1193232191014046 C77.67342299127775,69.19980342761507 77.09519740784224,68.64014181806436 76.51697182440671,68.64014181806436 z" id="svg_5"/>
			<path fill="#009688" stroke="#009688" d="M66.85234421555593,66.96115698941226 c0,0.6396132680579455 0.49562192865901494,1.1193232191014046 1.1564511668710344,1.1193232191014046 l8.508176441979755,0 c0.6608292382120201,0 1.1564511668710344,-0.47970995104345937 1.1564511668710344,-1.1193232191014046 c0,-0.6396132680579455 -0.49562192865901494,-1.1193232191014046 -1.1564511668710344,-1.1193232191014046 l-8.508176441979755,0 C67.34796614421495,65.84183377031087 66.85234421555593,66.40149537986156 66.85234421555593,66.96115698941226 z" id="svg_6"/>
			<path fill="#009688" stroke="#009688" d="M88.08148349311705,83.6710536174261 h-3.0563352267305914 l0,-13.591781946231343 c0.8260365477650247,0.47970995104345937 1.6520730955300493,0.39975829253621603 1.4868657859770447,0.39975829253621603 c2.3955059885185714,0 3.634560810166109,-2.798308047753512 1.9824877146360589,-4.477292876405619 l-7.35172527510872,-7.1956492656518884 c-0.4130182738825125,-0.39975829253621603 -1.1564511668710344,-0.47970995104345937 -1.6520730955300493,0 c-0.4130182738825125,0.39975829253621603 -0.49562192865901494,1.1193232191014046 0,1.599033170144864 l7.35172527510872,7.1956492656518884 c0.16520730955300503,0.15990331701448646 0.16520730955300503,0.39975829253621603 0,0.5596616095507025 c-0.08260365477650254,0.07995165850724323 -0.16520730955300503,0.15990331701448646 -0.3304146191060101,0.15990331701448646 c-0.08260365477650254,0 -0.16520730955300503,0 -0.3304146191060101,-0.15990331701448646 L73.04761832379363,55.288214847354766 c-0.4130182738825125,-0.39975829253621603 -0.9912438573180297,-0.3198066340289729 -0.8260365477650247,-0.3198066340289729 c-0.6608292382120201,0 0.3304146191060101,-0.7995165850724317 -13.960017657228915,13.192023653695127 c-0.4130182738825125,0.39975829253621603 -0.9912438573180297,-0.15990331701448646 -0.5782255834355174,-0.5596616095507025 l14.290432276334927,-13.99154023876756 c0.08260365477650254,-0.07995165850724323 0.16520730955300503,-0.15990331701448646 0.3304146191060101,-0.15990331701448646 c0.2478109643295074,0 -0.08260365477650254,-0.23985497552172969 4.625804667484138,4.317389559391133 c0.4130182738825125,0.39975829253621603 1.1564511668710344,0.47970995104345937 1.6520730955300493,0 c0.4130182738825125,-0.39975829253621603 0.49562192865901494,-1.1193232191014046 0,-1.599033170144864 l-4.2953900483781275,-4.237437900883889 c-0.9086402025415274,-0.8794682435796753 -2.0650913694125617,-0.7995165850724317 -1.9824877146360589,-0.7995165850724317 c-0.7434328929885223,0 -1.404262131200542,0.3198066340289729 -1.9824877146360589,0.7995165850724317 L56.0312654398341,66.00173708732534 c-1.7346767503065519,1.6789848286521076 -0.49562192865901494,4.477292876405619 1.9824877146360589,4.477292876405619 c0.49562192865901494,0 0.9912438573180297,-0.15990331701448646 1.4868657859770447,-0.39975829253621603 l0,6.955794290130157 c-3.1389388815070935,-1.5190815116376206 -6.525688727343695,-2.398549755217296 -9.995042227956798,-2.5584530722317824 c-0.16520730955300503,-9.434295703854698 -10.73847512094532,-13.271975312202372 -11.151493394827833,-19.188398041738367 c-0.16520730955300503,-2.5584530722317824 -0.9086402025415274,-4.717147851927349 -2.147695024189064,-6.3961326805794565 c-0.3304146191060101,-0.47970995104345937 -1.0738475120945319,-0.6396132680579455 -1.5694694407535472,-0.23985497552172969 c-0.49562192865901494,0.3198066340289729 -0.6608292382120201,1.0393715605941616 -0.2478109643295074,1.5190815116376206 c1.0738475120945319,1.4391298531303778 1.5694694407535472,3.1181146817824845 1.7346767503065519,5.2768094614780505 c0.49562192865901494,7.115697607144645 10.903682430498325,10.553618922956101 11.151493394827833,19.02849472472388 c-3.304146191060099,0.15990331701448646 -6.608292382120197,0.9594199020869183 -9.582023954074286,2.3185980967100526 c-5.7822558343551735,-7.51545589968086 -15.36427978842946,-10.953377215492317 -24.45068181384473,-9.354344045347453 V28.824215881457263 c0.49562192865901494,0 1.1564511668710344,0 1.899884059859557,0.15990331701448646 c1.9824877146360589,0.39975829253621603 3.386749845836601,1.6789848286521076 4.212786393601625,3.5978246328259442 C22.576785255350607,40.737012999036494 23.898443731774645,42.73580446171758 29.515492256576813,46.33362909454352 c0.8260365477650247,0.5596616095507025 1.5694694407535472,1.0393715605941616 2.312902333742069,1.5190815116376206 c0.49562192865901494,0.39975829253621603 1.239054821647537,0.3198066340289729 1.6520730955300493,-0.23985497552172969 c0.4130182738825125,-0.47970995104345937 0.3304146191060101,-1.199274877608648 -0.2478109643295074,-1.599033170144864 c-1.3216584764240396,-0.9594199020869183 -2.8085242624010838,-1.838888145666593 -4.2953900483781275,-2.878259706260755 c-3.882371774495616,-2.718356389246268 -5.286633905696158,-5.75651941252151 -7.599536239438226,-11.433087166535778 c-1.404262131200542,-3.3579696573042144 -3.964975429272118,-4.557244534912863 -5.864859489131675,-4.957002827449078 c-1.9824877146360589,-0.39975829253621603 -3.717164464942611,-0.07995165850724323 -3.799768119719113,-0.07995165850724323 c-0.49562192865901494,0.07995165850724323 -0.9086402025415274,0.5596616095507025 -0.9086402025415274,1.1193232191014046 c0,0.6396132680579455 0,52.76809461478051 0,54.047321150896394 c0,2.2386464382028097 1.899884059859557,3.9975829253621598 4.130182738825123,3.9975829253621598 c1.7346767503065519,0 72.11299061988665,0 73.18683813198118,0 c0.6608292382120201,0 1.1564511668710344,-0.47970995104345937 1.1564511668710344,-1.1193232191014046 C89.2379346599881,84.15076356846954 88.7423127313291,83.6710536174261 88.08148349311705,83.6710536174261 zM14.89464536113588,83.6710536174261 c-0.9912438573180297,0 -1.8172804050830547,-0.7995165850724317 -1.8172804050830547,-1.7589364871593502 V69.75946503716577 c11.151493394827833,-2.078743121188323 21.889968515773155,4.157486242376646 25.68973663549227,13.911588580260315 L14.89464536113588,83.6710536174261 L14.89464536113588,83.6710536174261 zM41.16260758006366,83.6710536174261 c-0.5782255834355174,-1.599033170144864 -1.404262131200542,-3.3579696573042144 -2.3955059885185714,-4.957002827449078 c8.673383751532759,-3.837679608347673 19.16404790814857,-2.078743121188323 26.020151254598275,4.957002827449078 C63.71340533404883,83.6710536174261 42.3190587469347,83.6710536174261 41.16260758006366,83.6710536174261 zM82.7122459326444,83.6710536174261 l-5.121426596143153,0 l0,-3.677776291333186 c0,-0.6396132680579455 -0.49562192865901494,-1.1193232191014046 -1.1564511668710344,-1.1193232191014046 s-1.1564511668710344,0.47970995104345937 -1.1564511668710344,1.1193232191014046 l0,3.677776291333186 c-0.3304146191060101,0 -5.947463143908178,0 -6.195274108237685,0 c0,-9.114489069825725 -0.08260365477650254,-8.714730777289509 0.2478109643295074,-9.034537411318482 c0.16520730955300503,-0.15990331701448646 0.3304146191060101,-0.23985497552172969 0.5782255834355174,-0.23985497552172969 c4.956219286590148,0 4.873615631813646,-0.07995165850724323 5.204030250919655,0.23985497552172969 c0.3304146191060101,0.3198066340289729 0.2478109643295074,0.47970995104345937 0.2478109643295074,1.9188398041738366 c0,0.6396132680579455 0.49562192865901494,1.1193232191014046 1.1564511668710344,1.1193232191014046 c0.6608292382120201,0 1.1564511668710344,-0.47970995104345937 1.1564511668710344,-1.1193232191014046 l0,-1.3591781946231345 c0,-1.6789848286521076 -1.404262131200542,-3.0381630232752412 -3.1389388815070935,-3.0381630232752412 c0,0 -4.625804667484138,0 -4.625804667484138,0 c-1.7346767503065519,0 -3.1389388815070935,1.3591781946231345 -3.1389388815070935,3.0381630232752412 l0,7.27560092415913 c-1.4868657859770447,-1.599033170144864 -3.221542536283596,-3.0381630232752412 -5.03882294136665,-4.157486242376646 l0,-10.393715605941615 l10.490664156615813,-10.23381228892713 L82.7122459326444,67.92057689149918 L82.7122459326444,83.6710536174261 z" id="svg_7"/>
			<path fill="#009688" stroke="#009688" d="M29.019870327917804,40.65706134052925 c1.8172804050830547,1.3591781946231345 4.708408322260641,2.3185980967100526 6.856103346449705,1.1193232191014046 c2.973731571954089,-1.599033170144864 1.899884059859557,-2.9582113647679984 2.643316952848079,-4.317389559391133 c0.3304146191060101,-0.6396132680579455 0.4130182738825125,-1.199274877608648 0.16520730955300503,-1.6789848286521076 c-0.3304146191060101,-0.7995165850724317 -1.0738475120945319,-1.199274877608648 -1.8172804050830547,-1.4391298531303778 c-0.9086402025415274,-0.39975829253621603 -1.239054821647537,-0.5596616095507025 -1.3216584764240396,-1.199274877608648 c-0.08260365477650254,-0.9594199020869183 -0.7434328929885223,-1.599033170144864 -1.7346767503065519,-1.9188398041738366 c-1.7346767503065519,-0.5596616095507025 -4.4605973579311335,0.15990331701448646 -5.864859489131675,1.6789848286521076 c-1.0738475120945319,1.1193232191014046 -1.3216584764240396,2.4785014137245387 -0.8260365477650247,3.7577279498404303 C28.772059363588294,40.49715802351477 28.68945570881179,40.41720636500752 29.019870327917804,40.65706134052925 zM30.341528804341838,33.86117036741358 c1.3216584764240396,-0.7995165850724317 2.725920607624581,-0.719564926565189 2.973731571954089,-0.47970995104345937 c0,0 0,0 0,0 c0.2478109643295074,2.1586947796955664 2.312902333742069,2.718356389246268 3.1389388815070935,3.1181146817824845 c-0.4130182738825125,0.7995165850724317 -0.49562192865901494,1.4391298531303778 -0.49562192865901494,1.9188398041738366 c-0.08260365477650254,0.6396132680579455 -0.08260365477650254,0.7995165850724317 -1.1564511668710344,1.4391298531303778 c-1.404262131200542,0.7995165850724317 -3.4693535006131038,-0.3198066340289729 -4.130182738825123,-0.7995165850724317 L29.35028494702381,35.78001017158742 C29.019870327917804,35.06044524502222 29.35028494702381,34.42083197696429 30.341528804341838,33.86117036741358 z" id="svg_8"/>
			<path fill="#009688" stroke="#009688" d="M47.85350361696036,45.614064167978334 c0.4130182738825125,0.23985497552172969 0.9912438573180297,0.39975829253621603 1.4868657859770447,0.23985497552172969 c1.239054821647537,-0.3198066340289729 1.404262131200542,-1.838888145666593 1.899884059859557,-1.838888145666593 c2.478109643295074,-0.07995165850724323 2.643316952848079,-3.677776291333186 0.9086402025415274,-5.516664436999781 c-0.7434328929885223,-0.8794682435796753 -1.899884059859557,-1.199274877608648 -2.973731571954089,-0.8794682435796753 l-2.5607132980715765,0.719564926565189 c-0.16520730955300503,0.07995165850724323 -0.4130182738825125,0.15990331701448646 -0.49562192865901494,0.3198066340289729 c-0.08260365477650254,0.07995165850724323 -2.312902333742069,2.4785014137245387 -1.239054821647537,4.797099510434593 C45.8710159023243,45.69401582648558 47.02746706919533,45.214305875442115 47.85350361696036,45.614064167978334 zM47.605692652630864,40.41720636500752 l2.2302986789655668,-0.6396132680579455 c0.16520730955300503,-0.07995165850724323 0.3304146191060101,-0.07995165850724323 0.6608292382120201,0.23985497552172969 c0.4130182738825125,0.5596616095507025 0.49562192865901494,1.4391298531303778 0.4130182738825125,1.7589364871593502 c-1.3216584764240396,0.15990331701448646 -1.9824877146360589,1.1193232191014046 -2.312902333742069,1.6789848286521076 c-1.3216584764240396,-0.6396132680579455 -1.239054821647537,0 -1.7346767503065519,-0.9594199020869183 C46.614448795312825,41.936287876645146 47.19267437874834,40.97686797455822 47.605692652630864,40.41720636500752 z" id="svg_9"/>
			<path fill="#009688" stroke="#009688" d="M48.431729200395885,51.21068026348536 c-3.799768119719113,1.0393715605941616 -3.634560810166109,0.9594199020869183 -3.964975429272118,1.2792265361158912 c-0.08260365477650254,0.15990331701448646 -2.973731571954089,3.1181146817824845 -1.6520730955300493,5.9963743880432405 c1.239054821647537,2.718356389246268 2.725920607624581,1.99879146268108 3.882371774495616,2.718356389246268 c0.49562192865901494,0.3198066340289729 1.0738475120945319,0.47970995104345937 1.6520730955300493,0.3198066340289729 c1.5694694407535472,-0.39975829253621603 1.5694694407535472,-2.4785014137245387 2.643316952848079,-2.4785014137245387 C55.20522889206907,58.96599113868794 53.47055214176253,49.77155041035497 48.431729200395885,51.21068026348536 zM50.909838843690956,56.80729635899238 c-2.0650913694125617,0.07995165850724323 -2.725920607624581,1.6789848286521076 -3.221542536283596,2.4785014137245387 c-0.6608292382120201,-0.39975829253621603 -1.239054821647537,-0.47970995104345937 -1.6520730955300493,-0.5596616095507025 c-0.5782255834355174,-0.07995165850724323 -0.7434328929885223,-0.15990331701448646 -1.1564511668710344,-1.0393715605941616 c-0.5782255834355174,-1.199274877608648 0.5782255834355174,-2.798308047753512 1.0738475120945319,-3.3579696573042144 l3.1389388815070935,-0.8794682435796753 C50.744631534137945,52.88966509213747 51.405460772349976,56.167683090934425 50.909838843690956,56.80729635899238 z" id="svg_10"/>
			<path fill="#009688" stroke="#009688" d="M58.096356809246664,49.051985483789785 c0.2478109643295074,-0.9594199020869183 -1.0738475120945319,-1.2792265361158912 -1.0738475120945319,-1.99879146268108 c0,-0.719564926565189 -0.9086402025415274,-1.199274877608648 -1.8172804050830547,-0.719564926565189 c-0.9086402025415274,0.47970995104345937 -0.9086402025415274,2.9582113647679984 0.9912438573180297,3.1980663402897282 C56.19647274938711,49.611647093340494 57.84854584491716,50.01140538587671 58.096356809246664,49.051985483789785 z" id="svg_11"/>
			<path fill="#009688" stroke="#009688" d="M24.476669315210167,29.14402251548623 c0,0 1.7346767503065519,0.47970995104345937 1.899884059859557,-0.47970995104345937 c0.2478109643295074,-0.9594199020869183 -1.0738475120945319,-1.2792265361158912 -1.0738475120945319,-1.99879146268108 c0,-0.719564926565189 -0.9086402025415274,-1.199274877608648 -1.8172804050830547,-0.719564926565189 C22.659388910127106,26.34571446773272 22.576785255350607,28.824215881457263 24.476669315210167,29.14402251548623 z" id="svg_12"/>
			<path fill="#009688" stroke="#009688" d="M50.99244249846746,65.60197879478912 c0,-0.719564926565189 -0.9086402025415274,-1.199274877608648 -1.8172804050830547,-0.719564926565189 c-0.9086402025415274,0.47970995104345937 -0.9086402025415274,2.9582113647679984 0.9912438573180297,3.1980663402897282 c0,0 1.7346767503065519,0.47970995104345937 1.899884059859557,-0.47970995104345937 C52.31410097489149,66.6413503553833 51.07504615324395,66.32154372135432 50.99244249846746,65.60197879478912 z" id="svg_13"/>
			<path fill="#009688" stroke="#009688" d="M57.60073488058766,55.9278281154127 c0.49562192865901494,0.23985497552172969 1.0738475120945319,-0.15990331701448646 1.0738475120945319,-0.8794682435796753 c0,-0.719564926565189 -1.5694694407535472,-1.5190815116376206 -2.3955059885185714,-0.47970995104345937 c0,0 -0.8260365477650247,0.8794682435796753 -0.2478109643295074,1.3591781946231345 C56.52688736849312,56.40753806645616 57.10511295192864,55.68797313989098 57.60073488058766,55.9278281154127 z" id="svg_14"/>
			<path fill="#009688" stroke="#009688" d="M32.076205554648396,23.78726139550094 h5.7822558343551735 c0.5782255834355174,0 1.0738475120945319,-0.47970995104345937 1.1564511668710344,-1.0393715605941616 c0.2478109643295074,-2.5584530722317824 3.4693535006131038,-3.7577279498404303 5.36923756047266,-1.99879146268108 c0.8260365477650247,0.719564926565189 2.0650913694125617,0.07995165850724323 1.899884059859557,-0.9594199020869183 c-0.3304146191060101,-1.99879146268108 1.3216584764240396,-3.837679608347673 3.386749845836601,-3.837679608347673 c2.0650913694125617,0 3.717164464942611,1.838888145666593 3.386749845836601,3.837679608347673 c-0.16520730955300503,0.9594199020869183 0.9086402025415274,1.599033170144864 1.7346767503065519,1.1193232191014046 c2.147695024189064,-1.199274877608648 4.956219286590148,-0.23985497552172969 5.7822558343551735,1.99879146268108 c0.16520730955300503,0.47970995104345937 0.5782255834355174,0.719564926565189 1.0738475120945319,0.719564926565189 h14.373035931111428 c0.6608292382120201,0 1.1564511668710344,-0.47970995104345937 1.1564511668710344,-1.1193232191014046 S76.76478278873624,21.548614957298128 76.1039535505242,21.548614957298128 H62.474350512401294 c-1.3216584764240396,-2.4785014137245387 -4.212786393601625,-3.837679608347673 -7.103914310779212,-3.1181146817824845 c-0.49562192865901494,-2.6384047307390257 -2.8085242624010838,-4.637196193420105 -5.6996521795786705,-4.637196193420105 c-2.725920607624581,0 -4.956219286590148,1.838888145666593 -5.6170485248021675,4.237437900883889 c-3.0563352267305914,-1.1193232191014046 -6.36048141779069,0.5596616095507025 -7.269121620332218,3.517872974318701 h-4.791011977037143 c-0.6608292382120201,0 -1.1564511668710344,0.47970995104345937 -1.1564511668710344,1.1193232191014046 C30.919754387777353,23.307551444457477 31.497979971212878,23.78726139550094 32.076205554648396,23.78726139550094 z" id="svg_15"/>
			<path fill="#009688" stroke="#009688" d="M75.27791700275917,29.943539100558663 h-4.956219286590148 c-0.6608292382120201,0 -1.1564511668710344,0.47970995104345937 -1.1564511668710344,1.1193232191014046 c0,0.6396132680579455 0.49562192865901494,1.1193232191014046 1.1564511668710344,1.1193232191014046 h5.947463143908178 c0.5782255834355174,0 1.0738475120945319,-0.47970995104345937 1.1564511668710344,-1.0393715605941616 c0.2478109643295074,-2.5584530722317824 3.386749845836601,-3.7577279498404303 5.36923756047266,-1.9188398041738366 c0.3304146191060101,0.3198066340289729 0.9086402025415274,0.39975829253621603 1.3216584764240396,0.15990331701448646 c0.4130182738825125,-0.23985497552172969 0.6608292382120201,-0.6396132680579455 0.5782255834355174,-1.1193232191014046 c-0.3304146191060101,-1.99879146268108 1.3216584764240396,-3.7577279498404303 3.386749845836601,-3.7577279498404303 c0.6608292382120201,0 1.1564511668710344,-0.47970995104345937 1.1564511668710344,-1.1193232191014046 s-0.49562192865901494,-1.1193232191014046 -1.1564511668710344,-1.1193232191014046 c-2.725920607624581,0 -4.956219286590148,1.838888145666593 -5.5344448700256645,4.237437900883889 C79.49070339636081,25.306342907138557 76.18655720530072,26.98532773579067 75.27791700275917,29.943539100558663 z" id="svg_16"/>
			<path fill="#009688" stroke="#009688" d="M60.49186279776524,13.073739155530351 c1.899884059859557,-1.838888145666593 5.204030250919655,-0.5596616095507025 5.36923756047266,1.99879146268108 c0.08260365477650254,0.5596616095507025 0.5782255834355174,1.0393715605941616 1.1564511668710344,1.0393715605941616 h8.260365477650247 c0.6608292382120201,0 1.1564511668710344,-0.47970995104345937 1.1564511668710344,-1.1193232191014046 c0,-0.6396132680579455 -0.49562192865901494,-1.1193232191014046 -1.1564511668710344,-1.1193232191014046 h-7.269121620332218 c-1.1564511668710344,-3.837679608347673 -6.112670453461183,-5.116906144463565 -9.086402025415271,-2.398549755217296 c-0.49562192865901494,0.39975829253621603 -0.49562192865901494,1.1193232191014046 0,1.599033170144864 C59.25280797611771,13.473497448066567 59.99624086910623,13.473497448066567 60.49186279776524,13.073739155530351 z" id="svg_17"/>
			<path fill="#009688" stroke="#009688" d="M79.24289243203131,16.03195052029835 h2.2302986789655668 c0.6608292382120201,0 1.1564511668710344,-0.47970995104345937 1.1564511668710344,-1.1193232191014046 s-0.49562192865901494,-1.1193232191014046 -1.1564511668710344,-1.1193232191014046 h-2.2302986789655668 c-0.6608292382120201,0 -1.1564511668710344,0.47970995104345937 -1.1564511668710344,1.1193232191014046 C78.08644126516026,15.55224056925489 78.58206319381927,16.03195052029835 79.24289243203131,16.03195052029835 z" id="svg_18"/>
		</g>
	</svg>