<?xml version="1.0" encoding="utf-8"?>
<!-- Generator: Adobe Illustrator 22.0.1, SVG Export Plug-In . SVG Version: 6.00 Build 0)  -->
<svg version="1.1" id="Layer_1" xmlns="http://www.w3.org/2000/svg" xmlns:xlink="http://www.w3.org/1999/xlink" x="0px" y="0px"
	 viewBox="0 0 100 100" style="enable-background:new 0 0 100 100;" xml:space="preserve">
<style type="text/css">
	.st0{fill:#009688;}
	.st1{fill:#009688;}
</style>
<g>
	<g>
		<g>
			<path class="st0" d="M13,50.5c-0.5,0-1-0.2-1.3-0.7c-0.5-0.7-0.4-1.7,0.3-2.3l38.3-28.2l38.3,28.2l-1.9,2.6L50.3,23.5L14,50.2
				C13.7,50.4,13.4,50.5,13,50.5z"/>
		</g>
	</g>
	<g>
		<g>
			<g>
				<path class="st1" d="M58.4,55.4c-0.1,0-0.2,0-0.3,0c-0.7,0.1-1.4,0.2-2.1,0.3c-1.9,0.2-3.8,0.4-5.7,0.3c-0.7,0-1.3-0.1-1.9-0.6
					c0.1,0.2,0.1,0.4,0.1,0.6c-1.4,0-2.7,0-4.1,0c0-0.1,0-0.3,0-0.4c-0.1,0-0.2,0.1-0.2,0.2c-0.1,0.3-0.2,0.4-0.5,0.4
					c-0.1,0-0.3,0-0.4,0c-1,0-2,0-3.1,0c-0.1,0-0.2-0.1-0.3-0.1c-0.1,0-0.1-0.1-0.2-0.1c-0.3,0-0.4,0.2-0.4,0.7c4.5,0,8.9,0,13.4,0
					c0,1.1,0,2.2,0,3.4c-1.3,0-2.5,0-3.7,0c0,4.6,0,9.2,0,13.8c0.4-2.4,1.1-4.6,2.3-6.7c0.8-1.5,1.9-2.8,3.2-3.9
					c1.3-1.1,2.8-2,4.4-2.6c0.2-0.1,0.2-0.2,0.2-0.3c-0.1-1-0.3-2-0.4-3C58.6,56.7,58.5,56.1,58.4,55.4z"/>
			</g>
		</g>
		<g>
			<g>
				<path class="st1" d="M50.3,27.1L50.3,27.1L19.5,49.8v30.8h61.6V49.8L50.3,27.1z M59.5,40.3c2.1,0.1,3.8,1.8,3.8,3.9
					c-0.1,2-1.8,3.7-3.8,3.7c-2.1,0-3.8-1.8-3.8-3.9C55.7,41.9,57.5,40.2,59.5,40.3z M35.6,53.1c0-0.1,0-0.2,0-0.3
					c0.2,0,0.3,0,0.5,0c-0.2-2.3-0.3-4.7-0.5-7c0.5,0,1.1-0.1,1.6-0.1c0.2,2.9,0.4,5.8,0.6,8.8c-0.5,0-1.1,0.1-1.6,0.1
					c0-0.5-0.1-1-0.1-1.5c0,0,0,0-0.1,0c0,0.1,0,0.3,0,0.4c0,0.7,0,1.5,0,2.2c0,0.3,0.1,0.4,0.3,0.4c0.4,0,0.8,0,1.2,0
					c0.1,0.5,0.1,0.5-0.3,0.5c-0.4,0-0.8,0-1.1-0.1c-0.4-0.1-0.6-0.3-0.6-0.8C35.6,54.8,35.6,54,35.6,53.1z M54.2,72.5
					c-0.1,0.6-0.2,1.2-0.4,1.8c-0.4,2-2.8,2.5-4,1.8c-0.4-0.3-0.6-0.6-0.9-1.1c0,0.4,0,0.9,0,1.3c-5.1,0-10.1,0-15.2,0
					c0-5.4,0-10.8,0-16.2c-0.7,0-1.4,0-2.1,0c0-1.1,0-2.3,0-3.4c0.1,0,0.2,0,0.3,0c2.3,0,4.5,0,6.8,0c0.3,0,0.4-0.1,0.4-0.3
					c0-0.1,0.1-0.3,0.3-0.4c0.1-0.1,0.5,0,0.5-0.3c0,0,0.1,0,0.1,0c1.2,0,2.5,0,3.8,0c0,0.2,0,0.3,0,0.6c0.1-0.1,0.2-0.1,0.2-0.2
					c0.1-0.4,0.3-0.5,0.7-0.5c0.4,0,0.5-0.1,0.6-0.5c0-0.1,0.1-0.1,0.2-0.1c0.9-0.3,1.7-0.1,2.5,0.5c-0.1-0.3-0.2-0.5-0.3-0.8
					c-0.2-1,0.3-2,1.2-2.2c0.3-0.1,0.6-0.1,0.9-0.1c1.5-0.1,3.1-0.1,4.6-0.2c1-0.1,2.1-0.3,3.1-0.4c0.2,0,0.3-0.1,0.3-0.3
					c0.1-1.8,1.4-2.9,3-3c1.2-0.1,2.2,0.2,3.1,0.9c0.7,0.6,1.1,1.4,1.1,2.3c0.1,2.4,0.6,4.8,1,7.2c0.1,1,0.2,2,0.2,3
					c0,1.6-1.2,2.8-3,3.1c-0.1,0-0.3,0.1-0.4,0c-0.9-0.1-1.7,0.2-2.5,0.5c-1.3,0.5-2.5,1.2-3.5,2.2C55.6,68.9,54.7,70.6,54.2,72.5z
					 M68.8,65.5c-0.3,1-1.2,1.5-2.2,1.3c-0.5-0.1-1.1-0.2-1.6-0.3c-0.1,0-0.1,0-0.3,0c0,0.1,0,0.2,0,0.3c0,2.3,0,4.7,0,7
					c0,0.3,0.1,0.4,0.4,0.4c0.5,0,1,0,1.5,0c0.4,0,0.7,0.2,0.7,0.6c0.1,0.3-0.1,0.7-0.4,0.8c-0.1,0.1-0.3,0.1-0.4,0.1
					c-1.9,0-3.8,0-5.7,0c-0.5,0-0.8-0.3-0.8-0.7c0-0.4,0.3-0.7,0.8-0.8c0.6,0,1.1,0,1.7,0c0.2,0,0.3,0,0.3-0.2c0-2.4,0-4.8,0-7.2
					c0,0,0-0.1,0-0.2c-0.7,0.2-1.3,0.3-1.9,0.5c-0.7,0.2-1.5,0.5-2.2,0.8c-0.1,0-0.1,0.1-0.2,0.1c-0.2,0.1-0.5,0-0.6-0.2
					c-0.1-0.2,0-0.5,0.2-0.6c0.8-0.3,1.6-0.7,2.4-1c1.4-0.5,2.8-0.7,4.3-0.6c0.6,0,1.1,0.2,1.7,0.3c1,0.3,1.5-0.1,1.5-1.1
					c0-1-0.1-2-0.3-2.9c-0.3-2.6-0.4-5.1-0.4-7.7c0-1.2,0.1-2.5,0.1-3.7c0-0.1,0-0.1,0-0.2c0-0.3,0.2-0.5,0.5-0.5
					c0.3,0,0.5,0.2,0.5,0.5c0,0.8,0,1.5,0,2.3c0,2.4-0.1,4.8,0.1,7.2c0.1,1.4,0.3,2.8,0.5,4.2C69,64.4,69,64.9,68.8,65.5z"/>
			</g>
		</g>
	</g>
</g>
</svg>
