<?xml version="1.0" encoding="utf-8"?>
<!-- Generator: Adobe Illustrator 22.0.1, SVG Export Plug-In . SVG Version: 6.00 Build 0)  -->
<svg version="1.1" id="Layer_1" xmlns="http://www.w3.org/2000/svg" xmlns:xlink="http://www.w3.org/1999/xlink" x="0px" y="0px"
	 viewBox="0 0 100 100" style="enable-background:new 0 0 100 100;" xml:space="preserve">
<style type="text/css">
	.st0{fill:#009688;}
	.st1{fill:#009688;}
</style>
<g>
	<path class="st0" d="M40.7,23.4H24.5c-2.5,0-4.5,2-4.5,4.5v16.2c0,2.5,2,4.5,4.5,4.5h16.2c2.5,0,4.5-2,4.5-4.5V27.9
		C45.2,25.4,43.2,23.4,40.7,23.4z"/>
	<path class="st1" d="M78.7,32.8L67.2,21.3c-1.8-1.8-4.6-1.8-6.4,0L49.4,32.8c-1.8,1.8-1.8,4.6,0,6.4l11.5,11.5
		c1.8,1.8,4.6,1.8,6.4,0l11.5-11.5C80.4,37.4,80.4,34.5,78.7,32.8z"/>
	<path class="st0" d="M40.7,54.8H24.5c-2.5,0-4.5,2-4.5,4.5v16.2c0,2.5,2,4.5,4.5,4.5h16.2c2.5,0,4.5-2,4.5-4.5V59.3
		C45.2,56.8,43.2,54.8,40.7,54.8z"/>
	<path class="st0" d="M72.1,54.8H55.9c-2.5,0-4.5,2-4.5,4.5v16.2c0,2.5,2,4.5,4.5,4.5h16.2c2.5,0,4.5-2,4.5-4.5V59.3
		C76.6,56.8,74.6,54.8,72.1,54.8z"/>
</g>
</svg>
