<?xml version="1.0" encoding="utf-8"?>
<!-- Generator: Adobe Illustrator 22.0.1, SVG Export Plug-In . SVG Version: 6.00 Build 0)  -->
<svg version="1.1" id="Layer_1" xmlns="http://www.w3.org/2000/svg" xmlns:xlink="http://www.w3.org/1999/xlink" x="0px" y="0px"
	 viewBox="0 0 100 100" style="enable-background:new 0 0 100 100;" xml:space="preserve">
<style type="text/css">
	.st0{fill:none;}
	.st1{fill:#009688;}
	.st2{fill:#009688;}
</style>
<g>
	<g>
		<g>
			<path class="st0" d="M67.6,34.6V32v-1.3c0-0.5-0.2-1-0.6-1.4c-0.4-0.4-0.9-0.6-1.4-0.6h-3.9v5.9h-3.9v-5.9H34.4v5.9h-3.9v-5.9
				h-5.9c-0.5,0-1,0.2-1.4,0.6c-0.4,0.4-0.6,0.9-0.6,1.4v1.3v2.6v5.9h45V34.6z"/>
		</g>
	</g>
	<g>
		<g>
			<path class="st1" d="M24.6,69.8L24.6,69.8c-0.5,0-1-0.2-1.4-0.6c-0.4-0.4-0.6-0.9-0.6-1.4V44.3h45.2c1.3,0.2,2.5,0.5,3.6,1v-1
				v-3.9v-9.8c0-1.6-0.6-3-1.7-4.2c-1.1-1.1-2.6-1.7-4.2-1.7h-3.9v-4.3h-3.9v4.3H34.4v-4.3h-3.9v4.3h-5.9c-1.6,0-3,0.6-4.2,1.7
				c-1.1,1.1-1.7,2.6-1.7,4.2v37.2c0,1.6,0.6,3,1.7,4.2c1.1,1.1,2.6,1.7,4.2,1.7h24.8c-0.9-1.2-1.7-2.5-2.3-3.9H24.6z M22.6,34.6
				v-2.6v-1.3c0-0.5,0.2-1,0.6-1.4c0.4-0.4,0.9-0.6,1.4-0.6h5.9v5.9h3.9v-5.9h23.5v5.9h3.9v-5.9h3.9c0.5,0,1,0.2,1.4,0.6
				c0.4,0.4,0.6,0.9,0.6,1.4V32v2.6v5.8h-45V34.6z"/>
		</g>
	</g>
	<polygon class="st1" points="43.9,48.3 41.6,53.9 35.4,54.4 40,58.5 38.7,64.4 43.9,61.2 49.2,64.4 47.9,58.5 52.5,54.4 46.3,53.9 
			"/>
	<path class="st2" d="M65.6,48.3c-8.6,0-15.6,7-15.6,15.6c0,8.6,7,15.6,15.6,15.6s15.6-7,15.6-15.6C81.3,55.3,74.3,48.3,65.6,48.3z
		 M63.7,71.5L56,63.8l3.6-3.6l4.1,4.1l8-8l3.6,3.6L63.7,71.5z"/>
</g>
</svg>
