<?xml version="1.0" encoding="utf-8"?>
<!-- Generator: Adobe Illustrator 22.0.1, SVG Export Plug-In . SVG Version: 6.00 Build 0)  -->
<svg version="1.1" id="Layer_1" xmlns="http://www.w3.org/2000/svg" xmlns:xlink="http://www.w3.org/1999/xlink" x="0px" y="0px"
	 viewBox="0 0 100 100" style="enable-background:new 0 0 100 100;" xml:space="preserve">
<style type="text/css">
	.st0{fill:#009688;}
	.st1{fill:#009688;}
</style>
<g>
	<g>
		<g>
			<path class="st0" d="M83.1,49.7H68.5H53.8c0-1.3,0.1-2.3,0.2-3c0.2-1,2.3-2.3,6.2-3.7c0.6-0.2,1.3-0.5,2.2-0.8
				c1.2-0.4,1.9-0.7,2.1-1c0.2-0.2,0.3-0.9,0.3-2c0-0.2,0-0.4,0-0.5c0-0.6-0.2-1.2-0.7-1.8c-0.5-0.6-0.8-1.6-1.1-3.1
				c-0.1-0.5-0.3-0.9-0.5-1.2c-0.2-0.3-0.4-0.9-0.6-1.8c-0.2-0.5-0.2-0.9,0-1.3s0.2-0.7,0.2-0.8c-0.1-0.8-0.2-1.7-0.3-2.5
				c-0.1-1.2,0.4-2.4,1.5-3.8c1.1-1.3,2.8-2,5.2-2c2.3,0,4.1,0.7,5.2,2c1.1,1.3,1.6,2.6,1.5,3.8c-0.1,0.9-0.2,1.7-0.3,2.5
				c0,0.1,0.1,0.4,0.2,0.8s0.1,0.8,0,1.3c-0.2,0.9-0.4,1.5-0.6,1.8c-0.2,0.3-0.4,0.7-0.5,1.2c-0.3,1.5-0.6,2.5-1.1,3.1
				c-0.5,0.6-0.7,1.2-0.7,1.8c0,1.5,0.2,2.4,0.5,2.6c0.1,0.1,1.3,0.6,3.7,1.4c0.1,0.1,0.2,0.1,0.4,0.2c3.9,1.5,6,2.7,6.2,3.7
				L83.1,49.7z"/>
		</g>
	</g>
	<g>
		<g>
			<path class="st0" d="M47,79.2H32.3H17.7c0-1.3,0.1-2.3,0.2-3c0.2-1,2.3-2.3,6.2-3.7c0.6-0.2,1.3-0.5,2.2-0.8
				c1.2-0.4,1.9-0.7,2.1-1c0.2-0.2,0.3-0.9,0.3-2c0-0.2,0-0.4,0-0.5c0-0.6-0.2-1.2-0.7-1.8c-0.5-0.6-0.8-1.6-1.1-3.1
				c-0.1-0.5-0.3-0.9-0.5-1.2c-0.2-0.3-0.4-0.9-0.6-1.8c-0.2-0.5-0.2-0.9,0-1.3c0.1-0.4,0.2-0.7,0.2-0.8c-0.1-0.8-0.2-1.7-0.3-2.5
				c-0.1-1.2,0.4-2.4,1.5-3.8c1.1-1.3,2.8-2,5.2-2s4.1,0.7,5.2,2c1.1,1.3,1.6,2.6,1.5,3.8c-0.1,0.9-0.2,1.7-0.3,2.5
				c0,0.1,0.1,0.4,0.2,0.8c0.1,0.4,0.1,0.8,0,1.3c-0.2,0.9-0.4,1.5-0.6,1.8s-0.4,0.7-0.5,1.2c-0.3,1.5-0.6,2.5-1.1,3.1
				s-0.7,1.2-0.7,1.8c0,1.5,0.2,2.4,0.5,2.6c0.1,0.1,1.3,0.6,3.7,1.4c0.1,0.1,0.2,0.1,0.4,0.2c3.9,1.5,6,2.7,6.2,3.7L47,79.2z"/>
		</g>
	</g>
	<g>
		<g>
			<path class="st1" d="M52.6,34c-0.4,0-0.8-0.2-1-0.6c-0.4-0.6-0.2-1.3,0.4-1.7l5.6-3.6L54,22.6c-0.4-0.6-0.2-1.3,0.4-1.7
				c0.6-0.4,1.3-0.2,1.7,0.4l4.3,6.7c0.4,0.6,0.2,1.3-0.4,1.7l-6.7,4.3C53.1,34,52.8,34,52.6,34z"/>
		</g>
	</g>
	<g>
		<g>
			<path class="st1" d="M56,80.8c-0.2,0-0.5-0.1-0.7-0.2l-6.7-4.3c-0.6-0.4-0.7-1.1-0.4-1.7l4.3-6.7c0.4-0.6,1.1-0.7,1.7-0.4
				c0.6,0.4,0.7,1.1,0.4,1.7L51.1,75l5.6,3.6c0.6,0.4,0.7,1.1,0.4,1.7C56.8,80.6,56.4,80.8,56,80.8z"/>
		</g>
	</g>
	<g>
		<g>
			<g>
				<path class="st1" d="M25.6,48.9c-0.1,0-0.1,0-0.2,0c-0.7-0.1-1.1-0.7-1-1.4c1.2-8.3,6.3-15.6,13.8-19.4
					c6.7-3.4,14.5-3.6,21.5-0.6c0.6,0.3,0.9,1,0.6,1.6c-0.3,0.6-1,0.9-1.6,0.6c-6.3-2.7-13.4-2.5-19.5,0.6
					c-6.8,3.4-11.5,10-12.5,17.5C26.7,48.4,26.2,48.9,25.6,48.9z"/>
			</g>
		</g>
		<g>
			<g>
				<path class="st1" d="M49.8,76.5c-0.2,0-0.3,0-0.5,0c-0.7,0-1.2-0.6-1.2-1.2c0-0.7,0.6-1.3,1.2-1.2c3.8,0,7.4-0.8,10.8-2.4
					c7.3-3.7,12.1-11,12.7-19.2c0-0.7,0.7-1.2,1.3-1.1c0.7,0,1.2,0.6,1.1,1.3c-0.6,9.1-5.9,17.2-14,21.3
					C57.7,75.6,53.9,76.5,49.8,76.5z"/>
			</g>
		</g>
	</g>
</g>
</svg>
