<svg xmlns="http://www.w3.org/2000/svg" xmlns:xlink="http://www.w3.org/1999/xlink" version="1.1" style="enable-background:new 0 0 200 200;" xml:space="preserve" width="100" height="100"><rect id="backgroundrect" width="100%" height="100%" x="0" y="0" fill="none" stroke="none" class="" style=""/>
<style type="text/css">
	.st0{fill:#009688;}
	.st1{fill:#009688;}
	.st2{fill:#FFFFFF;}
</style>

<g class="currentLayer" style=""><title>Layer 1</title><g id="svg_1" class="">
	<path class="st0" d="M75.4385348730238,19.54047088242779 H43.43328162009914 c-2.3265115331202613,0 -4.275750925734533,1.7578308392638828 -4.275750925734533,3.9844165689981317 v60.17640906413355 c0,2.1679913684254544 1.8863607025299418,3.9844165689981317 4.275750925734533,3.9844165689981317 h32.00525325292467 c2.3265115331202613,0 4.275750925734533,-1.7578308392638828 4.275750925734533,-3.9844165689981317 V23.524887451425915 C79.71428579875834,21.298301721691672 77.82792509622841,19.54047088242779 75.4385348730238,19.54047088242779 zM63.05143292641053,85.63491043874973 h-7.293928049782439 c-0.9431803512649706,0 -1.6977246322769481,-0.7031323357055524 -1.6977246322769481,-1.582047755337494 c0,-0.8789154196319406 0.7545442810119766,-1.582047755337494 1.6977246322769481,-1.582047755337494 h7.293928049782439 c0.9431803512649706,0 1.6977246322769481,0.7031323357055524 1.6977246322769481,1.582047755337494 C64.74915755868747,84.93177810304418 63.9946132776755,85.63491043874973 63.05143292641053,85.63491043874973 zM78.70822675740904,77.31451113290069 c0,1.9336139231902698 -1.6977246322769481,3.5156616785277635 -3.7727214050598823,3.5156616785277635 H43.93631114077378 c-2.0749967727829355,0 -3.7727214050598823,-1.582047755337494 -3.7727214050598823,-3.5156616785277635 v-47.46143266012481 c0,-1.9336139231902698 1.6977246322769481,-3.5156616785277635 3.7727214050598823,-3.5156616785277635 h31.062072901659697 c2.0749967727829355,0 3.7727214050598823,1.582047755337494 3.7727214050598823,3.5156616785277635 V77.31451113290069 z" id="svg_2"/>
	<path class="st1" d="M54.62568845511011,8.759108401609316 L18.973471177294236,17.138102068767154 c-1.509088562023953,0.351566167852777 -2.4522689132889233,1.8164252005726778 -2.0749967727829355,3.222689871983783 L22.243163061679468,39.98990297919761 c0.3772721405059888,1.4062646714111056 1.9492393926142726,2.285180091043046 3.4583279546382255,1.9336139231902698 L61.29082960404925,33.544523235230045 c1.509088562023953,-0.351566167852777 2.4522689132889233,-1.8164252005726778 2.0749967727829355,-3.222689871983783 L58.021137719664026,10.692722324799586 C57.643865579158046,9.286457653388482 56.134777017134084,8.407542233756539 54.62568845511011,8.759108401609316 zM56.38629177747142,15.966214842591228 L21.1113466401615,24.286614148440275 c-1.0060590413493018,0.23437744523518422 -2.0749967727829355,-0.351566167852777 -2.3265115331202613,-1.2890759487935133 c-0.2515147603373256,-0.9375097809407364 0.3772721405059888,-1.9336139231902698 1.3833311818552902,-2.1679913684254544 l35.2749451373099,-8.32039930584904 c1.0060590413493018,-0.23437744523518422 2.0749967727829355,0.351566167852777 2.3265115331202613,1.2890759487935133 C58.021137719664026,14.794327616415309 57.39235081882071,15.731837397356045 56.38629177747142,15.966214842591228 z" id="svg_3"/>
	<g id="svg_4">
		<path class="st0" d="M46.45145874414703,51.298614711795246 h7.105291979529446 l0.06287869008433143,-0.8203210583231452 c0.12575738016866286,-1.171887226175921 0.18863607025299436,-2.109397007116658 0.18863607025299436,-2.9883124267485988 c0,-1.2890759487935133 -0.12575738016866286,-2.578151897587027 -0.44015083059032006,-4.218794014233316 c-0.3772721405059888,-1.523453394028698 -0.8803016611806392,-2.8711237041310076 -1.509088562023953,-4.043010930306928 c-1.3833311818552902,-2.6367462588958226 -3.7098427149755513,-4.863331988630073 -6.79089852910779,-6.503974105276362 c-1.4462098719396221,-0.7617266970143491 -3.018177124047906,-1.4062646714111056 -4.6530230662405225,-1.8750195618814738 c0.314393450421657,0 0.6287869008433146,0 0.9431803512649706,0 c1.4462098719396221,0 2.829541053794912,0.1171887226175922 4.275750925734533,0.351566167852777 c3.898478785228545,0.6445379743967565 7.6712001902884275,2.343774452351842 10.43786255399901,4.7461432660124805 c1.4462098719396221,1.230481587484717 2.766662363710581,2.7539349815134146 4.024236165397208,4.4531714594685 c1.1318164215179647,1.7578308392638828 2.0749967727829355,3.5156616785277635 2.766662363710581,5.214898156482849 c0.6287869008433146,1.582047755337494 1.1946951116022961,3.222689871983783 1.6348459421926167,5.039115072556461 l0.18863607025299436,0.7031323357055524 h6.4136263886017995 l-12.324223256528951,13.593891823640684 L46.45145874414703,51.298614711795246 z" id="svg_5"/>
		<path class="st2" d="M46.07418660364106,32.13825856381894 c3.5212066447225556,0.6445379743967565 6.8537772191921205,2.226585729734249 9.431803512649706,4.4531714594685 c1.3833311818552902,1.171887226175921 2.640904983541917,2.6367462588958226 3.8356000951442137,4.277388375542112 c1.1318164215179647,1.7578308392638828 2.012118082698604,3.4570673172189674 2.640904983541917,5.097709433865256 c0.6287869008433146,1.523453394028698 1.1318164215179647,3.1055011493661913 1.5719672521082848,4.863331988630073 l0.3772721405059888,1.4648590327199018 h1.5719672521082848 h3.4583279546382255 L58.775682000676,63.42764750271603 l-10.123469103577353,-11.191523009980047 h4.024236165397208 h1.8234820124456097 l0.18863607025299436,-1.6992364779550857 c0.12575738016866286,-1.171887226175921 0.18863607025299436,-2.1679913684254544 0.18863607025299436,-3.0469067880573952 c0,-1.3476703101023093 -0.12575738016866286,-2.7539349815134146 -0.44015083059032006,-4.394577098159704 l0,-0.05859436130879613 l0,-0.05859436130879613 c-0.3772721405059888,-1.582047755337494 -0.8803016611806392,-2.9297180654398027 -1.5719672521082848,-4.218794014233316 C51.41887526080922,36.122675132817065 49.09236372768896,33.83749504177403 46.07418660364106,32.13825856381894 M41.421163537400524,29.853078472775906 c-2.3265115331202613,0 -4.59014437615619,0.2929718065439804 -6.728019839023456,0.8203210583231452 c3.584085334806888,0.2929718065439804 7.042413289445112,1.2890759487935133 9.934833033324358,2.8125293428222107 c2.892419743879243,1.582047755337494 5.093173896830841,3.691444762454152 6.4136263886017995,6.152407937423586 c0.6287869008433146,1.230481587484717 1.0689377314336335,2.5195575362782305 1.3833311818552902,3.8086334850717436 c0.2515147603373256,1.3476703101023093 0.44015083059032006,2.695340620204618 0.3772721405059888,4.043010930306928 c0,0.9375097809407364 -0.06287869008433143,1.9336139231902698 -0.18863607025299436,2.8711237041310076 H44.313583281279776 l14.462098719396215,15.937666275992527 l14.462098719396215,-15.937666275992527 h-7.734078880372759 c-0.44015083059032006,-1.6992364779550857 -0.9431803512649706,-3.4570673172189674 -1.6348459421926167,-5.097709433865256 c-0.7545442810119766,-1.8750195618814738 -1.6977246322769481,-3.691444762454152 -2.829541053794912,-5.390681240409236 c-1.1946951116022961,-1.6992364779550857 -2.578026293457586,-3.2812842332925785 -4.149993545565872,-4.628954543394888 c-3.2068131943008997,-2.7539349815134146 -7.168170669613776,-4.394577098159704 -11.00377076475799,-5.039115072556461 C44.376461971364115,29.911672834084683 42.867373409340175,29.853078472775906 41.421163537400524,29.853078472775906 L41.421163537400524,29.853078472775906 z" id="svg_6"/>
	</g>
</g></g></svg>