<svg xmlns="http://www.w3.org/2000/svg" xmlns:xlink="http://www.w3.org/1999/xlink" version="1.1" style="enable-background:new 0 0 100 100;" xml:space="preserve" width="100" height="100"><rect id="backgroundrect" width="100%" height="100%" x="0" y="0" fill="none" stroke="none"/>
<style type="text/css">
	.st0{fill:none;}
	.st1{fill:#009688;}
	.st2{fill:#009688;}
</style>

<g class="currentLayer" style=""><title>Layer 1</title><g id="svg_1" class="">
	<g id="svg_2">
		<g id="svg_3">
			<path class="st0" d="M70.02620982226416,66.79873995457295 c0,-1.8528924937360927 0,-3.582258821223112 0,-5.311625148710132 c-2.1041889553674866,0 -4.068098647043807,0 -6.032008338720127,0 c0,1.7293663274870208 0,3.582258821223112 0,5.311625148710132 C66.09839043891152,66.79873995457295 68.06230013058783,66.79873995457295 70.02620982226416,66.79873995457295 z" id="svg_4"/>
		</g>
	</g>
	<g id="svg_5">
		<g id="svg_6">
			<path class="st0" d="M35.37723169054621,66.79873995457295 c0,-1.7293663274870208 0,-3.582258821223112 0,-5.311625148710132 c-1.9639096916763221,0 -4.068098647043807,0 -6.032008338720127,0 c0,1.8528924937360927 0,3.582258821223112 0,5.311625148710132 C31.309133043502406,66.79873995457295 33.27304273517873,66.79873995457295 35.37723169054621,66.79873995457295 z" id="svg_7"/>
		</g>
	</g>
	<g id="svg_8">
		<g id="svg_9">
			<path class="st0" d="M27.942430714914426,61.48711480586283 c-2.1041889553674866,0 -4.068098647043807,0 -6.032008338720127,0 c0,1.7293663274870208 0,3.582258821223112 0,5.311625148710132 c2.1041889553674866,0 4.068098647043807,0 6.032008338720127,0 C27.942430714914426,64.94584746083686 27.942430714914426,63.21648113334983 27.942430714914426,61.48711480586283 z" id="svg_10"/>
		</g>
	</g>
	<g id="svg_11">
		<g id="svg_12">
			<path class="st0" d="M21.9104223761943,73.09857443327566 c2.1041889553674866,0 4.068098647043807,0 6.032008338720127,0 c0,-1.7293663274870208 0,-3.582258821223112 0,-5.311625148710132 c-2.1041889553674866,0 -4.068098647043807,0 -6.032008338720127,0 C21.9104223761943,69.51631561205257 21.9104223761943,71.24568193953957 21.9104223761943,73.09857443327566 z" id="svg_13"/>
		</g>
	</g>
	<g id="svg_14">
		<g id="svg_15">
			<path class="st0" d="M49.68571658704511,33.8172535660705 c2.5250267464409837,0 3.9278193833526407,-1.8528924937360927 4.068098647043807,-3.582258821223112 c0,-1.8528924937360927 -1.9639096916763221,-3.582258821223112 -4.068098647043807,-3.582258821223112 c-2.1041889553674866,0 -4.208377910734973,1.7293663274870208 -3.9278193833526407,3.582258821223112 C45.61761794000131,31.964361072334405 47.16068984060414,33.8172535660705 49.68571658704511,33.8172535660705 z" id="svg_16"/>
		</g>
	</g>
	<g id="svg_17">
		<g id="svg_18">
			<path class="st0" d="M72.27067804132281,37.39951238729361 c-15.009881214954737,0 -30.019762429909473,0 -45.16992290855537,0 c0,3.4587326549740394 0,6.793939143699006 0,10.129145632423972 c15.150160478645903,0 30.16004169360064,0 45.16992290855537,0 C72.27067804132281,44.19345153099262 72.27067804132281,40.85824504226765 72.27067804132281,37.39951238729361 z" id="svg_19"/>
		</g>
	</g>
	<g id="svg_20">
		<g id="svg_21">
			<path class="st0" d="M29.345223351826085,73.09857443327566 c2.1041889553674866,0 4.068098647043807,0 6.032008338720127,0 c0,-1.8528924937360927 0,-3.582258821223112 0,-5.311625148710132 c-2.1041889553674866,0 -4.068098647043807,0 -6.032008338720127,0 C29.345223351826085,69.51631561205257 29.345223351826085,71.24568193953957 29.345223351826085,73.09857443327566 z" id="svg_22"/>
		</g>
	</g>
	<g id="svg_23">
		<g id="svg_24">
			<path class="st0" d="M71.56928172286698,72.9750482670266 c2.1041889553674866,0 4.068098647043807,0 6.032008338720127,0 c0,-1.7293663274870208 0,-3.4587326549740394 0,-5.311625148710132 c-2.1041889553674866,0 -4.068098647043807,0 -6.032008338720127,0 C71.56928172286698,69.51631561205257 71.56928172286698,71.24568193953957 71.56928172286698,72.9750482670266 z" id="svg_25"/>
		</g>
	</g>
	<g id="svg_26">
		<g id="svg_27">
			<path class="st0" d="M77.60129006158708,61.48711480586283 c-2.1041889553674866,0 -4.068098647043807,0 -6.032008338720127,0 c0,1.8528924937360927 0,3.582258821223112 0,5.311625148710132 c1.9639096916763221,0 4.068098647043807,0 6.032008338720127,0 C77.60129006158708,64.94584746083686 77.60129006158708,63.21648113334983 77.60129006158708,61.48711480586283 z" id="svg_28"/>
		</g>
	</g>
	<g id="svg_29">
		<g id="svg_30">
			<path class="st0" d="M63.99420148354402,72.9750482670266 c2.1041889553674866,0 4.068098647043807,0 6.032008338720127,0 c0,-1.8528924937360927 0,-3.582258821223112 0,-5.311625148710132 c-2.1041889553674866,0 -4.068098647043807,0 -6.032008338720127,0 C63.99420148354402,69.51631561205257 63.99420148354402,71.24568193953957 63.99420148354402,72.9750482670266 z" id="svg_31"/>
		</g>
	</g>
	<g id="svg_32">
		<g id="svg_33">
			<path class="st0" d="M56.278841980529904,53.45791399967309 c-2.1041889553674866,-1.8528924937360927 -4.6292157018084685,-2.7175756574796033 -7.715359503014116,-2.3469971587323837 c-2.2444682190586525,0.24705233249814576 -4.208377910734973,1.1117354962416555 -5.751449811337796,2.59404949123053 c-1.6833511642939891,1.6058401612379465 -2.2444682190586525,3.582258821223112 -2.2444682190586525,5.805729813706424 c0,6.176308312453642 0,12.476142791156356 0,18.65245110361 c0,0.3705784987472193 0,0.6176308312453644 0,0.9882093299925834 c6.172287602411294,0 12.064016677440254,0 18.096025016160382,0 c0,-0.24705233249814576 0,-0.3705784987472193 0,-0.494104664996292 c0,-6.423360644951789 0,-12.846721289903577 0,-19.270081934855366 C58.80386872697089,57.163698987145274 58.10247240851506,55.063754160911024 56.278841980529904,53.45791399967309 z" id="svg_34"/>
		</g>
	</g>
	<g id="svg_35">
		<g id="svg_36">
			<path class="st1" d="M82.23050576339558,79.2748827457293 c0,-0.3705784987472193 0,-0.7411569974944374 0,-0.9882093299925834 c0,-14.452561451141522 0,-28.905122902283043 0,-43.234158187175495 c0,-0.7411569974944374 -0.2805585273823318,-0.8646831637435107 -0.9819548458381605,-0.8646831637435107 c-6.032008338720127,0 -12.064016677440254,0 -18.23630427985155,0 c-0.2805585273823318,0 -0.7013963184558295,0 -0.9819548458381605,0 c0,-1.1117354962416555 -0.14027926369116592,-1.9764186599851654 0,-2.9646279899777483 c0.14027926369116592,-0.8646831637435107 -0.4208377910734979,-1.2352616624907284 -0.9819548458381605,-1.7293663274870208 c-1.4027926369116575,-1.1117354962416555 -2.945864537514481,-2.223470992483311 -4.348657174426139,-3.2116803224758943 c-1.9639096916763221,-1.4823139949888744 -3.7875401196614757,-2.9646279899777483 -5.751449811337796,-4.3234158187175495 C50.807950696574444,21.58816310741228 50.52739216919212,21.341110774914142 50.52739216919212,21.094058442415996 c0,-1.7293663274870208 0,-3.4587326549740394 0,-5.18809898246106 c3.3667023285879782,0 6.593125393484792,0 9.819548458381602,0 c0,-1.7293663274870208 0,-3.4587326549740394 0,-5.064572816211986 c-0.4208377910734979,0 -0.7013963184558295,0 -0.9819548458381605,0 c-2.665306010132149,0 -5.470891283955465,0 -8.136197294087614,0 c-0.4208377910734979,0 -0.7013963184558295,0 -0.8416755821469951,-0.3705784987472193 c-0.14027926369116592,-0.24705233249814576 -0.4208377910734979,-0.494104664996292 -0.7013963184558295,-0.494104664996292 c-0.2805585273823318,0 -0.5611170547646632,0.3705784987472193 -0.5611170547646632,0.6176308312453644 c-0.14027926369116592,0.24705233249814576 -0.14027926369116592,0.494104664996292 -0.14027926369116592,0.7411569974944374 c0,3.088154156226823 0,6.2998344787027145 0,9.387988634929535 c0,0.24705233249814576 -0.14027926369116592,0.7411569974944374 -0.4208377910734979,0.8646831637435107 c-1.2625133732204918,0.9882093299925834 -2.5250267464409837,1.9764186599851654 -3.7875401196614757,2.9646279899777483 c-2.2444682190586525,1.7293663274870208 -4.488936438117305,3.4587326549740394 -6.7334046571759565,5.064572816211986 c-0.4208377910734979,0.24705233249814576 -0.5611170547646632,0.6176308312453644 -0.5611170547646632,1.1117354962416555 c0,1.1117354962416555 0,2.0999448262342386 0,3.335206488724967 c-0.4208377910734979,0 -0.7013963184558295,0 -0.9819548458381605,0 c-5.891729075028962,0 -11.783458150057925,0 -17.815466488778053,0 c-1.6833511642939891,0 -1.5430719006028233,-0.12352616624907302 -1.5430719006028233,1.2352616624907284 c0,14.329035284892448 0,28.658070569784897 0,42.86357968842828 c0,0.24705233249814576 0,0.6176308312453644 0,0.9882093299925834 c-1.6833511642939891,0 -3.226423064896813,0 -4.769494965499636,0 c0,1.2352616624907284 0,2.470523324981457 0,3.7057849874721853 c24.96970893702751,0 49.79913861036385,0 74.62856828370018,0 c0,-1.2352616624907284 0,-2.470523324981457 0,-3.7057849874721853 C85.45692882829238,79.2748827457293 83.77357766399841,79.2748827457293 82.23050576339558,79.2748827457293 zM49.68571658704511,26.77626208987335 c2.1041889553674866,0 4.068098647043807,1.7293663274870208 4.068098647043807,3.582258821223112 c0,1.6058401612379465 -1.5430719006028233,3.582258821223112 -4.068098647043807,3.582258821223112 c-2.5250267464409837,0 -4.068098647043807,-1.8528924937360927 -3.9278193833526407,-3.582258821223112 C45.47733867631014,28.382102251111288 47.72180689536879,26.77626208987335 49.68571658704511,26.77626208987335 zM27.100755132767432,37.39951238729361 c15.009881214954737,0 30.019762429909473,0 45.16992290855537,0 c0,3.335206488724967 0,6.793939143699006 0,10.129145632423972 c-15.009881214954737,0 -30.019762429909473,0 -45.16992290855537,0 C27.100755132767432,44.19345153099262 27.100755132767432,40.85824504226765 27.100755132767432,37.39951238729361 zM70.02620982226416,61.36358863961374 c0,1.7293663274870208 0,3.4587326549740394 0,5.311625148710132 c-1.9639096916763221,0 -3.9278193833526407,0 -6.032008338720127,0 c0,-1.8528924937360927 0,-3.582258821223112 0,-5.311625148710132 C66.09839043891152,61.36358863961374 68.06230013058783,61.36358863961374 70.02620982226416,61.36358863961374 zM35.37723169054621,61.48711480586283 c0,1.7293663274870208 0,3.582258821223112 0,5.311625148710132 c-1.9639096916763221,0 -3.9278193833526407,0 -6.032008338720127,0 c0,-1.7293663274870208 0,-3.582258821223112 0,-5.311625148710132 C31.309133043502406,61.48711480586283 33.27304273517873,61.48711480586283 35.37723169054621,61.48711480586283 zM21.9104223761943,61.48711480586283 c2.1041889553674866,0 4.068098647043807,0 6.032008338720127,0 c0,1.7293663274870208 0,3.4587326549740394 0,5.311625148710132 c-1.9639096916763221,0 -3.9278193833526407,0 -6.032008338720127,0 C21.9104223761943,64.94584746083686 21.9104223761943,63.21648113334983 21.9104223761943,61.48711480586283 zM27.942430714914426,73.09857443327566 c-1.9639096916763221,0 -3.9278193833526407,0 -6.032008338720127,0 c0,-1.7293663274870208 0,-3.4587326549740394 0,-5.311625148710132 c1.9639096916763221,0 3.9278193833526407,0 6.032008338720127,0 C27.942430714914426,69.51631561205257 27.942430714914426,71.24568193953957 27.942430714914426,73.09857443327566 zM35.37723169054621,73.09857443327566 c-1.9639096916763221,0 -4.068098647043807,0 -6.032008338720127,0 c0,-1.8528924937360927 0,-3.582258821223112 0,-5.311625148710132 c1.9639096916763221,0 4.068098647043807,0 6.032008338720127,0 C35.37723169054621,69.51631561205257 35.37723169054621,71.24568193953957 35.37723169054621,73.09857443327566 zM58.80386872697089,79.15135657948024 c-6.032008338720127,0 -12.064016677440254,0 -18.096025016160382,0 c0,-0.3705784987472193 0,-0.6176308312453644 0,-0.9882093299925834 c0,-6.176308312453642 0,-12.476142791156356 0,-18.65245110361 c0,-2.223470992483311 0.5611170547646632,-4.199889652468477 2.2444682190586525,-5.805729813706424 c1.5430719006028233,-1.4823139949888744 3.3667023285879782,-2.3469971587323837 5.751449811337796,-2.59404949123053 c3.0861438012056466,-0.3705784987472193 5.61117054764663,0.494104664996292 7.715359503014116,2.3469971587323837 c1.8236304279851556,1.6058401612379465 2.5250267464409837,3.582258821223112 2.5250267464409837,5.805729813706424 c0,6.423360644951789 0,12.846721289903577 0,19.270081934855366 C58.80386872697089,78.78077808073303 58.80386872697089,79.02783041323116 58.80386872697089,79.15135657948024 zM70.02620982226416,72.9750482670266 c-1.9639096916763221,0 -3.9278193833526407,0 -6.032008338720127,0 c0,-1.7293663274870208 0,-3.582258821223112 0,-5.311625148710132 c1.9639096916763221,0 4.068098647043807,0 6.032008338720127,0 C70.02620982226416,69.51631561205257 70.02620982226416,71.24568193953957 70.02620982226416,72.9750482670266 zM71.56928172286698,61.48711480586283 c1.9639096916763221,0 3.9278193833526407,0 6.032008338720127,0 c0,1.7293663274870208 0,3.582258821223112 0,5.311625148710132 c-1.9639096916763221,0 -4.068098647043807,0 -6.032008338720127,0 C71.56928172286698,64.94584746083686 71.56928172286698,63.21648113334983 71.56928172286698,61.48711480586283 zM77.60129006158708,72.9750482670266 c-1.9639096916763221,0 -4.068098647043807,0 -6.032008338720127,0 c0,-1.7293663274870208 0,-3.4587326549740394 0,-5.311625148710132 c1.9639096916763221,0 3.9278193833526407,0 6.032008338720127,0 C77.60129006158708,69.51631561205257 77.60129006158708,71.24568193953957 77.60129006158708,72.9750482670266 z" id="svg_37"/>
		</g>
	</g>
	<g id="svg_38">
		<g id="svg_39">
			<path class="st2" d="M44.49538383047199,39.005352548531555 c0,0.8646831637435107 0,1.7293663274870208 0,2.7175756574796033 c0.9819548458381605,0 1.8236304279851556,0 2.8055852738233154,0 c0,-0.8646831637435107 0,-1.7293663274870208 0,-2.7175756574796033 c0.5611170547646632,0 1.1222341095293265,0 1.8236304279851556,0 c0,1.1117354962416555 0,2.223470992483311 0,3.335206488724967 c0,1.1117354962416555 0,2.223470992483311 0,3.335206488724967 c-0.5611170547646632,0 -1.1222341095293265,0 -1.8236304279851556,0 c0,-0.8646831637435107 0,-1.7293663274870208 0,-2.7175756574796033 c-0.9819548458381605,0 -1.8236304279851556,0 -2.8055852738233154,0 c0,0.8646831637435107 0,1.7293663274870208 0,2.7175756574796033 c-0.7013963184558295,0 -1.1222341095293265,0 -1.8236304279851556,0 c0,-1.1117354962416555 0,-2.223470992483311 0,-3.335206488724967 c0,-1.1117354962416555 0,-2.223470992483311 0,-3.335206488724967 C43.37314972094265,39.005352548531555 43.93426677570732,39.005352548531555 44.49538383047199,39.005352548531555 z" id="svg_40"/>
		</g>
	</g>
	<g id="svg_41">
		<g id="svg_42">
			<path class="st2" d="M57.82191388113274,42.217032871007454 c-0.14027926369116592,-1.1117354962416555 0.14027926369116592,-2.0999448262342386 1.4027926369116575,-2.841101823728675 c1.1222341095293265,-0.6176308312453644 2.2444682190586525,-0.6176308312453644 3.3667023285879782,-0.12352616624907302 c1.1222341095293265,0.494104664996292 1.6833511642939891,1.3587878287398014 1.6833511642939891,2.3469971587323837 c0,0.7411569974944374 0,1.6058401612379465 -0.14027926369116592,2.3469971587323837 c-0.4208377910734979,1.4823139949888744 -1.9639096916763221,2.0999448262342386 -3.3667023285879782,1.9764186599851654 c-1.8236304279851556,-0.24705233249814576 -2.945864537514481,-1.2352616624907284 -2.945864537514481,-2.7175756574796033 C57.82191388113274,42.83466370225282 57.82191388113274,42.58761136975467 57.82191388113274,42.217032871007454 zM62.591408846632376,42.340559037256526 C62.591408846632376,42.340559037256526 62.451129582941206,42.340559037256526 62.591408846632376,42.340559037256526 c0,-0.3705784987472193 0,-0.7411569974944374 0,-0.9882093299925834 c0,-0.6176308312453644 -0.7013963184558295,-1.2352616624907284 -1.2625133732204918,-1.2352616624907284 c-0.7013963184558295,0 -1.4027926369116575,0.494104664996292 -1.5430719006028233,1.2352616624907284 c-0.14027926369116592,0.7411569974944374 0,1.4823139949888744 0,2.223470992483311 c0.14027926369116592,0.7411569974944374 0.5611170547646632,1.1117354962416555 1.4027926369116575,1.1117354962416555 c0.8416755821469951,0 1.2625133732204918,-0.3705784987472193 1.4027926369116575,-1.1117354962416555 C62.591408846632376,43.08171603475096 62.591408846632376,42.71113753600374 62.591408846632376,42.340559037256526 z" id="svg_43"/>
		</g>
	</g>
	<g id="svg_44">
		<g id="svg_45">
			<path class="st2" d="M50.387112905500935,42.340559037256526 c-0.14027926369116592,-1.1117354962416555 0,-2.223470992483311 1.2625133732204918,-2.9646279899777483 c2.1041889553674866,-1.2352616624907284 4.909774229190801,-0.12352616624907302 5.050053492881968,2.0999448262342386 c0.14027926369116592,0.7411569974944374 0,1.6058401612379465 -0.14027926369116592,2.3469971587323837 c-0.4208377910734979,1.4823139949888744 -1.8236304279851556,2.0999448262342386 -3.226423064896813,1.9764186599851654 c-1.8236304279851556,-0.12352616624907302 -2.945864537514481,-1.1117354962416555 -2.945864537514481,-2.59404949123053 C50.387112905500935,42.95818986850189 50.387112905500935,42.71113753600374 50.387112905500935,42.340559037256526 zM55.01632860730943,42.4640852035056 C55.01632860730943,42.4640852035056 55.01632860730943,42.4640852035056 55.01632860730943,42.4640852035056 c0,-0.3705784987472193 0,-0.7411569974944374 0,-1.1117354962416555 c-0.14027926369116592,-0.6176308312453644 -0.7013963184558295,-1.1117354962416555 -1.4027926369116575,-1.2352616624907284 c-0.7013963184558295,0 -1.2625133732204918,0.24705233249814576 -1.4027926369116575,0.8646831637435107 c-0.14027926369116592,0.8646831637435107 -0.14027926369116592,1.8528924937360927 0,2.7175756574796033 c0.14027926369116592,0.7411569974944374 0.7013963184558295,0.9882093299925834 1.5430719006028233,0.9882093299925834 c0.7013963184558295,0 1.1222341095293265,-0.494104664996292 1.2625133732204918,-1.2352616624907284 C55.01632860730943,43.08171603475096 55.01632860730943,42.71113753600374 55.01632860730943,42.4640852035056 z" id="svg_46"/>
		</g>
	</g>
	<g id="svg_47">
		<g id="svg_48">
			<path class="st2" d="M28.92438556075259,43.575820699747254 c0.5611170547646632,0 1.1222341095293265,0 1.5430719006028233,0 c0.4208377910734979,1.1117354962416555 0.9819548458381605,1.3587878287398014 1.9639096916763221,0.9882093299925834 c0.2805585273823318,-0.12352616624907302 0.5611170547646632,-0.3705784987472193 0.5611170547646632,-0.494104664996292 c0,-0.24705233249814576 -0.2805585273823318,-0.6176308312453644 -0.4208377910734979,-0.7411569974944374 c-0.5611170547646632,-0.24705233249814576 -1.1222341095293265,-0.3705784987472193 -1.6833511642939891,-0.6176308312453644 c-1.5430719006028233,-0.6176308312453644 -1.9639096916763221,-0.9882093299925834 -1.8236304279851556,-2.223470992483311 c0.14027926369116592,-0.7411569974944374 0.9819548458381605,-1.3587878287398014 2.2444682190586525,-1.4823139949888744 c1.1222341095293265,-0.12352616624907302 2.2444682190586525,0 2.945864537514481,0.8646831637435107 c0.2805585273823318,0.24705233249814576 0.2805585273823318,0.7411569974944374 0.5611170547646632,1.2352616624907284 c-0.8416755821469951,-0.12352616624907302 -1.6833511642939891,0.3705784987472193 -2.1041889553674866,-0.6176308312453644 c-0.2805585273823318,-0.494104664996292 -1.5430719006028233,-0.3705784987472193 -1.9639096916763221,0.12352616624907302 c-0.2805585273823318,0.3705784987472193 0,0.7411569974944374 0.4208377910734979,0.8646831637435107 c0.7013963184558295,0.3705784987472193 1.5430719006028233,0.494104664996292 2.2444682190586525,0.8646831637435107 c1.1222341095293265,0.494104664996292 1.5430719006028233,1.2352616624907284 1.1222341095293265,2.223470992483311 c-0.14027926369116592,0.3705784987472193 -0.7013963184558295,0.8646831637435107 -1.1222341095293265,1.1117354962416555 c-1.1222341095293265,0.494104664996292 -2.2444682190586525,0.3705784987472193 -3.3667023285879782,0 C29.204944088134916,45.058134694736125 28.92438556075259,44.56403002973983 28.92438556075259,43.575820699747254 z" id="svg_49"/>
		</g>
	</g>
	<g id="svg_50">
		<g id="svg_51">
			<path class="st2" d="M40.14672665604586,43.575820699747254 c0.5611170547646632,0 0.9819548458381605,0 1.5430719006028233,0 c0.14027926369116592,0.8646831637435107 -0.14027926369116592,1.4823139949888744 -0.9819548458381605,1.8528924937360927 c-2.2444682190586525,1.1117354962416555 -5.1903327565731345,0 -4.909774229190801,-2.470523324981457 c0,-0.494104664996292 0,-1.1117354962416555 0,-1.7293663274870208 c0,-1.2352616624907284 1.1222341095293265,-2.223470992483311 2.5250267464409837,-2.3469971587323837 c1.2625133732204918,-0.12352616624907302 2.945864537514481,0.24705233249814576 3.226423064896813,1.3587878287398014 c0.14027926369116592,0.24705233249814576 0.14027926369116592,0.6176308312453644 0.14027926369116592,0.9882093299925834 c-0.5611170547646632,0 -1.1222341095293265,0 -1.6833511642939891,0 c-0.14027926369116592,-0.6176308312453644 -0.4208377910734979,-0.9882093299925834 -1.1222341095293265,-1.1117354962416555 c-0.7013963184558295,-0.12352616624907302 -1.4027926369116575,0.3705784987472193 -1.4027926369116575,0.9882093299925834 c0,0.6176308312453644 0,1.3587878287398014 0,2.0999448262342386 c0,0.9882093299925834 0.4208377910734979,1.4823139949888744 1.2625133732204918,1.6058401612379465 C39.585609601281185,44.81108236223798 40.00644739235467,44.19345153099262 40.14672665604586,43.575820699747254 z" id="svg_52"/>
		</g>
	</g>
	<g id="svg_53">
		<g id="svg_54">
			<path class="st2" d="M65.53727338414686,39.005352548531555 c0.5611170547646632,0 0.9819548458381605,0 1.5430719006028233,0 c0,1.6058401612379465 0,3.088154156226823 0,4.693994317464767 c0,0.7411569974944374 0.2805585273823318,0.9882093299925834 0.9819548458381605,0.8646831637435107 c0.7013963184558295,0 1.5430719006028233,0 2.2444682190586525,0 c0,0.3705784987472193 0,0.7411569974944374 0,1.1117354962416555 c-1.6833511642939891,0 -3.226423064896813,0 -4.909774229190801,0 C65.53727338414686,43.45229453349818 65.53727338414686,41.35234970726394 65.53727338414686,39.005352548531555 z" id="svg_55"/>
		</g>
	</g>
	<g id="svg_56">
		<g id="svg_57">
			<path class="st1" d="M49.68571658704511,27.270366754869638 c0.14027926369116592,0.24705233249814576 0.2805585273823318,0.3705784987472193 0.2805585273823318,0.494104664996292 c0,0.12352616624907302 0,0.24705233249814576 0,0.24705233249814576 c0,0.6176308312453644 -0.2805585273823318,1.3587878287398014 0.14027926369116592,1.7293663274870208 c0.2805585273823318,0.3705784987472193 1.2625133732204918,0.24705233249814576 1.8236304279851556,0.24705233249814576 c0.14027926369116592,0 0.14027926369116592,0.12352616624907302 0.4208377910734979,0.24705233249814576 c-0.4208377910734979,0.12352616624907302 -0.5611170547646632,0.12352616624907302 -0.8416755821469951,0.24705233249814576 c-0.5611170547646632,0.12352616624907302 -1.2625133732204918,0.24705233249814576 -1.8236304279851556,0.24705233249814576 c-0.5611170547646632,0.12352616624907302 -0.8416755821469951,-0.24705233249814576 -0.7013963184558295,-0.494104664996292 c0.5611170547646632,-0.8646831637435107 0.2805585273823318,-1.7293663274870208 0.2805585273823318,-2.59404949123053 C49.54543732335395,27.640945253616856 49.54543732335395,27.517419087367784 49.68571658704511,27.270366754869638 z" id="svg_58"/>
		</g>
	</g>
</g></g></svg>