<?xml version="1.0" encoding="utf-8"?>
<!-- Generator: Adobe Illustrator 22.0.1, SVG Export Plug-In . SVG Version: 6.00 Build 0)  -->
<svg version="1.1" id="Layer_1" xmlns="http://www.w3.org/2000/svg" xmlns:xlink="http://www.w3.org/1999/xlink" x="0px" y="0px"
	 viewBox="0 0 100 100" style="enable-background:new 0 0 100 100;" xml:space="preserve">
<style type="text/css">
	.st0{fill:#009688;}
	.st1{fill:#009688;}
</style>
<g>
	<path class="st0" d="M34,64.9c-0.6-2.1-1-4.3-1.1-6.5C32.6,51,35.2,44,40.3,38.7c4.4-4.6,10.2-7.4,16.5-8.1
		c-3.9-7.2-11.6-12.1-20.3-12.1c-12.8,0-23.2,10.4-23.2,23.2c0,6.7,2.9,12.8,7.5,17.1L10,64.9H34z"/>
	<g>
		<path class="st0" d="M90,81.4H60c-13.2,0-23.9-10.2-24.5-23.2c-0.3-6.8,2.2-13.1,6.9-18c4.7-4.8,11-7.4,17.8-7.3
			C73,33.3,83.7,44,83.8,56.9l0,0c0.1,6.4-2.4,12.6-6.8,17.2L90,81.4z M59.6,35.1c-6,0-11.6,2.4-15.8,6.7
			c-4.3,4.4-6.5,10.2-6.3,16.4C38,70.1,47.9,79.4,60,79.4h22.2l-8.6-4.9l1-1c4.6-4.3,7.2-10.3,7.2-16.6l0,0
			c-0.2-11.8-9.9-21.6-21.7-21.8C59.9,35.1,59.8,35.1,59.6,35.1z"/>
	</g>
	<path class="st1" d="M74.4,51.1L71,66.6H53.6V52.3l7.7-9.3h3.4l-2.5,8.2H74.4z M45.2,66.6h5V52.1h-5V66.6z"/>
</g>
</svg>
