<?xml version="1.0" encoding="utf-8"?>
<!-- Generator: Adobe Illustrator 22.0.1, SVG Export Plug-In . SVG Version: 6.00 Build 0)  -->
<svg version="1.1" id="Layer_1" xmlns="http://www.w3.org/2000/svg" xmlns:xlink="http://www.w3.org/1999/xlink" x="0px" y="0px"
	 viewBox="0 0 100 100" style="enable-background:new 0 0 100 100;" xml:space="preserve">
<style type="text/css">
	.st0{fill:#009688;}
	.st1{fill:#009688;}
</style>
<g>
	<g>
		<g>
			<path class="st0" d="M20.4,77.7c0.3-0.5,0.8-0.7,1.3-0.6c0.8,0,1.7,0,2.6,0c0-0.3,0-0.5,0-0.7c0-3.3,0-6.6,0-9.9
				c0-1,0.3-1.3,1.3-1.3c2.4,0,4.8,0,7.3,0c1,0,1.3,0.3,1.3,1.3c0,3.5,0,6.9,0,10.4c1.3,0,2.6,0,3.9,0c0-0.2,0-0.5,0-0.7
				c0-7.8,0-15.7,0-23.5c0-1,0.3-1.3,1.4-1.3c2.4,0,4.7,0,7.1,0c1.1,0,1.4,0.3,1.4,1.4c0,7.8,0,15.6,0,23.4c0,0.2,0,0.5,0,0.8
				c1.3,0,2.6,0,3.9,0c0-0.2,0-0.5,0-0.7c0-5.9,0-11.7,0-17.6c0-1,0.3-1.3,1.4-1.3c2.4,0,4.8,0,7.2,0c1,0,1.3,0.3,1.3,1.3
				c0,5.9,0,11.7,0,17.6c0,0.2,0,0.5,0,0.8c1.3,0,2.6,0,3.9,0c0-0.2,0-0.5,0-0.7c0-11.8,0-23.5,0-35.3c0-1.1,0.3-1.4,1.4-1.4
				c2.4,0,4.8,0,7.2,0c1,0,1.3,0.3,1.3,1.3c0,11.8,0,23.6,0,35.3c0,0.2,0,0.5,0,0.8c0.9,0,1.7,0,2.6,0c0.6,0,1,0.2,1.3,0.6
				c0,0.5,0,0.9,0,1.4c-19.7,0-39.4,0-59.1,0C20.4,78.6,20.4,78.2,20.4,77.7z M67.8,41.7c0,11.8,0,23.6,0,35.4c2,0,3.9,0,5.8,0
				c0-11.8,0-23.6,0-35.4C71.7,41.7,69.7,41.7,67.8,41.7z M46,77.1c0-7.9,0-15.7,0-23.6c-2,0-3.9,0-5.8,0c0,7.9,0,15.7,0,23.6
				C42.1,77.1,44.1,77.1,46,77.1z M54,77c2,0,3.9,0,5.8,0c0-5.9,0-11.8,0-17.7c-2,0-3.9,0-5.8,0C54,65.3,54,71.1,54,77z M26.4,67.3
				c0,3.3,0,6.5,0,9.8c2,0,3.9,0,5.8,0c0-3.3,0-6.5,0-9.8C30.3,67.3,28.4,67.3,26.4,67.3z"/>
		</g>
	</g>
	<g>
		<g>
			<path class="st1" d="M73.3,20c1,0.4,2,0.8,2.6,1.8c1,1.5,1,3.1-0.2,4.5c-0.9,1.1-2.7,2-4.3,1.3c-0.4-0.2-0.6,0-0.8,0.2
				c-2.7,3.3-5.5,6.6-8.3,10c-0.1,0.1-0.2,0.2-0.3,0.3c-0.7,0.7-1.1,1.3-0.6,2.4c0.8,1.7-0.2,3.7-2,4.7C58,46,55.9,45.5,54.8,44
				c-0.6-0.7-0.9-1.5-0.9-2.5c0-0.2-0.2-0.4-0.4-0.5c-2.4-1-4.9-2-7.3-2.9c-2.2,1.9-3.4,2.1-5.4,0.9c-0.8,0.7-1.6,1.4-2.4,2.1
				c-2.1,1.8-4.1,3.6-6.2,5.4c-0.3,0.2-0.5,0.4-0.3,0.9c0.9,2.1-0.6,4.4-2.6,5.1c-2,0.6-4.3-0.7-4.8-2.9c-0.4-1.4,0.2-3.1,1.5-4
				c1.5-1.1,2.9-1.1,4.5-0.1c1.1-1,2.3-1.9,3.4-2.9c1.7-1.5,3.5-3,5.2-4.5c0.3-0.2,0.5-0.4,0.3-0.8c-0.9-2.2,0.6-4.5,2.6-5.1
				c1.9-0.6,4.2,0.7,4.8,2.8c0.1,0.2,0.2,0.4,0.1,0.5c-0.2,0.9,0.4,1.1,1.1,1.4c2.2,0.9,4.4,1.7,6.6,2.6c0.4-0.3,0.7-0.6,1.1-0.9
				c1-0.7,2.1-0.9,3.3-0.4c0.3,0.1,0.6,0.1,0.8-0.2c2.3-2.8,4.7-5.6,7-8.5c0.9-1,1.7-2.1,2.6-3.1c-1.1-1.6-1-3.1,0.1-4.6
				c0.6-0.8,1.5-1.3,2.5-1.6C72.4,20,72.9,20,73.3,20z M72.7,21.9c-1.2,0-2,0.7-2,2c-0.1,1.1,1,2,1.9,2c1.2,0,2-0.7,2-1.9
				C74.6,22.7,73.9,21.9,72.7,21.9z M28.3,50.5c1.2,0,1.9-0.8,2-2c0-0.9-0.9-2-1.9-2c-1.2,0.1-2,0.7-2,2
				C26.3,49.7,27.1,50.5,28.3,50.5z M43.1,37.7c1.2,0,2-0.8,2-2c0-1.2-0.8-2-2-2c-1.2,0-1.9,0.7-2,1.9C41.1,36.7,42,37.8,43.1,37.7z
				 M59.8,41.6c0.1-1.1-1-2-2-2c-1.2,0.1-2,0.8-2,2c0,1.2,0.7,1.9,1.9,1.9C59.1,43.6,59.8,42.9,59.8,41.6z"/>
		</g>
	</g>
</g>
</svg>
