<?xml version="1.0" encoding="utf-8"?>
<!-- Generator: Adobe Illustrator 22.1.0, SVG Export Plug-In . SVG Version: 6.00 Build 0)  -->
<svg version="1.1" id="Layer_1" xmlns="http://www.w3.org/2000/svg" xmlns:xlink="http://www.w3.org/1999/xlink" x="0px" y="0px"
	 viewBox="0 0 100 100" style="enable-background:new 0 0 100 100;" xml:space="preserve">
<style type="text/css">
	.st0{fill:#009688;}
	.st1{fill:#009688;}
</style>
<g>
	<path class="st0" d="M8.5,66c1.9-3.9,4.7-4.6,8.2-4.6s16.3,0,16.3,0c1.9,0.4,4.1,2,4.2,2.8c2.4-4.9,5.5-5.7,9.6-5.7s19.7,0,19.7,0
		c5.1,0.1,8.6,4.2,8.5,10c-0.1,5.9,0,7.4,0,7.4h15.7c1.6,0,2.9,1.3,2.9,2.9l0,0c0,1.6-1.3,2.9-2.9,2.9H68.9V68.6h-3.6v28.9H8.2
		l8.3-26.2L13.3,70L7.8,87.5c-0.4,1.4-1.9,2.2-3.4,1.8l0,0c-1.5-0.4-2.3-1.9-1.9-3.4L8.5,66z"/>
	<rect x="68.7" y="84.8" class="st0" width="24.6" height="12.7"/>
	<ellipse class="st0" cx="55.5" cy="49" rx="6.8" ry="6.8"/>
	<ellipse class="st0" cx="81.7" cy="67.2" rx="5.8" ry="5.8"/>
	<path class="st0" d="M18.7,50.3c0.9-2.4,3.2-4.2,6-4.2c3.5,0,6.3,2.8,6.3,6.3c0,3.5-2.8,6.3-6.3,6.3c0,0-6,1.7-11.4-7.8
		C13.2,50.9,16.8,52.4,18.7,50.3z"/>
	<polygon class="st1" points="44.9,33 44.9,36 92.1,36 92.1,24.1 89.3,24.1 89.3,33 	"/>
	<ellipse class="st1" cx="90.7" cy="13.7" rx="6.8" ry="11.2"/>
	<rect x="57.2" y="21.3" class="st1" width="20.3" height="13"/>
	<polygon class="st1" points="67.4,12.2 53.6,21.5 81.2,21.5 	"/>
</g>
</svg>
