<?xml version="1.0" encoding="utf-8"?>
<!-- Generator: Adobe Illustrator 22.1.0, SVG Export Plug-In . SVG Version: 6.00 Build 0)  -->
<svg version="1.1" id="Layer_1" xmlns="http://www.w3.org/2000/svg" xmlns:xlink="http://www.w3.org/1999/xlink" x="0px" y="0px"
	 viewBox="0 0 100 100" style="enable-background:new 0 0 100 100;" xml:space="preserve">
<style type="text/css">
	.st0{fill:#009688;}
	.st1{fill:#009688;}
</style>
<g>
	<g>
		<path class="st0" d="M50,45.5c0.1,0,0.2,0,0.4,0L96.6,31c0.5-0.2,0.9-0.7,0.9-1.3c0-0.6-0.4-1.1-0.9-1.3L50.4,13.9
			c-0.2,0-0.3,0-0.4,0c-0.1,0-0.2,0-0.4,0L3.4,28.4c-0.5,0.2-0.9,0.7-0.9,1.3c0,0.6,0.4,1.1,0.9,1.3l13.7,4.3
			c-2.6,3.6-3.8,8.8-4,13.6c-1.6,0.9-2.7,2.6-2.7,4.6c0,1.9,0.9,3.5,2.4,4.4l-2.4,17.9c0,0.4,0.1,0.7,0.3,1c0.2,0.3,0.6,0.5,1,0.5
			h7.9c0.4,0,0.7-0.2,1-0.5c0.2-0.3,0.4-0.7,0.3-1l-2.4-17.9c1.4-0.9,2.4-2.6,2.4-4.4c0-1.9-1-3.6-2.6-4.5c0.3-5.6,2-10.1,4.3-12
			l26.9,8.5C49.8,45.5,49.9,45.5,50,45.5z"/>
		<path class="st0" d="M56.7,63.4c0-3.8,1.3-7,3.9-9.6c2.6-2.6,5.8-3.9,9.5-3.9c2.1,0,4.2,0.4,6,1.3l-0.5-8.1L52,50.5
			c-0.7,0.2-1.3,0.3-2,0.3c-0.7,0-1.3-0.1-2-0.3l-23.7-7.5l-0.7,13C23.3,61.9,35.4,66.7,50,66.7c2.4,0,4.7-0.1,7-0.4
			C56.8,65.3,56.7,64.4,56.7,63.4z"/>
	</g>
	<path class="st1" d="M78.1,86.1l-2.5-2.3c-2.9-2.7-5-4.7-6.3-5.9c-1.3-1.2-2.8-2.8-4.4-4.7c-1.7-1.9-2.8-3.6-3.4-5.1
		c-0.6-1.5-0.9-3.1-0.9-4.7c0-2.8,0.9-5.1,2.8-6.9c1.9-1.9,4.1-2.8,6.8-2.8c3.2,0,5.9,1.2,7.9,3.7c2.1-2.5,4.7-3.7,7.9-3.7
		c2.7,0,5,0.9,6.8,2.8c1.9,1.9,2.8,4.2,2.8,6.9c0,1.6-0.3,3.2-0.9,4.7c-0.6,1.5-1.7,3.2-3.4,5.1c-1.7,1.9-3.1,3.5-4.4,4.7
		c-1.3,1.2-3.4,3.2-6.3,5.9L78.1,86.1z"/>
</g>
</svg>
