<?xml version="1.0" encoding="utf-8"?>
<!-- Generator: Adobe Illustrator 22.1.0, SVG Export Plug-In . SVG Version: 6.00 Build 0)  -->
<svg version="1.1" id="Layer_1" xmlns="http://www.w3.org/2000/svg" xmlns:xlink="http://www.w3.org/1999/xlink" x="0px" y="0px"
	 viewBox="0 0 100 100" style="enable-background:new 0 0 100 100;" xml:space="preserve">
<style type="text/css">
	.st0{fill:#009688;}
	.st1{fill:#009688;}
</style>
<g>
	<g>
		<polygon class="st0" points="23.6,43.5 34.8,39.6 34.8,14.3 23.6,14.3 		"/>
		<polygon class="st0" points="54.2,43.5 65.3,39.6 65.3,14.3 54.2,14.3 		"/>
		<path class="st1" d="M10,95.5h80V68.3H10V95.5z M48.3,72.5h8.6v13.7h-8.6V72.5z M33.1,72.5h8.6v13.7h-8.6V72.5z M17.4,72.5H26
			v13.7h-8.6V72.5z"/>
		<polygon class="st1" points="71.1,52.2 68.9,41.1 41.1,52.2 37.8,41.1 10,52.2 10,64 90,64 90,52.2 		"/>
		<path class="st0" d="M18.6,12.5c1.4-0.3,2.5-1.1,3.3-1.9c0.9-0.9,1.6-1.7,2.6-2.3c1-0.5,2.2-0.7,3-0.5c0.8,0.1,1.2,0.5,1.8,1.3
			c0.5,0.8,0.9,1.9,1.4,3h0.2c0.4-1.2,0.4-2.4,0-3.7c-0.2-0.6-0.6-1.3-1.2-1.8c-0.6-0.5-1.5-0.8-2.2-0.7C25.9,6,25,7,24.1,7.7
			c-0.9,0.7-1.9,1.4-2.9,1.9c-1,0.4-2,0.7-2.9,0.8c-0.9,0-1.6-0.3-2.3-0.8c-1.4-1.1-2.6-3-3.8-5l-0.2,0c-0.2,2.4,0.4,5,2.5,6.9
			C15.5,12.4,17.2,12.8,18.6,12.5z"/>
		<path class="st0" d="M53.1,12.7c1.1-0.2,1.8-0.8,2.4-1.5c0.6-0.6,1-1.3,1.7-1.6c0.7-0.4,1.6-0.3,2-0.2c0.4,0.1,0.6,0.2,1,0.7
			c0.4,0.5,0.7,1.2,1.2,2h0.2c0.4-0.8,0.5-1.7,0.2-2.7c-0.1-0.5-0.4-1-0.9-1.4c-0.5-0.4-1.2-0.6-1.7-0.5c-1.2,0.2-1.8,1-2.4,1.5
			c-0.7,0.5-1.3,1-2.1,1.2c-0.7,0.2-1.4,0.4-1.9,0.4c-0.5,0-0.9-0.2-1.3-0.5c-0.9-0.6-1.8-1.9-2.8-3.2l-0.2,0
			c-0.3,1.7,0,3.6,1.5,5.1C50.8,12.6,52.1,12.9,53.1,12.7z"/>
	</g>
</g>
</svg>
