<?xml version="1.0" encoding="utf-8"?>
<!-- Generator: Adobe Illustrator 22.1.0, SVG Export Plug-In . SVG Version: 6.00 Build 0)  -->
<svg version="1.1" id="Layer_1" xmlns="http://www.w3.org/2000/svg" xmlns:xlink="http://www.w3.org/1999/xlink" x="0px" y="0px"
	 viewBox="0 0 100 100" style="enable-background:new 0 0 100 100;" xml:space="preserve">
<style type="text/css">
	.st0{fill:#009688;}
	.st1{fill:#009688;}
</style>
<g>
	<g>
		<g>
			<g>
				<path class="st0" d="M50.9,44.7c2.5-0.8,5-1.4,7.4-2.1c0.2-0.1,0.5-0.3,0.6-0.5c0.3-0.6,0.7-1.2,0.8-1.8c1-4.2-1.8-8.2-5.9-8.6
					c-0.4,0-0.7-0.1-1.1-0.1c-0.3,0-0.6,0.1-0.9,0.2c-3.5,0.4-6.2,4.1-5.7,7.5c0.3,2.2,1.4,4,3.3,5.2C49.8,44.6,50.2,44.9,50.9,44.7
					z"/>
				<path class="st0" d="M56.6,46c-3.3,0.9-6.5,1.8-9.7,2.8c2.1,1,4.2,1.9,6.4,2.4l1.2,0.3c2.8,0.7,5.6,1.4,8.5,2.2
					c0.7,0.2,1.3,0.5,1.9,0.8c4.1-1.1,8.1-2.3,12.2-3.4c1.1-0.3,2.1-0.4,3.2,0.3c0.8,0.5,1.7,0.8,2.5,1.3c2.2,1.1,4.5,1.7,6.9,1
					c1.4-0.4,2.6-1.1,4-1.7c2.3-1,3.4-2.6,3.4-5.1c0-1.6-0.6-2.1-2.1-1.6c-1.7,0.5-3.4,0.9-5,1.4c-1.5,0.4-2.5-0.2-2.9-1.6
					c-0.3-1.3-0.7-2.5-1-3.8c-0.1-0.5-0.1-1,0-1.5c0.3-1.1,1.3-1.3,2.2-1.6c1.6-0.5,3.3-0.9,4.9-1.4c0.6-0.2,1.2-0.5,1-1.2
					c-0.5-1.7-1.5-2.9-3.2-3.6c-1.3-0.5-2.6-0.2-3.9-0.1c-2.4,0.2-4.7,0.6-6.3,2.4c-1.3,1.4-2.2,3.1-3.4,4.6c-0.5,0.7-0.7,1.7-1.8,2
					c-2.2,0.6-4.3,1.3-6.5,1.9C64.7,43.8,60.6,44.9,56.6,46z"/>
				<path class="st0" d="M35.4,40.4c1,0.2,1.9,0.3,2.9,0.5c0.2,0,0.5,0.2,0.5,0.3c0.2,0.8,0.4,1.6,0.6,2.4c-0.7,0.5-1.3,1-2,1.5
					c1.8,0.3,3.5,1,5.1,1.6c0,0,0.1,0,0.1,0.1c1.3-0.3,2.6-0.6,3.8-1.1c-3.9-3.6-4.4-9.1-1.5-13.1c3-4.1,7.6-5.2,12.1-3.3
					c2.3,1,3.9,2.7,4.9,5c1,2.3,1,4.6,0.4,7c2.7-0.7,5.4-1.5,8.1-2.2c0.3-0.1,0.8-0.2,1-0.4c0.7-0.8,0-2.3-1-2.4
					c-1.1-0.1-2.1-0.3-3.2-0.4c-0.3-0.9-0.5-1.8-0.8-2.8c0.3-0.2,0.7-0.5,1.1-0.8c0.4-0.3,0.8-0.6,1.1-0.9c0.8-0.6,1.1-1.4,0.5-2.3
					c-1.1-1.5-2.2-3-3.4-4.4c-0.6-0.7-1.5-0.6-2.3,0c-0.7,0.6-1.4,1.2-2.1,1.7c-0.9-0.5-1.7-1-2.6-1.4c0.1-1,0.3-2.1,0.4-3.1
					c0.1-0.9-0.3-1.4-1.2-1.5c-1.8-0.2-3.7-0.4-5.6-0.7c-0.7-0.1-1.2,0.2-1.4,0.8c-0.2,0.7-0.3,1.4-0.4,2.2
					c-0.2,1.3-0.2,1.3-1.5,1.7c-0.3,0.1-0.6,0.3-1,0.3c-0.2,0-0.5-0.1-0.7-0.3c-0.5-0.6-0.9-1.3-1.5-1.9c-0.8-0.9-1.6-1-2.5-0.2
					c-1.3,1-2.5,2-3.8,3c-1,0.8-1.1,1.6-0.3,2.5c0.6,0.7,1.2,1.5,1.8,2.1c-0.5,0.8-0.8,1.5-1.3,2.2c-0.1,0.2-0.4,0.3-0.7,0.3
					c-0.8-0.1-1.7-0.2-2.5-0.3c-1-0.1-1.6,0.3-1.8,1.3c-0.3,1.8-0.5,3.5-0.6,5.3C34.3,39.6,34.5,40.3,35.4,40.4z"/>
			</g>
			<path class="st1" d="M20.7,67.5c2,0.9,4,1.9,6,2.8c7.4,3.3,14.9,6.5,22.8,8.7c2.8,0.8,5.6,1.6,8.5,1.1c2.3-0.4,4.6-1,6.9-1.7
				c7.4-2.5,14.5-5.9,21.5-9.3c3.6-1.7,7.1-3.5,11-5.4c-0.6-0.4-1-0.7-1.4-1c-1.7-1.2-3.6-1.7-5.6-1.8c-2.9-0.3-5.8,0.3-8.6,1
				c-4.7,1.3-9.6,2-14.1,4.3c-2.3,1.2-4.9,1.2-7.5,1c-2.5-0.2-5-0.4-7.5-1c-4.8-1-9.5-2.2-14.2-3.4c-1.2-0.3-1.8-1.6-1.4-2.7
				c0.4-1.2,1.5-1.7,2.7-1.4c2.7,0.7,5.5,1.5,8.2,2.2c5.1,1.2,10.2,2.3,15.5,1.9c0.9-0.1,1.7-0.3,2.5-0.6c1.2-0.5,1.5-1.3,0.9-2.4
				c-0.2-0.5-0.6-1.1-1-1.3c-1.3-0.8-2.6-1.6-4-2c-3.1-0.9-6.3-1.7-9.5-2.5c-3.9-1-7.5-2.9-11.1-4.5c-1.6-0.7-3.3-1.4-5-1.5
				c-4.2-0.4-8.4,0.3-12.5,1.6c-0.3,0.1-0.6,0.5-0.8,0.9c-0.2,0.4-0.2,0.9-0.2,1.4C22.2,57,21.5,62.2,20.7,67.5z M2.5,71.6
				c3.9,0,7.7,0,11.6,0c1,0,1.8-0.9,1.9-1.9c0.5-3.4,1-6.9,1.5-10.3c0.6-4,1.2-7.9,1.8-11.9c0.2-1.3-0.5-2.3-1.8-2.6
				c-2.9-0.6-5.9-1.2-8.8-1.8c-2-0.4-4-0.8-6.1-1.2C2.5,51.8,2.5,61.6,2.5,71.6z"/>
		</g>
	</g>
</g>
</svg>
