<?xml version="1.0" encoding="utf-8"?>
<!-- Generator: Adobe Illustrator 22.1.0, SVG Export Plug-In . SVG Version: 6.00 Build 0)  -->
<svg version="1.1" id="Layer_1" xmlns="http://www.w3.org/2000/svg" xmlns:xlink="http://www.w3.org/1999/xlink" x="0px" y="0px"
	 viewBox="0 0 100 100" style="enable-background:new 0 0 100 100;" xml:space="preserve">
<style type="text/css">
	.st0{fill:#009688;}
	.st1{fill:#009688;}
</style>
<g>
	<g>
		<path class="st0" d="M35,17.6l20.8,12c0.6,0.3,1.3,0.1,1.6-0.4l0.6-1c0.3-0.6,0.1-1.3-0.4-1.6l-20.8-12c-0.6-0.3-1.3-0.1-1.6,0.4
			l-0.6,1C34.3,16.5,34.5,17.2,35,17.6z"/>
		<path class="st0" d="M39.6,57.6l-20.8-12c-0.6-0.3-1.3-0.1-1.6,0.4l-0.6,1c-0.3,0.6-0.1,1.3,0.4,1.6l20.8,12
			c0.6,0.3,1.3,0.1,1.6-0.4l0.6-1C40.4,58.7,40.2,58,39.6,57.6z"/>
		<path class="st0" d="M90.3,63.4L48.7,41.8l5.6-9.7c0.3-0.6,0.1-1.3-0.4-1.6L35.2,19.7c-0.6-0.3-1.3-0.1-1.6,0.4L20.3,43
			c-0.3,0.6-0.1,1.3,0.4,1.6l18.7,10.8c0.6,0.3,1.3,0.1,1.6-0.4l5.6-9.7l39.5,25.3c0.6,0.4,1.3,0.2,1.6-0.4l3-5.2
			C91.1,64.4,90.9,63.7,90.3,63.4z"/>
		<path class="st0" d="M96.9,66.4l-2.1-1.2c-0.6-0.3-1.3-0.1-1.6,0.4l-3.6,6.2c-0.3,0.6-0.1,1.3,0.4,1.6l2.1,1.2
			c0.6,0.3,1.3,0.1,1.6-0.4l3.6-6.2C97.7,67.5,97.5,66.8,96.9,66.4z"/>
	</g>
	<path class="st1" d="M52,73.8h-2.5c0.3-0.4,0.5-0.8,0.5-1.3v-2c0-1.1-0.9-2-2-2H8.4c-1.1,0-2,0.9-2,2v2c0,0.5,0.2,1,0.5,1.3H4.5
		c-1.1,0-2,0.9-2,2v7.9c0,1.1,0.9,2,2,2H52c1.1,0,2-0.9,2-2v-7.9C54,74.7,53.1,73.8,52,73.8z M49.2,83H7.5c-1.1,0-2.1-0.9-2.1-2.1
		v-2.1c0-1.1,0.9-2.1,2.1-2.1h41.7c1.2,0,2.1,0.9,2.1,2.1l0,2.1C51.3,82.1,50.3,83,49.2,83z"/>
</g>
</svg>
