<?xml version="1.0" encoding="utf-8"?>
<!-- Generator: Adobe Illustrator 22.1.0, SVG Export Plug-In . SVG Version: 6.00 Build 0)  -->
<svg version="1.1" id="Layer_1" xmlns="http://www.w3.org/2000/svg" xmlns:xlink="http://www.w3.org/1999/xlink" x="0px" y="0px"
	 viewBox="0 0 100 100" style="enable-background:new 0 0 100 100;" xml:space="preserve">
<style type="text/css">
	.st0{fill:#009688;}
	.st1{fill:#009688;}
</style>
<g>
	<path class="st0" d="M94.4,60.8l-4.6-4.6c-1.8-1.8-5-1.8-6.9,0L57.7,81.3l-3.5,12.7l-0.8,0.8c-0.6,0.6-0.6,1.7,0,2.3l0,0l0,0
		c0.3,0.3,0.7,0.5,1.1,0.5c0.4,0,0.8-0.2,1.2-0.5l0.8-0.8l12.7-3.5l25.1-25.1C96.3,65.8,96.3,62.7,94.4,60.8z M61.5,82.1l16.7-16.7
		l6.9,6.9L68.4,89L61.5,82.1z M60,85.2l5.2,5.2l-7.2,2L60,85.2z M92.1,65.4L87.4,70l-6.9-6.9l4.6-4.6c0.6-0.6,1.7-0.6,2.3,0l4.6,4.6
		C92.7,63.7,92.7,64.8,92.1,65.4z"/>
	<path class="st0" d="M15.9,61.3h42.4c0.9,0,1.6-0.7,1.6-1.6S59.2,58,58.3,58H15.9c-0.9,0-1.6,0.7-1.6,1.6S15,61.3,15.9,61.3z"/>
	<path class="st0" d="M51.8,67.8H15.9c-0.9,0-1.6,0.7-1.6,1.6S15,71,15.9,71h35.9c0.9,0,1.6-0.7,1.6-1.6S52.7,67.8,51.8,67.8z"/>
	<path class="st0" d="M15.9,31.9h21.2c0.9,0,1.6-0.7,1.6-1.6s-0.7-1.6-1.6-1.6H15.9c-0.9,0-1.6,0.7-1.6,1.6S15,31.9,15.9,31.9z"/>
	<path class="st0" d="M37.1,80.8c0.9,0,1.6-0.7,1.6-1.6s-0.7-1.6-1.6-1.6H15.9c-0.9,0-1.6,0.7-1.6,1.6s0.7,1.6,1.6,1.6H37.1z"/>
	<path class="st0" d="M63.2,38.4H15.9c-0.9,0-1.6,0.7-1.6,1.6s0.7,1.6,1.6,1.6h47.3c0.9,0,1.6-0.7,1.6-1.6S64.1,38.4,63.2,38.4z"/>
	<path class="st0" d="M15.9,51.5h22.8c0.9,0,1.6-0.7,1.6-1.6s-0.7-1.6-1.6-1.6H15.9c-0.9,0-1.6,0.7-1.6,1.6S15,51.5,15.9,51.5z"/>
	<path class="st0" d="M64.8,49.8c0-0.9-0.7-1.6-1.6-1.6H51.8c-0.9,0-1.6,0.7-1.6,1.6s0.7,1.6,1.6,1.6h11.4
		C64.1,51.5,64.8,50.7,64.8,49.8z"/>
	<path class="st0" d="M46.4,51c0.3-0.3,0.5-0.7,0.5-1.2c0-0.4-0.2-0.8-0.5-1.2c-0.6-0.6-1.7-0.6-2.3,0c-0.3,0.3-0.5,0.7-0.5,1.2
		c0,0.4,0.2,0.8,0.5,1.2c0.3,0.3,0.7,0.5,1.2,0.5C45.7,51.5,46.1,51.3,46.4,51z"/>
	<path class="st1" d="M45.3,93.9H7.8V15.6h11.4v3.3c0,0.9,0.7,1.6,1.6,1.6h37.5c0.9,0,1.6-0.7,1.6-1.6v-3.3h11.4v35.9
		c0,0.9,0.7,1.6,1.6,1.6s1.6-0.7,1.6-1.6V14c0-0.9-0.7-1.6-1.6-1.6h-13V9.1c0-0.9-0.7-1.6-1.6-1.6h-9.8V4.2c0-0.9-0.7-1.6-1.6-1.6
		H32.2c-0.9,0-1.6,0.7-1.6,1.6v3.3h-9.8c-0.9,0-1.6,0.7-1.6,1.6v3.3h-13c-0.9,0-1.6,0.7-1.6,1.6v81.5c0,0.9,0.7,1.6,1.6,1.6h39.1
		c0.9,0,1.6-0.7,1.6-1.6S46.2,93.9,45.3,93.9z M33.8,5.8h11.4v3.3v3.3H33.8V9.1V5.8z M22.4,10.7h8.2V14c0,0.9,0.7,1.6,1.6,1.6h14.7
		c0.9,0,1.6-0.7,1.6-1.6v-3.3h8.2V14v3.3H22.4V14C22.4,14,22.4,10.7,22.4,10.7z"/>
</g>
</svg>
