<?xml version="1.0" encoding="utf-8"?>
<!-- Generator: Adobe Illustrator 22.1.0, SVG Export Plug-In . SVG Version: 6.00 Build 0)  -->
<svg version="1.1" id="Layer_1" xmlns="http://www.w3.org/2000/svg" xmlns:xlink="http://www.w3.org/1999/xlink" x="0px" y="0px"
	 viewBox="0 0 100 100" style="enable-background:new 0 0 100 100;" xml:space="preserve">
<style type="text/css">
	.st0{fill:#009688;}
</style>
<g>
	<g>
		<g>
			<path class="st0" d="M95.8,85.3L95.8,85.3l-0.1-39.6c0.9-0.9,1.5-2.3,1.5-3.8c0-2.5-1.5-4.6-3.6-5l-5.1-8.8
				c0.7-0.9,1.2-2.1,1.2-3.5c0-2.8-2-5.1-4.4-5.1H59.6l-7.4-6c-1.5-1.2-3.5-1.2-5,0L32.3,25.6c-2,1.6-2.5,4.8-1.1,7.1
				c0.6,0.9,1.3,1.6,2.2,1.9v2.2H14c-2.4,0-4.4,2.3-4.4,5.1c0,1.3,0.5,2.6,1.2,3.5l-5.1,8.8c-2,0.4-3.6,2.5-3.6,5
				c0,1.5,0.6,2.9,1.5,3.8v22.3H3.6c-0.8,0-1.4,0.7-1.4,1.6c0,0.9,0.6,1.6,1.4,1.6h92.2c0.8,0,1.4-0.7,1.4-1.6
				C97.2,86,96.6,85.3,95.8,85.3z M85.4,22.7L85.4,22.7c0.9,0,1.6,0.8,1.6,1.8c0,1-0.7,1.8-1.6,1.8H67.8c-0.2-0.3-0.5-0.6-0.8-0.8
				l-3.5-2.9C63.5,22.7,85.4,22.7,85.4,22.7z M14,40.1h19.4v3.7H14c-0.9,0-1.6-0.8-1.6-1.8C12.4,40.9,13.1,40.1,14,40.1z M27.5,85.3
				L27.5,85.3H12.4V71.2h15.1V85.3z M33.4,85.3h-3.2V69.6c0-0.9-0.6-1.6-1.4-1.6H11c-0.8,0-1.4,0.7-1.4,1.6v15.7H6.4v-21
				c0,0,0.1,0,0.1,0h26.9V85.3z M52.7,85.3h-6.1V71.2h6.1V85.3z M63.2,85.3h-7.6V69.6c0-0.9-0.6-1.6-1.4-1.6h-8.9
				c-0.8,0-1.4,0.7-1.4,1.6v15.7h-7.6v-21h26.9c0,0,0.1,0,0.1,0V85.3z M63.1,61.1H6.5c-0.9,0-1.6-0.8-1.6-1.8c0-1,0.7-1.8,1.6-1.8
				c0,0,0,0,0,0c0,0,0,0,0,0h5.9c0.8,0,1.4-0.7,1.4-1.6c0-0.9-0.6-1.6-1.4-1.6H9.1l4.1-7.2c0.2,0,0.5,0.1,0.7,0.1h19.4v7.2h-15
				c-0.8,0-1.4,0.7-1.4,1.6c0,0.9,0.6,1.6,1.4,1.6h44.6c0.9,0,1.6,0.8,1.6,1.8C64.6,60.2,63.9,61.1,63.1,61.1z M58.6,43.7h-5.9
				c-0.8,0-1.4,0.7-1.4,1.6v8.8h-3.2v-8.8c0-0.9-0.6-1.6-1.4-1.6h-5.9c-0.8,0-1.4,0.7-1.4,1.6v8.8h-3.2V34.6
				c0.4-0.2,0.8-0.4,1.1-0.7l12.4-10.1L62,33.9c0.3,0.3,0.7,0.5,1.1,0.7v19.5c0,0-0.1,0-0.1,0H60v-8.8C60,44.5,59.4,43.7,58.6,43.7z
				 M57.2,47v7.2H54V47H57.2z M45.3,47v7.2h-3.2V47H45.3z M64.5,31.6c-0.3,0-0.6-0.1-0.9-0.3L50.5,20.5c-0.2-0.2-0.5-0.3-0.8-0.3
				c-0.3,0-0.6,0.1-0.8,0.3L35.7,31.3c-0.7,0.6-1.7,0.4-2.2-0.5c-0.5-0.8-0.3-2,0.4-2.6l14.9-12.1c0.5-0.4,1.3-0.4,1.8,0l14.9,12.1
				c0.7,0.6,0.9,1.7,0.4,2.6C65.5,31.3,65.1,31.6,64.5,31.6z M92.9,85.3h-27V63c0.9-0.9,1.5-2.3,1.5-3.8s-0.6-2.9-1.5-3.8V47h26.9
				c0,0,0.1,0,0.1,0V85.3z M92.8,43.7H65.9v-3.7l9,0c0.8,0,1.4-0.7,1.4-1.6c0-0.9-0.6-1.6-1.4-1.6l-9,0v-2.2c0.9-0.3,1.6-1,2.2-1.9
				c0.6-0.9,0.8-2,0.8-3h16.5c0.2,0,0.5,0,0.7-0.1l4.1,7.2h-1.9c-0.8,0-1.4,0.7-1.4,1.6s0.6,1.6,1.4,1.6h4.5c0,0,0,0,0,0
				c0,0,0,0,0,0c0.9,0,1.6,0.8,1.6,1.8C94.4,42.9,93.7,43.7,92.8,43.7z"/>
		</g>
	</g>
	<g>
		<g>
			<path class="st0" d="M50.4,36.8h-1.5c-0.8,0-1.4,0.7-1.4,1.6c0,0.9,0.6,1.6,1.4,1.6h1.5c0.8,0,1.4-0.7,1.4-1.6
				C51.8,37.5,51.2,36.8,50.4,36.8z"/>
		</g>
	</g>
	<g>
		<g>
			<path class="st0" d="M27.3,29.9c-2.4,0-4.4,2.3-4.4,5.1c0,2.8,2,5.1,4.4,5.1s4.4-2.3,4.4-5.1C31.7,32.2,29.7,29.9,27.3,29.9z
				 M27.3,36.8c-0.9,0-1.6-0.8-1.6-1.8c0-1,0.7-1.8,1.6-1.8c0.9,0,1.6,0.8,1.6,1.8C28.9,36,28.2,36.8,27.3,36.8z"/>
		</g>
	</g>
	<g>
		<g>
			<path class="st0" d="M52.6,68h-5.9c-0.8,0-1.4,0.7-1.4,1.6V80c0,0.9,0.6,1.6,1.4,1.6h5.9c0.8,0,1.4-0.7,1.4-1.6V69.6
				C54,68.7,53.4,68,52.6,68z M51.3,78.4h-3.2v-7.2h3.2V78.4z"/>
		</g>
	</g>
	<g>
		<g>
			<path class="st0" d="M52.6,68h-5.9c-0.8,0-1.4,0.7-1.4,1.6V80c0,0.9,0.6,1.6,1.4,1.6h5.9c0.8,0,1.4-0.7,1.4-1.6V69.6
				C54,68.7,53.4,68,52.6,68z M51.3,78.4h-3.2v-7.2h3.2V78.4z"/>
		</g>
	</g>
	<g>
		<g>
			<path class="st0" d="M52.6,50.7h-5.9c-0.8,0-1.4,0.7-1.4,1.6v10.4c0,0.9,0.6,1.6,1.4,1.6h5.9c0.8,0,1.4-0.7,1.4-1.6V52.3
				C54,51.4,53.4,50.7,52.6,50.7z M51.3,61.1h-3.2v-7.2h3.2V61.1z"/>
		</g>
	</g>
	<g>
		<g>
			<path class="st0" d="M52.6,50.7h-5.9c-0.8,0-1.4,0.7-1.4,1.6v10.4c0,0.9,0.6,1.6,1.4,1.6h5.9c0.8,0,1.4-0.7,1.4-1.6V52.3
				C54,51.4,53.4,50.7,52.6,50.7z M51.3,61.1h-3.2v-7.2h3.2V61.1z"/>
		</g>
	</g>
</g>
</svg>
