<?xml version="1.0" encoding="utf-8"?>
<!-- Generator: Adobe Illustrator 22.0.1, SVG Export Plug-In . SVG Version: 6.00 Build 0)  -->
<svg version="1.1" id="Layer_1" xmlns="http://www.w3.org/2000/svg" xmlns:xlink="http://www.w3.org/1999/xlink" x="0px" y="0px"
	 viewBox="0 0 100 100" style="enable-background:new 0 0 100 100;" xml:space="preserve">
<style type="text/css">
	.st0{fill:#009688;}
	.st1{fill:#009688;}
</style>
<g>
	<g>
		<path class="st0" d="M21.2,24.8c0,19.2,0,38.4,0,57.6c9.6,0,19.2,0,28.8,0c0-19.2,0-38.4,0-57.6C40.4,24.8,30.8,24.8,21.2,24.8z
			 M39.2,32c2.4,0,4.8,0,7.2,0c0,2.4,0,4.8,0,7.2c-2.4,0-4.8,0-7.2,0C39.2,36.8,39.2,34.4,39.2,32z M24.8,32c2.4,0,4.7,0,7.1,0
			c0,2.4,0,4.8,0,7.2c-2.4,0-4.7,0-7.1,0C24.8,36.8,24.8,34.4,24.8,32z M31.9,46.5c0,2.4,0,4.7,0,7.1c-2.4,0-4.7,0-7.1,0
			c0-2.4,0-4.8,0-7.1C27.2,46.5,29.5,46.5,31.9,46.5z M31.9,68c-2.4,0-4.7,0-7.1,0c0-2.4,0-4.8,0-7.1c2.4,0,4.8,0,7.1,0
			C31.9,63.3,31.9,65.7,31.9,68z M46.4,68c-2.4,0-4.8,0-7.2,0c0-2.4,0-4.8,0-7.1c2.4,0,4.8,0,7.2,0C46.4,63.3,46.4,65.6,46.4,68z
			 M46.4,53.6c-2.4,0-4.8,0-7.2,0c0-2.4,0-4.7,0-7.1c2.4,0,4.8,0,7.2,0C46.4,48.9,46.4,51.2,46.4,53.6z"/>
		<path class="st0" d="M78.8,42.9c-8.4,0-16.8,0-25.2,0c0,1.2,0,2.4,0,3.6c8.4,0,16.8,0,25.2,0C78.8,45.2,78.8,44.1,78.8,42.9z"/>
		<path class="st0" d="M53.6,50.1c0,10.8,0,21.6,0,32.4c2.4,0,4.8,0,7.2,0c0-4.8,0-9.6,0-14.4c3.6,0,7.2,0,10.8,0c0,0.2,0,0.3,0,0.4
			c0,4.5,0,9,0,13.6c0,0.3,0.1,0.4,0.4,0.4c2.1,0,4.3,0,6.4,0c0.1,0,0.3,0,0.4,0c0-10.8,0-21.6,0-32.4C70.4,50.1,62,50.1,53.6,50.1z
			"/>
	</g>
	<g>
		<path class="st1" d="M77.1,28.2c0,3-1,5.6-3.1,7.7c-2.1,2.1-4.6,3.2-7.6,3.3c-3,0-5.6-1-7.7-3.1c-2.1-2.1-3.2-4.6-3.3-7.6
			c0-3,1-5.6,3.1-7.7c2.1-2.1,4.6-3.2,7.6-3.3c3,0,5.6,1,7.7,3.1C75.9,22.7,77,25.2,77.1,28.2z M68.4,35.1v-0.5h-1.1v-8.3h-3.2v0.6
			h1.1v7.7h-1.1v0.5H68.4z M67.3,21.8c-0.3-0.3-0.7-0.4-1.1-0.4c-0.5,0-0.8,0.1-1.1,0.4c-0.3,0.3-0.4,0.7-0.4,1.1
			c0,0.5,0.1,0.8,0.4,1.1c0.3,0.3,0.7,0.4,1.1,0.4c0.5,0,0.8-0.1,1.1-0.4c0.3-0.3,0.4-0.7,0.4-1.1C67.8,22.5,67.6,22.1,67.3,21.8z"
			/>
	</g>
</g>
</svg>
