<?xml version="1.0" encoding="utf-8"?>
<!-- Generator: Adobe Illustrator 22.0.1, SVG Export Plug-In . SVG Version: 6.00 Build 0)  -->
<svg version="1.1" id="Layer_1" xmlns="http://www.w3.org/2000/svg" xmlns:xlink="http://www.w3.org/1999/xlink" x="0px" y="0px"
	 viewBox="0 0 200 200" style="enable-background:new 0 0 200 200;" xml:space="preserve">
<g>
	<g>
		<path fill="#1184C0" d="M18.1,80.1c0,0.2,0,0.3-0.1,0.4c-0.1,0.1-0.1,0.2-0.2,0.3c-0.1,0.1-0.2,0.1-0.3,0.2c-0.1,0-0.2,0.1-0.4,0.1
			H16c-0.2,0-0.4,0-0.6-0.1c-0.2,0-0.3-0.1-0.5-0.3c-0.1-0.1-0.3-0.3-0.4-0.5c-0.1-0.2-0.3-0.5-0.4-0.9L10.9,73
			c-0.2-0.4-0.4-0.8-0.6-1.2c-0.2-0.4-0.4-0.9-0.5-1.3h0c0,0.5,0,1,0.1,1.5c0,0.5,0,1,0,1.6v7.2c0,0.1,0,0.1-0.1,0.2
			C9.8,81,9.7,81,9.6,81c-0.1,0-0.2,0.1-0.4,0.1c-0.2,0-0.3,0-0.6,0c-0.2,0-0.4,0-0.6,0c-0.2,0-0.3-0.1-0.4-0.1
			c-0.1,0-0.1-0.1-0.2-0.1c0-0.1,0-0.1,0-0.2V68.3c0-0.3,0.1-0.6,0.3-0.7c0.2-0.2,0.4-0.2,0.7-0.2h1.4c0.3,0,0.5,0,0.6,0.1
			c0.2,0,0.3,0.1,0.5,0.2c0.1,0.1,0.3,0.3,0.4,0.4c0.1,0.2,0.2,0.4,0.4,0.7l2.5,5c0.1,0.3,0.3,0.6,0.4,0.9c0.1,0.3,0.3,0.6,0.4,0.9
			c0.1,0.3,0.3,0.6,0.4,0.9c0.1,0.3,0.2,0.6,0.4,0.9h0c0-0.5,0-1,0-1.6c0-0.5,0-1.1,0-1.5v-6.5c0-0.1,0-0.1,0.1-0.2
			c0-0.1,0.1-0.1,0.2-0.1c0.1,0,0.2-0.1,0.4-0.1c0.2,0,0.3,0,0.6,0c0.2,0,0.4,0,0.6,0c0.2,0,0.3,0,0.4,0.1c0.1,0,0.1,0.1,0.2,0.1
			c0,0.1,0,0.1,0,0.2V80.1z"/>
		<path fill="#1184C0" d="M29.4,68.5c0,0.2,0,0.4,0,0.5c0,0.1,0,0.3-0.1,0.4c0,0.1-0.1,0.2-0.1,0.2c0,0-0.1,0.1-0.2,0.1h-3.2v11.1
			c0,0.1,0,0.1-0.1,0.2c0,0.1-0.1,0.1-0.2,0.1c-0.1,0-0.2,0.1-0.4,0.1c-0.2,0-0.4,0-0.6,0c-0.3,0-0.5,0-0.6,0c-0.2,0-0.3,0-0.4-0.1
			c-0.1,0-0.2-0.1-0.2-0.1c0-0.1-0.1-0.1-0.1-0.2V69.6H20c-0.1,0-0.1,0-0.2-0.1c0,0-0.1-0.1-0.1-0.2c0-0.1-0.1-0.2-0.1-0.4
			c0-0.1,0-0.3,0-0.5c0-0.2,0-0.4,0-0.5c0-0.1,0-0.3,0.1-0.4c0-0.1,0.1-0.2,0.1-0.2c0,0,0.1-0.1,0.2-0.1h9c0.1,0,0.1,0,0.2,0.1
			c0,0,0.1,0.1,0.1,0.2c0,0.1,0.1,0.2,0.1,0.4C29.4,68.1,29.4,68.3,29.4,68.5z"/>
	</g>
	<g>
		<linearGradient id="SVGID_1_" gradientUnits="userSpaceOnUse" x1="28.4728" y1="118.2333" x2="28.4728" y2="81.9315">
			<stop  offset="0" style="stop-color:#163C72"/>
			<stop  offset="1" style="stop-color:#1184C0"/>
		</linearGradient>
		<polygon fill="url(#SVGID_1_)" points="36.6,81.9 20.4,106.8 20.3,107.1 36.6,118.2 		"/>
		<linearGradient id="SVGID_2_" gradientUnits="userSpaceOnUse" x1="51.7311" y1="132.7181" x2="51.7311" y2="109.2106">
			<stop  offset="0" style="stop-color:#163C72"/>
			<stop  offset="1" style="stop-color:#1184C0"/>
		</linearGradient>
		<path fill="url(#SVGID_2_)" d="M40.3,119.8l19,12.9h0.6c2.3,0,3.9-2.4,3.1-4.6l-7.1-18.9L40.3,119.8z"/>
		<linearGradient id="SVGID_3_" gradientUnits="userSpaceOnUse" x1="46.8778" y1="118.237" x2="46.8778" y2="81.929">
			<stop  offset="0" style="stop-color:#163C72"/>
			<stop  offset="1" style="stop-color:#1184C0"/>
		</linearGradient>
		<polygon fill="url(#SVGID_3_)" points="38.7,118.2 55,107.1 54.9,106.9 38.7,81.9 		"/>
		<linearGradient id="SVGID_4_" gradientUnits="userSpaceOnUse" x1="23.6201" y1="132.7181" x2="23.6201" y2="109.2137">
			<stop  offset="0" style="stop-color:#163C72"/>
			<stop  offset="1" style="stop-color:#1184C0"/>
		</linearGradient>
		<path fill="url(#SVGID_4_)" d="M15.5,132.7h0.6l19-12.9l-15.5-10.6l-7.1,18.9C11.6,130.3,13.2,132.7,15.5,132.7z"/>
		<linearGradient id="SVGID_5_" gradientUnits="userSpaceOnUse" x1="30.3284" y1="97.3013" x2="30.3284" y2="67.4431">
			<stop  offset="0" style="stop-color:#163C72"/>
			<stop  offset="1" style="stop-color:#1184C0"/>
		</linearGradient>
		<path fill="url(#SVGID_5_)" d="M36.6,78l0-10.5c-0.9,0.3-1.6,1-2,2L24.1,97.3L36.6,78z"/>
		<linearGradient id="SVGID_6_" gradientUnits="userSpaceOnUse" x1="45.0272" y1="97.317" x2="45.0272" y2="67.4429">
			<stop  offset="0" style="stop-color:#163C72"/>
			<stop  offset="1" style="stop-color:#1184C0"/>
		</linearGradient>
		<path fill="url(#SVGID_6_)" d="M38.7,78l12.6,19.4L40.8,69.4c-0.4-1-1.1-1.7-2-2L38.7,78z"/>
	</g>
	<g>
		<linearGradient id="SVGID_7_" gradientUnits="userSpaceOnUse" x1="90.9644" y1="106.7928" x2="90.9644" y2="67.7421">
			<stop  offset="0" style="stop-color:#163C72"/>
			<stop  offset="1" style="stop-color:#1184C0"/>
		</linearGradient>
		<path fill="url(#SVGID_7_)" d="M78.2,106.8V78h6.2c3.7,0,6.8,0.5,9.1,1.6c2.3,1.1,4.2,2.6,5.7,4.5c1.5,1.9,2.5,4.2,3.2,6.8
			c0.7,2.6,1,5.5,1,8.5c0,2.7-0.2,5.1-0.6,7.3h12.7c0.3-2.4,0.5-5,0.5-7.7c0-5.1-0.7-9.6-2-13.5c-1.3-3.9-3.3-7.2-5.8-9.8
			s-5.7-4.6-9.4-6c-3.7-1.3-8.3-2-13.6-2H69.6c-1,0-1.9,0.3-2.6,1c-0.7,0.6-1,1.7-1,3.2v34.9H78.2z"/>
		<linearGradient id="SVGID_8_" gradientUnits="userSpaceOnUse" x1="136.3084" y1="106.7928" x2="136.3084" y2="66.5953">
			<stop  offset="0" style="stop-color:#163C72"/>
			<stop  offset="1" style="stop-color:#1184C0"/>
		</linearGradient>
		<path fill="url(#SVGID_8_)" d="M121.7,97.1c1.2,1.4,2.5,2.6,4.1,3.6c1.5,1,3.1,1.9,4.7,2.7c1.6,0.8,3.2,1.6,4.7,2.3c0.7,0.3,1.4,0.7,2,1H155
			c-0.1-0.2-0.1-0.4-0.2-0.6c-0.7-1.9-1.7-3.6-2.9-5c-1.2-1.4-2.6-2.6-4.1-3.6c-1.5-1-3.1-1.9-4.7-2.7c-1.6-0.8-3.2-1.6-4.7-2.3
			c-1.5-0.7-2.9-1.5-4.2-2.3c-1.2-0.8-2.2-1.7-2.9-2.8c-0.7-1-1.1-2.3-1.1-3.7c0-1,0.2-1.9,0.5-2.7c0.3-0.9,0.8-1.6,1.5-2.2
			c0.7-0.6,1.5-1.1,2.5-1.4c1-0.3,2.2-0.5,3.5-0.5c1.7,0,3.3,0.2,4.7,0.7c1.4,0.4,2.7,0.9,3.8,1.5c1.1,0.5,2,1.1,2.7,1.5
			c0.7,0.5,1.3,0.7,1.6,0.7c0.3,0,0.6-0.1,0.8-0.3c0.2-0.2,0.4-0.5,0.5-0.9c0.1-0.4,0.2-1,0.2-1.6c0-0.7,0.1-1.5,0.1-2.4
			c0-0.9,0-1.6,0-2.2c0-0.6-0.1-1.1-0.2-1.4c-0.1-0.4-0.2-0.7-0.3-0.9c-0.1-0.2-0.3-0.5-0.6-0.8c-0.3-0.3-0.9-0.7-1.9-1.2
			c-1-0.5-2.1-0.9-3.3-1.3c-1.2-0.4-2.6-0.7-4-0.9c-1.4-0.2-2.8-0.3-4.3-0.3c-2.8,0-5.4,0.4-7.8,1.1c-2.5,0.8-4.6,1.9-6.4,3.5
			c-1.8,1.5-3.3,3.5-4.3,5.8s-1.6,5.1-1.6,8.2c0,2.7,0.4,5,1.1,6.9C119.5,94.1,120.5,95.7,121.7,97.1z"/>
		<linearGradient id="SVGID_9_" gradientUnits="userSpaceOnUse" x1="165.6155" y1="106.7928" x2="165.6155" y2="67.4429">
			<stop  offset="0" style="stop-color:#163C72"/>
			<stop  offset="1" style="stop-color:#1184C0"/>
		</linearGradient>
		<path fill="url(#SVGID_9_)" d="M171.7,106.8V69.5c0-0.3-0.1-0.6-0.3-0.9c-0.2-0.3-0.5-0.5-1-0.6c-0.5-0.2-1.1-0.3-1.9-0.4
			c-0.8-0.1-1.8-0.1-3-0.1c-1.2,0-2.2,0-2.9,0.1c-0.8,0.1-1.4,0.2-1.9,0.4c-0.5,0.2-0.8,0.4-1,0.6c-0.2,0.3-0.3,0.6-0.3,0.9v37.3
			H171.7z"/>
		<linearGradient id="SVGID_10_" gradientUnits="userSpaceOnUse" x1="175.9932" y1="132.2579" x2="175.9932" y2="108.9362">
			<stop  offset="0" style="stop-color:#163C72"/>
			<stop  offset="1" style="stop-color:#1184C0"/>
		</linearGradient>
		<path fill="url(#SVGID_10_)" d="M192,122.6c-0.2-0.4-0.3-0.7-0.6-0.9c-0.2-0.2-0.5-0.3-0.8-0.3h-18.9v-12.5h-12.3v19.2c0,1.5,0.3,2.5,1,3.2
			c0.7,0.6,1.6,1,2.6,1h27.5c0.3,0,0.6-0.1,0.8-0.3c0.2-0.2,0.4-0.5,0.6-1c0.2-0.4,0.3-1,0.3-1.7c0.1-0.7,0.1-1.5,0.1-2.5
			c0-1,0-1.8-0.1-2.5C192.3,123.6,192.2,123,192,122.6z"/>
		<linearGradient id="SVGID_11_" gradientUnits="userSpaceOnUse" x1="90.5596" y1="132.2579" x2="90.5596" y2="108.9362">
			<stop  offset="0" style="stop-color:#163C72"/>
			<stop  offset="1" style="stop-color:#1184C0"/>
		</linearGradient>
		<path fill="url(#SVGID_11_)" d="M102.2,108.9c0,0.1-0.1,0.2-0.1,0.3c-0.8,2.8-1.9,5.1-3.4,7c-1.5,1.9-3.4,3.3-5.7,4.2
			c-2.3,0.9-5.1,1.4-8.5,1.4h-6.4v-13H66v19.2c0,1.5,0.3,2.5,1,3.2c0.7,0.6,1.6,1,2.6,1H84c5.3,0,9.9-0.6,13.8-1.9
			c3.9-1.2,7.1-3.2,9.8-5.9c2.7-2.7,4.8-6.1,6.2-10.3c0.6-1.6,1-3.4,1.3-5.3H102.2z"/>
		<linearGradient id="SVGID_12_" gradientUnits="userSpaceOnUse" x1="136.2416" y1="133.4046" x2="136.2416" y2="108.9362">
			<stop  offset="0" style="stop-color:#163C72"/>
			<stop  offset="1" style="stop-color:#1184C0"/>
		</linearGradient>
		<path fill="url(#SVGID_12_)" d="M140.3,108.9c0.7,0.6,1.3,1.2,1.8,1.9c0.7,1,1.1,2.3,1.1,3.8c0,1.3-0.2,2.4-0.6,3.4c-0.4,1-1.1,1.9-1.9,2.6
			c-0.8,0.7-1.8,1.2-3,1.6c-1.2,0.4-2.5,0.6-4,0.6c-2.3,0-4.2-0.3-6-0.8c-1.7-0.5-3.2-1.2-4.4-1.8c-1.2-0.7-2.3-1.3-3-1.8
			c-0.8-0.5-1.4-0.8-1.8-0.8c-0.3,0-0.6,0.1-0.8,0.3c-0.2,0.2-0.4,0.5-0.6,0.9c-0.1,0.4-0.2,1-0.3,1.7c-0.1,0.7-0.1,1.6-0.1,2.6
			c0,1.5,0.1,2.7,0.3,3.5c0.2,0.8,0.5,1.4,0.9,1.9c0.4,0.4,1.1,0.9,2,1.5c0.9,0.6,2.1,1.1,3.4,1.6c1.4,0.5,2.9,1,4.7,1.3
			c1.8,0.4,3.7,0.5,5.8,0.5c3.1,0,5.9-0.4,8.6-1.3c2.7-0.9,5-2.2,7.1-3.9c2-1.7,3.6-3.8,4.8-6.4c1.2-2.6,1.8-5.5,1.8-8.9
			c0-1.4-0.1-2.8-0.3-4H140.3z"/>
	</g>
</g>
</svg>
