<svg width="46" height="57" viewBox="0 0 46 57" fill="none" xmlns="http://www.w3.org/2000/svg">
<path d="M37.4177 56.9993H7.82381C3.50283 56.9993 0 53.4965 0 49.1755V13.9039C0 9.58291 3.50283 6.08008 7.82381 6.08008H37.4177C41.7387 6.08008 45.2415 9.58291 45.2415 13.9039V49.1755C45.2415 53.4965 41.7387 56.9993 37.4177 56.9993Z" fill="#C8EFFE"/>
<path d="M29.2697 4.51662C28.2199 1.87158 25.6397 0.000488281 22.6208 0.000488281C19.6019 0.000488281 17.0218 1.87169 15.972 4.51662H13.4525C10.7492 4.51662 8.55786 6.70801 8.55786 9.41128C8.55786 12.1145 10.7492 14.3059 13.4525 14.3059H31.7892C34.4924 14.3059 36.6838 12.1145 36.6838 9.41128C36.6838 6.70801 34.4924 4.51662 31.7892 4.51662H29.2697Z" fill="#FFE07D"/>
<path d="M24.9529 0.39065C22.9803 1.06897 21.4013 2.58693 20.635 4.51625H18.1152C15.412 4.51625 13.2202 6.70797 13.2202 9.41124C13.2202 10.7621 13.7689 11.9861 14.6545 12.8719C15.5401 13.759 16.7627 14.3062 18.1152 14.3062H13.4528C12.102 14.3062 10.8779 13.759 9.99221 12.8719C9.10504 11.9863 8.55786 10.7621 8.55786 9.41124C8.55786 6.70808 10.7497 4.51625 13.4528 4.51625H15.9712C17.0223 1.8712 19.6017 0 22.6209 0C23.4381 0 24.2223 0.137156 24.9529 0.39065Z" fill="#FFD064"/>
<path d="M22.6207 10.0798C24.237 10.0798 25.5473 8.76947 25.5473 7.15316C25.5473 5.53684 24.237 4.22656 22.6207 4.22656C21.0044 4.22656 19.6941 5.53684 19.6941 7.15316C19.6941 8.76947 21.0044 10.0798 22.6207 10.0798Z" fill="#365E7D"/>
<path d="M14.4275 31.1483H9.40882C7.33077 31.1483 5.64014 29.4577 5.64014 27.3796V22.361C5.64014 20.2829 7.33077 18.5923 9.40882 18.5923H14.4274C16.5054 18.5923 18.1961 20.2829 18.1961 22.361V27.3796C18.1962 29.4577 16.5055 31.1483 14.4275 31.1483ZM9.40882 20.3126C8.27928 20.3126 7.36049 21.2315 7.36049 22.361V27.3796C7.36049 28.5091 8.27939 29.428 9.40882 29.428H14.4274C15.5569 29.428 16.4757 28.5091 16.4757 27.3796V22.361C16.4757 21.2315 15.5568 20.3126 14.4274 20.3126H9.40882Z" fill="#8BD070"/>
<path d="M11.3525 28.2743C11.0966 28.2743 10.8528 28.1602 10.6888 27.9611L8.6841 25.5284C8.38207 25.1618 8.43439 24.6197 8.80088 24.3176C9.16737 24.0156 9.70943 24.0677 10.0117 24.4344L11.2586 25.9475L13.6237 22.1857C13.8766 21.7835 14.4076 21.6624 14.8098 21.9152C15.212 22.1681 15.3329 22.6991 15.0802 23.1012L12.0807 27.8719C11.9337 28.1058 11.6833 28.2547 11.4075 28.2724C11.3893 28.2737 11.3709 28.2743 11.3525 28.2743Z" fill="#DD636E"/>
<path d="M36.2974 23.5557H21.1775C20.7024 23.5557 20.3174 23.1706 20.3174 22.6956C20.3174 22.2205 20.7025 21.8354 21.1775 21.8354H36.2975C36.7727 21.8354 37.1577 22.2205 37.1577 22.6956C37.1577 23.1705 36.7726 23.5557 36.2974 23.5557Z" fill="#407093"/>
<path d="M27.8773 27.9053H21.1775C20.7024 27.9053 20.3174 27.5202 20.3174 27.0452C20.3174 26.5701 20.7025 26.1851 21.1775 26.1851H27.8773C28.3525 26.1851 28.7375 26.5701 28.7375 27.0452C28.7375 27.5202 28.3524 27.9053 27.8773 27.9053Z" fill="#407093"/>
<path d="M14.4275 47.5262H9.40882C7.33077 47.5262 5.64014 45.8356 5.64014 43.7576V38.7389C5.64014 36.6608 7.33077 34.9702 9.40882 34.9702H14.4274C16.5054 34.9702 18.1961 36.6608 18.1961 38.7389V43.7576C18.1962 45.8356 16.5055 47.5262 14.4275 47.5262ZM9.40882 36.6905C8.27928 36.6905 7.36049 37.6094 7.36049 38.7388V43.7575C7.36049 44.8869 8.27939 45.8058 9.40882 45.8058H14.4274C15.5569 45.8058 16.4757 44.8869 16.4757 43.7575V38.7388C16.4757 37.6094 15.5568 36.6905 14.4274 36.6905H9.40882Z" fill="#8BD070"/>
<path d="M11.3525 44.6517C11.0966 44.6517 10.8528 44.5376 10.6888 44.3386L8.6841 41.9058C8.38207 41.5392 8.43439 40.9972 8.80088 40.695C9.16737 40.393 9.70943 40.4452 10.0117 40.8118L11.2586 42.325L13.6237 38.5631C13.8766 38.161 14.4076 38.0399 14.8098 38.2927C15.212 38.5455 15.3329 39.0765 15.0802 39.4787L12.0807 44.2493C11.9337 44.4832 11.6833 44.6322 11.4075 44.6499C11.3893 44.6511 11.3709 44.6517 11.3525 44.6517Z" fill="#DD636E"/>
<path d="M36.2975 39.9346H21.1773C20.7021 39.9346 20.3171 39.5495 20.3171 39.0745C20.3171 38.5994 20.7022 38.2144 21.1773 38.2144H36.2976C36.7728 38.2144 37.1577 38.5994 37.1577 39.0745C37.1577 39.5495 36.7727 39.9346 36.2975 39.9346Z" fill="#407093"/>
<path d="M27.8776 44.2832H21.1777C20.7026 44.2832 20.3176 43.8981 20.3176 43.4231C20.3176 42.9481 20.7027 42.563 21.1777 42.563H27.8776C28.3527 42.563 28.7377 42.9481 28.7377 43.4231C28.7377 43.8981 28.3526 44.2832 27.8776 44.2832Z" fill="#407093"/>
</svg>
