<svg width="27" height="28" viewBox="0 0 27 28" fill="none" xmlns="http://www.w3.org/2000/svg">
<path d="M7.8675 0.112988C8.68198 0.112988 9.46309 0.44019 10.039 1.02262C10.6149 1.60504 10.9385 2.39498 10.9385 3.21865C10.9385 4.04233 10.6149 4.83226 10.039 5.41469C9.46309 5.99712 8.68198 6.32432 7.8675 6.32432C7.05302 6.32432 6.2719 5.99712 5.69598 5.41469C5.12006 4.83226 4.7965 4.04233 4.7965 3.21865C4.7965 2.39498 5.12006 1.60504 5.69598 1.02262C6.2719 0.44019 7.05302 0.112988 7.8675 0.112988ZM5.56425 27.7915V21.8526H0.957764L4.95005 10.0511C5.4107 8.80885 6.48555 7.87715 7.8675 7.87715C9.24944 7.87715 10.4778 8.80885 10.7849 10.0511L14.7772 21.8526H10.1707V27.7915H5.56425ZM18.616 12.2632C18.616 11.4396 18.9396 10.6496 19.5155 10.0672C20.0914 9.48478 20.8725 9.15758 21.687 9.15758C22.5015 9.15758 23.2826 9.48478 23.8585 10.0672C24.4345 10.6496 24.758 11.4396 24.758 12.2632C24.758 13.0869 24.4345 13.8769 23.8585 14.4593C23.2826 15.0417 22.5015 15.3689 21.687 15.3689C20.8725 15.3689 20.0914 15.0417 19.5155 14.4593C18.9396 13.8769 18.616 13.0869 18.616 12.2632ZM17.0805 16.9217H26.2935V23.1331H23.9903V27.7916H19.3838V23.1331H17.0805V16.9217Z" fill="#EE585B"/>
</svg>
