<svg width="48" height="47" viewBox="0 0 48 47" fill="none" xmlns="http://www.w3.org/2000/svg">
<path d="M0.462158 15.0763C0.462158 6.79201 7.17789 0.0762939 15.4622 0.0762939H33C41.2842 0.0762939 48 6.79202 48 15.0763V31.915C48 40.1993 41.2842 46.915 33 46.915H15.4621C7.17787 46.915 0.462158 40.1993 0.462158 31.915V15.0763Z" fill="#FFF9F4"/>
<path d="M9.99904 37.4377C10.1605 37.2072 10.3733 37.1137 10.6618 37.1289C11.0735 37.1506 11.4871 37.1344 11.9396 37.1344C11.9396 37.0083 11.9396 36.9015 11.9396 36.7946C11.9396 35.1775 11.9391 33.561 11.9396 31.9439C11.9396 31.4722 12.0991 31.3137 12.5723 31.3137C13.7649 31.3132 14.957 31.3132 16.1496 31.3137C16.6371 31.3137 16.7903 31.4702 16.7903 31.9676C16.7908 33.6747 16.7903 35.3819 16.7903 37.1117C17.4328 37.1117 18.0626 37.1117 18.7303 37.1117C18.7303 36.9965 18.7303 36.8793 18.7303 36.7616C18.7303 32.9017 18.7303 29.0412 18.7303 25.1813C18.7303 24.6707 18.88 24.5229 19.3956 24.5229C20.5576 24.5229 21.7197 24.5229 22.8818 24.5229C23.4397 24.5229 23.5805 24.6613 23.5805 25.2098C23.5805 29.0496 23.5805 32.8898 23.5805 36.7296C23.5805 36.8497 23.5805 36.9704 23.5805 37.1127C24.2246 37.1127 24.8543 37.1127 25.5206 37.1127C25.5206 36.995 25.5206 36.8773 25.5206 36.7596C25.5206 33.8697 25.5206 30.9793 25.5206 28.0894C25.5206 27.5803 25.6702 27.4335 26.1883 27.4335C27.3705 27.4335 28.5528 27.433 29.735 27.4335C30.2097 27.4335 30.3707 27.5926 30.3707 28.0618C30.3712 30.9517 30.3707 33.8422 30.3707 36.7321C30.3707 36.8522 30.3707 36.9724 30.3707 37.1137C31.0168 37.1137 31.6465 37.1137 32.3108 37.1137C32.3108 36.993 32.3108 36.8754 32.3108 36.7577C32.3108 30.9675 32.3108 25.1773 32.3108 19.3867C32.3108 18.8465 32.4521 18.7022 32.9805 18.7022C34.1627 18.7022 35.345 18.7018 36.5272 18.7022C36.9995 18.7022 37.161 18.8628 37.161 19.3325C37.1614 25.133 37.161 30.9335 37.161 36.7335C37.161 36.8537 37.161 36.9733 37.161 37.1344C37.5982 37.1344 38.0192 37.1506 38.4383 37.1289C38.7273 37.1137 38.9385 37.2092 39.101 37.4377C39.101 37.6598 39.101 37.8818 39.101 38.1039C29.3997 38.1039 19.6984 38.1039 9.99707 38.1039C9.99904 37.8818 9.99904 37.6598 9.99904 37.4377ZM33.3035 19.6856C33.3035 25.5127 33.3035 31.3151 33.3035 37.1092C34.2779 37.1092 35.2307 37.1092 36.1771 37.1092C36.1771 31.2895 36.1771 25.4944 36.1771 19.6856C35.2155 19.6856 34.2701 19.6856 33.3035 19.6856ZM22.5893 37.1211C22.5893 33.2331 22.5893 29.3706 22.5893 25.5181C21.6148 25.5181 20.662 25.5181 19.7166 25.5181C19.7166 29.3982 19.7166 33.2532 19.7166 37.1211C20.6783 37.1211 21.6237 37.1211 22.5893 37.1211ZM26.5044 37.1127C27.4813 37.1127 28.4336 37.1127 29.3775 37.1127C29.3775 34.1987 29.3775 31.3068 29.3775 28.4198C28.408 28.4198 27.4626 28.4198 26.5044 28.4198C26.5044 31.3211 26.5044 34.2055 26.5044 37.1127ZM12.9303 32.2975C12.9303 33.9195 12.9303 35.5183 12.9303 37.1102C13.9038 37.1102 14.8566 37.1102 15.804 37.1102C15.804 35.4947 15.804 33.9032 15.804 32.2975C14.8433 32.2975 13.8984 32.2975 12.9303 32.2975Z" fill="#FFA55A" stroke="#FFA55A" stroke-width="0.5"/>
<path d="M36.0107 9.00037C36.5198 9.17714 36.9802 9.41399 37.2954 9.88423C37.7858 10.6164 37.771 11.3934 37.2116 12.1158C36.7867 12.6643 35.8964 13.1114 35.1175 12.7599C34.9333 12.6766 34.825 12.7372 34.7102 12.8761C33.3566 14.5128 32.0005 16.1471 30.644 17.7819C30.6056 17.8287 30.5627 17.872 30.5209 17.9153C30.1915 18.2556 29.961 18.5436 30.2348 19.1084C30.6361 19.9371 30.1506 20.9298 29.2633 21.3996C28.4779 21.8152 27.4695 21.5734 26.9194 20.8367C26.6481 20.4729 26.4847 20.074 26.4832 19.6097C26.4827 19.5225 26.3916 19.3901 26.3099 19.3566C25.1163 18.8652 23.9173 18.3875 22.7261 17.9089C21.6532 18.8263 21.0333 18.9297 20.0795 18.3388C19.6895 18.6731 19.2921 19.0119 18.8972 19.3536C17.8755 20.2375 16.8562 21.1238 15.8325 22.0052C15.6951 22.1234 15.5957 22.2135 15.6887 22.4297C16.1334 23.4667 15.3933 24.614 14.3843 24.9301C13.4143 25.2339 12.2838 24.5613 12.0031 23.5184C11.8135 22.8147 12.1144 21.9959 12.7284 21.5443C13.4621 21.0047 14.147 20.9835 14.956 21.4887C15.5075 21.013 16.0644 20.5339 16.6203 20.0533C17.4821 19.3078 18.3418 18.5609 19.2045 17.8168C19.3286 17.71 19.4448 17.6366 19.3542 17.4229C18.8879 16.3254 19.6728 15.2007 20.6541 14.8954C21.6143 14.5965 22.7271 15.2504 23.0285 16.282C23.0536 16.3687 23.1028 16.4647 23.0856 16.5445C22.9861 17.0049 23.3027 17.1073 23.6307 17.2348C24.7125 17.6558 25.7884 18.0916 26.8613 18.5195C27.045 18.3654 27.2109 18.2009 27.4 18.0714C27.9013 17.7282 28.4459 17.6095 29.0255 17.8503C29.1968 17.9217 29.3002 17.8868 29.41 17.7538C30.5588 16.3638 31.7095 14.9757 32.8618 13.5886C33.2862 13.0775 33.7161 12.5713 34.1504 12.0547C33.6274 11.2797 33.6388 10.5239 34.1893 9.78329C34.4965 9.37016 34.9353 9.15991 35.4055 8.99988C35.6064 9.00037 35.8088 9.00037 36.0107 9.00037ZM35.7216 9.9704C35.1076 9.96745 34.7615 10.3289 34.7304 10.9321C34.7019 11.4929 35.2199 11.9238 35.6773 11.9149C36.2899 11.9031 36.673 11.554 36.6774 10.9616C36.6823 10.3476 36.3219 9.97336 35.7216 9.9704ZM13.8718 24.0374C14.4754 24.0388 14.8275 23.6671 14.8566 23.0678C14.8792 22.6045 14.4188 22.0673 13.8979 22.0899C13.2833 22.1165 12.9121 22.4518 12.9096 23.0535C12.9066 23.6651 13.2695 24.0359 13.8718 24.0374ZM21.1539 17.7317C21.7556 17.7321 22.1244 17.3619 22.1259 16.7567C22.1269 16.1565 21.7536 15.7896 21.1445 15.7916C20.5532 15.7936 20.21 16.1589 20.1789 16.7478C20.1528 17.2412 20.6211 17.7888 21.1539 17.7317ZM29.4016 19.6762C29.4598 19.1271 28.9132 18.6741 28.4272 18.6958C27.826 18.7224 27.4611 19.0725 27.4616 19.6826C27.4616 20.271 27.8299 20.6398 28.4193 20.6418C29.025 20.6442 29.4002 20.2754 29.4016 19.6762Z" fill="#FFA55A" stroke="#FFA55A" stroke-width="0.5"/>
</svg>
