<svg width="31" height="31" viewBox="0 0 31 31" fill="none" xmlns="http://www.w3.org/2000/svg">
<path d="M0.99904 29.4378C1.16055 29.2074 1.37327 29.1138 1.66181 29.1291C2.07346 29.1507 2.48708 29.1345 2.9396 29.1345C2.9396 29.0084 2.9396 28.9016 2.9396 28.7947C2.9396 27.1777 2.93911 25.5611 2.9396 23.9441C2.9396 23.4723 3.09914 23.3138 3.57234 23.3138C4.76494 23.3133 5.95704 23.3133 7.14964 23.3138C7.63712 23.3138 7.79026 23.4704 7.79026 23.9677C7.79075 25.6749 7.79026 27.382 7.79026 29.1118C8.43284 29.1118 9.06263 29.1118 9.73032 29.1118C9.73032 28.9966 9.73032 28.8794 9.73032 28.7617C9.73032 24.9018 9.73032 21.0413 9.73032 17.1814C9.73032 16.6708 9.88002 16.5231 10.3956 16.5231C11.5576 16.5231 12.7197 16.5231 13.8818 16.5231C14.4397 16.5231 14.5805 16.6614 14.5805 17.21C14.5805 21.0497 14.5805 24.89 14.5805 28.7297C14.5805 28.8499 14.5805 28.9705 14.5805 29.1128C15.2246 29.1128 15.8543 29.1128 16.5206 29.1128C16.5206 28.9951 16.5206 28.8774 16.5206 28.7598C16.5206 25.8699 16.5206 22.9794 16.5206 20.0895C16.5206 19.5804 16.6702 19.4337 17.1883 19.4337C18.3705 19.4337 19.5528 19.4332 20.735 19.4337C21.2097 19.4337 21.3707 19.5927 21.3707 20.062C21.3712 22.9519 21.3707 25.8423 21.3707 28.7322C21.3707 28.8523 21.3707 28.9725 21.3707 29.1138C22.0168 29.1138 22.6465 29.1138 23.3108 29.1138C23.3108 28.9932 23.3108 28.8755 23.3108 28.7578C23.3108 22.9676 23.3108 17.1775 23.3108 11.3868C23.3108 10.8466 23.4521 10.7024 23.9805 10.7024C25.1627 10.7024 26.345 10.7019 27.5272 10.7024C27.9995 10.7024 28.161 10.8629 28.161 11.3326C28.1614 17.1331 28.161 22.9337 28.161 28.7337C28.161 28.8538 28.161 28.9735 28.161 29.1345C28.5982 29.1345 29.0192 29.1507 29.4383 29.1291C29.7273 29.1138 29.9385 29.2093 30.101 29.4378C30.101 29.6599 30.101 29.8819 30.101 30.104C20.3997 30.104 10.6984 30.104 0.99707 30.104C0.99904 29.8819 0.99904 29.6599 0.99904 29.4378ZM24.3035 11.6857C24.3035 17.5128 24.3035 23.3153 24.3035 29.1094C25.2779 29.1094 26.2307 29.1094 27.1771 29.1094C27.1771 23.2897 27.1771 17.4946 27.1771 11.6857C26.2155 11.6857 25.2701 11.6857 24.3035 11.6857ZM13.5893 29.1212C13.5893 25.2332 13.5893 21.3708 13.5893 17.5182C12.6148 17.5182 11.662 17.5182 10.7166 17.5182C10.7166 21.3983 10.7166 25.2534 10.7166 29.1212C11.6783 29.1212 12.6237 29.1212 13.5893 29.1212ZM17.5044 29.1128C18.4813 29.1128 19.4336 29.1128 20.3775 29.1128C20.3775 26.1988 20.3775 23.3069 20.3775 20.4199C19.408 20.4199 18.4626 20.4199 17.5044 20.4199C17.5044 23.3212 17.5044 26.2057 17.5044 29.1128ZM3.93031 24.2976C3.93031 25.9196 3.93031 27.5184 3.93031 29.1104C4.90379 29.1104 5.85659 29.1104 6.80398 29.1104C6.80398 27.4948 6.80398 25.9033 6.80398 24.2976C5.8433 24.2976 4.89838 24.2976 3.93031 24.2976Z" fill="#FFA55A" stroke="#FFA55A" stroke-width="0.5"/>
<path d="M27.0107 1.00049C27.5198 1.17726 27.9802 1.41411 28.2954 1.88436C28.7858 2.61656 28.771 3.39357 28.2116 4.11592C27.7867 4.66446 26.8964 5.11156 26.1175 4.75999C25.9333 4.67677 25.825 4.73734 25.7102 4.87619C24.3566 6.51294 23.0005 8.14722 21.644 9.782C21.6056 9.82878 21.5627 9.87211 21.5209 9.91544C21.1915 10.2557 20.961 10.5437 21.2348 11.1085C21.6361 11.9372 21.1506 12.9299 20.2633 13.3997C19.4779 13.8153 18.4695 13.5735 17.9194 12.8369C17.6481 12.473 17.4847 12.0741 17.4832 11.6098C17.4827 11.5226 17.3916 11.3902 17.3099 11.3567C16.1163 10.8653 14.9173 10.3877 13.7261 9.90904C12.6532 10.8264 12.0333 10.9298 11.0795 10.3389C10.6895 10.6733 10.2921 11.012 9.89722 11.3538C8.87548 12.2376 7.85621 13.1239 6.8325 14.0053C6.69512 14.1235 6.59566 14.2136 6.68872 14.4298C7.13336 15.4668 6.39328 16.6141 5.38435 16.9302C4.41432 17.234 3.28376 16.5614 3.00309 15.5185C2.81351 14.8148 3.11437 13.996 3.7284 13.5445C4.46208 13.0048 5.14701 12.9836 5.95603 13.4888C6.50752 13.0131 7.06443 12.534 7.62035 12.0535C8.48205 11.308 9.34179 10.561 10.2045 9.81696C10.3286 9.71011 10.4448 9.63674 10.3542 9.42304C9.88786 8.32547 10.6728 7.20083 11.6541 6.89554C12.6143 6.59665 13.7271 7.25056 14.0285 8.28214C14.0536 8.36881 14.1028 8.46483 14.0856 8.54459C13.9861 9.00499 14.3027 9.10741 14.6307 9.23494C15.7125 9.65595 16.7884 10.0917 17.8613 10.5196C18.045 10.3655 18.2109 10.201 18.4 10.0715C18.9013 9.72833 19.4459 9.60966 20.0255 9.85045C20.1968 9.92184 20.3002 9.88688 20.41 9.75393C21.5588 8.36388 22.7095 6.9758 23.8618 5.5887C24.2862 5.07759 24.7161 4.5714 25.1504 4.05487C24.6274 3.27982 24.6388 2.52399 25.1893 1.78341C25.4965 1.37029 25.9353 1.16003 26.4055 1C26.6064 1.00049 26.8088 1.00049 27.0107 1.00049ZM26.7216 1.97053C26.1076 1.96757 25.7615 2.32899 25.7304 2.93219C25.7019 3.49303 26.2199 3.92389 26.6773 3.91502C27.2899 3.90321 27.673 3.55409 27.6774 2.96173C27.6823 2.34771 27.3219 1.97348 26.7216 1.97053ZM4.87176 16.0375C5.47544 16.039 5.82751 15.6672 5.85656 15.0679C5.87921 14.6046 5.41882 14.0674 4.89785 14.09C4.28334 14.1166 3.91206 14.452 3.9096 15.0537C3.90665 15.6652 4.26955 16.036 4.87176 16.0375ZM12.1539 9.73178C12.7556 9.73227 13.1244 9.36198 13.1259 8.75682C13.1269 8.15658 12.7536 7.78974 12.1445 7.79171C11.5532 7.79368 11.21 8.15904 11.1789 8.74796C11.1528 9.24134 11.6211 9.7889 12.1539 9.73178ZM20.4016 11.6763C20.4598 11.1272 19.9132 10.6742 19.4272 10.6959C18.826 10.7225 18.4611 11.0726 18.4616 11.6827C18.4616 12.2711 18.8299 12.6399 19.4193 12.6419C20.025 12.6443 20.4002 12.2755 20.4016 11.6763Z" fill="#FFA55A" stroke="#FFA55A" stroke-width="0.5"/>
</svg>
