<svg width="29" height="19" viewBox="0 0 29 19" fill="none" xmlns="http://www.w3.org/2000/svg">
<path d="M19.7645 15.7002C19.7574 15.7983 19.7556 15.9245 19.7378 16.0484C19.5978 17.0238 19.0054 17.3595 18.1147 16.9618C17.8039 16.8232 17.5035 16.6618 17.1945 16.5094C16.6297 18.186 15.8282 18.046 14.46 17.2516C14.1244 18.3616 13.2867 18.8016 12.2953 18.1775C10.8259 17.2529 9.4511 16.1768 8.05309 15.1417C7.54355 14.7641 7.11068 14.2813 6.59356 13.9157C6.04479 13.5279 5.43762 13.2221 4.7395 12.8119C4.7395 10.0052 4.7395 6.99746 4.7395 3.95179C5.3596 4.15062 5.89723 3.91569 6.4139 3.60363C6.95777 3.27553 7.49094 2.92959 8.0415 2.61352C8.23497 2.50252 8.46545 2.45616 8.67898 2.38037C8.70038 2.42005 8.72222 2.45928 8.74362 2.49895C8.62861 2.58811 8.51136 2.6746 8.39813 2.76643C7.70894 3.32679 6.97783 3.84436 6.34258 4.46089C5.53926 5.24059 5.6088 6.09339 6.51822 6.76163C7.61264 7.56585 8.87335 7.9528 10.1572 7.38931C11.2405 6.91365 12.2306 6.21643 13.2372 5.5785C14.0597 5.05736 14.2505 5.03418 14.8929 5.76974C17.043 8.23231 19.1797 10.7065 21.3137 13.1828C21.5972 13.5118 21.8553 13.8671 22.0916 14.2322C22.4674 14.8118 22.2093 15.5563 21.5281 15.6797C20.9744 15.7805 20.3873 15.7002 19.7645 15.7002Z" fill="#2667A9"/>
<path d="M24.2143 3.90982C24.2143 7.14896 24.2143 10.3426 24.2143 13.5318C24.1866 13.5608 24.1679 13.5974 24.1398 13.6072C23.1136 13.9674 23.1127 13.9674 22.3776 13.152C19.7759 10.2655 17.1676 7.38478 14.5842 4.48222C14.2744 4.13405 14.0248 4.09928 13.6686 4.32396C13.04 4.71983 12.4128 5.11792 11.7775 5.50309C11.2047 5.85036 10.6407 6.21992 10.0398 6.51192C9.07243 6.98179 8.15677 6.71609 7.31422 6.16152C6.77035 5.80355 6.71463 5.41036 7.16488 4.9454C8.65249 3.40875 10.3719 2.16543 12.2362 1.13074C12.5648 0.948411 13.0075 0.911856 13.398 0.910518C15.3541 0.905169 17.2474 1.07814 18.9744 2.21045C20.3992 3.14439 22.0803 3.48944 23.7431 3.80684C23.8844 3.83359 24.0244 3.86836 24.2143 3.90982Z" fill="#2667A9"/>
<path d="M29 17.0228C27.787 17.0228 26.5785 17.0228 25.3423 17.0228C25.3423 11.9747 25.3423 6.94877 25.3423 1.88232C26.5455 1.88232 27.7518 1.88232 29 1.88232C29 6.91177 29 11.9501 29 17.0228Z" fill="#2667A9"/>
<path d="M0.0163574 17.113C0.0163574 12.0242 0.0163574 6.97695 0.0163574 1.88599C1.16428 1.88599 2.31264 1.88599 3.49132 1.88599C3.49132 6.95333 3.49132 12.0126 3.49132 17.1125C2.34206 17.113 1.20841 17.113 0.0163574 17.113Z" fill="#2667A9"/>
</svg>
