<svg width="48" height="47" viewBox="0 0 48 47" fill="none" xmlns="http://www.w3.org/2000/svg">
<path d="M0.462158 15.0763C0.462158 6.79201 7.17789 0.0762939 15.4622 0.0762939H33C41.2842 0.0762939 48 6.79202 48 15.0763V31.915C48 40.1993 41.2842 46.915 33 46.915H15.4621C7.17787 46.915 0.462158 40.1993 0.462158 31.915V15.0763Z" fill=""/>
<path d="M29.7645 29.7C29.7574 29.7981 29.7556 29.9242 29.7378 30.0482C29.5978 31.0236 29.0054 31.3592 28.1147 30.9616C27.8039 30.823 27.5035 30.6616 27.1945 30.5091C26.6297 32.1858 25.8282 32.0458 24.46 31.2514C24.1244 32.3614 23.2867 32.8014 22.2953 32.1773C20.8259 31.2527 19.4511 30.1766 18.0531 29.1414C17.5435 28.7638 17.1107 28.281 16.5936 27.9155C16.0448 27.5276 15.4376 27.2218 14.7395 26.8117C14.7395 24.005 14.7395 20.9972 14.7395 17.9516C15.3596 18.1504 15.8972 17.9154 16.4139 17.6034C16.9578 17.2753 17.4909 16.9293 18.0415 16.6133C18.235 16.5023 18.4654 16.4559 18.679 16.3801C18.7004 16.4198 18.7222 16.459 18.7436 16.4987C18.6286 16.5879 18.5114 16.6744 18.3981 16.7662C17.7089 17.3265 16.9778 17.8441 16.3426 18.4606C15.5393 19.2403 15.6088 20.0931 16.5182 20.7614C17.6126 21.5656 18.8733 21.9526 20.1572 21.3891C21.2405 20.9134 22.2306 20.2162 23.2372 19.5783C24.0597 19.0571 24.2505 19.0339 24.8929 19.7695C27.043 22.2321 29.1797 24.7062 31.3137 27.1826C31.5972 27.5116 31.8553 27.8669 32.0916 28.232C32.4674 28.8115 32.2093 29.556 31.5281 29.6795C30.9744 29.7802 30.3873 29.7 29.7645 29.7Z" fill="#EE585B"/>
<path d="M34.2143 17.9097C34.2143 21.1488 34.2143 24.3425 34.2143 27.5317C34.1866 27.5607 34.1679 27.5972 34.1398 27.6071C33.1136 27.9673 33.1127 27.9673 32.3776 27.1519C29.7759 24.2654 27.1676 21.3847 24.5842 18.4821C24.2744 18.1339 24.0248 18.0992 23.6686 18.3238C23.04 18.7197 22.4128 19.1178 21.7775 19.503C21.2047 19.8502 20.6407 20.2198 20.0398 20.5118C19.0724 20.9817 18.1568 20.716 17.3142 20.1614C16.7704 19.8034 16.7146 19.4102 17.1649 18.9453C18.6525 17.4086 20.3719 16.1653 22.2362 15.1306C22.5648 14.9483 23.0075 14.9117 23.398 14.9104C25.3541 14.905 27.2474 15.078 28.9744 16.2103C30.3992 17.1443 32.0803 17.4893 33.7431 17.8067C33.8844 17.8335 34.0244 17.8682 34.2143 17.9097Z" fill="#3B5CA5"/>
<path d="M39 31.0227C37.787 31.0227 36.5785 31.0227 35.3423 31.0227C35.3423 25.9745 35.3423 20.9486 35.3423 15.8822C36.5455 15.8822 37.7518 15.8822 39 15.8822C39 20.9116 39 25.95 39 31.0227Z" fill="#3B5CA5"/>
<path d="M10.0164 31.1128C10.0164 26.0241 10.0164 20.9768 10.0164 15.8859C11.1643 15.8859 12.3126 15.8859 13.4913 15.8859C13.4913 20.9532 13.4913 26.0125 13.4913 31.1124C12.3421 31.1128 11.2084 31.1128 10.0164 31.1128Z" fill="#EE585B"/>
</svg>
