<svg width="26" height="26" viewBox="0 0 26 26" fill="none" xmlns="http://www.w3.org/2000/svg">
<path d="M24.5556 18.0556C22.8222 18.0556 20.9444 17.7667 19.3556 17.1889C19.2111 17.1889 19.0667 17.1889 18.9222 17.1889C18.4889 17.1889 18.2 17.3333 17.9111 17.6222L14.7333 20.8C10.6889 18.6333 7.22222 15.3111 5.2 11.2667L8.37778 8.08889C8.81111 7.65556 8.95555 7.07778 8.66667 6.64444C8.23333 5.05556 7.94444 3.17778 7.94444 1.44444C7.94444 0.722222 7.22222 0 6.5 0H1.44444C0.722222 0 0 0.722222 0 1.44444C0 15.0222 10.9778 26 24.5556 26C25.2778 26 26 25.2778 26 24.5556V19.5C26 18.7778 25.2778 18.0556 24.5556 18.0556ZM2.88889 2.88889H5.05556C5.2 4.18889 5.48889 5.48889 5.77778 6.64444L4.04444 8.37778C3.46667 6.64444 3.03333 4.76667 2.88889 2.88889ZM23.1111 23.1111C21.2333 22.9667 19.3556 22.5333 17.6222 21.9556L19.3556 20.2222C20.5111 20.5111 21.8111 20.8 23.1111 20.8V23.1111Z" fill="#3BB54A"/>
</svg>
