<svg width="26" height="24" viewBox="0 0 26 24" fill="none" xmlns="http://www.w3.org/2000/svg">
<path d="M13 0C5.85 0 0 4.77333 0 10.6667C0.065 13.5333 1.378 16.2267 3.575 18C3.575 18.8 3.029 20.8933 0 24C3.081 23.8533 6.032 22.6667 8.411 20.6667C9.893 21.1067 11.453 21.3333 13 21.3333C20.15 21.3333 26 16.56 26 10.6667C26 4.77333 20.15 0 13 0ZM13 18.6667C7.254 18.6667 2.6 15.08 2.6 10.6667C2.6 6.25333 7.254 2.66667 13 2.66667C18.746 2.66667 23.4 6.25333 23.4 10.6667C23.4 15.08 18.746 18.6667 13 18.6667ZM19.5 12V9.33333H16.9V12H19.5ZM14.3 12V9.33333H11.7V12H14.3ZM9.1 12V9.33333H6.5V12H9.1Z" fill="#8965EE"/>
</svg>
