<svg width="39" height="39" viewBox="0 0 39 39" fill="none" xmlns="http://www.w3.org/2000/svg">
    <path
        d="M36.3011 0C37.9082 0 39 1.08742 39 2.69016C39 13.8977 39 25.1052 39 36.3128C39 37.9024 37.9053 39 36.32 39C25.1052 39 13.889 39 2.67414 39C1.10052 39 0 37.9024 0 36.3331C0 25.1096 0 13.8875 0 2.66395C0 1.10925 1.10489 0 2.65522 0C8.2699 0 30.701 0 36.3011 0Z"
        fill="#EE585B" />
    <path
        d="M19.4963 37.7641C13.9485 37.7641 8.40082 37.7641 2.85456 37.7627C2.67405 37.7627 2.49208 37.751 2.31449 37.7219C1.76568 37.6287 1.35663 37.2037 1.27365 36.6447C1.2489 36.4816 1.23726 36.3142 1.23726 36.1497C1.2358 26.3441 1.23726 16.5369 1.22998 6.73124C1.22998 6.50706 1.27656 6.43573 1.51093 6.44592C2.01461 6.4663 2.51974 6.44738 3.02342 6.4532C3.58532 6.46048 3.99147 6.20864 4.25058 5.72098C4.43692 5.3687 4.61451 5.01205 4.78483 4.65248C5.04249 4.10223 5.46319 3.84456 6.07459 3.84893C7.67297 3.85912 9.26988 3.85621 10.8683 3.85039C11.4622 3.84748 11.8931 4.08476 12.1435 4.63793C12.2992 4.98002 12.4768 5.31192 12.6369 5.6511C12.883 6.1737 13.292 6.43864 13.867 6.45175C13.9267 6.4532 13.9878 6.45175 14.0475 6.45175C21.856 6.45175 29.6644 6.45175 37.4729 6.45175C37.812 6.45175 37.7626 6.41972 37.7626 6.73706C37.764 16.5355 37.764 26.3339 37.7611 36.1323C37.7611 36.3273 37.7509 36.5253 37.7116 36.716C37.5995 37.2721 37.1774 37.6564 36.6096 37.7306C36.4539 37.751 36.2952 37.7612 36.1365 37.7612C30.5917 37.7641 25.044 37.7641 19.4963 37.7641Z"
        fill="#FEFEFE" />
    <path
        d="M33.8438 1.92441C33.8453 2.33201 33.5745 2.60714 33.1698 2.60859C32.7709 2.61005 32.4885 2.32764 32.4871 1.92732C32.4856 1.52991 32.7753 1.23585 33.1654 1.23731C33.5643 1.23877 33.8423 1.52117 33.8438 1.92441Z"
        fill="#FEFEFE" />
    <path
        d="M35.805 1.9288C35.8021 2.32621 35.5167 2.60862 35.1179 2.60862C34.7234 2.60862 34.4279 2.31456 34.4337 1.92443C34.438 1.53284 34.7365 1.23588 35.1237 1.23879C35.5153 1.24025 35.8064 1.53721 35.805 1.9288Z"
        fill="#FEFEFE" />
    <path
        d="M37.7612 1.93023C37.7554 2.32327 37.4628 2.61005 37.0683 2.60859C36.6694 2.60859 36.387 2.32327 36.3899 1.92295C36.3928 1.52845 36.6869 1.23585 37.0756 1.23731C37.4657 1.23877 37.767 1.54447 37.7612 1.93023Z"
        fill="#FEFEFE" />
    <path
        d="M10.2439 29.4039C8.23939 29.4039 6.23488 29.4039 4.23182 29.4039C3.81548 29.4039 3.74124 29.3326 3.7427 28.9191C3.74561 27.9394 3.73542 26.9597 3.75725 25.9815C3.80384 23.9391 5.33816 21.9084 7.76192 21.7206C9.34865 21.5984 10.9383 21.6115 12.525 21.6741C14.6241 21.757 16.4394 23.5083 16.6563 25.5957C16.7771 26.7676 16.6854 27.9438 16.7015 29.1171C16.7044 29.3486 16.5384 29.4024 16.3477 29.4024C15.911 29.4024 15.4743 29.3966 15.0376 29.3966C13.4407 29.3952 11.8423 29.3966 10.2454 29.3966C10.2439 29.3995 10.2439 29.4024 10.2439 29.4039Z"
        fill="#3B5CA5" />
    <path
        d="M10.2133 20.2752C8.09231 20.2752 6.34546 18.5138 6.34546 16.3782C6.34691 14.2791 8.12871 12.5337 10.2715 12.5352C12.3343 12.5366 14.1233 14.3199 14.1059 16.403C14.084 18.7874 12.0679 20.3305 10.2133 20.2752Z"
        fill="#3B5CA5" />
    <path
        d="M27.794 17.5165C25.3528 17.5165 22.9101 17.5165 20.4688 17.5165C20.0496 17.5165 19.9928 17.4306 20.0103 17.0012C20.0307 16.5048 20.0292 16.0069 20.0074 15.5105C19.9885 15.068 20.0583 14.969 20.498 14.9705C24.1154 14.9719 27.7329 14.9763 31.3488 14.9763C32.6066 14.9763 33.8658 14.9719 35.1235 14.9705C35.5136 14.9705 35.5908 15.4771 35.5908 15.4771V17.1016C35.5908 17.1016 35.5166 17.518 35.1861 17.518C32.7216 17.5165 30.2585 17.5165 27.794 17.5165Z"
        fill="#3B5CA5" />
    <path
        d="M27.7633 25.3789C30.19 25.3789 32.6152 25.3789 35.0419 25.3789C35.515 25.3789 35.6125 25.4808 35.5936 25.9525C35.5907 26.0194 35.5747 26.0878 35.5762 26.1548C35.5893 26.6905 35.5048 26.6381 35.0579 26.6381C30.2206 26.6396 25.3833 26.6396 20.5459 26.641C20.1005 26.641 20 26.5435 20.0058 26.0966C20.0088 25.9321 20.0248 25.7661 20.0306 25.6016C20.0364 25.4517 20.115 25.3833 20.2591 25.3818C20.4251 25.3818 20.591 25.3847 20.7555 25.3847C23.092 25.3847 25.4269 25.3847 27.7633 25.3847C27.7633 25.3847 27.7633 25.3818 27.7633 25.3789Z"
        fill="#3B5CA5" />
    <path
        d="M23.8824 28.1418C25.095 28.1418 26.3076 28.1418 27.5203 28.1418C27.7561 28.1418 27.8056 28.2437 27.7954 28.7154C27.7939 28.7824 27.7867 28.8508 27.7867 28.9177C27.7925 29.4534 27.7503 29.401 27.5275 29.401C25.1096 29.4025 22.6917 29.4025 20.2752 29.4039C20.0525 29.4039 20.0015 29.3064 20.0059 28.8595C20.0073 28.695 20.0146 28.5291 20.019 28.3646C20.0219 28.2146 20.0612 28.1462 20.1325 28.1448C20.2155 28.1448 20.2985 28.1477 20.3814 28.1477C21.5489 28.1477 22.7164 28.1477 23.8839 28.1477C23.8824 28.1462 23.8824 28.1448 23.8824 28.1418Z"
        fill="#3B5CA5" />
    <path
        d="M27.7298 20.1719C30.1404 20.1719 32.5526 20.1719 34.9632 20.1719C35.544 20.1719 35.6372 20.2723 35.5848 20.8473C35.5324 21.4209 35.5324 21.4194 34.9574 21.4194C31.0925 21.4194 27.2261 21.4121 23.3612 21.4252C22.4354 21.4282 21.5081 21.4311 20.5822 21.4383C20.0917 21.4413 19.9999 21.3466 20.0072 20.8604C20.0087 20.7847 20.0232 20.7105 20.0232 20.6348C20.016 20.0758 20.1411 20.1806 20.5211 20.1806C22.9245 20.1777 25.3279 20.1792 27.7327 20.1792C27.7298 20.1762 27.7298 20.1733 27.7298 20.1719Z"
        fill="#3B5CA5" />
    <path
        d="M27.8464 24.0296C25.4139 24.0296 22.98 24.0296 20.5475 24.0296C20.0788 24.0296 19.9972 23.9466 20.006 23.4735C20.0089 23.3236 20.0234 23.1736 20.0264 23.0222C20.0293 22.8505 20.1152 22.7777 20.2811 22.782C20.3335 22.7835 20.3859 22.782 20.4398 22.782C25.3062 22.782 30.1727 22.782 35.0391 22.782C35.1075 22.782 35.1745 22.782 35.2429 22.785C35.4584 22.7951 35.585 22.9131 35.5908 23.1241C35.5967 23.3643 35.5763 23.6045 35.5632 23.8447C35.5559 23.9772 35.4715 24.0252 35.3506 24.0252C35.1774 24.0252 35.0042 24.0223 34.831 24.0223C32.5033 24.0223 30.1756 24.0223 27.8479 24.0223C27.8464 24.0252 27.8464 24.0281 27.8464 24.0296Z"
        fill="#3B5CA5" />
    <path
        d="M7.10836 5.82583C7.11127 6.18248 6.84342 6.45906 6.48969 6.4678C6.14905 6.47362 5.85354 6.18539 5.84917 5.83893C5.8448 5.48956 6.12285 5.20715 6.47513 5.20278C6.83323 5.19987 7.10545 5.46627 7.10836 5.82583Z"
        fill="#3B5CA5" />
    <path
        d="M9.0603 5.83602C9.05884 6.19412 8.78517 6.46925 8.43143 6.4678C8.07915 6.46634 7.81129 6.18976 7.81275 5.82874C7.81421 5.46481 8.0806 5.19987 8.44016 5.20278C8.79972 5.20569 9.0603 5.47355 9.0603 5.83602Z"
        fill="#3B5CA5" />
    <path
        d="M10.3908 5.20276C10.7489 5.20422 11.0168 5.47644 11.0153 5.836C11.0139 6.18974 10.7344 6.46923 10.3836 6.46778C10.0371 6.46487 9.75614 6.17809 9.75906 5.82872C9.76197 5.4677 10.0313 5.20131 10.3908 5.20276Z"
        fill="#3B5CA5" />
</svg>