<svg xmlns:dc="http://purl.org/dc/elements/1.1/" xmlns:cc="http://creativecommons.org/ns#" xmlns:rdf="http://www.w3.org/1999/02/22-rdf-syntax-ns#" xmlns:svg="http://www.w3.org/2000/svg" xmlns="http://www.w3.org/2000/svg" width="43" height="43" viewBox="0 0 193.5 193.5" version="1.1" id="svg235">
  <defs id="defs229"/>
  <metadata id="metadata232">
    <rdf:RDF>
      <cc:Work rdf:about="">
        <dc:format>image/svg+xml</dc:format>
        <dc:type rdf:resource="http://purl.org/dc/dcmitype/StillImage"/>
        <dc:title/>
      </cc:Work>
    </rdf:RDF>
  </metadata>
  <g id="layer1" transform="translate(-21.107035,-22.368572)">
    <g id="g112" transform="translate(1.2544183,1.8816274)">
      <path id="path33" style="opacity:1;fill:#ed1c24;fill-opacity:1;stroke-width:1.03915;stroke-linecap:round;stroke-linejoin:round;stop-color:#000000" d="M 60.138672,-0.74414062 C 66.252523,3.086941 77.5514,10.917073 88.648438,19.039062 52.520153,-2.4879928 14.72704,-4.3007743 7.0976562,9.0136719 0.95235404,19.738165 4.0778747,37.496988 14.990234,56.550781 8.0351462,47.248985 2.1231726,38.826087 -0.74414062,34.347656 V 127.39453 H 43.115817 L 113.8457,21.226562 h 20.81641 l -32.50977,47.46875 c 5.84658,-4.211842 7.54955,-4.752629 12.16016,-6.742187 4.65194,-2.007392 13.85078,-3.613299 19.13086,-0.03711 2.39677,1.62333 3.29871,2.955921 3.20703,8.070312 -0.0563,5.114365 -10.75734,19.063526 -17.33594,29.048828 L 107.97852,115.67578 86.486328,115.28711 99.902344,97.066406 c 4.477426,-6.317732 5.054416,-6.579559 6.482426,-8.943359 1.46331,-2.363767 3.42569,-5.314202 3.65234,-6.431641 1.2558,-3.537335 1.75783,-5.651711 -1.9375,-5.794922 -3.95686,0 -8.389857,1.868336 -13.300782,5.607422 -6.997779,6.342703 -22.494876,29.729554 -28.007812,37.269534 l -6.304688,8.62109 h 36.740234 c -5.002316,-2.91106 -10.545652,-6.13789 -16.173828,-9.51367 32.694726,15.9247 62.197176,13.88544 69.787106,0.12695 8.15502,-14.78283 -1.54293,-42.363734 -24.72265,-68.029294 12.51431,11.933097 25.86043,25.806217 33.68359,34.53125 V -0.74414062 Z m 42.562498,1.0078125 h 20.66602 L 50.755859,107.19336 30.089844,106.66797 45.126953,86.609375 C 38.641727,90.389776 33.010297,96.126992 24.824219,96.998047 18.169882,97.70612 8.1555043,98.217308 7.8144531,89.832031 7.5141562,82.448749 10.240789,74.377404 18.152344,62.929688 25.436044,52.390449 47.097577,21.928055 74.125,28.845703 c 2.583114,0.661147 3.969089,5.303158 4.005859,6.740235 z M 65.855469,41.8125 c -7.592917,-0.186248 -15.44883,7.045052 -19.050781,11.447266 -24.72613,30.219658 -14.551031,34.564308 -0.4375,25.216796 7.073755,-4.68501 14.074277,-16.919811 20.490234,-27.40039 3.206702,-5.347366 2.276327,-9.183259 -1.001953,-9.263672 z" transform="matrix(1.190625,0,0,1.190625,21.107035,22.368572)"/>
      <path d="m 28.670034,188.13988 v 17.36762 h 2.340651 q 4.002853,0 6.106047,-2.23052 2.120155,-2.23053 2.120155,-6.48189 0,-4.23228 -2.103194,-6.44375 -2.103194,-2.21146 -6.123008,-2.21146 z m -6.530078,-5.54774 h 6.886264 q 5.766822,0 8.582388,0.93416 2.832527,0.91508 4.850915,3.12656 1.78093,1.9255 2.645953,4.44199 0.865023,2.5165 0.865023,5.70024 0,3.22188 -0.865023,5.75744 -0.865023,2.5165 -2.645953,4.442 -2.035349,2.21147 -4.884837,3.14562 -2.849489,0.91509 -8.548466,0.91509 h -6.886264 z" style="font-weight:bold;font-size:36.8273px;line-height:1.25;font-family:hattenschweiler;-inkscape-font-specification:hattenschweiler;letter-spacing:0px;word-spacing:0px;stroke-width:1.38102" id="path86"/>
      <path d="m 50.702685,189.70315 h 6.072124 v 21.35209 h -6.072124 z m 0,-8.31206 h 6.072124 v 5.5668 h -6.072124 z" style="font-weight:bold;font-size:36.8273px;line-height:1.25;font-family:hattenschweiler;-inkscape-font-specification:hattenschweiler;letter-spacing:0px;word-spacing:0px;stroke-width:1.38102" id="path88"/>
      <path d="m 77.45056,190.3704 v 5.18551 q -1.950542,-0.91509 -3.765395,-1.37263 -1.814853,-0.45755 -3.426171,-0.45755 -1.730046,0 -2.578108,0.49567 -0.831101,0.47661 -0.831101,1.48702 0,0.81977 0.627566,1.25825 0.644527,0.43848 2.289767,0.64819 l 1.068558,0.17158 q 4.664342,0.66725 6.27566,2.1924 1.611318,1.52516 1.611318,4.78515 0,3.41253 -2.238884,5.12832 -2.238884,1.71579 -6.682729,1.71579 -1.882698,0 -3.901085,-0.34316 -2.001427,-0.32409 -4.121582,-0.99135 v -5.1855 q 1.814853,0.99135 3.714512,1.48702 1.91662,0.49567 3.884124,0.49567 1.780931,0 2.679876,-0.55287 0.898946,-0.55286 0.898946,-1.63952 0,-0.91509 -0.627566,-1.35357 -0.610605,-0.45755 -2.459381,-0.70539 l -1.068558,-0.15252 q -4.053736,-0.57192 -5.682015,-2.11614 -1.628279,-1.54421 -1.628279,-4.68983 0,-3.39346 2.069271,-5.03299 2.069271,-1.63954 6.343505,-1.63954 1.679163,0 3.527937,0.28597 1.848776,0.28597 4.019814,0.89602 z" style="font-weight:bold;font-size:36.8273px;line-height:1.25;font-family:hattenschweiler;-inkscape-font-specification:hattenschweiler;letter-spacing:0px;word-spacing:0px;stroke-width:1.38102" id="path90"/>
      <path d="m 102.38359,198.05334 v 13.0019 h -6.106049 v -2.11615 -7.79732 q 0,-2.80246 -0.118734,-3.851 -0.101765,-1.04854 -0.373142,-1.54421 -0.356182,-0.66725 -0.966792,-1.02948 -0.610605,-0.38129 -1.390821,-0.38129 -1.899659,0 -2.985179,1.65861 -1.08552,1.63952 -1.08552,4.55637 v 10.50447 h -6.072124 v -29.66415 h 6.072124 v 11.43862 q 1.373861,-1.86831 2.917334,-2.74527 1.543473,-0.89603 3.409213,-0.89603 3.290477,0 4.9866,2.26866 1.71309,2.26866 1.71309,6.59627 z" style="font-weight:bold;font-size:36.8273px;line-height:1.25;font-family:hattenschweiler;-inkscape-font-specification:hattenschweiler;letter-spacing:0px;word-spacing:0px;stroke-width:1.38102" id="path92"/>
      <path d="m 104.93157,181.74057 h 6.42445 v 11.16599 h 9.47816 v -11.16599 h 6.42445 v 29.29845 h -6.42445 V 198.6171 h -9.47816 v 12.42192 h -6.42445 z" style="font-weight:bold;font-size:37.0604px;line-height:1.25;font-family:hattenschweiler;-inkscape-font-specification:hattenschweiler;letter-spacing:0px;word-spacing:0px;fill:#ed1c24;fill-opacity:1;stroke-width:1.38976" id="path77"/>
      <path d="m 142.16002,193.55414 q -1.98573,0 -3.03701,1.68765 -1.03459,1.66803 -1.03459,4.82748 0,3.15944 1.03459,4.8471 1.05128,1.66803 3.03701,1.66803 1.95237,0 2.98696,-1.66803 1.03459,-1.68766 1.03459,-4.8471 0,-3.15945 -1.03459,-4.82748 -1.03459,-1.68765 -2.98696,-1.68765 z m 0,-5.02371 q 4.82252,0 7.52579,3.06132 2.71997,3.06133 2.71997,8.47752 0,5.41619 -2.71997,8.47751 -2.70327,3.06133 -7.52579,3.06133 -4.8392,0 -7.57584,-3.06133 -2.71997,-3.06132 -2.71997,-8.47751 0,-5.41619 2.71997,-8.47752 2.73664,-3.06132 7.57584,-3.06132 z" style="font-weight:bold;font-size:37.0604px;line-height:1.25;font-family:hattenschweiler;-inkscape-font-specification:hattenschweiler;letter-spacing:0px;word-spacing:0px;fill:#ed1c24;fill-opacity:1;stroke-width:1.38976" id="path79"/>
      <path d="m 174.06537,192.71032 q 1.13471,-2.04088 2.68659,-3.10057 1.56856,-1.07932 3.4375,-1.07932 3.22057,0 4.90595,2.33524 1.68537,2.33525 1.68537,6.78987 v 13.38348 h -6.00728 v -11.46035 q 0.0167,-0.25511 0.0167,-0.52985 0.0167,-0.27473 0.0167,-0.78495 0,-2.33524 -0.58404,-3.37531 -0.58404,-1.05968 -1.88562,-1.05968 -1.70206,0 -2.63652,1.6484 -0.91779,1.64841 -0.95116,4.7686 v 10.79314 h -6.00728 v -11.46035 q 0,-3.65004 -0.53398,-4.69011 -0.53398,-1.05968 -1.9023,-1.05968 -1.71876,0 -2.65322,1.66803 -0.93447,1.6484 -0.93447,4.72935 v 10.81276 H 156.711 v -21.97875 h 6.00729 v 3.21832 q 1.10134,-1.86427 2.51972,-2.80621 1.43508,-0.94195 3.15382,-0.94195 1.93569,0 3.42081,1.09893 1.48514,1.09894 2.25274,3.08096 z" style="font-weight:bold;font-size:37.0604px;line-height:1.25;font-family:hattenschweiler;-inkscape-font-specification:hattenschweiler;letter-spacing:0px;word-spacing:0px;fill:#ed1c24;fill-opacity:1;stroke-width:1.38976" id="path81"/>
      <path d="m 211.01016,199.99078 v 2.00163 h -13.96694 q 0.21694,2.4726 1.51851,3.70891 1.30158,1.2363 3.63774,1.2363 1.88562,0 3.85467,-0.64758 1.98575,-0.66722 4.0716,-2.00164 v 5.41619 q -2.11923,0.94195 -4.23846,1.41292 -2.11924,0.4906 -4.23847,0.4906 -5.07282,0 -7.8929,-3.02208 -2.8034,-3.0417 -2.8034,-8.51676 0,-5.37695 2.75333,-8.45789 2.77003,-3.08095 7.60923,-3.08095 4.40534,0 7.04187,3.1202 2.65322,3.12019 2.65322,8.34015 z m -6.14078,-2.33524 q 0,-2.00165 -1.00122,-3.21832 -0.98453,-1.2363 -2.58646,-1.2363 -1.73545,0 -2.82009,1.1578 -1.08465,1.13819 -1.35164,3.29682 z" style="font-weight:bold;font-size:37.0604px;line-height:1.25;font-family:hattenschweiler;-inkscape-font-specification:hattenschweiler;letter-spacing:0px;word-spacing:0px;fill:#ed1c24;fill-opacity:1;stroke-width:1.38976" id="path83"/>
    </g>
  </g>
</svg>