<?xml version="1.0" encoding="utf-8"?>
<!-- Generator: Adobe Illustrator 22.0.1, SVG Export Plug-In . SVG Version: 6.00 Build 0)  -->
<svg version="1.1" id="Layer_1" xmlns="http://www.w3.org/2000/svg" xmlns:xlink="http://www.w3.org/1999/xlink" x="0px" y="0px"
	 viewBox="0 0 100 100" style="enable-background:new 0 0 100 100;" xml:space="preserve">
<g>
	<path fill="#EE585B" d="M89.9,32.9c-0.7,1.1-1.4,2.2-2.1,3.3c-0.8-0.6-1.3-1-1.9-1.5c-0.3,0.4-0.6,0.8-1,1.2c3.3,4.1,5,8.8,4.4,14.1
		c-0.6,5.2-2.6,9-5.7,11.6c-0.7-1.4-1.4-2.7-2-4.1c6.6-8.5,2.8-18-3.7-21.8C70.8,31.7,61,34,57.1,43c-1.4-0.1-2.9-0.3-4.4-0.4
		c0.6-2.5,2-4.6,3.5-6.7c-0.3-0.4-0.6-0.8-1-1.2c-0.6,0.4-1.1,0.8-1.7,1.3c-1.2-0.7-1.9-1.9-2.2-3.2c-0.3-1-0.1-1.9,0.8-2.5
		c1.2-0.8,2.3-1.7,3.4-2.8c0.9-0.9,1.9-0.9,2.9-0.3c1,0.7,1.8,1.5,2.8,2.4c-0.8,0.7-1.3,1.1-1.9,1.6c0.3,0.4,0.5,0.7,0.6,0.8
		c3.1-1,6.1-2,9-2.9c0,0,0-0.2,0-0.5c-1,0-2,0-3,0c-2.6,0-4.6-2-4.6-4.6c0-1-0.1-2,0.1-2.9c0.4-1.8,1.7-2.8,3.3-3.6
		c3.8,0,7.6,0,11.4,0c1.7,0.7,3,1.8,3.4,3.7c0.2,0.9,0.1,1.9,0.1,2.9c0,2.5-2,4.5-4.5,4.5c-0.9,0-1.9,0-2.8,0c0,0.2-0.1,0.4-0.1,0.6
		c1.5,0.4,3,0.6,4.4,1.1c1.6,0.5,3,1.3,4.5,2c0.2-0.3,0.5-0.6,0.7-1c-0.6-0.5-1.1-1-1.7-1.6c0.7-0.7,1.3-1.6,2.1-2.1
		c1.6-1.2,2.1-1.1,3.7,0.2c1.4,1.1,2.8,2.2,4.1,3.3C89.9,31.6,89.9,32.3,89.9,32.9z M70.4,21.3c-1.4,0-2.7,0-4.1,0
		c-1.4,0-1.3,0.9-1.3,1.8c0,0.9-0.1,1.9,1.3,1.8c1.4-0.1,2.8-0.2,4.2-0.2c1.3,0,2.7,0.2,4,0.2c1.4,0.1,1.4-0.9,1.4-1.9
		c0-1-0.2-1.7-1.4-1.7C73.1,21.3,71.7,21.3,70.4,21.3z"/>
	<path fill="#3B5CA5" d="M33.9,82.5c-2.8-1.5-3.6-3.5-2.5-6c1.1-2.5,3.8-3.9,6.2-3.2c2.7,0.8,3.8,4.1,2,6.6c-0.8,1.1-2.1,1.8-3.2,2.7
		C35.5,82.5,34.7,82.5,33.9,82.5z"/>
	<path fill="#3B5CA5" d="M10.1,52.5c0,0,0.1,0,0.1-0.1c0.8-2.3,0.8-2.3,3.3-2.3c4.4,0,8.9,0,13.5,0c-0.1,0.9-0.2,1.7-0.4,2.6
		c-5.6,0-11,0-16.5,0C10.1,52.7,10.1,52.6,10.1,52.5z"/>
	<path fill="#3B5CA5" d="M26.2,70.2c0.5-3.5,1-6.9,1.5-10.3c0.3-1.7,0.6-3.5,1-5.2c0.9-4.3,3.5-7,7.7-7.9c6-1.4,12.2-1.2,18.3-0.6
		c3.7,0.4,5.3,3.2,4.8,6.9c-0.8,5.4-1.5,10.7-2.2,16.1c-0.1,0.8-0.3,1.2-1.2,1.2c-9.7,0-19.4,0-29.2,0
		C26.8,70.3,26.6,70.3,26.2,70.2z"/>
	<path fill="#3B5CA5" d="M79.7,77.4c-1.5,0-2.8,0-4.2,0c-0.6-3.9-0.7-4.1-3-3.6c1.7,3.2,1.4,5.4-1,7.4c-1.6,1.3-3.9,1.6-5.5,0.5
		c-1.5-1-2.1-2.9-1.5-5.1c0.1-0.2,0.1-0.4,0.2-0.6c-0.1-0.1-0.2-0.2-0.3-0.3c-0.7,0.5-1.4,1-2.1,1.4c0.1,0.1,0.1,0.2,0.2,0.3
		c-6.8,0-13.5,0-20,0c-0.6-1.7-1.2-3.2-1.7-4.8c6.1,0,12.4,0,18.6,0c0.6-5.8,1.2-11.4,1.9-17.2c4.3,0.3,8.5-0.6,12.6,0.9
		c4.7,1.7,7,5.9,7.2,10.2c0.1,2.2-0.5,4.4-0.8,6.7C80,74.5,79.8,76,79.7,77.4z"/>
	<path fill="#EE585B" d="M70.5,48.1c0-4.4,0-8.6,0-12.7C77,34.6,84,41.5,83.4,48.1c-0.7,0-1.4,0-1.9,0c-0.8-2.2-1.6-4.4-2.4-6.8
		C76.1,43.7,73.4,45.8,70.5,48.1z"/>
	<path fill="#3B5CA5" d="M11.5,62.3c0.3-1.3,0.6-2.5,1-3.7c0.1-0.3,0.5-0.6,0.8-0.6c4.1,0,8.2,0,12.5,0c-0.2,1.5-0.4,2.9-0.6,4.4
		C20.6,62.3,16.2,62.3,11.5,62.3z"/>
	<path fill="#3B5CA5" d="M14.6,70.4c0.3-1,0.4-1.8,0.6-2.7c3,0,6,0,9.1,0c-0.1,0.7-0.1,1.4-0.3,2.1c-0.1,0.2-0.5,0.5-0.7,0.6
		C20.5,70.4,17.7,70.4,14.6,70.4z"/>
	<path fill="#3B5CA5" d="M13.9,77.6c0.4-2.7,0.4-2.7,3-2.7c2.1,0,4.2,0,6.4,0c-0.1,1-0.3,1.8-0.4,2.7C19.9,77.6,16.9,77.6,13.9,77.6z"
		/>
	<path fill="#3B5CA5" d="M26.1,72.6c2.1,0,4.2,0,6.3,0c-0.7,0.8-1.4,1.5-1.9,2.4c-0.5,0.8-0.8,1.7-1.2,2.6c-1.2,0-2.4,0-3.9,0
		C25.6,75.9,25.9,74.3,26.1,72.6z"/>
	<path fill="#3B5CA5" d="M20,53.7c2.2,0,4.3,0,6.4,0c0,0.1,0.1,0.2,0.1,0.3c-0.3,2.3-0.3,2.3-2.7,2.3c-1.4,0-2.8,0-4.4,0
		C19.6,55.3,19.8,54.6,20,53.7z"/>
</g>
</svg>
