<svg width="59" height="53" viewBox="0 0 59 53" fill="none" xmlns="http://www.w3.org/2000/svg">
<path d="M58.7865 51.1844L54.1931 25.8774C54.1473 25.6248 53.9906 25.406 53.7661 25.2812L42.2047 18.8508C42.0546 18.7672 41.8864 18.734 41.7212 18.7468L43.8246 45.8806L43.7541 45.9121L57.5905 52.1195C57.7031 52.1698 57.8228 52.1947 57.9419 52.1947C58.1304 52.1947 58.3173 52.1327 58.4708 52.0125C58.7219 51.8165 58.8432 51.4977 58.7865 51.1844Z" fill="#44C868"/>
<path d="M29.5664 24.9985L17.742 18.8398C17.6002 18.7659 17.4431 18.7357 17.2884 18.7461C17.3294 18.7436 17.3706 18.7438 17.4115 18.747L15.3081 45.8809L29.215 52.1198C29.3272 52.1701 29.447 52.1951 29.5664 52.1951V24.9985Z" fill="#44C868"/>
<path d="M17.4114 18.7473C17.2461 18.7345 17.0779 18.7677 16.9279 18.8512L5.36635 25.2816C5.14184 25.4064 4.98517 25.6251 4.93937 25.8778L0.346079 51.1848C0.28921 51.4979 0.410714 51.8168 0.661602 52.013C0.815424 52.1332 1.00213 52.1952 1.19056 52.1952C1.30966 52.1952 1.42945 52.1704 1.54194 52.12L15.303 45.9464L17.4114 18.7473Z" fill="#4CE166"/>
<path d="M41.7213 18.7466C41.6075 18.7554 41.4951 18.7856 41.3908 18.84L29.5664 24.9986V52.1952C29.5664 52.1952 29.5664 52.1952 29.5665 52.1952C29.6859 52.1952 29.8058 52.1703 29.9179 52.1199L43.8248 45.881L41.7213 18.7466Z" fill="#4CE166"/>
<path d="M3.54711 33.5469L2.61401 38.6879L16.431 31.3901L16.7518 27.2517L16.805 26.5654L3.54711 33.5469Z" fill="#FFDB56"/>
<path d="M16.5556 29.7856L16.4312 31.3903L2.61423 38.6881L0.346079 51.1849C0.28921 51.498 0.410714 51.8169 0.661602 52.013C0.815424 52.1333 1.00213 52.1953 1.19056 52.1953C1.30966 52.1953 1.42945 52.1705 1.54194 52.12L15.303 45.9465L16.5556 29.7856Z" fill="#A8EEFC"/>
<path d="M29.5697 28.3911L16.8051 26.5659L16.4312 31.3906L29.5663 51.3382V44.0847L21.7282 31.7426L29.5697 32.6805V28.3911Z" fill="#FFBB24"/>
<path d="M52.8561 24.7756L47.3022 21.6865L42.0444 22.915L42.1102 23.7642L42.3699 27.114L52.8561 24.7756Z" fill="#FFBB24"/>
<path d="M42.8362 33.1296L42.3383 26.7062L42.0445 22.915L29.5698 28.391V32.6804L37.7184 29.1369L42.8362 33.1296Z" fill="#FFDB56"/>
<path d="M58.7867 51.1847L57.6329 44.8279L42.3699 27.1138L42.8363 33.1294L58.4891 51.9969C58.727 51.7997 58.842 51.49 58.7867 51.1847Z" fill="#FFBB24"/>
<path d="M29.6212 0C23.0021 0 17.6169 5.38067 17.6169 11.9944C17.6169 16.0856 19.5593 20.478 23.3902 25.0495C26.2039 28.4072 28.9793 30.5668 29.0961 30.6571C29.2507 30.7767 29.436 30.8364 29.6213 30.8364C29.8065 30.8364 29.9919 30.7767 30.1465 30.6571C30.2632 30.5668 33.0387 28.4072 35.8524 25.0495C39.6833 20.478 41.6257 16.0857 41.6257 11.9944C41.6255 5.38067 36.2403 0 29.6212 0ZM34.0668 11.9943C34.0668 14.4475 32.0764 16.4363 29.6212 16.4363C27.166 16.4363 25.1756 14.4476 25.1756 11.9943C25.1756 9.54105 27.166 7.55233 29.6212 7.55233C32.0764 7.55233 34.0668 9.54117 34.0668 11.9943Z" fill="#FF4A4A"/>
<path d="M29.6214 0C29.0968 0 28.58 0.0340303 28.073 0.0995786C33.9636 0.860922 38.529 5.90483 38.529 11.9944C38.529 16.0856 36.5866 20.478 32.7557 25.0495C30.9463 27.2087 29.154 28.8713 28.0731 29.8079C28.6731 30.3278 29.0547 30.6249 29.0963 30.6571C29.2509 30.7767 29.4362 30.8364 29.6215 30.8364C29.8067 30.8364 29.9921 30.7767 30.1467 30.6571C30.2634 30.5668 33.0389 28.4072 35.8526 25.0495C39.6835 20.478 41.6259 16.0857 41.6259 11.9944C41.6256 5.38067 36.2405 0 29.6214 0Z" fill="#E7343F"/>
<path d="M29.9179 52.1201L35.0893 49.8001L29.5664 44.0845V52.1953C29.5664 52.1953 29.5664 52.1953 29.5665 52.1953C29.6859 52.1953 29.8056 52.1706 29.9179 52.1201Z" fill="#FFDB56"/>
<path d="M54.1932 25.8778C54.1474 25.6252 53.9908 25.4064 53.7663 25.2816L52.8561 24.7754L42.3699 27.1138L57.6328 44.8279L54.1932 25.8778Z" fill="#1EA4E9"/>
<path d="M29.5662 52.1951C29.5663 52.1951 29.5663 52.1951 29.5662 52.1951V51.3377L16.4312 31.3901L15.3079 45.881L29.2147 52.12C29.327 52.1703 29.4468 52.1951 29.5662 52.1951Z" fill="#1EA4E9"/>
</svg>
