<svg width="71" height="67" viewBox="0 0 71 67" fill="none" xmlns="http://www.w3.org/2000/svg">
<rect width="70.0923" height="67" rx="18" fill="#FFF9F4"/>
<path fill-rule="evenodd" clip-rule="evenodd" d="M34.2222 28.9517V24.9792C33.726 24.9594 33.2322 24.9006 32.7451 24.8033C31.645 24.5813 30.4758 24.1051 29.5941 23.2194C28.7137 22.3338 28.2397 21.1581 28.0173 20.0516C27.7107 18.5242 27.8806 17.1662 27.8806 17.1662C27.915 16.8816 28.0433 16.6168 28.245 16.4139C28.4467 16.2111 28.7103 16.0819 28.9936 16.047C28.9936 16.047 30.3455 15.8763 31.8647 16.1856C32.9649 16.4077 34.1341 16.8839 35.0157 17.7695C35.1933 17.9479 35.3543 18.1379 35.5 18.3368C35.6457 18.1379 35.8067 17.9479 35.9843 17.7695C36.8647 16.8839 38.0351 16.4077 39.134 16.1856C40.6546 15.8763 42.0052 16.047 42.0052 16.047C42.2887 16.0816 42.5525 16.2107 42.7545 16.4135C42.9564 16.6164 43.0849 16.8814 43.1194 17.1662C43.1194 17.1662 43.2881 18.5242 42.9814 20.0516C42.7591 21.1581 42.2863 22.3325 41.4046 23.2194C40.5229 24.1051 39.3538 24.5813 38.2549 24.8033C37.7678 24.9005 37.274 24.9593 36.7778 24.9792V28.953C38.4583 29.1394 40.0766 29.6983 41.5158 30.5895C41.4647 31.5779 41.4314 33.5494 41.4123 34.0897C41.3356 34.4299 41.2628 34.7777 41.0456 35.0588C40.5217 35.7365 39.9173 36.2564 39.5212 37.0355C39.0101 38.0418 38.8784 39.1315 38.4964 40.1737C38.3264 40.6358 38.0159 41.044 37.7732 41.4688C37.4282 42.0721 37.0065 42.8987 36.8634 43.6996C36.7279 44.4659 36.8251 45.2142 37.2403 45.8585C37.7284 46.6158 38.6906 46.9881 39.502 47.2153C41.1388 47.6748 42.5738 47.9623 44.1301 47.083C44.1838 47.0535 44.6502 46.8174 45.2993 46.49C44.4273 47.9183 43.2563 49.1388 41.8676 50.0668C40.4789 50.9949 38.9058 51.6082 37.2575 51.8643C35.6092 52.1204 33.9251 52.0131 32.3222 51.5499C30.7193 51.0866 29.236 50.2785 27.9752 49.1816C29.037 48.8389 30.1602 48.2973 30.9498 47.762C31.5057 47.386 31.912 46.9893 32.128 46.6633C32.7093 45.7777 32.8908 44.7881 32.9534 43.7535C32.9968 43.0322 32.947 42.3878 33.2179 41.6999C33.4096 41.2121 33.6689 40.7629 33.867 40.2995C34.1507 39.6295 34.3257 38.9326 34.2465 38.1303C34.1532 37.1728 33.7699 36.4104 33.3035 35.6865C32.9905 35.1987 32.6237 34.7379 32.3988 34.1757C32.0922 33.4018 31.4252 31.1748 31.1453 29.7398C32.1295 29.3346 33.1651 29.0693 34.2222 28.9517ZM26.0023 46.9598C24.6945 45.0404 23.9964 42.7679 24 40.442C23.9992 38.5975 24.4381 36.7795 25.2799 35.1402C26.1218 33.501 27.3421 32.088 28.839 31.0195C29.2018 32.5816 29.7372 34.4042 30.0273 35.1294C30.265 35.7288 30.6074 36.2525 30.9524 36.7685C31.2795 37.2601 31.6398 37.7286 31.7037 38.3819C31.7459 38.817 31.5772 39.1713 31.4086 39.5294C31.2195 39.9324 31.0073 40.3316 30.84 40.7577C30.4656 41.7114 30.463 42.5958 30.4017 43.5969C30.3672 44.1771 30.3237 44.7483 29.9966 45.245C29.8957 45.3978 29.658 45.5479 29.382 45.7225C28.6874 46.1535 27.9429 46.4975 27.1651 46.7468C26.7958 46.8623 26.2821 46.929 26.0023 46.9598ZM44.0062 32.6663C45.9353 34.792 47.0032 37.5656 47 40.442C47 41.2853 46.9093 42.1106 46.738 42.9025C45.0999 43.7279 42.9929 44.7778 42.8779 44.8433C41.9732 45.3554 41.1401 45.0076 40.1894 44.7406C40.0093 44.6905 39.8099 44.6392 39.6183 44.5673C39.5339 44.5352 39.4317 44.5339 39.3844 44.4608C39.2886 44.3119 39.3755 44.1322 39.4253 43.9563C39.5544 43.5122 39.7984 43.0822 39.9901 42.7472C40.3032 42.1992 40.675 41.6588 40.8935 41.0619C41.2411 40.116 41.3318 39.1174 41.7969 38.2048C42.1163 37.5758 42.6402 37.1844 43.0632 36.6363C43.5321 36.0305 43.7519 35.3014 43.9257 34.5698C43.9346 34.5313 43.9704 33.6213 44.0062 32.6663Z" fill="#EE585B"/>
</svg>
