<svg width="24" height="24" viewBox="0 0 24 24" fill="none" xmlns="http://www.w3.org/2000/svg">
<rect x="0.5" y="0.5" width="22.7313" height="22.7313" rx="7.5" stroke="#B2B2B2"/>
<path d="M12 10.4C11.566 10.4 11.1498 10.5686 10.8429 10.8686C10.536 11.1687 10.3636 11.5757 10.3636 12C10.3636 12.4243 10.536 12.8313 10.8429 13.1314C11.1498 13.4314 11.566 13.6 12 13.6C12.434 13.6 12.8502 13.4314 13.1571 13.1314C13.464 12.8313 13.6364 12.4243 13.6364 12C13.6364 11.5757 13.464 11.1687 13.1571 10.8686C12.8502 10.5686 12.434 10.4 12 10.4ZM12 14.6667C11.2767 14.6667 10.583 14.3857 10.0715 13.8856C9.56006 13.3855 9.27273 12.7072 9.27273 12C9.27273 11.2928 9.56006 10.6145 10.0715 10.1144C10.583 9.61428 11.2767 9.33333 12 9.33333C12.7233 9.33333 13.417 9.61428 13.9285 10.1144C14.4399 10.6145 14.7273 11.2928 14.7273 12C14.7273 12.7072 14.4399 13.3855 13.9285 13.8856C13.417 14.3857 12.7233 14.6667 12 14.6667V14.6667ZM12 8C9.27273 8 6.94364 9.65867 6 12C6.94364 14.3413 9.27273 16 12 16C14.7273 16 17.0564 14.3413 18 12C17.0564 9.65867 14.7273 8 12 8Z" fill="#43ABAA"/>
</svg>
