<svg id="Layer_1" data-name="Layer 1" xmlns="http://www.w3.org/2000/svg" width="68" height="67" viewBox="0 0 68 67"><title>icon</title><rect width="68" height="67" rx="20" style="fill:#fff9f4"/><g id="_0Z10q1.tif" data-name="0Z10q1.tif"><path d="M22.384,46.926c-.764-.316-1.045-.942-.671-1.534a1.437,1.437,0,0,1,.4-.4q4.74-3.291,9.487-6.576a1.172,1.172,0,0,1,1.33-.074q6.227,3.3,12.455,6.6a1.011,1.011,0,0,1,.336,1.706,2.562,2.562,0,0,1-.487.274Z" style="fill:#ffa55a"/><path d="M18.005,21.484A7.077,7.077,0,0,1,31.38,18.371a6.745,6.745,0,0,1,.747,3.664,7.954,7.954,0,0,1-.935,2.833,35.414,35.414,0,0,1-4.735,6.809c-.2.234-.39.471-.6.7a.992.992,0,0,1-1.552.011,37.367,37.367,0,0,1-5.324-7.473,7.717,7.717,0,0,1-.98-3.175C18,21.653,18.005,21.568,18.005,21.484Zm10.089.292a3.019,3.019,0,0,0-2.853-3.2,3.053,3.053,0,0,0-3.168,2.652,3.025,3.025,0,1,0,6.021.544Z" style="fill:#ffa55a"/><path d="M21.121,31.782c.545.639,1.055,1.242,1.573,1.839a3.045,3.045,0,0,0,4.788-.02,43.155,43.155,0,0,0,4.951-6.747.43.43,0,0,1,.315-.176q4.462-.014,8.924-.006a1.038,1.038,0,0,1,1.071.726,1.057,1.057,0,0,1-.53,1.211q-5.825,4.035-11.65,8.067L20.551,43.607c-.086.06-.171.122-.26.18a1.009,1.009,0,0,1-1.212.04,1.031,1.031,0,0,1-.4-1.149q.558-2.514,1.114-5.028.63-2.838,1.263-5.675C21.07,31.925,21.09,31.878,21.121,31.782Z" style="fill:#ffa55a"/><path d="M49.8,43.223a1.009,1.009,0,0,1-1.368,1.027,2.754,2.754,0,0,1-.285-.136q-6.2-3.282-12.4-6.566a1.029,1.029,0,0,1-.491-1.585,1.672,1.672,0,0,1,.377-.333q4.715-3.27,9.436-6.535a1.035,1.035,0,0,1,1.757.677q1.473,6.6,2.938,13.2A2.259,2.259,0,0,1,49.8,43.223Z" style="fill:#ffa55a"/></g></svg>