<svg width="64" height="51" viewBox="0 0 64 51" fill="none" xmlns="http://www.w3.org/2000/svg">
<path d="M55.7747 21.8892H59.4997V29.2654H55.7747V21.8892Z" fill="#5B362A"/>
<path d="M55.7747 21.8892H59.4997V29.2654H55.7747V21.8892Z" fill="#401409"/>
<path d="M4.07104 21.8892H7.79609V29.2654H4.07104V21.8892Z" fill="#5B362A"/>
<path d="M16.2673 7.45068H47.3111V31.1279H16.2673V7.45068Z" fill="#F8F7FD"/>
<path d="M31.7861 7.45068H47.3111V31.1279H31.7861V7.45068Z" fill="#ECE6EA"/>
<path d="M47.2292 0H16.3493L13.1829 11.1756H50.3956L47.2292 0Z" fill="#FF8659"/>
<path d="M29.9236 14.8462H33.6486V18.5715H29.9236V14.8462Z" fill="#5B362A"/>
<path d="M29.9236 22.6694H33.6486V29.2654H29.9236V22.6694Z" fill="#5B362A"/>
<path d="M31.7861 22.6694H33.6487V29.2654H31.7861V22.6694Z" fill="#401409"/>
<path d="M22.9697 22.6694H26.6948V29.2654H22.9697V22.6694Z" fill="#5B362A"/>
<path d="M36.8774 22.6694H40.6025V29.2654H36.8774V22.6694Z" fill="#5B362A"/>
<path d="M36.8774 22.6694H40.6025V29.2654H36.8774V22.6694Z" fill="#401409"/>
<path d="M22.9697 14.8462H26.6948V18.5715H22.9697V14.8462Z" fill="#5B362A"/>
<path d="M36.8774 14.8462H40.6025V18.5715H36.8774V14.8462Z" fill="#5B362A"/>
<path d="M1.86472 27.4028L0.00219727 27.4038V31.1218L1.85764 31.1289C7.03209 31.1485 12.1591 32.4853 16.6844 34.9948C21.2108 37.505 25.0605 41.1471 27.8176 45.5275L30.6333 50.0013H32.9386L35.7544 45.5275C38.5113 41.1471 42.3611 37.505 46.8874 34.9948C51.4127 32.4854 56.5397 31.1485 61.7143 31.1289L63.5698 31.1208V27.4028H1.86472Z" fill="#C9DA4A"/>
<path d="M31.7861 27.4028V50.0013H32.9388L35.7545 45.5275C38.5114 41.1471 42.3613 37.505 46.8876 34.9948C51.4129 32.4854 56.5399 31.1485 61.7145 31.1289L63.5699 31.1208V27.4028H31.7861Z" fill="#9BDA05"/>
<path d="M21.1454 47.1355C19.0903 43.9208 16.2354 41.2527 12.8895 39.4194C9.54178 37.5853 5.75465 36.6157 1.9376 36.6157H0.00219727V43.0012C0.00219727 46.8672 3.1362 50.0012 7.0022 50.0012H22.9774L21.1454 47.1355Z" fill="#C9DA4A"/>
<path d="M61.633 36.6157C57.816 36.6157 54.0289 37.5852 50.6812 39.4194C47.3352 41.2527 44.4805 43.9208 42.4254 47.1355C41.6328 48.3753 42.5232 50.0013 43.9946 50.0013H56.8772C60.5735 50.0013 63.5699 47.0048 63.5699 43.3085V38.5526C63.5699 37.4829 62.7028 36.6157 61.633 36.6157Z" fill="#C9DA4A"/>
<path d="M61.633 36.6157C57.816 36.6157 54.0289 37.5852 50.6812 39.4194C47.3352 41.2527 44.4805 43.9208 42.4254 47.1355C41.6328 48.3753 42.5232 50.0013 43.9946 50.0013H56.8772C60.5735 50.0013 63.5699 47.0048 63.5699 43.3085V38.5526C63.5699 37.4829 62.7028 36.6157 61.633 36.6157Z" fill="#9BDA05"/>
<path d="M61.7004 27.4037C55.9003 27.4257 50.1534 28.9241 45.081 31.737C40.0074 34.5507 35.6922 38.6331 32.6018 43.5432L31.786 44.8392L30.9702 43.543C27.8799 38.6331 23.5647 34.5507 18.4911 31.737C13.4187 28.9241 7.67181 27.4257 1.8718 27.4037L0.00219727 27.3966V40.3406H1.9376C8.47654 40.3406 14.4838 43.6308 18.0069 49.1418L18.5563 50.001H45.0143L45.5637 49.1418C49.0868 43.6308 55.0941 40.3406 61.633 40.3406H63.5699V27.3965L61.7004 27.4037Z" fill="#9BDA05"/>
<path d="M63.2985 16.0636L61.624 10.6744C61.0698 8.89068 59.5049 7.73828 57.6372 7.73828C55.7695 7.73828 54.2045 8.89068 53.6504 10.6744L51.9759 16.0636C51.4107 17.8823 51.7344 19.8049 52.8636 21.3384C53.9928 22.8719 55.7327 23.7514 57.6372 23.7514C59.5417 23.7514 61.2817 22.8719 62.4109 21.3384C63.54 19.8049 63.8637 17.8822 63.2985 16.0636Z" fill="#00A763"/>
<path d="M9.92045 10.6744C9.36629 8.89081 7.80127 7.73828 5.93366 7.73828C4.06605 7.73828 2.50104 8.89068 1.94688 10.6744L0.272224 16.0636C-0.292865 17.8823 0.030717 19.8049 1.16003 21.3384C2.28933 22.8719 4.02917 23.7514 5.93366 23.7514C7.83803 23.7514 9.57812 22.8719 10.7073 21.3384C11.8366 19.8049 12.1602 17.8823 11.5951 16.0636L9.92045 10.6744Z" fill="#3BB54A"/>
<path d="M36.8774 14.8462H40.6025V18.5715H36.8774V14.8462Z" fill="#401409"/>
<path d="M63.2985 16.0636L61.624 10.6744C61.0698 8.89068 59.5049 7.73828 57.6372 7.73828C55.7695 7.73828 54.2045 8.89068 53.6504 10.6744L51.9759 16.0636C51.4107 17.8823 51.7344 19.8049 52.8636 21.3384C53.9928 22.8719 55.7327 23.7514 57.6372 23.7514C59.5417 23.7514 61.2817 22.8719 62.4109 21.3384C63.54 19.8049 63.8637 17.8822 63.2985 16.0636Z" fill="#3BB54A"/>
<path d="M47.2293 0H31.7861V11.1756H50.3957L47.2293 0Z" fill="#FF4A4A"/>
<path d="M31.7861 14.8462H33.6487V18.5715H31.7861V14.8462Z" fill="#401409"/>
<path d="M61.7003 27.4037C55.9002 27.4257 50.1533 28.9241 45.0809 31.737C40.0073 34.5507 35.6921 38.6331 32.6017 43.5432L31.7859 44.8392V50.0011H45.0143L45.5636 49.1419C49.0867 43.631 55.094 40.3408 61.6329 40.3408H63.5698V27.3965L61.7003 27.4037Z" fill="#3BB54A"/>
</svg>
