<svg width="53" height="52" viewBox="0 0 53 52" fill="none" xmlns="http://www.w3.org/2000/svg">
<path d="M41.7979 52H0.5V13H52.5V41.2979L41.7979 52Z" fill="#F1F7FF"/>
<path d="M0.5 13H52.5V19.5H0.5V13Z" fill="#D7E1F2"/>
<path d="M10.25 6.5H7V1.625C7 0.7276 7.7276 0 8.625 0C9.5224 0 10.25 0.7276 10.25 1.625V6.5Z" fill="#BFC9D1"/>
<path d="M46 6.5H42.75V1.625C42.75 0.7276 43.4776 0 44.375 0C45.2724 0 46 0.7276 46 1.625V6.5Z" fill="#BFC9D1"/>
<path d="M41.7979 41.2979V52L52.5 41.2979H41.7979Z" fill="#C8D5E8"/>
<path d="M52.5 16.25H0.5V8.125C0.5 6.3302 1.9552 4.875 3.75 4.875H49.25C51.0448 4.875 52.5 6.3302 52.5 8.125V16.25Z" fill="#FFA55A"/>
<path d="M34.6948 44.3594L26.5 40.2056L18.3052 44.3594L19.8699 35.5516L13.1636 29.2516L22.426 27.9547L26.5 19.9971L30.574 27.9547L39.8364 29.2516L33.1301 35.5516L34.6948 44.3594Z" fill="#FFE563"/>
<path d="M34.6948 44.3593L26.5 40.2056L18.3052 44.3593L19.8699 35.5515L30.574 27.9546L39.8364 29.2515L33.1301 35.5515L34.6948 44.3593Z" fill="#F8D868"/>
</svg>
