<svg width="42" height="48" viewBox="0 0 42 48" fill="none" xmlns="http://www.w3.org/2000/svg">
    <path
        d="M41.5353 32.9679C40.9956 34.7062 40.4565 36.444 39.9169 38.1823C39.5571 39.261 39.2579 40.3398 38.958 41.4191C38.8381 41.7189 38.6582 41.7189 38.3584 41.7189C35.6613 41.7189 33.0241 41.7189 30.327 41.7189C30.1471 41.7189 29.9073 41.7189 29.668 41.7189C29.668 43.8164 29.668 45.8545 29.668 47.9521C23.7346 47.9521 17.8007 47.9521 11.8673 47.9521C11.8673 45.9145 11.8673 43.8764 11.8673 41.7189C11.6275 41.7189 11.4476 41.7189 11.2677 41.7189C8.57055 41.7189 5.93337 41.7189 3.23623 41.7189C2.8165 41.7189 2.63662 41.599 2.51726 41.1792C1.67836 38.4221 0.838898 35.665 0 32.848C13.8449 32.848 27.6904 32.848 41.5353 32.848C41.5353 32.9079 41.5353 32.9679 41.5353 32.9679ZM11.9867 15.9462C9.9491 15.8862 8.45062 16.845 7.31192 18.4035C6.11325 20.1418 5.39372 22.0594 5.51364 24.2769C5.5736 26.4343 5.51364 28.5924 5.51364 30.7499C5.51364 30.9298 5.51364 31.1097 5.51364 31.3495C7.43184 31.3495 9.22956 31.3495 11.1478 31.3495C11.1478 28.6524 11.1478 26.0152 11.1478 23.318C11.7474 23.318 12.2865 23.318 12.8861 23.318C12.8861 26.0152 12.8861 28.6524 12.8861 31.3495C14.3846 31.3495 15.8231 31.3495 17.3215 31.3495C17.3215 26.1951 17.3215 21.1006 17.3215 15.9462C15.5827 15.9462 13.7849 16.0061 11.9867 15.9462ZM13.665 6.95589C13.665 10.8517 16.662 13.9086 20.4378 13.9686C24.6934 14.0885 27.6898 10.9117 27.7498 6.95589C27.7498 3.23996 24.7528 -0.11675 20.7371 0.00317295C16.7819 -0.11675 13.6051 3.18 13.665 6.95589ZM30.5668 23.318C30.5668 26.0152 30.5668 28.6524 30.5668 31.3495C32.4251 31.3495 34.2228 31.3495 36.0211 31.3495C36.0211 31.1097 36.0211 30.9298 36.0211 30.7499C35.9611 28.4125 35.9011 26.1351 35.9011 23.7972C35.9011 21.8196 35.3615 19.9613 34.1628 18.4029C33.144 17.0843 31.8255 15.8257 30.0272 15.9456C29.0684 16.0056 28.1689 15.9456 27.2101 15.9456C26.2513 15.9456 25.3519 15.9456 24.3931 15.9456C24.3931 20.9201 24.3931 26.3144 24.3931 31.3489C25.8915 31.3489 27.39 31.3489 28.8885 31.3489C28.8885 28.6518 28.8885 26.0146 28.8885 23.3774C29.4881 23.318 30.0272 23.318 30.5668 23.318Z"
        fill="#EE585B" />
    <path
        d="M6.53247 40.3998V34.5264H8.15087V36.8038H10.3084V34.5264H11.9267V40.3998H10.3084V38.0024H8.15087V40.3998H6.53247Z"
        fill="white" />
    <path
        d="M13.1252 40.3998V34.5264H16.7212V35.845H14.6837V36.8637H16.6019V38.1224H14.6837V39.1411H16.7212V40.4597H13.1252V40.3998Z"
        fill="white" />
    <path d="M17.8005 40.3998V34.5264H19.4189V39.0218H21.3965V40.4003H17.8005V40.3998Z" fill="white" />
    <path d="M22.1755 40.3998V34.5264H23.7939V39.0218H25.7715V40.4003H22.1755V40.3998Z" fill="white" />
    <path
        d="M32.485 37.4629C32.485 37.8826 32.425 38.3018 32.2451 38.6615C32.0652 39.0213 31.8853 39.3805 31.5861 39.6803C31.2863 39.9801 30.9271 40.22 30.5673 40.3393C30.2076 40.5192 29.7884 40.5792 29.3687 40.5792C28.9489 40.5792 28.5298 40.5192 28.17 40.3393C27.8102 40.1594 27.451 39.9796 27.1512 39.6803C26.8514 39.3805 26.6116 39.0807 26.4322 38.6615C26.2523 38.3018 26.1924 37.8826 26.1924 37.4629C26.1924 37.0431 26.2523 36.624 26.4322 36.2642C26.6121 35.9044 26.792 35.5452 27.1512 35.2454C27.451 34.9456 27.8102 34.7058 28.17 34.5864C28.5298 34.4065 28.9489 34.3466 29.3687 34.3466C29.7884 34.3466 30.2076 34.4065 30.5673 34.5864C30.9271 34.7663 31.2863 34.9462 31.5861 35.2454C31.8859 35.5452 32.1258 35.845 32.2451 36.2642C32.425 36.6839 32.485 37.0437 32.485 37.4629ZM29.3681 39.2012C29.7878 39.2012 30.207 39.0213 30.4468 38.7215C30.7466 38.4217 30.8666 38.0025 30.8666 37.4629C30.8666 36.9832 30.7466 36.564 30.4468 36.2042C30.147 35.8445 29.7878 35.7245 29.3681 35.7245C28.9484 35.7245 28.5292 35.9044 28.2893 36.2042C27.9895 36.504 27.8696 36.9232 27.8696 37.4629C27.8696 37.9426 27.9895 38.3617 28.2893 38.7215C28.5892 39.0813 28.8884 39.2012 29.3681 39.2012Z"
        fill="white" />
    <path
        d="M33.4438 39.7407C33.4438 39.5009 33.5038 39.321 33.6837 39.1411C33.8636 38.9612 34.0435 38.9013 34.2833 38.9013C34.5232 38.9013 34.703 38.9612 34.8829 39.1411C35.0628 39.321 35.1228 39.5009 35.1228 39.7407C35.1228 39.9806 35.0628 40.1605 34.8829 40.3404C34.703 40.5202 34.5232 40.5802 34.2833 40.5802C34.0435 40.5802 33.8636 40.5202 33.6837 40.3404C33.5638 40.1599 33.4438 39.9806 33.4438 39.7407ZM33.5038 38.4821V34.2865H35.0023V38.4821H33.5038Z"
        fill="white" />
    <path
        d="M22.5952 30.8103C22.4753 29.5517 22.3553 28.2931 22.2954 27.0345C22.1755 25.536 22.0555 23.9775 21.9956 22.4791C21.9356 21.2204 21.9356 19.9019 21.7557 18.6432C21.6958 18.0436 21.9356 17.8043 22.2954 17.5045C22.4153 17.4446 22.5352 17.2647 22.5352 17.2047C22.5352 16.845 22.4753 16.4857 22.4153 16.126C21.3965 16.126 20.3777 16.126 19.3584 16.126C19.3584 16.1859 19.3584 16.3059 19.2984 16.3658C19.1186 16.9654 19.1186 17.4446 19.7182 17.8043C19.8381 17.8643 19.958 18.1641 19.958 18.344C19.958 18.8836 19.8981 19.4227 19.8381 19.9624C19.7182 21.4609 19.5982 22.9593 19.5383 24.4578C19.4184 26.1961 19.2984 27.9339 19.2385 29.6722C19.1785 30.2718 19.1186 30.8109 19.0586 31.4105C20.2573 31.4105 21.396 31.4105 22.6546 31.4105C22.5952 31.1695 22.5952 30.9897 22.5952 30.8103Z"
        fill="#3B5CA5" />
</svg>