<svg id="Layer_1" data-name="Layer 1" xmlns="http://www.w3.org/2000/svg" width="68" height="67" viewBox="0 0 68 67"><title>icon</title><rect width="68" height="67" rx="20" style="fill:#f4f1fd"/><path d="M36.009,20,30.6,25.288l1.082,1.072,2.164-2.1,1.7,1.662v3.46A3.046,3.046,0,0,1,32.454,32.4H31.62a8.752,8.752,0,0,1,2.241,7.554h4.822a6.748,6.748,0,0,1,2.274-4.311,7.069,7.069,0,0,1,8.5-.584V27.871a3.045,3.045,0,0,0-3.09-3.021H36.643l-1.7-1.662,2.148-2.115ZM21.636,26.36a1.511,1.511,0,1,0,0,3.022h7.728a3.057,3.057,0,0,0-3.091-3.022Zm3.091,4.532a7.915,7.915,0,0,0-2.411.378l.557,1.4-.727.272-.51-1.405a7.667,7.667,0,0,0-3.8,3.49l1.407.619-.325.68-1.391-.6a7.343,7.343,0,0,0-.139,5.076l1.438-.544.278.71-1.438.5a7.628,7.628,0,0,0,3.571,3.716l.618-1.375.711.318-.619,1.359a7.828,7.828,0,0,0,5.193.136l-.556-1.405.726-.272.51,1.405a7.656,7.656,0,0,0,3.8-3.489l-1.406-.6.324-.7,1.391.6a7.343,7.343,0,0,0,.139-5.076l-1.437.543-.278-.71,1.437-.5a7.628,7.628,0,0,0-3.57-3.717L27.6,33.083l-.711-.317.618-1.36A7.9,7.9,0,0,0,24.727,30.892Zm0,3.022a4.689,4.689,0,0,1,3.279,1.328,4.46,4.46,0,0,1,0,6.409,4.711,4.711,0,0,1-6.557,0,4.46,4.46,0,0,1,0-6.409A4.686,4.686,0,0,1,24.727,33.914Zm20.864,1.511a5.474,5.474,0,0,0-3.825,1.548,5.2,5.2,0,0,0,0,7.478,5.5,5.5,0,0,0,7.65,0,5.2,5.2,0,0,0,0-7.478A5.476,5.476,0,0,0,45.591,35.425Zm0,3.021a2.345,2.345,0,0,1,1.639.664,2.231,2.231,0,0,1,0,3.2,2.355,2.355,0,0,1-3.278,0,2.231,2.231,0,0,1,0-3.2A2.345,2.345,0,0,1,45.591,38.446Z" style="fill:#8965ee"/></svg>