<svg width="28" height="24" viewBox="0 0 28 24" fill="none" xmlns="http://www.w3.org/2000/svg">
<path d="M25.4545 8.7193V4.91228C25.4545 3.5614 24.3091 2.45614 22.9091 2.45614H12.7273L10.1818 0H2.54545C1.14545 0 0 1.10526 0 2.45614V17.193C0 18.5439 1.14545 19.6491 2.54545 19.6491H11.7091C13.2364 21.8596 16.0364 23.3333 19.0909 23.3333C24.0545 23.3333 28 19.5263 28 14.7368C28 12.4035 26.9818 10.3158 25.4545 8.7193ZM10.5636 17.193H2.54545V4.91228H22.9091V7C21.7636 6.38597 20.4909 6.14035 19.0909 6.14035C14.1273 6.14035 10.1818 9.94737 10.1818 14.7368C10.1818 15.5965 10.3091 16.4561 10.5636 17.193ZM19.0909 20.8772C15.5273 20.8772 12.7273 18.1754 12.7273 14.7368C12.7273 11.2982 15.5273 8.59649 19.0909 8.59649C22.6545 8.59649 25.4545 11.2982 25.4545 14.7368C25.4545 18.1754 22.6545 20.8772 19.0909 20.8772ZM20.3636 12.2807H17.8182V9.82456H20.3636V12.2807ZM20.3636 19.6491H17.8182V13.5088H20.3636V19.6491Z" fill="#EE585B"/>
</svg>
