<svg width="42" height="38" viewBox="0 0 42 38" fill="none" xmlns="http://www.w3.org/2000/svg">
    <path
        d="M37.5016 0H17.7706C15.2975 0 13.2734 2.02411 13.2734 4.49719V8.52919C13.3483 8.52171 13.4268 8.52171 13.5017 8.52171C18.3705 8.52171 22.3202 12.4677 22.3202 17.3365C22.3202 19.6898 21.3986 21.8299 19.892 23.4113H31.9593C31.9032 24.6709 31.3669 26.3533 29.4414 28.0394C29.4414 28.0394 33.6205 27.2899 36.0973 23.4113H37.5029C39.9759 23.4113 42.0001 21.3872 42.0001 18.9141V4.49719C41.9988 2.02411 39.9759 0 37.5016 0ZM26.7126 4.52712C26.7126 3.79629 27.3237 3.21887 28.0957 3.21887C28.8677 3.21887 29.4526 3.79629 29.4526 4.52712V7.01516L28.9724 15.3124C28.9462 15.7401 28.6544 16.0432 28.0957 16.0432C27.537 16.0432 27.219 15.7401 27.1928 15.3124L26.7126 7.01516V4.52712ZM28.0957 20.9943C27.2451 20.9943 26.5255 20.3159 26.5255 19.4878C26.5255 18.6822 27.2451 18.0037 28.0957 18.0037C28.9724 18.0037 29.692 18.6822 29.692 19.4878C29.692 20.3159 28.9724 20.9943 28.0957 20.9943Z"
        fill="#EE585B" />
    <path
        d="M27.3622 35.1119C27.1714 34.1566 25.2371 32.9868 21.5606 31.6025C21.4171 31.5551 21.2974 31.5064 21.2026 31.459C18.9578 30.6471 17.788 30.1932 17.6932 30.0984C17.4063 29.9076 17.2629 29.0957 17.2629 27.6627C17.2629 27.0903 17.4774 26.5291 17.9077 25.9791C18.1721 25.6424 18.3991 25.146 18.5911 24.4938C18.6672 24.293 18.7333 23.9849 18.7794 23.7455C18.8256 23.5335 18.8705 23.314 18.9104 23.077C19.0064 22.5994 19.1486 22.2177 19.3406 21.9309C19.5315 21.644 19.7223 21.0716 19.9131 20.2123C20.0565 19.7821 20.0677 19.3767 19.9492 18.9951C19.8295 18.6135 19.7697 18.374 19.7697 18.2793C19.8657 17.5148 19.9605 16.7278 20.0565 15.9159C20.1525 14.8172 19.6749 13.6362 18.6235 12.3703C17.5734 11.1045 15.9497 10.4722 13.7522 10.4722C11.556 10.4722 9.93222 11.1045 8.88088 12.3703C7.82954 13.6362 7.35314 14.8172 7.44792 15.9159C7.54395 16.7278 7.63873 17.516 7.73476 18.2793C7.73476 18.3753 7.6749 18.6135 7.55517 18.9951C7.43545 19.3767 7.44792 19.7833 7.59134 20.2123C7.78215 21.0716 7.97296 21.6453 8.16378 21.9309C8.35459 22.2177 8.49801 22.5994 8.59404 23.077C8.83224 24.4613 9.16648 25.4291 9.59674 25.9779C10.027 26.5266 10.2415 27.0878 10.2415 27.6615C10.2415 27.7575 10.2415 27.8997 10.2415 28.0918C10.2415 29.1418 10.1455 29.7754 9.95467 29.9899C9.76386 30.2044 9.11909 30.5037 8.02036 30.8854C7.20847 31.1722 6.5163 31.4104 5.94262 31.6012C2.26605 32.9855 0.331739 34.1566 0.140927 35.1107C0.0473913 35.7804 0 36.7357 0 37.9766H13.7522H27.5044L27.3622 35.1119Z"
        fill="#3B5CA5" />
</svg>