<svg id="Layer_1" data-name="Layer 1" xmlns="http://www.w3.org/2000/svg" width="68" height="67" viewBox="0 0 68 67">
    <title>icon</title>
    <rect width="68" height="67" rx="20" style="fill:#FFF9F4" />
    <g id="uyTPvf.tif">
        <path
            d="M34.691,17.558c0,1.217,0,2.435,0,3.652a.328.328,0,0,0,.23.363,2.558,2.558,0,0,1,1.338,1.332.351.351,0,0,0,.386.243q5.3-.009,10.589,0h.39v1.834H45.33c.055.143.091.247.133.349,1.3,3.155,2.588,6.312,3.9,9.461a1.962,1.962,0,0,1,.044,1.17,4.6,4.6,0,0,1-4.491,3.755,21.318,21.318,0,0,1-2.6-.069,4.567,4.567,0,0,1-3.867-4.32,1.142,1.142,0,0,1,.092-.441q1.953-4.8,3.916-9.587c.037-.091.068-.185.11-.3h-6.2a2.822,2.822,0,0,1-1.552,1.617c-.055.024-.089.115-.115.182a.427.427,0,0,0,0,.152V39.8a4.692,4.692,0,0,1,3.594,3.575H29.309c0-1.376,1.468-2.873,3.54-3.583v-.324q0-6.244.006-12.491a.416.416,0,0,0-.284-.455,2.664,2.664,0,0,1-1.31-1.324c-.044-.09-.157-.206-.239-.207-2-.011-4.009-.009-6.066-.009.05.135.088.243.131.349,1.293,3.146,2.579,6.294,3.886,9.433a2,2,0,0,1,.051,1.2,4.6,4.6,0,0,1-4.5,3.747,19.927,19.927,0,0,1-2.482-.057,4.538,4.538,0,0,1-3.931-3.823,1.039,1.039,0,0,0-.057-.168v-.614a1.11,1.11,0,0,0,.075-.129q1.99-4.862,3.979-9.724a2.173,2.173,0,0,0,.061-.227H19.922V23.144h.391q5.293,0,10.587,0a.35.35,0,0,0,.385-.244,2.567,2.567,0,0,1,1.34-1.331.328.328,0,0,0,.228-.364c-.007-1.217,0-2.434,0-3.651Zm-11.111,8.9-3.214,7.716H26.8Zm23.6,7.725L43.96,26.459l-3.217,7.724Z"
            style="fill:#EE585B" />
        <path
            d="M42.057,48.977H25.525c-.227-1.653.263-3.007,1.841-3.579a2.815,2.815,0,0,1,.931-.149q5.475-.015,10.949-.005a2.753,2.753,0,0,1,2.811,2.818C42.059,48.357,42.057,48.652,42.057,48.977Z"
            style="fill:#EE585B" />
    </g>
</svg>