<svg id="Layer_1" data-name="Layer 1" xmlns="http://www.w3.org/2000/svg" viewBox="0 0 52 52">
    <defs></defs>
    <title>Pratinidhi Tatha Karachari</title>
    <path fill="#EE585B"
        d="M25.8,36.2v3.7a2.5,2.5,0,0,1-2.5,2.5H4.3a3,3,0,0,1-3-3V35.9a2.9,2.9,0,0,1,.1-.8c.8-3.6,3.1-5.4,6.8-5.2l.7.3a7.7,7.7,0,0,0,9.1,0c.8-.6,4.2-.3,5.2.9a15,15,0,0,1,2.4,4.4v.6Z" />
    <path fill="#EE585B"
        d="M19.9,19.4,18.8,9.6,8.4,11.9l-.9,5.4a9.4,9.4,0,0,0-.4,5.8c.4,2,2.1,3.7,3.5,5.4a3.8,3.8,0,0,0,4.2,1.1c2.3-.7,5.6-5.3,5.6-7.7C20.2,21,20.1,20.2,19.9,19.4ZM19,23.2a26,26,0,0,1-2.7,4l-.3.3a3.9,3.9,0,0,1-4.8.2,7.3,7.3,0,0,1-1.7-2c-.4-.7-.9-1.3-1.3-2s-.8-1.5,0-2.3a4.1,4.1,0,0,0,.6-1.1A2.2,2.2,0,0,1,11.7,19a6.5,6.5,0,0,0,2.5.2c2.5-.4,4.3.4,5,2.6A2,2,0,0,1,19,23.2Z" />
    <path fill="#EE585B"
        d="M50.7,35.9h0c.1-2-1.8-5.1-3.8-5.6a2,2,0,0,1-1.6-2c0-1.8,0-3.7.1-5.5a11.6,11.6,0,0,0-1-6.2A5.5,5.5,0,0,0,39,13.3c-2.6-.1-4.7.6-6,3.1a12.6,12.6,0,0,0-1,7,34.7,34.7,0,0,1-.1,5.3A1.8,1.8,0,0,1,31,30c-2.6.7-3.6,2.7-4.2,5a2.7,2.7,0,0,0-.1.9h0v4a2.5,2.5,0,0,0,2.5,2.5H47.7a3,3,0,0,0,3-3V35.9ZM34.3,29.9l1.1-1.2a12.1,12.1,0,0,0,3.3,1,11.5,11.5,0,0,0,3.3-1l1,1.1C41.2,32.7,36.5,32.8,34.3,29.9ZM33.4,22c.7-1.2.7-3.1,2.6-3.3a2.2,2.2,0,0,1,1.1.3l5.2,2.6a8.8,8.8,0,0,0,1.6.5h.5l-1.1,2.1-.7,1.3c-.9,1.6-2,3.1-4,3.1s-3.1-1.5-4-3.1a11.5,11.5,0,0,1-1.1-1.7C33.4,23.3,33.1,22.5,33.4,22Z" />
    <rect fill="#EE585B" x="6.9" y="29.8" width="4.5" height="0.61" transform="translate(-20.6 19.9) rotate(-54.2)" />
    <rect fill="#EE585B" x="17.2" y="27.8" width="0.6" height="4.46" transform="translate(-12.7 12.8) rotate(-30)" />
    <path fill="#EE585B" d="M27.8,24.1v0Z" />
</svg>