<svg width="34" height="26" viewBox="0 0 34 26" fill="none" xmlns="http://www.w3.org/2000/svg">
<path d="M19.0091 0L13.6 5.28762L14.6818 6.36026L16.8455 4.26031L18.5455 5.92214V9.38176C18.5455 11.0587 17.17 12.4033 15.4545 12.4033H14.62C16.1474 14.0624 16.9948 16.2142 17 18.4463C16.9969 18.9528 16.9504 19.4581 16.8609 19.957H21.6827C21.8727 18.2957 22.6823 16.761 23.9566 15.6462C25.231 14.5315 26.8808 13.9148 28.5909 13.914C29.9666 13.9147 31.3112 14.3143 32.4545 15.0622V7.87101C32.4545 6.19407 31.0791 4.84951 29.3636 4.84951H19.6427L17.9427 3.18768L20.0909 1.07263L19.0091 0ZM4.63636 6.36026C3.78636 6.36026 3.09091 7.04009 3.09091 7.87101C3.09091 8.70192 3.78636 9.38176 4.63636 9.38176H12.3636C12.3636 7.71993 10.9882 6.36026 9.27273 6.36026H4.63636ZM7.72727 10.8925C6.90824 10.8927 6.09445 11.0202 5.31636 11.2702L5.87273 12.6752L5.14636 12.9471L4.63636 11.5421C2.99368 12.2396 1.64982 13.4732 0.834545 15.032L2.24091 15.6514L1.91636 16.3312L0.525455 15.7269C0.180488 16.594 0.00234703 17.5159 0 18.4463C0.000204754 19.2469 0.13062 20.0424 0.386364 20.803L1.82364 20.2592L2.10182 20.9692L0.664545 21.4678C1.37802 23.0736 2.63993 24.3872 4.23455 25.1842L4.85273 23.8094L5.56364 24.1267L4.94545 25.4863C5.83246 25.8236 6.77555 25.9977 7.72727 26C8.54631 25.9998 9.3601 25.8723 10.1382 25.6223L9.58182 24.2173L10.3082 23.9454L10.8182 25.3504C12.4609 24.6529 13.8047 23.4194 14.62 21.8605L13.2136 21.2562L13.5382 20.5613L14.9291 21.1656C15.2741 20.2985 15.4522 19.3766 15.4545 18.4463C15.4543 17.6456 15.3239 16.8501 15.0682 16.0895L13.6309 16.6334L13.3527 15.9233L14.79 15.4248C14.0765 13.819 12.8146 12.5053 11.22 11.7083L10.6018 13.0831L9.89091 12.7658L10.5091 11.4062C9.62209 11.0689 8.67899 10.8948 7.72727 10.8925ZM7.72727 13.914C8.95691 13.914 10.1362 14.3915 11.0057 15.2415C11.8752 16.0914 12.3636 17.2442 12.3636 18.4463C12.3636 19.6483 11.8752 20.8011 11.0057 21.651C10.1362 22.501 8.95691 22.9785 7.72727 22.9785C6.49763 22.9785 5.31836 22.501 4.44887 21.651C3.57938 20.8011 3.09091 19.6483 3.09091 18.4463C3.09091 17.2442 3.57938 16.0914 4.44887 15.2415C5.31836 14.3915 6.49763 13.914 7.72727 13.914ZM28.5909 15.4248C27.1563 15.4248 25.7805 15.9818 24.7661 16.9735C23.7517 17.9651 23.1818 19.31 23.1818 20.7124C23.1818 22.1147 23.7517 23.4597 24.7661 24.4513C25.7805 25.4429 27.1563 26 28.5909 26C30.0255 26 31.4013 25.4429 32.4157 24.4513C33.4301 23.4597 34 22.1147 34 20.7124C34 19.31 33.4301 17.9651 32.4157 16.9735C31.4013 15.9818 30.0255 15.4248 28.5909 15.4248ZM28.5909 18.4463C29.2057 18.4463 29.7954 18.685 30.2301 19.11C30.6649 19.535 30.9091 20.1114 30.9091 20.7124C30.9091 21.3134 30.6649 21.8898 30.2301 22.3148C29.7954 22.7397 29.2057 22.9785 28.5909 22.9785C27.9761 22.9785 27.3865 22.7397 26.9517 22.3148C26.517 21.8898 26.2727 21.3134 26.2727 20.7124C26.2727 20.1114 26.517 19.535 26.9517 19.11C27.3865 18.685 27.9761 18.4463 28.5909 18.4463Z" fill="#8965EE"/>
</svg>
