<svg width="68" height="67" viewBox="0 0 68 67" fill="none" xmlns="http://www.w3.org/2000/svg">
    <rect width="68" height="67" rx="20" fill="#FFF9F4" />
    <path
        d="M36.0091 20L30.6 25.2876L31.6818 26.3603L33.8455 24.2603L35.5455 25.9221V29.3818C35.5455 31.0587 34.17 32.4033 32.4545 32.4033H31.62C33.1474 34.0624 33.9948 36.2142 34 38.4463C33.9969 38.9528 33.9504 39.4581 33.8609 39.957H38.6827C38.8727 38.2957 39.6823 36.761 40.9566 35.6462C42.231 34.5315 43.8808 33.9148 45.5909 33.914C46.9666 33.9147 48.3112 34.3143 49.4545 35.0622V27.871C49.4545 26.1941 48.0791 24.8495 46.3636 24.8495H36.6427L34.9427 23.1877L37.0909 21.0726L36.0091 20ZM21.6364 26.3603C20.7864 26.3603 20.0909 27.0401 20.0909 27.871C20.0909 28.7019 20.7864 29.3818 21.6364 29.3818H29.3636C29.3636 27.7199 27.9882 26.3603 26.2727 26.3603H21.6364ZM24.7273 30.8925C23.9082 30.8927 23.0944 31.0202 22.3164 31.2702L22.8727 32.6752L22.1464 32.9471L21.6364 31.5421C19.9937 32.2396 18.6498 33.4732 17.8345 35.032L19.2409 35.6514L18.9164 36.3312L17.5255 35.7269C17.1805 36.594 17.0023 37.5159 17 38.4463C17.0002 39.2469 17.1306 40.0424 17.3864 40.803L18.8236 40.2592L19.1018 40.9692L17.6645 41.4678C18.378 43.0736 19.6399 44.3872 21.2345 45.1842L21.8527 43.8094L22.5636 44.1267L21.9455 45.4863C22.8325 45.8236 23.7756 45.9977 24.7273 46C25.5463 45.9998 26.3601 45.8723 27.1382 45.6223L26.5818 44.2173L27.3082 43.9454L27.8182 45.3504C29.4609 44.6529 30.8047 43.4194 31.62 41.8605L30.2136 41.2562L30.5382 40.5613L31.9291 41.1656C32.2741 40.2985 32.4522 39.3766 32.4545 38.4463C32.4543 37.6456 32.3239 36.8501 32.0682 36.0895L30.6309 36.6334L30.3527 35.9233L31.79 35.4248C31.0765 33.819 29.8146 32.5053 28.22 31.7083L27.6018 33.0831L26.8909 32.7658L27.5091 31.4062C26.6221 31.0689 25.679 30.8948 24.7273 30.8925ZM24.7273 33.914C25.9569 33.914 27.1362 34.3915 28.0057 35.2415C28.8752 36.0914 29.3636 37.2442 29.3636 38.4463C29.3636 39.6483 28.8752 40.8011 28.0057 41.651C27.1362 42.501 25.9569 42.9785 24.7273 42.9785C23.4976 42.9785 22.3184 42.501 21.4489 41.651C20.5794 40.8011 20.0909 39.6483 20.0909 38.4463C20.0909 37.2442 20.5794 36.0914 21.4489 35.2415C22.3184 34.3915 23.4976 33.914 24.7273 33.914ZM45.5909 35.4248C44.1563 35.4248 42.7805 35.9818 41.7661 36.9735C40.7517 37.9651 40.1818 39.31 40.1818 40.7124C40.1818 42.1147 40.7517 43.4597 41.7661 44.4513C42.7805 45.4429 44.1563 46 45.5909 46C47.0255 46 48.4013 45.4429 49.4157 44.4513C50.4301 43.4597 51 42.1147 51 40.7124C51 39.31 50.4301 37.9651 49.4157 36.9735C48.4013 35.9818 47.0255 35.4248 45.5909 35.4248ZM45.5909 38.4463C46.2057 38.4463 46.7954 38.685 47.2301 39.11C47.6649 39.535 47.9091 40.1114 47.9091 40.7124C47.9091 41.3134 47.6649 41.8898 47.2301 42.3148C46.7954 42.7397 46.2057 42.9785 45.5909 42.9785C44.9761 42.9785 44.3865 42.7397 43.9517 42.3148C43.517 41.8898 43.2727 41.3134 43.2727 40.7124C43.2727 40.1114 43.517 39.535 43.9517 39.11C44.3865 38.685 44.9761 38.4463 45.5909 38.4463Z"
        fill="#EE585B" />
</svg>