<svg id="Layer_1" data-name="Layer 1" xmlns="http://www.w3.org/2000/svg" width="68" height="67" viewBox="0 0 68 67">
    <title>icon</title>
    <rect width="68" height="67" rx="20" style="fill:#FFF9F4" />
    <path d="M46.126,36.826a6.706,6.706,0,1,0-1.519.884l.916,1.573,1.514-.872Z" style="fill:#EE585B" />
    <path
        d="M52.435,46.02Q51,43.5,49.536,40.992a1.75,1.75,0,1,0-3.028,1.756c.2.366.417.724.626,1.086.764,1.322,1.519,2.648,2.293,3.963a1.727,1.727,0,0,0,1.985.8,1.881,1.881,0,0,0,1.329-1.712A4.971,4.971,0,0,0,52.435,46.02Z"
        style="fill:#EE585B" />
    <path
        d="M35.253,36.558a8.279,8.279,0,0,1-1.681-5.494,8.483,8.483,0,0,1,8.483-8.077V21.739c0-.6-.024-1.209.007-1.811a1.094,1.094,0,0,0-.65-1.177h-18a1.331,1.331,0,0,0-.642.642V46.737a1.128,1.128,0,0,0,1.177.651q8.513-.02,17.027-.008c.76,0,1.076-.319,1.077-1.084V39.965A8.441,8.441,0,0,1,35.253,36.558ZM29.751,43c-.583.007-1.166,0-1.75,0-.553,0-1.107,0-1.661,0a.877.877,0,1,1-.012-1.75q1.7-.008,3.41,0A.875.875,0,1,1,29.751,43Zm5.521-4.062a.885.885,0,0,1-.875.558q-2.013,0-4.026,0c-1.343,0-2.685,0-4.027,0a.878.878,0,1,1,.011-1.751q4.012,0,8.024,0A.878.878,0,0,1,35.272,38.934Z"
        style="fill:#EE585B" />
    <path
        d="M46.878,29.723H41.2V31.17h.654a1.125,1.125,0,0,1,.857-.736,1.867,1.867,0,0,1,.363-.038,2.075,2.075,0,0,1,1.779,1.316q.546,1,1.109,2.177l-.5.266q-.154-.368-.75-1.543a1.869,1.869,0,0,0-1.485-1.137.9.9,0,0,0-.586.178.632.632,0,0,0-.3.521.556.556,0,0,0,.029.173.436.436,0,0,0,.47.294,1.676,1.676,0,0,0,.638-.15l.542.914a1.514,1.514,0,0,1-.822.247,1.18,1.18,0,0,1-.605-.164,1.853,1.853,0,0,1-.833-1.413h-.7a2.947,2.947,0,0,1-.358.454,1.685,1.685,0,0,1-.846.4L41.5,34.943l-.568.514L38.85,32.81a5.652,5.652,0,0,1-.333-.474,1.241,1.241,0,0,1-.223-.668.456.456,0,0,1,.387-.513.731.731,0,0,1,.111-.009.652.652,0,0,1,.557.343.611.611,0,0,0,.358-.053.744.744,0,0,0,.223-.321V29.723H37.781l-.61-1.132h9Z"
        style="fill:#fff9f4" />
    <rect x="25.404" y="21.964" width="5.256" height="5.256" rx="1.097" style="fill:#fff9f4" />
</svg>