<svg id="Layer_1" data-name="Layer 1" xmlns="http://www.w3.org/2000/svg" width="68" height="67" viewBox="0 0 68 67">
    <title>icon</title>
    <rect width="68" height="67" rx="20" style="fill:#f1fbf6" />
    <g id="km2Exy.tif">
        <path
            d="M28.177,39.65H27.148v.559q0,4.326,0,8.651a1.644,1.644,0,1,1-3.271.023q0-4.28,0-8.559v-.7c-.546,0-1.062,0-1.579,0-.552,0-.73-.219-.609-.748q1.335-5.868,2.676-11.735c.017-.075.032-.15.052-.224.073-.272.027-.513-.268-.591-.324-.086-.471.135-.55.413-.158.559-.306,1.122-.474,1.679q-.909,3.012-1.832,6.02a1.331,1.331,0,1,1-2.56-.7c.242-.9.519-1.794.794-2.686.607-1.976,1.226-3.948,1.834-5.924a4.123,4.123,0,0,1,3.872-3c1.594-.044,3.19-.04,4.784-.006a4.149,4.149,0,0,1,3.941,2.926c.693,2.22,1.318,4.462,1.943,6.7a2.6,2.6,0,0,1,.027,1.086,1.113,1.113,0,0,1-1.068.972,1.238,1.238,0,0,1-1.266-.732,11.092,11.092,0,0,1-.374-1.084q-.819-2.607-1.626-5.218c-.092-.3-.242-.53-.573-.456-.348.078-.355.36-.286.663q1.058,4.589,2.105,9.179.292,1.276.577,2.555c.168.751.039.912-.719.912-.383,0-.767.005-1.15.011-.027,0-.053.022-.128.056v.518c0,2.929.006,5.859,0,8.789a1.606,1.606,0,0,1-2.257,1.54,1.584,1.584,0,0,1-.984-1.573q.007-4.371,0-8.742Z"
            style="fill:#2667A9" />
        <path
            d="M44.347,39.72c-.011.173-.031.346-.032.519,0,3.021.005,6.043,0,9.064a1.278,1.278,0,0,1-1.87,1.219,1.339,1.339,0,0,1-.7-1.3q0-2.508,0-5.015v-.519h-.763v1.385q0,2.025,0,4.049A1.386,1.386,0,0,1,39.7,50.671c-.783.02-1.326-.6-1.327-1.542-.005-3.3-.009-6.595.007-9.893a.627.627,0,0,0-.486-.722,5.063,5.063,0,0,1-3.005-2.8,1.159,1.159,0,1,1,2.031-1.116A3.987,3.987,0,0,0,40.6,36.689c.919.022,1.839.071,2.759.066A3.017,3.017,0,0,1,46.1,38.31a8.027,8.027,0,0,1,1,4.287,1,1,0,0,1-1.019.978,1.058,1.058,0,0,1-1.038-1.024c-.065-.654-.112-1.312-.214-1.961a5.135,5.135,0,0,0-.317-.906Z"
            style="fill:#2667A9" />
        <path d="M31.333,17.332A3.64,3.64,0,1,1,27.705,13.7,3.635,3.635,0,0,1,31.333,17.332Z" style="fill:#2667A9" />
        <path d="M41.4,29.953a2.995,2.995,0,1,1-.014,5.989,2.995,2.995,0,0,1,.014-5.989Z" style="fill:#2667A9" />
    </g>
</svg>