<svg width="24" height="24" viewBox="0 0 24 24" fill="none" xmlns="http://www.w3.org/2000/svg">
<rect x="0.5" y="0.5" width="22.7313" height="22.7313" rx="7.5" stroke="#B2B2B2"/>
<path d="M16.8 14.875H15.6V9.95312L12 12.0625L8.4 9.95312V14.875H7.2V8.125H7.92L12 10.5156L16.08 8.125H16.8V14.875ZM16.8 7H7.2C6.534 7 6 7.50063 6 8.125V14.875C6 15.1734 6.12643 15.4595 6.35147 15.6705C6.57652 15.8815 6.88174 16 7.2 16H16.8C17.1183 16 17.4235 15.8815 17.6485 15.6705C17.8736 15.4595 18 15.1734 18 14.875V8.125C18 7.50063 17.46 7 16.8 7Z" fill="#43ABAA"/>
</svg>
