<svg width="62" height="48" viewBox="0 0 62 48" fill="none" xmlns="http://www.w3.org/2000/svg">
<path d="M0.5 41.8196V14.7872L3.01996 13.6294H59.1022L61.5 14.7812V41.8196C61.5 44.5599 59.2698 46.7902 56.5294 46.7902H5.47059C2.73025 46.7902 0.5 44.5599 0.5 41.8196Z" fill="#F3FAFF" stroke="#E1EBF0"/>
<path d="M62 14.4666V41.8196C62 44.8357 59.5455 47.2902 56.5294 47.2902H30.5879V13.1294H59.2161L62 14.4666Z" fill="#E1EBF0"/>
<path d="M62 14.4667V5.47059C62 2.45411 59.5459 0 56.5294 0H5.47059C2.45411 0 0 2.45411 0 5.47059V14.4667H62Z" fill="#3BB54A"/>
<path d="M62 5.47059V14.4667H30.5879V0H56.5294C59.5455 0 62 2.45447 62 5.47059Z" fill="#3BB54A"/>
<path d="M24.3137 20.6665H6.07841C5.07134 20.6665 4.25488 21.483 4.25488 22.49V40.1175C4.25488 41.1246 5.07134 41.941 6.07841 41.941L7.11831 40.1175H23.1654L24.3137 41.941C25.3208 41.941 26.1372 41.1246 26.1372 40.1175V22.49C26.1372 21.483 25.3208 20.6665 24.3137 20.6665Z" fill="#6AA9FF"/>
<path d="M26.1372 22.49V40.1175C26.1372 41.1241 25.3203 41.941 24.3137 41.941L23.1649 40.1175H15.196V20.6665H24.3137C25.3203 20.6665 26.1372 21.4834 26.1372 22.49Z" fill="#6AA9FF"/>
<path d="M24.3137 41.9414C24.3137 36.9139 20.2235 32.8237 15.196 32.8237C10.1685 32.8237 6.07837 36.9139 6.07837 41.9414" fill="#2880EA"/>
<path d="M24.3137 41.9414H15.196V32.8237C20.2241 32.8237 24.3137 36.9145 24.3137 41.9414Z" fill="#2880EA"/>
<path d="M15.196 34.039C17.8816 34.039 20.0587 31.8618 20.0587 29.1762C20.0587 26.4906 17.8816 24.3135 15.196 24.3135C12.5104 24.3135 10.3333 26.4906 10.3333 29.1762C10.3333 31.8618 12.5104 34.039 15.196 34.039Z" fill="#F5DBCC"/>
<path d="M20.0588 29.1762C20.0588 31.858 17.8778 34.039 15.196 34.039V24.3135C17.8778 24.3135 20.0588 26.4944 20.0588 29.1762Z" fill="#F0CABB"/>
<path d="M36.9568 24.9215H55.1921C56.1992 24.9215 57.0157 24.105 57.0157 23.0979C57.0157 22.0909 56.1992 21.2744 55.1921 21.2744H36.9568C35.9498 21.2744 35.1333 22.0909 35.1333 23.0979C35.1333 24.105 35.9498 24.9215 36.9568 24.9215Z" fill="#87A0AF"/>
<path d="M55.1921 28.5684H36.9568C35.9498 28.5684 35.1333 29.3848 35.1333 30.3919C35.1333 31.399 35.9498 32.2154 36.9568 32.2154H55.1921C56.1992 32.2154 57.0157 31.399 57.0157 30.3919C57.0157 29.3848 56.1992 28.5684 55.1921 28.5684Z" fill="#87A0AF"/>
<path d="M55.1921 35.8628H36.9568C35.9498 35.8628 35.1333 36.6792 35.1333 37.6863C35.1333 38.6934 35.9498 39.5099 36.9568 39.5099H55.1921C56.1992 39.5099 57.0157 38.6934 57.0157 37.6863C57.0157 36.6792 56.1992 35.8628 55.1921 35.8628Z" fill="#87A0AF"/>
</svg>
