<svg width="35" height="45" viewBox="0 0 35 45" fill="none" xmlns="http://www.w3.org/2000/svg">
    <path
        d="M25.4113 39.2917C24.9042 39.1016 24.6025 38.9906 24.5074 38.9587C24.0954 38.7999 23.7937 38.6813 23.6036 38.6022C23.4135 38.5231 23.2706 38.3726 23.1756 38.1506C23.0806 37.9286 23.0327 37.7545 23.0327 37.6276C23.0327 37.5006 23.0327 37.1836 23.0327 36.6766C23.0327 36.3596 23.1596 36.0502 23.4135 35.7491C23.6674 35.4481 23.8575 34.9008 23.9844 34.1079C24.0163 33.854 24.0954 33.6321 24.2223 33.442C24.3493 33.2519 24.4603 32.903 24.5553 32.3952C24.6184 32.1101 24.6184 31.8722 24.5553 31.6815C24.4922 31.4907 24.4603 31.3644 24.4603 31.3006C24.5234 30.8567 24.5713 30.3968 24.6032 29.9209C24.6663 29.3181 24.3971 28.6369 23.7943 27.8753C23.1915 27.1143 22.2724 26.7335 21.0356 26.7335C19.7988 26.7335 18.8873 27.106 18.3005 27.851C17.7137 28.596 17.4521 29.2862 17.516 29.9202C17.5479 30.3961 17.595 30.856 17.6589 31.2999C17.6589 31.3631 17.6353 31.4983 17.5874 31.7043C17.5395 31.9104 17.5479 32.1407 17.611 32.3939C17.706 32.9009 17.8094 33.2498 17.9204 33.4406C18.0314 33.6307 18.1028 33.8526 18.1347 34.1065C18.2616 34.8994 18.4517 35.446 18.7056 35.7477C18.9595 36.0488 19.0864 36.3582 19.0864 36.6752C19.0864 37.595 19.0073 38.1416 18.8485 38.3164C18.6896 38.4905 17.9766 38.8158 16.7078 39.2917C14.6469 40.0846 13.553 40.7664 13.4261 41.3373C13.363 41.7181 13.3311 42.939 13.3311 44.9999H21.0363H28.7895V43.573C28.7895 42.4631 28.7575 41.7181 28.6944 41.3373C28.5668 40.7664 27.4722 40.0846 25.4113 39.2917Z"
        fill="#3B5CA5" />
    <path d="M17.9375 6.7207H5.97925V8.71399H17.9375V6.7207Z" fill="#EE585B" />
    <path d="M25.9099 12.6998H5.97925V14.6931H25.9099V12.6998Z" fill="#EE585B" />
    <path d="M25.9099 18.679H5.97925V20.6722H25.9099V18.679Z" fill="#EE585B" />
    <path
        d="M12.228 42.5954H1.99329V2.73487H21.9239V8.71399C21.9239 10.7073 23.9172 10.7073 23.9172 10.7073H29.8964V26.0624C30.2283 26.0039 30.5498 25.935 30.9462 25.935C31.2977 25.935 31.5869 25.9957 31.8896 26.0429V9.5113L23.1911 0.741577H0.966671C0.966671 0.741577 0 0.741577 0 1.71649V43.6123C0 44.5887 0.966671 44.5887 0.966671 44.5887H12.2085C12.2108 43.7592 12.2175 43.1035 12.228 42.5954Z"
        fill="#EE585B" />
    <path
        d="M5.97925 26.6514H17.1544C17.374 26.153 17.6542 25.6517 18.0476 25.1527C18.175 24.9908 18.3519 24.8237 18.522 24.6581H5.97925V26.6514Z"
        fill="#EE585B" />
    <path
        d="M5.97925 38.6096H13.7778C14.6418 37.93 15.8281 37.3717 17.2608 36.8209C17.4654 36.7437 17.6303 36.6793 17.7921 36.6163H5.97925V38.6096Z"
        fill="#EE585B" />
    <path
        d="M5.97925 32.6305H17.0652C16.997 32.3847 16.9296 32.1374 16.8697 31.8197C16.7782 31.4667 16.7715 31.0531 16.8127 30.6372H5.97925V32.6305Z"
        fill="#EE585B" />
    <path
        d="M34.5433 40.7187C34.4802 40.2748 33.6395 39.7517 32.0225 39.1489C31.0077 38.7369 30.4687 38.5149 30.4056 38.483C30.2467 38.3561 30.1676 37.96 30.1676 37.2941C30.1676 37.0402 30.271 36.7551 30.477 36.4381C30.683 36.1211 30.8336 35.6612 30.9286 35.0584C30.9605 34.8683 31.016 34.6935 31.0951 34.5354C31.1742 34.3765 31.2616 34.1074 31.3566 33.7265C31.4197 33.5046 31.428 33.3221 31.3802 33.1792C31.3323 33.0363 31.3087 32.9337 31.3087 32.8699C31.3087 32.7748 31.3247 32.616 31.3566 32.394C31.3885 32.172 31.4044 31.982 31.4044 31.8231C31.4364 31.3473 31.222 30.8166 30.7621 30.2298C30.3022 29.6429 29.5968 29.3495 28.6457 29.3495C27.6947 29.3495 26.9969 29.6346 26.5529 30.2055C26.109 30.7764 25.903 31.3153 25.9349 31.8224C25.9349 31.9813 25.9508 32.1713 25.9827 32.3933C26.0146 32.6153 26.0306 32.7741 26.0306 32.8692C26.0306 32.9011 26.007 33.0121 25.9592 33.2021C25.9113 33.3922 25.9196 33.567 25.9827 33.7251C26.0778 34.106 26.1652 34.3751 26.2443 34.534C26.3233 34.6928 26.3788 34.8669 26.4107 35.057C26.5058 35.6598 26.6487 36.1114 26.8387 36.4124C27.0288 36.7135 27.1238 37.0069 27.1238 37.2927C27.1238 37.3246 27.1238 37.4113 27.1238 37.5542C27.1238 37.6971 27.1238 37.7921 27.1238 37.8393C27.1238 37.8872 27.1162 37.9579 27.1002 38.0536C27.0843 38.1487 27.0447 38.2201 26.9816 38.268C26.9185 38.3158 26.8387 38.3713 26.7437 38.4345C26.6487 38.4976 26.5377 38.5614 26.4107 38.6245C26.5058 38.6564 26.6563 38.7119 26.8623 38.791C27.0683 38.8701 27.2189 38.9256 27.3139 38.9575C28.1068 39.2745 28.7089 39.6075 29.1216 39.9564C29.5343 40.3053 29.7639 40.5592 29.8111 40.7173C29.859 40.8762 29.8985 41.0822 29.9297 41.3354C29.9616 41.5254 29.9776 42.7463 29.9776 44.998H34.639L34.5433 40.7187Z"
        fill="#3B5CA5" />
</svg>