<svg id="Layer_1" data-name="Layer 1" xmlns="http://www.w3.org/2000/svg" width="68" height="67" viewBox="0 0 68 67"><title>icon</title><rect width="68" height="67" rx="20" style="fill:#f1fbfd"/><g id="KkiTEv.tif"><path d="M17.08,37.461c.063-.159.115-.324.19-.478a2.035,2.035,0,0,1,1.818-1.229c.109-.007.218-.007.326-.007q14.383,0,28.767,0a2.465,2.465,0,0,1,1.318.3,2.1,2.1,0,0,1-.962,3.9c-.152.008-.3,0-.457,0q-14.22,0-28.44.013a2.321,2.321,0,0,1-2.56-1.776Z" style="fill:#2667A9"/><path d="M19.175,41.912H48.43v.352q0,2.938,0,5.876a1.027,1.027,0,0,1-1.178,1.18q-13.45,0-26.9,0c-.8,0-1.172-.378-1.172-1.185q0-2.938,0-5.877Z" style="fill:#2667A9"/><path d="M33.814,16.856a4.719,4.719,0,1,1-4.727,4.69A4.707,4.707,0,0,1,33.814,16.856Z" style="fill:#2667A9"/><path d="M27.179,20.632a6.742,6.742,0,0,0,2.336,6.079,7.526,7.526,0,0,0-2.962,7.051H22.341c-.007-.11-.018-.214-.018-.319,0-3.036-.006-6.072,0-9.107a3.57,3.57,0,0,1,3.1-3.691A12.317,12.317,0,0,1,27.179,20.632Z" style="fill:#2667A9"/><path d="M40.423,20.617a4.858,4.858,0,0,1,3.343.651A3.532,3.532,0,0,1,45.275,24.2c.018,3.133.007,6.267.006,9.4,0,.042-.01.085-.018.156H41.075c0-.321,0-.653,0-.985a7.249,7.249,0,0,0-.988-3.835,7.521,7.521,0,0,0-2-2.221A6.765,6.765,0,0,0,40.423,20.617Z" style="fill:#2667A9"/><path d="M29.889,29.011c.967.968,1.912,1.912,2.852,2.861a.316.316,0,0,1,.078.2c.006.554,0,1.108,0,1.688h-4.3A5.782,5.782,0,0,1,29.889,29.011Z" style="fill:#2667A9"/><path d="M37.714,29.01a5.8,5.8,0,0,1,1.372,4.755h-4.3c0-.588,0-1.17.005-1.753a.277.277,0,0,1,.093-.161C35.817,30.911,36.754,29.972,37.714,29.01Z" style="fill:#2667A9"/><path d="M33.792,30.045l-2.181-2.178h4.362Z" style="fill:#2667A9"/></g></svg>