<?xml version="1.0" encoding="utf-8"?>
<!-- Generator: Adobe Illustrator 22.0.1, SVG Export Plug-In . SVG Version: 6.00 Build 0)  -->
<svg version="1.1" id="Layer_1" xmlns="http://www.w3.org/2000/svg" xmlns:xlink="http://www.w3.org/1999/xlink" x="0px" y="0px"
	 viewBox="0 0 200 200" style="enable-background:new 0 0 200 200;" xml:space="preserve">

<g>
	<path fill="#1B75BC" d="M192,100.5c-0.3,50.1-39.7,88.1-85.1,91.2c-26.2,1.8-49.4-6.1-68.8-23.8c-17.8-16.2-27.8-36.5-29.7-60.5
		c-2-25.4,5.3-48.1,22-67.4C47.1,20.7,68.3,10.2,93.7,8.3c17.1-1.3,33.3,2.1,48.6,10.1c15.3,7.9,27.4,19.3,36.4,34
		C187.6,67.1,191.9,83.1,192,100.5z M106.4,189.4c18.5-0.3,39.9-9,57.3-26.7c17.4-17.7,26-39.4,25.7-64.2
		c-0.7-48.1-40.5-90-93.8-87.7c-23.9,1-44.4,10.6-60.8,28.1C17.5,57.3,9.5,79.5,10.7,104.7C12.8,150.7,51.2,189.6,106.4,189.4z"/>
	<path fill="#1B75BC" d="M101.4,34.7c36.2,0.8,65.3,31,63.9,67.9c-1.3,35.1-30.6,63.7-67,62.8C62.6,164.5,33,134.6,34.7,97
		C36.2,62.1,65.3,34,101.4,34.7z M158.9,121.3c5.5-13.7,6.8-36.2-6.4-55.6c-15-22-36.3-31.4-62.7-27.7C71.6,40.7,57.5,50.6,47,66.2
		c2.2,0,4.1,0,6,0c7.6,0,15.1,0,22.7,0c6.4,0,12.9,0,19.3,0c0.9,0,1.9,0.3,2.4-1c4.9,11,9.8,21.8,14.7,32.8c0.5-0.8,0.9-1.3,1.2-2
		c3.1-5.4,6.2-10.9,9.3-16.3c3.2-5.6,6.4-11.3,9.7-16.9c0.4-0.8,0.9-1.3,1.9-1.2c1,0.2,1.7,0.7,1.8,1.7c0.1,0.6-0.1,1.2-0.3,1.8
		c-1.9,5.3-3.8,10.5-5.8,15.8c-2.2,5.8-4.4,11.5-6.6,17.3c-2.5,6.6-5.1,13.2-7.6,19.8c-0.6,1.4-1.1,2.9-1.8,4.6
		c-5.6-9.9-11.1-19.6-16.6-29.4c-0.8,1.3-1.5,2.4-2.1,3.6c-4.3,7.4-8.6,14.9-13,22.3c-2.3,4-4.7,7.9-7,11.9
		c-2.4,4.2-4.8,8.3-7.2,12.5c-1.4,2.4-2.8,4.7-4.2,7.1c-0.3,0.5-0.3,0.8,0.3,1.1c0.9,0.5,1.7,1.2,2.6,1.7c4.7,3,9.7,5.2,15.1,6.8
		c4,1.2,8,1.9,12.1,2.4c5.5,0.6,11,0.4,16.5-0.6c3.5-0.6,7-1.6,10.4-2.7c5.1-1.6,9.9-4.1,14.4-7.2c4.2-2.8,8.1-6,11.3-9.9
		c2-2.4,4-4.8,5.8-7.3c2.5-3.5,4.4-7.4,6-11.3c0.1-0.3,0.2-0.7,0.3-1.2c-14.3,0-28.5,0-42.8,0c0.1-0.3,0.1-0.5,0.1-0.7
		c0.8-2,1.6-4,2.4-6c1.5-3.7,3-7.4,4.6-11.1c1.4-3.4,2.8-6.7,4.2-10.1c0.1-0.3,0.6-0.7,0.9-0.7c6.8,0,13.6,0.1,20.4,0.1
		c0.9,0,1.1,0.3,1.2,1.1c0.1,1.2,0.1,2.6,0.6,3.6c1.9,3.3,4,6.5,6,9.8c0.5,0.8,1,1.6,1.1,2.5C157.9,114.4,158.4,117.7,158.9,121.3z
		 M45.4,68.8c-2.8,5-5,10.2-6.3,15.8c-0.2,0.9,0,1,0.8,1c16,0,32,0,48,0c0.6,0,0.8-0.2,1.1-0.7c1.8-4.4,3.7-8.7,5.6-13.1
		c0.4-1,0.8-1.9,1.2-3C78.9,68.8,62.2,68.8,45.4,68.8z M87.4,88.2c-0.8,0-1.4,0-1.9,0c-15.5,0-31,0-46.5,0c-0.6,0-0.8,0.2-0.8,0.7
		c-0.2,1.6-0.5,3.3-0.6,4.9c-0.1,3.3-0.1,6.6-0.2,9.9c0,0.8,0.3,0.9,1.1,0.9c13.7,0,27.5,0,41.2,0c0.7,0,1-0.3,1.2-0.8
		c1.9-4.5,3.8-9,5.8-13.5C86.8,89.7,87.1,89,87.4,88.2z M79.3,107.2c-1.2,0-2.2,0-3.3,0c-12.4,0-24.7,0-37.1,0c-1.3,0-1.3,0-1.2,1.2
		c0,0.5,0.1,0.9,0.2,1.3c0.7,4.9,2.1,9.6,4,14.2c0.2,0,0.3,0.1,0.4,0.1c9.7,0,19.4,0,29.1,0c0.6,0,0.8-0.3,1.1-0.8
		c1.1-2.7,2.3-5.3,3.4-8C77,112.7,78.1,110.1,79.3,107.2z M61.2,149.5c3.3-7.8,6.6-15.5,10-23.3c-9.5,0-18.9,0-28.4,0
		C47.2,135.5,53.3,143.1,61.2,149.5z M155,119.8C155,119.8,155,119.8,155,119.8c-0.3-2.3-0.5-4.7-0.8-7c-0.1-0.9-0.2-1.8-0.6-2.6
		c-1-2.1-2.3-4.2-3.4-6.3c-1.2-2.5-3.4-4.6-2.9-7.7c0-0.1-0.3-0.3-0.4-0.4c-0.2,0.2-0.5,0.4-0.5,0.6c0,1.4,0,2.8,0.8,4.2
		c1.8,3.1,3.5,6.4,5.3,9.6c0.2,0.4,0.4,0.8,0.5,1.2c0.3,2.3,0.5,4.6,0.8,6.9c0.1,0.7,0.2,1.5,0.4,2.2c0,0.2,0.3,0.3,0.5,0.4
		c0.1,0,0.3-0.3,0.4-0.4C155,120.3,155,120,155,119.8z M135.8,97.6c-0.1,0-0.2,0.1-0.3,0.1c0.3,0.9,0.6,1.9,1,2.7
		c1.5,2.8,3,5.6,4.5,8.3c0.5,1,1.1,2,1.3,3c0.5,2.7,0.7,5.5,1.1,8.3c0,0.3,0.4,0.5,0.6,0.8c0.1-0.3,0.4-0.6,0.3-0.9
		c-0.2-1.9-0.5-3.8-0.7-5.8c-0.2-1.2-0.1-2.6-0.6-3.7c-1-2.2-2.3-4.2-3.3-6.3c-1.2-2.5-3.4-4.7-2.9-7.8c0-0.2-0.3-0.4-0.5-0.6
		c-0.2,0.2-0.4,0.4-0.4,0.6C135.8,96.8,135.8,97.2,135.8,97.6z M142.6,97.5C142.6,97.6,142.6,97.6,142.6,97.5c0,0.7,0,1.4,0.3,2
		c1.5,2.9,3,5.9,4.7,8.7c1.3,2.1,1.7,4.2,1.9,6.6c0.2,1.8,0.4,3.7,0.7,5.5c0,0.2,0.4,0.4,0.6,0.6c0.1-0.2,0.3-0.5,0.3-0.7
		c-0.2-2.4-0.5-4.9-0.8-7.3c-0.1-0.8-0.1-1.7-0.5-2.4c-1-2.1-2.3-4-3.3-6.1c-1.2-2.6-3.5-4.7-3-8c0-0.2-0.3-0.4-0.4-0.5
		c-0.2,0.2-0.4,0.3-0.5,0.5C142.5,96.7,142.6,97.1,142.6,97.5z M133.3,97.5c0.1,0,0.2-0.1,0.2-0.1c0-0.4,0-0.8,0-1.2
		c0-0.2-0.2-0.4-0.4-0.4c-0.1,0-0.4,0.2-0.4,0.3c0,1.1-0.2,2.4,0.2,3.3c1,2.3,2.3,4.4,3.5,6.6c1.5,2.8,3.2,5.5,3.2,8.9
		c0,1.8,0.4,3.6,0.7,5.4c0,0.2,0.3,0.4,0.5,0.7c0.1-0.2,0.4-0.5,0.4-0.7c-0.3-2.5-0.5-4.9-0.9-7.4c-0.1-0.9-0.2-1.9-0.6-2.7
		c-1.8-3.4-3.7-6.8-5.5-10.2C133.7,99.1,133.6,98.3,133.3,97.5z M140.3,97.5c0-0.5,0-0.9,0-1.4c0-0.1-0.2-0.3-0.4-0.3
		c-0.1,0-0.4,0.2-0.4,0.3c0.1,1.2-0.4,2.4,0.3,3.6c1.5,2.7,3,5.5,4.5,8.2c0.6,1.2,1.4,2.3,1.6,3.6c0.5,2.9,0.8,5.8,1.2,8.7
		c0,0.2,0.3,0.4,0.5,0.7c0.1-0.2,0.4-0.5,0.4-0.7c-0.3-2.6-0.6-5.1-0.9-7.7c-0.1-0.7-0.1-1.5-0.4-2.2c-1.4-2.8-3-5.4-4.5-8.2
		C141.5,100.6,140.2,99.3,140.3,97.5z"/>
	<path fill="#1B75BC" d="M74.3,171.3c0.3-0.8,0.5-1.5,0.7-2.1c3,0.8,5.8,1.7,8.7,2.4c1.5,0.4,3,0.5,4.5,0.7c1.1,0.2,2.1,0.4,3,1.3
		c1.4,1.5,0.8,4.2-1.1,5c-0.5,0.2-0.6,0.3-0.3,0.9c0.7,1.4,1.3,2.8,2.1,4.5c-1.2-0.2-2.2-0.3-3.2-0.5c-0.2,0-0.4-0.3-0.5-0.5
		c-0.5-1-0.9-2-1.4-3c-0.2-0.4-0.6-0.8-0.9-1.1c-0.4-0.2-0.7-0.1-0.8,0.5c-0.1,0.9-0.2,1.9-0.4,2.8c-0.1,0.2-0.4,0.6-0.7,0.6
		c-0.6,0-1.2-0.1-1.8-0.2c-0.2-0.1-0.4-0.5-0.4-0.7c0.3-2.2,0.7-4.5,1.1-6.7c0.1-0.3,0-0.6,0-0.9c-1-0.3-2-0.5-3.1-0.8
		c-0.8,2.7-1.5,5.3-2.3,8c-1-0.3-1.8-0.5-2.8-0.8c0.5-1.8,1-3.5,1.5-5.2c0.1-0.5,0.3-0.9,0.4-1.4c0.3-1.4,0.3-1.4-1.1-1.8
		c-0.4-0.1-0.9-0.2-1.4-0.4c-0.1,1-0.7,1-1.5,0.7c-0.3-0.1-0.7,0-1.1-0.1c-0.2-0.1-0.5-0.4-0.5-0.6c0.2-1.1-0.5-1.6-1.3-2
		c-0.8-0.3-1.6,0-2,0.6c-0.6,1-1,2.1-1.3,3.3c-0.2,0.8,0.4,1.4,1.1,1.7c0.8,0.3,1.6,0.1,2.1-0.6c0.5-0.7,0.9-0.6,1.5,0
		c0.4,0.4,0.9,0.8,1.3,1.1c-1.7,2.9-4.8,2.9-7,1.2c-1.9-1.6-2.3-3.7-1.4-6c0.7-1.7,1.6-3.2,3.4-3.8c2.7-0.9,6.1,0.9,6.4,3.5
		C74.1,170.8,74.2,170.9,74.3,171.3z M85.6,176.1c0.9,0.1,1.6,0.3,2.4,0.4c0.3,0,0.8-0.4,0.8-0.7c0-0.3-0.3-0.9-0.5-0.9
		c-0.8-0.2-1.6-0.2-2.4-0.3C85.8,175.1,85.7,175.5,85.6,176.1z"/>
	<path fill="#1B75BC" d="M158.2,154.3c1.1,1,2.1,2,3.2,3c-0.7,0.7-1.3,1.4-1.9,2.1c-2.2-2-4.2-3.8-6.2-5.7c-0.5,0.5-1,0.9-1.5,1.3
		c-0.9,0.7-0.9,1-0.1,1.8c1.5,1.7,3,3.4,4.7,5.3c-0.7,0.7-1.4,1.3-2.1,1.9c-1.2-1.4-2.4-2.8-3.7-4.2c-0.6-0.7-1.2-1.8-1.9-1.8
		c-0.7-0.1-1.4,0.9-2.2,1.5c-0.3-0.2-0.5-0.4-0.8-0.6c0,0-0.1,0.1-0.1,0.1c0.7,1.1,1.5,2.1,2.2,3.2c0.5,0.8,1.1,1.6,1.4,2.5
		c0.2,0.7,0.3,1.6,0.1,2.3c-0.7,2.3-4,4-6,3.1c-0.8-0.4-1.5-1.2-2.1-1.9c-1.3-1.7-2.5-3.6-3.7-5.4c0.7-0.5,1.3-1,2-1.4
		c0.1-0.1,0.6,0.1,0.7,0.3c1.2,1.7,2.3,3.4,3.4,5.1c0.6,1,1.3,1.1,2.2,0.6c1-0.6,1.2-1.1,0.5-2.2c-1-1.5-2.1-3.1-3.1-4.6
		c-0.2-0.4-0.5-0.8-0.6-1c3.7-3.2,7.3-6.4,11-9.6c0.6,0.6,1.4,1.2,2.1,2c0.4,0.4,0.7,0.4,1.1,0c0.5-0.6,1-1.1,1.6-1.8
		c-1-0.9-1.9-1.8-2.9-2.6c0.5-0.6,0.9-1.2,1.5-1.7c0.2-0.2,0.8-0.2,0.9,0c2.4,2.1,4.8,4.3,7.1,6.5c0.1,0.1,0.3,0.5,0.2,0.5
		c-0.5,0.6-0.9,1.2-1.5,1.7c-0.1,0.1-0.6,0-0.8-0.2c-0.9-0.8-1.8-1.6-2.7-2.5C159.5,152.8,158.9,153.5,158.2,154.3z"/>
	<path fill="#1B75BC" d="M173.5,107.4c1.2,1.1,2.2,1.9,3.1,2.9c1.4,1.6,3,2.5,5.1,2.8c1.7,0.2,1.6,0.3,1.4,2c-0.1,0.8-0.4,1.1-1.2,0.9
		c-0.8-0.2-1.7-0.3-2.6-0.4c-0.6-0.1-1.2-0.1-1.7,0.1c-1.2,0.4-2.4,0.9-3.4,1.3c-0.3,1.1-0.5,2.1-0.8,3.3c2.5,0.8,5.1,1.6,7.9,2.5
		c-0.2,0.8-0.4,1.7-0.7,2.4c-0.1,0.1-0.7,0.1-1,0c-2.3-0.7-4.6-1.4-6.9-2.2c-0.4,1-0.8,2-1.2,3c2.2,0.9,4.6,1.9,7,2.8
		c0.6,0.2,0.7,0.4,0.5,1c-0.9,2.2-0.4,2.1-2.8,1.1c-2.3-1-4.6-1.9-7-2.8c-0.4-0.1-0.7-0.3-1.1-0.5c0.6-1.5,1.2-2.9,1.6-4.3
		c0.8-2.7,1.6-5.4,2.4-8.2c0.1-0.3,0.4-0.6,0.6-0.7c0.8-0.3,1.7-0.6,2.5-0.9c0.2-0.1,0.4-0.2,0.5-0.3c-0.1-0.2-0.2-0.4-0.4-0.5
		c-0.6-0.6-1.2-1.1-1.9-1.7c-0.5-0.4-0.6-0.8-0.4-1.4C173.2,109.1,173.3,108.3,173.5,107.4z"/>
	<path fill="#1B75BC" d="M122.7,173.1c0.3-1.3,0.5-2.3,0.9-3.3c0.1-0.4,0.4-0.8,0.8-0.9c0.8-0.3,1.6-0.5,2.5-0.7
		c-0.6,2.2-1.2,4.2-1.7,6.3c-0.1,0.6-0.1,1.3,0,1.9c0.2,1.1,0.6,2.1,1,3.3c-0.8,0.3-1.5,0.5-2.2,0.7c-0.2,0-0.5-0.2-0.6-0.3
		c-0.2-0.2-0.2-0.5-0.3-0.8c-0.4-2.9-2.6-4.5-4.5-6c-1.2,0.3-2.2,0.6-3.2,0.9c0.4,2.3,0.8,4.6,1.3,6.8c0.3,1.3,0.3,1.3-1,1.5
		c-0.5,0.1-1,0.2-1.6,0.3c-0.5-2.5-1-4.9-1.4-7.3c-0.1-0.6-0.2-0.9-1-0.7c-0.7,0.2-1.5,0.3-2.3,0.4c0.1,1.4,0.3,2.7,0.4,4.1
		c0.1,1.2,0.3,2.4,0.4,3.6c0,0.2-0.2,0.6-0.4,0.6c-0.7,0.1-1.5,0.2-2.4,0.3c-0.3-3-0.7-5.9-1-8.8c-0.2-2.1-0.2-2.1,2-2.3
		c1.9-0.2,3.7-0.5,5.6-0.9c1.8-0.4,3.5-0.9,5.3-1.2c0.3-0.1,0.8,0.4,1.2,0.7C121.2,171.7,121.9,172.3,122.7,173.1z"/>
	<path fill="#1B75BC" d="M175.8,94c-3.1,0.1-5.9-2.6-6-5.8c-0.1-3.4,2.5-6.2,5.9-6.3c3.4-0.1,6,2.6,6.2,5.7
		C182.1,90.9,179.4,94,175.8,94z"/>
	<path fill="#1B75BC" d="M28.5,89.1c-0.1,3.9-3,6.1-6.1,6.1c-3.3,0-6.1-3-6-6.2c0.1-3.1,2.7-6.3,7-5.8C25.8,83.5,28.5,86,28.5,89.1z"/>
	<path fill="#1B75BC" d="M156.5,38.6c-0.4,0.5-0.7,0.9-1.1,1.4c-1.5-1.2-3-2.4-4.6-3.6c-0.4,0.5-0.9,1-1.3,1.6c2.3,0.8,2.7,2.4,2,4.5
		c-0.5,1.5-1.6,2.5-3.2,3.3c-0.1-0.7-0.3-1.3-0.3-1.9c0-0.3,0.3-0.6,0.5-0.8c0.6-0.4,1.2-0.6,1.7-1c0.7-0.5,0.6-1.2-0.2-1.6
		c-1.2-0.6-2.1-0.4-3,0.7c-0.9,1.2-1.8,2.3-2.9,3.6c-0.2-1.8-1-3.4,1.1-4.8c-2.4-0.5-3.4-1.7-2.9-3.9c0.2-0.9,0.6-1.7,1.7-1.9
		c2-0.4,2.9,0.8,3.5,2.6c0.6-0.6,1-1.1,1.5-1.6c-1.5-1.2-2.9-2.3-4.2-3.4c0-0.2,0-0.3,0-0.3c0.9-1.3,0.9-1.3,2.1-0.4
		c3,2.3,6,4.7,9,7.1C156.1,38.2,156.2,38.3,156.5,38.6z M146.7,37.6c-0.8-1-1.4-1.8-2.5-1.6c-0.3,0-0.6,0.4-1,0.6
		c0.2,0.3,0.4,0.7,0.7,0.8c0.5,0.2,1,0.3,1.6,0.4C145.8,37.9,146.2,37.7,146.7,37.6z"/>
	<path fill="#1B75BC" d="M89.9,29.3c-0.9-0.6-1.5-1.1-2.4-1.6c-1.5,2.2-3.4,2.7-5.7,1.4c-0.9-0.5-1.2-1.2-0.9-2.7c-1.4,0-2-1-2.3-2.2
		c-0.2-0.9,0.2-1.6,1-1.8c0.5-0.1,1.1-0.3,1.6-0.4c1.2-0.3,1.2-0.3,0.8-1.7c-1,0.2-2.1,0.3-3.1,0.5c-1.6,0.3-1.6,0.3-1.6-1.5
		c4-0.8,7.9-1.6,11.9-2.4c0.1,0.6,0.3,1.1,0.4,1.7c-0.1,0.1-0.3,0.2-0.4,0.3c-1.3,0.3-1.3,0.3-1.1,1.6c0.5,2.7,1.1,5.4,1.6,8.2
		C89.9,28.7,89.9,28.9,89.9,29.3z M85.1,25.9c-0.8,0.3-1.6,0.5-2.2,0.9c-0.3,0.2-0.5,0.8-0.4,1.1c0,0.2,0.5,0.6,0.8,0.6
		c1.8,0,3.9-2.4,3.6-4.2c-0.2-1.4-0.5-2.9-0.8-4.3c0-0.2-0.3-0.5-0.5-0.5c-1-0.1-1.4,0.3-1.2,1.3c0.1,0.5,0.3,0.9,0.3,1.4
		c0,0.3-0.3,0.7-0.5,0.8c-1.2,0.3-2.5,0.5-3.7,0.8c-0.3,0.1-0.5,0.3-0.7,0.5c0.2,0.2,0.5,0.6,0.8,0.6c0.4,0.1,0.9,0,1.3-0.2
		C83.2,24.4,84,25,85.1,25.9z"/>
	<path fill="#1B75BC" d="M173.3,141.4c-3.1-1.6-6-3.1-9-4.6c-0.6-0.3-0.7-0.5-0.3-1.1c0.9-1.5,1.6-3.1,2.5-4.6c1.3-2.4,4.4-1.9,5.5,0
		c0.3,0.5,0.4,1.2,0.5,1.8c1.7-0.2,3.5-0.4,5.5-0.6c-0.5,1.1-0.9,2-1.4,2.8c-0.1,0.2-0.6,0.4-0.9,0.4c-1.1,0.2-2.3,0.2-3.5,0.4
		c-0.4,0.1-0.7,0.5-1.1,0.8c0.3,0.3,0.5,0.6,0.8,0.7c0.7,0.4,1.4,0.8,2.1,1.1c0.5,0.2,0.5,0.5,0.3,0.9
		C174,140.1,173.7,140.7,173.3,141.4z M168.8,135.8c0.4-0.7,0.8-1.4,1-2.1c0.1-0.3-0.2-0.8-0.4-1c-0.1-0.1-0.7,0.1-0.9,0.3
		c-0.3,0.2-0.4,0.6-0.6,0.9C167.1,135.1,167.1,135.1,168.8,135.8z"/>
	<path fill="#1B75BC" d="M20.5,112.5c-1.4,0.3-2.9,0.5-4.3,0.8c-0.6,0.1-0.7,0-0.8-0.6c-0.4-1.9-0.4-1.9,1.4-2.3
		c2.9-0.6,5.8-1.2,8.8-1.8c0.2,0.7,0.3,1.3,0.5,1.9c0.2,0.6-0.2,1-0.6,1.4c-1.3,1.1-2.5,2.3-3.8,3.4c0,0.1,0.1,0.2,0.1,0.3
		c1-0.2,2-0.4,3.1-0.6c2.1-0.4,2.3-0.2,2.4,2c0,0.1,0,0.3,0,0.4c-1.6,0.3-3.2,0.6-4.8,0.9c-1.7,0.3-3.4,0.6-5,1
		c-0.6,0.1-0.7,0-0.9-0.6c-0.6-1.6,0.1-2.6,1.3-3.5c1-0.8,1.9-1.7,2.8-2.6C20.5,112.6,20.5,112.6,20.5,112.5z"/>
	<path fill="#1B75BC" d="M165.5,149.6c-2.4,0.2-6.1-2.3-6.2-5.5c-0.1-2.7,2.5-5.5,5.3-5.5c2.9,0,6,2.6,6.1,5.4
		C170.9,146.5,168.2,150,165.5,149.6z M164.4,141.4c-1.6,0-2.8,1.9-1.9,3.2c0.5,0.8,1.4,1.4,2.2,1.9c0.9,0.6,1.7,0.4,2.5-0.3
		c0.8-0.7,1-1.6,0.7-2.5C167.4,142.6,165.5,141.4,164.4,141.4z"/>
	<path fill="#1B75BC" d="M49.2,158.9c-0.6,0.7-1.1,1.2-1.7,1.8c-1.2-1.1-2.4-2.2-3.7-3.4c-0.4,0.4-0.8,0.9-1.3,1.3
		c1.4,1.3,2.7,2.5,4.1,3.8c-0.6,0.7-1.1,1.2-1.7,1.9c-2.1-1.9-4.1-3.8-6.2-5.7c1.1-1.3,2.2-2.5,3.3-3.7c1.1-1.2,2.3-2.5,3.4-3.7
		c0.4-0.5,0.7-0.6,1.2-0.1c1.6,1.6,3.3,3.1,5,4.6c0.5,0.4,0.4,0.7,0,1.1c-1.5,1.5-1,1.4-2.4,0.2c-0.8-0.7-1.5-1.4-2.3-2.1
		c-0.2-0.2-0.7-0.1-0.9,0c-0.4,0.3-0.3,0.6,0.1,1C47.1,156.9,48.1,157.9,49.2,158.9z"/>
	<path fill="#1B75BC" d="M26.3,126.8c-0.8,0.3-1.5,0.5-2.4,0.8c-0.4-1.1-0.8-2.3-1.2-3.4c-0.5-1.5-0.8-1.6-2.2-0.6
		c0.5,1.5,0.9,2.9,1.4,4.4c0.3,0.7,0,0.9-0.6,1.1c-2,0.6-1.5,0.8-2.1-1.1c-0.7-2.1-1.4-4.2-2.1-6.4c3.4-1.1,6.8-2.3,10.3-3.4
		c0.4,1,0.7,2,1,2.9c0.5,1.4,0.9,2.8,1.4,4.2c0.2,0.5,0.2,0.8-0.5,0.9c-0.6,0.1-1.1,0.4-1.7,0.6c-0.6-1.7-1.1-3.4-1.7-5
		c-1.3,0.2-1.3,0.2-1,1.4C25.4,124.3,25.8,125.5,26.3,126.8z"/>
	<path fill="#1B75BC" d="M65.1,167.6c-1.4-0.8-2.7-1.5-3.9-2.2c-0.5-0.3-0.8-0.3-1.2,0.2c-0.4,0.7,0.1,0.7,0.5,1c1,0.6,2,1.2,3,1.7
		c0.5,0.2,0.5,0.5,0.3,0.9c-0.8,1.7-0.8,1.7-2.4,0.8c-0.7-0.4-1.5-0.9-2.2-1.3c-0.9-0.5-0.9,0.3-1.2,0.7c-0.4,0.4-0.2,0.7,0.3,1
		c1.4,0.8,2.8,1.6,4.2,2.5c-0.4,0.7-0.8,1.4-1.3,2.2c-2.3-1.3-4.6-2.6-6.8-4c-0.2-0.1-0.3-0.6-0.2-0.8c1.6-2.8,3.1-5.6,4.8-8.4
		c0.1-0.2,0.6-0.3,0.8-0.2c2.1,1.2,4.2,2.4,6.3,3.6c0.1,0.1,0.2,0.5,0.2,0.7C65.8,166.5,65.4,167,65.1,167.6z"/>
	<path fill="#1B75BC" d="M57.6,42.4c-3,0.9-4.2-1.5-5.7-3.2c-0.6,0.5-0.6,0.5-1,2.9c-1.4,0.2-2,0-2.1-1c-0.9,0-1.4,0.5-1.5,1.3
		c-0.1,0.8,0.5,1.7,1.4,1.8c0.9,0.2,1.7,0.2,2.6,0.3c0.7,0,0.8,0.4,0.6,1.1c-1.7-0.2-3.4-0.3-5.1-0.5c-0.9-0.1-1.5-0.9-1.6-1.8
		c-0.1-1.4,0.4-2.5,1.4-2.9c0.2-0.1,0.4-0.2,0.6-0.2c1.5,0,2.2-1.2,2.8-2.3c0.1-0.2,0.1-0.5,0-0.7c-0.2-0.4-0.6-0.7-0.9-1.1
		c-2.2,1.8-4.3,3.6-6.4,5.4c-0.4-0.5-0.7-1-1.1-1.5c3.2-2.7,6.3-5.3,9.5-8c0.4,0.5,0.7,0.9,1.2,1.4c-0.4,0.4-0.8,0.7-1.2,1.1
		C53.2,37.2,55.4,39.8,57.6,42.4z"/>
	<path fill="#1B75BC" d="M40,62c-1.3,0.2-2.4,0.6-3.4,0.4c-1-0.2-1.9-1-2.9-1.6c-0.5,0.9-1,1.7-1.6,2.7c0.8,0.5,1.6,1,2.5,1.5
		c-1.4,1.3-3.8,1.1-4.8,0.3c-0.6-0.6-0.6-1.1-0.3-1.8c0.7-1.2,1.3-2.4,2.1-3.7c-0.5-0.3-1.1-0.6-1.8-1c-0.7,1.2-1.4,2.4-2.1,3.6
		c0,0.1-0.1,0.1-0.1,0.2c-0.8,1.6-0.8,1.6-2.5,0.6c0.6-1,1.1-2,1.7-3.1c0.6-1,1.2-2.1,1.8-3.2c-1.3,0.1-2.4,0.2-3.1,1.2
		c-0.8,1.3-1.9,1-3.1,1c0.9-1.7,2.2-2.6,3.9-2.9c0.8-0.1,1.5-0.1,2.3-0.2c0.3,0,0.6-0.3,0.8-0.6c0.2-0.3,0.4-0.6,0.6-1
		c0.3,0.2,0.6,0.3,0.9,0.5c0.5,0.3,0.7,0.6,0.3,1.1c-0.5,0.6-0.2,0.9,0.4,1.2c2.6,1.5,5.3,2.9,7.9,4.4C39.7,61.6,39.7,61.7,40,62z"
		/>
	<path fill="#1B75BC" d="M78.1,32c-1-0.6-2.1-1.3-3.1-1.9c0-0.1,0.1-0.2,0.1-0.3c-0.4,0.3-0.7,0.5-1.1,0.8c-1.9,1.3-4.5,0.7-5.6-1.2
		c-0.5-0.9-0.4-2.2,0.3-2.9c1.3-1.2,2.7-2,4.8-1.1c-0.3-0.9-0.5-1.6-0.8-2.4c-2.1,0.8-4.2,1.5-6.3,2.3c-0.2-0.5-0.4-1-0.7-1.7
		c3.4-1.3,6.8-2.5,10.2-3.8c0.3,0.6,0.5,1.1,0.7,1.6c-0.1,0.1-0.2,0.2-0.3,0.3c-1.4,0.6-1.4,0.6-0.9,2.1c0.9,2.5,1.9,5,2.8,7.5
		c0.1,0.2,0.1,0.4,0.2,0.5C78.3,31.8,78.2,31.9,78.1,32z M73.3,26.2c-1,0-2.9,1.6-3.2,2.6c-0.2,0.8,0.5,1.5,1.1,1.1
		c1-0.7,1.9-1.6,2.7-2.5C74.4,26.8,73.9,26.2,73.3,26.2z"/>
	<path fill="#1B75BC" d="M142.8,172.3c-0.9,0.4-1.7,0.9-2.5,1.2c-0.3,0.1-0.9-0.3-1.2-0.6c-0.6-0.8-1.2-0.9-1.9-0.3
		c-0.2,0.1-0.3,0.2-0.5,0.3c-1.5,0.8-1.5,0.8-1.3,2.5c0.1,0.5,0,0.8-0.5,1c-0.5,0.2-1,0.5-1.5,0.8c-0.5,0.3-0.7,0.1-0.8-0.4
		c-0.2-2.4-0.4-4.7-0.6-7.1c-0.1-1-0.2-2-0.3-3c-0.1-0.6,0-1,0.6-1.2c0.4-0.1,0.7-0.3,1-0.5c0.5-0.4,0.8-0.3,1.3,0.1
		c1.9,1.7,3.8,3.4,5.7,5.1C141.1,170.8,141.9,171.6,142.8,172.3z M135,169c-0.1,0.1-0.3,0.1-0.4,0.2c0.1,0.5,0.3,1.1,0.4,1.6
		c0.3-0.1,0.6-0.3,0.8-0.4C135.5,169.9,135.2,169.5,135,169z"/>
	<path fill="#1B75BC" d="M23.7,138.3c1.4-0.3,2.6-0.5,3.8-0.8c2-0.4,3.9-0.6,5.9-1c1.7-0.4,2.6,0.2,3,1.8c0,0.2,0,0.4-0.1,0.5
		c-2.2,3-4.4,5.9-6.8,9.1c-0.6-0.9-1.1-1.8-1.6-2.6c0-0.1,0-0.2,0.1-0.2c0.4-0.6,1.3-1.3,1.2-1.9c-0.1-0.9-0.8-1.7-1.4-2.5
		c-0.2-0.2-0.8-0.3-1.2-0.1c-1.2,0.4-1.7-0.1-2.2-1C24.3,139.2,24.1,138.9,23.7,138.3z M30.3,139.9c0.3,0.5,0.5,0.8,0.8,1.3
		c0.5-0.6,0.8-1.1,1.3-1.8C31.6,139.6,31,139.7,30.3,139.9z"/>
	<path fill="#1B75BC" d="M136.9,39.3c-0.2-1.3-1.4-2-0.5-3.2c-0.7-0.1-1.2-0.2-1.8-0.3c-2.5-0.3-3.4-3-2.9-4.9c0.3-1.1,1.2-1.5,2.3-1.7
		c-0.2-0.6-0.4-1.1-0.5-1.7c-0.2-1.1,0.3-2.1,1.1-2.6c0.8-0.4,1.9-0.2,2.6,0.4c0.7,0.7,0.8,1.7,0.3,2.4c-0.6,0.7-1.6,0.8-2.4,0.2
		c-0.1-0.1-0.2-0.1-0.4-0.2c-0.2,0.8,0.1,1.3,0.7,1.6c1.5,0.7,1.6,0.9,1.3,2.6c-0.6-0.3-1.2-0.6-1.8-0.8c-0.8-0.3-1.9,0.2-2.2,1
		c-0.2,0.6,0,1,0.5,1.4c1.9,1.2,4.2,0.7,5.3-1.3c0.6-1,1.1-2,1.8-3.1c-1.5-0.4-1.1-1.6-1-2.7c1.8,1,3.5,1.9,5.4,2.9
		c-0.4,0.6-0.7,1.1-1,1.5c-0.2,0-0.2,0-0.3,0c-1.3-0.8-1.3-0.8-2.1,0.6C139.8,33.9,138.4,36.5,136.9,39.3z M135.8,25.6
		c-0.3,0.4-0.6,0.9-0.5,0.9c0.4,0.3,0.9,0.7,1.3,0.9c0.1,0,0.4-0.3,0.5-0.5C136.8,26.5,136.4,26.1,135.8,25.6z"/>
	<path fill="#1B75BC" d="M105.8,176.4c-0.4,0.1-0.7,0.2-1.1,0.3c-0.9,0.3-1.7,0.7-2.2-0.6c-0.3-0.6-1-0.9-1.7-0.6
		c-0.6,0.3-1.3,0.7-1.4,1.2c-0.2,1.1-0.2,2.3,0,3.3c0.1,0.8,0.9,1.4,1.8,1.4c1,0,1.5-0.7,1.7-1.5c0.2-0.9,0.6-0.9,1.3-0.5
		c0.5,0.3,1.1,0.4,1.7,0.5c-0.5,2.6-2.1,4-4.5,4c-2.4,0.1-4.3-1.3-5-3.6c-0.7-2.5-0.1-5.6,2.2-6.9
		C101,172.3,105.3,172.7,105.8,176.4z"/>
	<path fill="#1B75BC" d="M30.4,126.5c0.8,1.7,1.5,3.4,2.2,5c0.5,1.2,0.2,2.8-0.7,3.6c-1.2,1.1-3.1,1.3-4.3,0.6c-1-0.5-1.4-1.5-1.9-2.5
		c-0.6-1.1-0.5-1.1-1.7-0.6c-0.4,0.2-0.7,0.4-1.1,0.5c-1.2,0.5-1.2,0.5-1.8-0.7c-0.1-0.2-0.2-0.5-0.3-0.7c-0.3-0.5-0.2-0.7,0.4-0.9
		c2.8-1.3,5.7-2.6,8.5-3.9C29.8,126.8,30,126.6,30.4,126.5z M29.3,130.2c-2.3,0.7-2,0.9-1,2.5c0.2,0.3,0.8,0.5,1,0.4
		c0.3-0.2,0.6-0.7,0.6-1C29.9,131.5,29.6,130.9,29.3,130.2z"/>
	<path fill="#1B75BC" d="M95,28.2c-0.3,0.5-0.6,0.5-1.1,0c-1.3-1.2-2.2-2.7-2.6-4.5c-0.5-2,0.2-3.2,2.7-3.5c1-0.1,2-0.1,3-0.2
		c0-0.4,0-0.6,0.1-0.9c0-0.6-0.2-0.8-0.8-0.8c-1.7,0.1-3.5,0-5.4,0c0-0.4-0.1-0.9-0.1-1.7c3.4-0.2,6.7-0.3,10.1-0.5
		c0.1,0.3,0.2,0.6,0.2,0.8c0.2,0.7,0,1.1-0.8,1.1c-1.3,0-1.3,0.1-1.2,1.4c0.2,2.9,0.3,5.8,0.5,8.7c-1.3-0.4-2.2-1.6-2.2-2.8
		c0-0.8,0-1.7-0.1-2.5c0-0.2-0.3-0.7-0.4-0.7c-1,0-2,0-3,0.2c-1,0.2-1.4,1.2-1,2C93.4,25.8,94.2,26.9,95,28.2z"/>
	<path fill="#1B75BC" d="M114.6,27.5c-0.7,0.4-1.6,0.9-2.5,1.4c-1.1,0.6-1.1,0.6-1.6-0.6c1.2-0.7,2.5-1.5,3.8-2.2
		c-0.7-0.4-1.4-0.6-2-1.1c-1.4-1-1.4-2.4-1-3.9c0.1-0.4,0.2-0.9,0.3-1.3c0-0.2,0.1-0.5,0-0.7c-0.5-0.9-0.5-0.9-0.2-2
		c1,0.2,2,0.3,3,0.5c1.9,0.4,3.8,0.8,5.7,1.1c0.8,0.1,0.8,0.5,0.7,1.1c-0.1,0.6-0.3,1.1-1.1,0.8c-0.3-0.1-0.7-0.1-1.1-0.2
		c-0.7,3.4-1.3,6.7-2,10c-0.1,0-0.2,0-0.3,0C115.7,29.5,115.2,28.5,114.6,27.5z M113.6,19.5c-0.3,1.4-0.6,2.7-0.8,3.9
		c-0.1,0.8,0.5,1.5,1.2,1.2c0.7-0.2,1.5-0.7,1.8-1.3c0.4-1,0.5-2.2,0.7-3.3C115.5,19.8,114.6,19.7,113.6,19.5z"/>
	<path fill="#1B75BC" d="M165.4,48.5c1.7,2.5,3.5,5.1,5.2,7.6c0.4,0.6-0.3,0.8-0.6,1.1c-0.4,0.4-0.9,0.4-1.1-0.1
		c-0.4-1.1-0.9-0.7-1.5-0.3c-1.1,0.8-2.2,1.6-3.3,2.3c-1,0.7-2.7,0.7-3.5,0.1c-1-0.7-1.3-2.1-1.1-3.6c0.4-2.4,1.9-3.9,3.9-5.1
		c0.4-0.2,0.6-0.3,0.6-0.9c0-0.5,0.6-0.9,0.9-1.4C165.1,48.3,165.2,48.4,165.4,48.5z M165.5,51.9c-1.3,0.9-2.5,1.7-3.7,2.5
		c-0.6,0.4-0.9,1.2-0.5,1.8c0.3,0.4,1.2,0.7,1.6,0.5c1.5-0.6,2.8-1.5,4.3-2.3C166.5,53.5,166,52.7,165.5,51.9z"/>
	<path fill="#1B75BC" d="M40.6,53.7c-0.7,0.8-1.2,1.6-2,2.1c-1.4,0.9-2.8,0.6-4-0.5c-0.4-0.3-0.8-0.7-1.2-1c-0.3-0.2-0.5-0.5-1.1-0.2
		c-0.3,0.2-1.1-0.4-1.7-0.7c1.9-2.5,3.7-5,5.5-7.4c0.6-0.8,0.9,0,1.4,0.2c0.4,0.2,0.6,0.6,0.2,1c-0.3,0.3-0.5,0.6-0.8,1
		c2.7,2.1,5.4,4.1,8.2,6.2C43.2,55.3,41.7,55,40.6,53.7z M35.6,50c-0.5,0.7-1,1.3-1.5,2c-0.1,0.1,0,0.5,0.1,0.6
		c0.9,0.7,1.9,1.4,2.9,2.1c0.6,0.4,1.2,0.2,1.6-0.4c0.4-0.7,0-2.1-0.7-2.6C37.3,51.2,36.5,50.7,35.6,50z"/>
	<path fill="#1B75BC" d="M156.1,40.8c0.5-0.4,0.9-0.8,1.4-1.2c0.9,0.9,1.7,1.8,2.5,2.7c1.4,1.5,2.8,3.1,4.2,4.6c0.4,0.4,0.3,0.7-0.1,1
		c-0.3,0.2-0.6,0.4-0.9,0.7c-0.9-0.9-1.7-1.8-2.6-2.8c-1.2,2.2-3.1,3.2-5.5,3.2c-0.6,0-0.6,0.3-0.6,0.7c0.1,1.3,0.1,2.7,0.1,4
		c0,0.6-0.1,0.9-0.8,0.9c-0.7,0-0.6-0.3-0.6-0.8c0.2-2.6,0.3-5.2,0.5-7.7c0-0.4,0.2-0.8,0.4-1.1c0.8-1.2,1.7-1.2,2.6,0
		c0.1,0.1,0.1,0.2,0.2,0.2c0.3,0.3,0.7,1,0.9,0.9c0.5-0.2,1.1-0.6,1.4-1c0.2-0.2,0-0.9-0.3-1.2C158.1,43,157.1,42,156.1,40.8z"/>
	<path fill="#1B75BC" d="M126.6,33.8c-1.6-1.7-1-3.4-0.2-5.1c0.6-1.4,1.1-2.8,1.7-4.2c0.3-0.7,0.3-1.2-0.6-1.4c-0.2,0-0.3-0.2-0.5-0.3
		c0.2-0.5,0.5-1,0.7-1.5c0.5,0.1,0.9,0.2,1.3,0.4c0.1-0.6,0-1,0.1-1.4c0.6-2.3,2.7-3.2,4.8-2.1c2.1,1.1,3.4,2.8,3.8,5.2
		c0.1,0.4,0,0.9,0,1.4c-0.1,0-0.3,0-0.4,0c-0.1-0.5-0.2-1.1-0.4-1.6c-0.5-2.2-2.3-3.8-4.2-3.6c-1.1,0.1-2.4,1.6-2.3,2.6
		c0,0.2,0.2,0.3,0.3,0.4c0.3,0.2,0.7,0.2,1,0.4c0.4,0.3,1.2,0.2,0.7,1.2c-0.4,0.8-0.7,1-1.4,0.6c-0.2-0.1-0.5-0.2-0.8-0.3
		C129.1,27.5,127.8,30.6,126.6,33.8z"/>
	<path fill="#1B75BC" d="M60.9,26.1c-0.5-0.9-1.2-1.7-1.5-2.6c-0.4-1.4,0.6-2.9,1.9-3.5c2.3-1,4.4-0.9,6.5,0.4c0.4,0.2,0.7,0.6,1.1,0.9
		c0,0.1-0.1,0.2-0.1,0.3c-0.2-0.1-0.5-0.2-0.7-0.3c-1.7-1.2-3.5-1.4-5.4-0.4c-1.4,0.7-1.7,2.6-0.7,3.8c0.4,0.4,0.7,0.6,1.2,0.2
		c0.2-0.1,0.4-0.2,0.6-0.3c0.8-0.4,1.6,0.1,1.6,1c0,0.2-0.2,0.4-0.4,0.5c-0.4,0.2-0.7,0.4-1.3,0.6c1.6,3.1,3.1,6.1,4.6,9.2
		c-1.3-0.3-2.7-0.4-3.3-1.9c-0.8-1.9-1.8-3.8-2.8-5.6c-0.2-0.5-0.5-0.8-1-0.4c-0.8,0.6-1,0-1.3-0.6c-0.4-0.7,0-0.9,0.5-1.1
		C60.8,26.2,60.9,26.1,60.9,26.1z"/>
	<path fill="#1B75BC" d="M30.2,148.5c2.9-2.3,5.6-4.4,8.5-6.6c0.5,0.6,1.1,1.2,1.5,1.8c0.1,0.2-0.2,0.8-0.5,1c-1.6,1.3-3.3,2.6-5,3.9
		c-0.2,0.2-0.4,0.4-0.7,0.6c1,1.3,2,2.6,3.1,3.9c-0.6,0.5-1.1,0.9-1.6,1.3c-0.1,0.1-0.5,0.1-0.6,0C33.3,152.5,31.8,150.6,30.2,148.5
		z"/>
	<path fill="#1B75BC" d="M54.9,158.4c-1.5,2.1-2.9,4.1-4.4,6c-0.4,0.5-0.2,0.8,0.2,1.1c1,0.7,1.9,1.5,2.9,2.1c0.5,0.3,0.4,0.6,0.1,1
		c-1.1,1.5-1.1,1.5-2.6,0.4c-1.4-1-2.7-2-4.1-3c-0.6-0.5-0.8-0.7-0.2-1.5c1.7-2.1,3.3-4.4,4.8-6.6c0.9-1.3,0.9-1.3,2.1-0.4
		C54.1,157.8,54.5,158.1,54.9,158.4z"/>
	<path fill="#1B75BC" d="M95.9,173.1c-0.2,2.7-0.4,5.2-0.5,7.8c0,0.7-0.1,1.4-0.1,2.1c0,0.7-0.3,1.1-1,0.8c-0.1,0-0.3-0.1-0.4-0.1
		c-1.6-0.2-1.6-0.2-1.5-1.8c0.2-2.7,0.4-5.5,0.6-8.2c0-0.7,0.3-0.9,0.9-0.8C94.5,172.9,95.1,173,95.9,173.1z"/>
	<path fill="#1B75BC" d="M48.5,50.7c-2.1,0.6-3.6-0.3-4.9-1.7c-0.9-0.9-1.8-1.8-2.8-2.7c-1.1-1-1.2-1-2.3-0.1c0,0-0.1,0-0.1,0
		c-1.4-1-1.4-1-0.2-2.3c0.6-0.7,1.3-1.3,1.9-2.1c0.6-0.8,1.1-0.8,1.6-0.1c0.1,0.2,0.3,0.3,0.4,0.5c0,0.1,0,0.2-0.1,0.2
		C41,43.7,41,43.7,42.5,45c1.9,1.7,3.7,3.4,5.6,5.1C48.2,50.3,48.3,50.5,48.5,50.7z"/>
	<path fill="#1B75BC" d="M162.1,66.4c0.3-0.9,0.4-1.6,0.8-2.2c0.3-0.5,0.7-0.9,1.1-1.2c1.9-1.1,3.7-2.1,5.7-3.1
		c0.6-0.3,0.6-0.5,0.3-0.9c-0.5-0.8,0.1-1,0.6-1.3c0.7-0.4,0.8,0,1.1,0.5c0.6,1.2,1.3,2.3,1.9,3.5c0.5,0.8-0.4,0.9-0.7,1.2
		c-0.4,0.3-0.7,0.2-0.9-0.3c-0.1-0.3-0.4-0.7-0.6-1.1C168.3,63,165.3,64.6,162.1,66.4z"/>
	<path fill="#1B75BC" d="M121.4,32.1c-0.4-0.9-0.9-1.6-1.1-2.4c-0.1-0.4,0.1-1,0.2-1.5c0.7-2.2,1.4-4.3,2.1-6.6
		c-0.5-0.2-0.9-0.4-1.4-0.7c0.2-0.6,0.3-1.1,0.5-1.7c1.7,0.5,3.4,1,5.2,1.6c-0.2,0.6-0.3,1.1-0.5,1.6c-0.2,0.1-0.2,0.1-0.3,0.1
		c-1.6-0.5-1.6-0.5-2.1,1.2c-0.8,2.6-1.6,5.3-2.4,7.9C121.7,31.8,121.6,31.9,121.4,32.1z"/>
	<path fill="#1B75BC" d="M87.5,30.6c1.9-1,4-0.3,4.2,1.5c0.2,1.2-0.6,2.1-1.8,2.3c-1.8,0.2-3.8-0.7-4.7-2.3c-0.1-0.2,0-0.4-0.1-0.7
		c0.2,0.1,0.5,0.1,0.6,0.2c1,1.1,2.1,1.8,3.6,1.6c0.3,0,0.7-0.2,1-0.4c0.2-0.2,0.4-0.6,0.4-0.8c0-0.2-0.4-0.5-0.7-0.6
		c-0.2-0.1-0.5-0.1-0.8,0C88.2,31.6,88.2,31.6,87.5,30.6z"/>
	<path fill="#1B75BC" d="M92.1,55.3c-1.2-0.6-1.5-1.5-1.4-2.6c-0.4,0-0.8,0-1.1,0c-1,0-1.7-0.8-1.8-1.8c0-0.4,0-0.8,0-1.2
		c0-0.7-0.3-0.9-0.9-0.9c-0.6,0-0.8,0.3-0.8,0.9c0,1.6,0,3.1,0,4.7c0,0.2,0,0.5-0.1,0.9c-0.8-0.6-1.3-1.2-1.3-2.1
		c0.1-1.1-0.1-2.2,0-3.3c0.1-0.9-0.3-1.2-1.1-1c-0.3,0.1-0.6,0.1-1,0.2c0,2,0,4,0,6.1c-0.9-0.5-1.3-1.1-1.3-2.1c0.1-1.2,0-2.4,0-3.6
		c0-1-0.8-0.6-1.3-0.7c-0.5-0.1-0.7,0.2-0.7,0.7c0,1.8,0,3.7,0,5.6c-1.1-0.5-1.3-1.4-1.2-2.3c-0.9,0-1.8,0.2-2.5-0.1
		c-0.7-0.2-1.1-1-1.8-1.5c0.7-0.4,1.2-0.6,1.6-0.9c0.3-0.2,0.5-0.6,0.6-0.9c0-0.2-0.3-0.5-0.4-0.7c-0.2,0.2-0.4,0.4-0.5,0.6
		c-0.1,0.1,0,0.4-0.1,0.7c-0.2-0.1-0.4-0.2-0.4-0.3c-0.4-0.6-0.8-1.2-0.2-1.8c0.6-0.6,1.3-0.1,1.8,0.3c1.2,0.9,1.1,2.2-0.1,3.1
		c-0.2,0.1-0.4,0.3-0.6,0.5c1,0.5,2.4-0.2,2.5-1.2c0.1-0.7,0.5-1.6-0.6-1.9c-0.3-0.1-0.4-0.5-0.7-1c2.7,0,5.3,0,7.9,0
		c0-0.2,0.1-0.3,0-0.4c-0.8-1.8,0.8-3.2,2.9-2.7c1.3,0.3,2.4,1.1,2.9,2.5c0,0.1,0,0.2,0,0.2c-0.8-0.6-1.5-1.2-2.4-1.8
		c-0.7-0.4-1.4-0.2-1.8,0.3c-0.3,0.4-0.4,1.1-0.7,1.9c2.4,0,4.6,0,6.7,0c2.2,0,4.4,0,6.6,0c0.8,0,1.3,0.2,1,1.1
		c-0.4,0.1-0.8,0.1-1.3,0.2c0,2.1,0,4.1,0,6.2c-1.2-0.6-1.2-1.7-1.2-2.8c0-0.4-0.2-1-0.3-1c-0.8,0-1.5,0.1-2.2,0.4
		c-0.2,0.1-0.2,0.9-0.1,1.3c0.1,0.5,0.5,0.9,0.8,1.3c0.1,0.2,0.2,0.5,0.4,0.9c-1.5-0.6-2.7-3.2-2.1-4.3c0.2-0.4,0.9-0.7,1.5-0.9
		c0.5-0.2,1,0,1.5-0.1c0.2,0,0.4-0.4,0.6-0.6c-0.2-0.2-0.5-0.4-0.7-0.4c-1.2,0-2.3,0-3.5,0c-0.7,0-0.9,0.2-0.9,0.9
		C92.2,51.6,92.1,53.4,92.1,55.3z M89,49.1c0,0.8,0,1.5,0,2.3c0,0.2,0.2,0.6,0.4,0.7c0.2,0.1,0.6,0,0.8-0.1c0.8-0.4,0.6-1.3,0.6-2
		c0.1-0.9-0.3-1.1-1.1-1C89.5,49,89.3,49,89,49.1z"/>
	<path fill="#1B75BC" d="M91.7,151.1c0-2.9,0-5.7,0-8.7c1.7,0.1,3.3,0.2,4.9,0.5c1.4,0.3,2,1.5,2.2,2.8c0.2,1.3,0.2,2.6-0.4,3.8
		c-0.6,1-1.4,1.7-2.6,1.7C94.4,151.1,93.2,151.1,91.7,151.1z M93.5,144.1c0,1.4,0,2.7,0,3.9c0,1.8,0,1.7,1.8,1.6
		c1,0,1.5-0.6,1.7-1.5c0.1-0.5,0.1-1,0.2-1.4c0-1.3-0.7-2.5-1.7-2.6C94.9,144.1,94.2,144.1,93.5,144.1z"/>
	<path fill="#1B75BC" d="M69.3,151.1c0-2.7,0-5.3,0-7.9c0-0.2,0.4-0.5,0.6-0.5c1.7,0,3.4-0.1,5.2,0c1.2,0,0.4,0.9,0.8,1.5
		c-1.4,0-2.7,0-3.9,0c-0.7,0-0.9,0.2-0.9,0.9c0,0.7,0.3,1,1,1c0.9,0,1.7,0,2.6-0.1c0.7-0.1,0.8,0.3,0.8,0.8c0,0.6-0.2,0.7-0.7,0.7
		c-0.9,0-1.9,0-2.8,0c-0.5,0-0.9,0.1-0.7,0.7c0.1,0.6-0.5,1.5,0.7,1.6c1,0.1,2,0,3,0c1.2,0,1.2,0,1,1.3
		C73.7,151.1,71.6,151.1,69.3,151.1z"/>
	<path fill="#1B75BC" d="M83.3,145c-0.9,0.3-1.6,0.5-2.1-0.6c-0.1-0.3-0.8-0.5-1.1-0.4c-0.5,0.1-0.9,0.5-1.4,0.8
		c0.4,0.3,0.7,0.7,1.2,0.9c0.8,0.3,1.7,0.5,2.4,0.8c1.1,0.5,1.4,1.4,1.3,2.6c-0.1,1-0.9,1.9-1.9,2.1c-1,0.1-2.1,0.1-3.1,0
		c-1-0.1-1.7-1.2-1.9-2.6c0.5-0.1,0.9-0.2,1.4-0.3c0.3,0.4,0.5,0.8,0.7,1.1c0.7,0.8,1.6,0.9,2.4,0.3c0.3-0.2,0.5-0.6,0.5-0.9
		c0-0.3-0.3-0.6-0.6-0.7c-0.7-0.3-1.4-0.4-2.1-0.6c-1.5-0.5-2.3-1.5-2.1-2.8c0.2-1,1.3-1.9,2.7-1.9c0.6,0,1.1-0.1,1.6,0.1
		C82.5,142.9,83.2,143.6,83.3,145z"/>
	<path fill="#1B75BC" d="M122.9,146.7c1.4,1.2,1.5,2.7,0.4,3.9c-0.9,1-3.1,1-4.2-0.1c-1.2-1.2-1-2.4,0.5-3.9c-1.1-1.3-1.2-2.4-0.4-3.3
		c0.9-0.9,2.7-1,3.8-0.2C124,143.9,124,144.8,122.9,146.7z M122.4,148.8c0-0.9-0.6-1.7-1.2-1.6c-0.7,0.1-1.1,0.6-1.2,1.3
		c-0.1,0.8,0.5,1.4,1.2,1.4C122.1,150,122.3,149.3,122.4,148.8z M122.3,145.2c0-0.2,0-0.3,0-0.5c-0.4-0.3-0.7-0.7-1.1-0.8
		c-0.6-0.1-1.1,0.3-1,0.9c0.1,0.4,0.5,1,0.9,1C121.5,145.9,121.9,145.4,122.3,145.2z"/>
	<path fill="#1B75BC" d="M116,147.8c-1.6,0.6-2.6,0.5-3.4-0.4c-0.6-0.7-0.8-2.7-0.2-3.6c0.5-0.9,1.8-1.5,2.8-1.2c1,0.2,1.8,0.8,2.1,1.9
		c0.6,1.8,0.6,3.6-0.2,5.4c-0.5,1.1-1.5,1.5-2.6,1.4c-1,0-1.7-0.4-2.1-1.4c-0.1-0.2-0.1-0.4-0.1-0.7c0.5-0.1,0.9-0.1,1.3-0.2
		c0,0.1-0.1,0.2-0.1,0.2c0.5,0.2,1.1,0.7,1.6,0.6C115.9,149.6,115.8,148.7,116,147.8z M113.6,145.3c0,1.1,0.4,1.7,1.1,1.7
		c0.7,0,1.2-0.6,1.2-1.4c0-0.8-0.6-1.8-1.2-1.7C113.9,144.1,113.5,144.6,113.6,145.3z"/>
	<path fill="#1B75BC" d="M124.9,149.1c0.7-0.1,1.3-0.6,1.8,0.4c0.4,0.8,1.5,0.6,1.9-0.2c0.3-0.7,0.4-1.4-0.2-2.1
		c-0.6-0.6-1.1-0.3-1.8-0.1c-0.5,0.2-1,0.1-1.7,0.2c0.3-1.5,0.5-2.8,0.8-4.1c0-0.2,0.4-0.4,0.7-0.4c1,0,2,0,3,0
		c0.5,0,0.7,0.2,0.7,0.7c0,0.6-0.2,0.9-0.8,0.8c-0.4,0-0.9,0-1.3,0c-1-0.1-1.2,0.4-1.2,1.2c2.5,0.1,3.6,0.9,3.7,2.6
		c0.1,1.7-1,3.1-2.5,3.2C126.5,151.4,125.3,151,124.9,149.1z"/>
	<path fill="#1B75BC" d="M88.5,151.1c-0.7,0-1.2,0-1.8,0c0-1.9,0-3.8,0-5.7c0-1.3,0-1.3-1.2-1.3c-0.4,0-0.8,0-1.2,0c0-0.5,0-1,0-1.5
		c2.1,0,4.2,0,6.2,0c0.2,0,0.4,0.5,0.4,0.8c0,0.2-0.3,0.7-0.5,0.7c-0.6,0.1-1.2,0-1.9,0C88.5,146.4,88.5,148.7,88.5,151.1z"/>
	<path fill="#1B75BC" d="M73.3,50.8c0.3,0.7,0.1,1.2-0.6,1.3c-0.4,0.1-0.8,0-1.1,0.2c-0.4,0.2-0.7,0.5-0.9,0.8
		c-0.1,0.1,0.1,0.5,0.3,0.8c0.4,0.5,0.8,0.9,1.3,1.4c-0.3,0.1-0.5,0.2-0.5,0.1c-1.2-1.1-2.7-2-2.8-3.9c0-0.6,0.1-1.1,0.9-1.2
		c0.2,0,0.5-0.4,0.7-0.6c-0.2-0.2-0.5-0.5-0.8-0.7c-0.2-0.1-0.5,0-0.7-0.1c-0.2-0.1-0.4-0.4-0.4-0.6c0-0.2,0.3-0.5,0.5-0.5
		c1.3,0,2.5-0.1,3.8,0c0.2,0,0.5,0.5,0.5,0.7c0,0.2-0.4,0.5-0.7,0.5c-0.7,0-1.3-0.2-1.3,1c0.1,1.2,0.2,1.4,1.4,1
		C73,50.9,73.1,50.8,73.3,50.8z"/>
	<path fill="#1B75BC" d="M106.3,146.2c-0.3-1-0.1-1.6,0.8-2c0.4-0.2,0.9-0.6,1.1-1c0.4-0.7,0.8-0.7,1.6-0.6c0,2.8,0,5.6,0,8.5
		c-0.5,0-0.9,0-1.5,0c0-1.9,0-3.8,0-5.9C107.6,145.6,107,145.9,106.3,146.2z"/>
	<path fill="#1B75BC" d="M120.3,50.5c0.7-0.7,1.4-1.4,2.1-2.2c0.4-0.4,0.7-0.5,1.1-0.1c0.5,0.5,0.1,0.7-0.2,1c-0.7,0.7-1.4,1.3-2.1,2
		c0.4,0.7,0.7,1.3,1.1,1.8c0.5,0.8,0.3,1.4-0.3,1.9c-0.5,0.4-1.7,0.3-2.2-0.1c-1-0.9-1.2-2.4-0.3-3.4c0.4-0.5,0.2-0.7-0.1-1.1
		c-0.6-0.6-1.2-1.2-1.8-1.8c-0.1-0.1-0.2-0.3-0.2-0.5c0.2,0,0.5,0,0.6,0.1C118.6,48.9,119.4,49.6,120.3,50.5z M120.6,52
		c-0.8,0.9-1.1,1.9-0.5,2.2c0.3,0.1,0.9,0,1.2-0.2C121.9,53.5,121.6,52.8,120.6,52z"/>
	<path fill="#1B75BC" d="M116.3,52.4c0,1.4-1.4,2.7-2.7,2.7c-1.3-0.1-2.2-1.1-2.2-2.5c0-1.5,1.3-2.7,2.7-2.7
		C115.4,49.9,116.4,51,116.3,52.4z M112.4,51.8c0,1.2,0.8,2.1,1.8,2.1c0.6,0,1-0.3,1-0.9c0-1-1-2.3-1.9-2.2
		C112.5,50.8,112.5,51.4,112.4,51.8z"/>
	<path fill="#1B75BC" d="M110,56.2c-0.2-0.2-0.4-0.4-0.5-0.6c-0.3-0.5-0.6-1.1-0.9-1.7c-0.3-0.5-0.6-0.9-1.2-0.9c-0.4,0-0.8-0.5-1-0.8
		c-0.1-0.3,0.1-0.8,0.2-1.2c0.3,0.1,0.7,0.2,1,0.3c0.2,0.1,0.4,0.3,0.5,0.4c1.2-0.6,1.7-1.4,1.3-2.2c-0.4-1-1.2-1-3.3-0.1
		c-0.2-0.4-0.3-0.8-0.6-1.4c1.1,0,2-0.1,2.8,0c1,0.1,1.6,0.8,1.8,1.8c0.1,1,0,2.1-0.9,2.7c-0.5,0.4-0.5,0.7-0.2,1.2
		c0.5,0.8,0.9,1.6,1.3,2.4C110.2,56,110.1,56.1,110,56.2z"/>
	<path fill="#1B75BC" d="M124.9,48.1c1.7-0.7,3.4-0.4,4.1,0.6c0.8,1.2,0.5,2.6-1,4.2c0.5,1,1.1,2,1.6,3c0,0.1-0.1,0.1-0.1,0.2
		c-0.2-0.1-0.4-0.1-0.5-0.2c-0.3-0.5-0.5-1-0.8-1.4c-0.4-0.7-0.6-1.4-1.6-1.5c-0.4,0-0.8-0.6-1-1.1c-0.1-0.3,0.1-0.7,0.3-1
		c0.1-0.1,0.6,0.1,0.9,0.2c0.3,0.1,0.8,0.4,1,0.2c0.7-0.4,1.2-1,0.9-1.8c-0.1-0.4-0.7-0.8-1.1-0.9c-0.7,0-1.5,0.3-2.4,0.4
		C125.2,48.9,125.1,48.6,124.9,48.1z"/>
	<path fill="#1B75BC" d="M101.7,151.1c-0.5,0-1,0-1.5,0c0-0.5,0-1,0-1.5c0.5,0,1,0,1.5,0C101.7,150.1,101.7,150.6,101.7,151.1z"/>
</g>
</svg>
