<svg width="40" height="53" viewBox="0 0 40 53" fill="none" xmlns="http://www.w3.org/2000/svg">
<path d="M33.9976 52.3607H2.32997C1.30372 52.3607 0.47168 51.5288 0.47168 50.5024V5.51503C0.47168 4.48878 1.30362 3.65674 2.32997 3.65674H33.9976C35.0239 3.65674 35.8559 4.48868 35.8559 5.51503V50.5024C35.8559 51.5288 35.0239 52.3607 33.9976 52.3607Z" fill="#C8EFFE"/>
<path d="M37.6373 0H5.96952C4.94327 0 4.11133 0.831941 4.11133 1.85829V3.65676H33.9805C35.0068 3.65676 35.8388 4.4887 35.8388 5.51505V48.704H37.6373C38.6635 48.704 39.4956 47.872 39.4956 46.8457V1.85829C39.4955 0.831941 38.6635 0 37.6373 0V0Z" fill="#3C87D0"/>
<path d="M9.87416 48.1212H5.51954C5.05402 48.1212 4.67676 47.7439 4.67676 47.2785V42.9238C4.67676 42.4583 5.05412 42.0811 5.51954 42.0811H9.87416C10.3397 42.0811 10.7169 42.4584 10.7169 42.9238V47.2785C10.7169 47.7439 10.3396 48.1212 9.87416 48.1212Z" fill="#7CA1B1"/>
<path d="M31.0051 45.8908H14.2188C13.7823 45.8908 13.4287 45.537 13.4287 45.1007C13.4287 44.6643 13.7825 44.3105 14.2188 44.3105H31.0052C31.4417 44.3105 31.7953 44.6643 31.7953 45.1007C31.7953 45.537 31.4416 45.8908 31.0051 45.8908Z" fill="#3E5959"/>
<path d="M19.7379 24.0108H5.73007C5.14817 24.0108 4.67651 23.5391 4.67651 22.9572V8.94955C4.67651 8.36765 5.14817 7.896 5.73007 7.896H19.7378C20.3197 7.896 20.7913 8.36765 20.7913 8.94955V22.9572C20.7914 23.5391 20.3197 24.0108 19.7379 24.0108Z" fill="#FEE2CA"/>
<path d="M12.734 16.3826C14.2916 16.3826 15.5542 15.12 15.5542 13.5624C15.5542 12.0048 14.2916 10.7422 12.734 10.7422C11.1765 10.7422 9.91382 12.0048 9.91382 13.5624C9.91382 15.12 11.1765 16.3826 12.734 16.3826Z" fill="#FFCEBF"/>
<path d="M9.65845 21.1648H15.8095V19.4583C15.8095 17.7597 14.4326 16.3828 12.734 16.3828C11.0355 16.3828 9.65855 17.7597 9.65855 19.4583V21.1648H9.65845Z" fill="#E94444"/>
<path d="M31.0053 12.5441H24.0216C23.5851 12.5441 23.2314 12.1904 23.2314 11.754C23.2314 11.3175 23.5852 10.9639 24.0216 10.9639H31.0053C31.4417 10.9639 31.7954 11.3176 31.7954 11.754C31.7955 12.1904 31.4417 12.5441 31.0053 12.5441Z" fill="#3E5959"/>
<path d="M31.0053 17.0236H24.0216C23.5851 17.0236 23.2314 16.6698 23.2314 16.2335C23.2314 15.7971 23.5852 15.4434 24.0216 15.4434H31.0053C31.4417 15.4434 31.7954 15.7971 31.7954 16.2335C31.7954 16.6698 31.4417 17.0236 31.0053 17.0236Z" fill="#3E5959"/>
<path d="M31.0053 21.8019H24.0216C23.5851 21.8019 23.2314 21.4482 23.2314 21.0118C23.2314 20.5753 23.5852 20.2217 24.0216 20.2217H31.0053C31.4417 20.2217 31.7954 20.5754 31.7954 21.0118C31.7955 21.4482 31.4417 21.8019 31.0053 21.8019Z" fill="#3E5959"/>
<path d="M31.0051 29.4323H4.67659C4.24011 29.4323 3.88647 29.0785 3.88647 28.6422C3.88647 28.2058 4.24022 27.8521 4.67659 27.8521H31.0052C31.4417 27.8521 31.7953 28.2058 31.7953 28.6422C31.7953 29.0785 31.4416 29.4323 31.0051 29.4323Z" fill="#3E5959"/>
<path d="M31.0051 33.9118H4.67659C4.24011 33.9118 3.88647 33.558 3.88647 33.1217C3.88647 32.6853 4.24022 32.3315 4.67659 32.3315H31.0052C31.4417 32.3315 31.7953 32.6853 31.7953 33.1217C31.7953 33.558 31.4416 33.9118 31.0051 33.9118Z" fill="#3E5959"/>
<path d="M31.0051 38.3913H4.67659C4.24011 38.3913 3.88647 38.0375 3.88647 37.6012C3.88647 37.1648 4.24022 36.811 4.67659 36.811H31.0052C31.4417 36.811 31.7953 37.1648 31.7953 37.6012C31.7953 38.0375 31.4416 38.3913 31.0051 38.3913Z" fill="#3E5959"/>
<path d="M7.04542 47.4999C7.02261 47.4999 6.9997 47.4989 6.97679 47.4969C6.73565 47.476 6.51751 47.3456 6.38467 47.1433L4.41869 44.1475C4.17928 43.7827 4.28094 43.2927 4.64572 43.0533C5.01051 42.814 5.50047 42.9156 5.73988 43.2804L7.15597 45.4383L12.1584 40.1167C12.4573 39.7986 12.9573 39.7832 13.2753 40.0822C13.5934 40.3811 13.6088 40.8812 13.3099 41.1991L7.62097 47.251C7.47105 47.4105 7.26232 47.4999 7.04542 47.4999Z" fill="#3E5959"/>
<path d="M33.9975 3.65674H30.7017C31.7279 3.65674 32.56 4.48868 32.56 5.51503V50.5024C32.56 51.5287 31.728 52.3607 30.7017 52.3607H33.9975C35.0238 52.3607 35.8558 51.5288 35.8558 50.5024V5.51493C35.8558 4.48868 35.0238 3.65674 33.9975 3.65674Z" fill="#B3DAFE"/>
</svg>
