<svg id="Layer_1" data-name="Layer 1" xmlns="http://www.w3.org/2000/svg" width="68" height="67" viewBox="0 0 68 67"><title>icon</title><rect width="68" height="67" rx="20" style="fill:#f1fbf6"/><g id="_01d6Hf.tif" data-name="01d6Hf.tif"><path d="M18.952,37.18V19.049a1.2,1.2,0,0,1,1.275-.795q13.381.016,26.763.007a1.047,1.047,0,0,1,1.188,1.191q0,8.683,0,17.367c0,.107-.008.213-.014.34H19.374C19.233,37.16,19.092,37.173,18.952,37.18Zm6.511-9.524a4.846,4.846,0,0,0-1.444,1.479,5.3,5.3,0,0,0-.644,3.359.854.854,0,0,0,.913.757q3.653.006,7.306,0a.9.9,0,0,0,.931-.942c.008-.283.009-.566,0-.849a4.573,4.573,0,0,0-1.9-3.655l-.209-.161a3.324,3.324,0,0,0-.27-4.636,3.291,3.291,0,0,0-4.349-.059A3.337,3.337,0,0,0,25.463,27.656ZM39.93,23.972c.959,0,1.919,0,2.878,0a.907.907,0,1,0,.033-1.812q-2.908-.017-5.817,0a.906.906,0,1,0,0,1.811C37.991,23.978,38.961,23.971,39.93,23.972Zm.005,9.28c.969,0,1.939.008,2.908,0a.869.869,0,0,0,.922-.936.9.9,0,0,0-1.02-.878q-2.817-.006-5.634,0a1.5,1.5,0,0,0-.389.05.85.85,0,0,0-.618.744.877.877,0,0,0,.923,1.019C38,33.26,38.966,33.253,39.935,33.252Zm.006-6.447v0c-.96,0-1.919,0-2.878,0a.908.908,0,1,0-.019,1.814q2.894.012,5.786,0a.884.884,0,0,0,.829-.465.9.9,0,0,0-.78-1.345C41.9,26.793,40.92,26.805,39.941,26.805Z" style="fill:#3bb54a"/><path d="M18.952,39c.12-.007.241-.02.361-.02H48.178v2.408a1.043,1.043,0,0,1-1.184,1.192H23.832c-1.2,0-2.405-.019-3.607.008a1.176,1.176,0,0,1-1.273-.8Z" style="fill:#3bb54a"/><path d="M27.926,49.307a1,1,0,0,1-.661-.918.892.892,0,0,1,.879-.9c.2-.01.4,0,.638,0V44.414h9.554v3.074c.193,0,.361,0,.528,0a.911.911,0,0,1,.4,1.762.335.335,0,0,0-.063.057Z" style="fill:#3bb54a"/><path d="M30.68,31.414H25.22a2.689,2.689,0,0,1,2.527-2.658A2.742,2.742,0,0,1,30.68,31.414Z" style="fill:#3bb54a"/><path d="M26.462,25.465a1.451,1.451,0,0,1,1.472-1.482,1.466,1.466,0,0,1,1.484,1.506,1.478,1.478,0,0,1-2.956-.024Z" style="fill:#3bb54a"/></g></svg>