<svg width="30" height="30" viewBox="0 0 30 30" fill="none" xmlns="http://www.w3.org/2000/svg">
<path d="M13.5 10.5002H16.5V7.50024H13.5V10.5002ZM15 27.0002C8.385 27.0002 3 21.6152 3 15.0002C3 8.38524 8.385 3.00024 15 3.00024C21.615 3.00024 27 8.38524 27 15.0002C27 21.6152 21.615 27.0002 15 27.0002ZM15 0.000244141C13.0302 0.000244141 11.0796 0.388231 9.25975 1.14205C7.43986 1.89587 5.78628 3.00076 4.3934 4.39364C1.58035 7.20669 0 11.022 0 15.0002C0 18.9785 1.58035 22.7938 4.3934 25.6068C5.78628 26.9997 7.43986 28.1046 9.25975 28.8584C11.0796 29.6123 13.0302 30.0002 15 30.0002C18.9782 30.0002 22.7936 28.4199 25.6066 25.6068C28.4196 22.7938 30 18.9785 30 15.0002C30 13.0304 29.612 11.0799 28.8582 9.25999C28.1044 7.44011 26.9995 5.78652 25.6066 4.39364C24.2137 3.00076 22.5601 1.89587 20.7403 1.14205C18.9204 0.388231 16.9698 0.000244141 15 0.000244141ZM13.5 22.5002H16.5V13.5002H13.5V22.5002Z" fill="#FFA55A"/>
</svg>
