<svg width="48" height="47" viewBox="0 0 48 47" fill="none" xmlns="http://www.w3.org/2000/svg">
    <path
        d="M0.462158 15.0763C0.462158 6.79201 7.17789 0.0762939 15.4622 0.0762939H33C41.2842 0.0762939 48 6.79202 48 15.0763V31.915C48 40.1993 41.2842 46.915 33 46.915H15.4621C7.17787 46.915 0.462158 40.1993 0.462158 31.915V15.0763Z"
        fill="" />
    <path
        d="M22.5 18.5H25.5V15.5H22.5V18.5ZM24 35C17.385 35 12 29.615 12 23C12 16.385 17.385 11 24 11C30.615 11 36 16.385 36 23C36 29.615 30.615 35 24 35ZM24 8C22.0302 8 20.0796 8.38799 18.2597 9.14181C16.4399 9.89563 14.7863 11.0005 13.3934 12.3934C10.5804 15.2064 9 19.0218 9 23C9 26.9782 10.5804 30.7936 13.3934 33.6066C14.7863 34.9995 16.4399 36.1044 18.2597 36.8582C20.0796 37.612 22.0302 38 24 38C27.9782 38 31.7936 36.4196 34.6066 33.6066C37.4196 30.7936 39 26.9782 39 23C39 21.0302 38.612 19.0796 37.8582 17.2597C37.1044 15.4399 35.9995 13.7863 34.6066 12.3934C33.2137 11.0005 31.5601 9.89563 29.7403 9.14181C27.9204 8.38799 25.9698 8 24 8ZM22.5 30.5H25.5V21.5H22.5V30.5Z"
        fill="#EE585B" />
</svg>