<svg width="68" height="67" viewBox="0 0 68 67" fill="none" xmlns="http://www.w3.org/2000/svg">
<rect width="68" height="67" rx="20" fill="#FFF9F4"/>
<path d="M29.9108 21.0216C31.5561 20.777 33.299 22.6334 33.8009 25.1951C34.3029 27.7423 33.3966 30.0161 31.7513 30.2751C30.12 30.5341 28.3632 28.6777 27.8473 26.1161C27.3314 23.5689 28.2656 21.2951 29.9108 21.0216ZM39.88 21.0216C41.5392 21.2951 42.4595 23.5689 41.9715 26.1161C41.4416 28.6777 39.6988 30.5341 38.0535 30.2751C36.3943 30.0161 35.488 27.7423 36.0039 25.1951C36.5058 22.6334 38.2487 20.777 39.88 21.0216ZM22.4514 27.6415C24.0408 26.9364 26.202 28.2172 27.3314 30.4478C28.391 32.7216 28.0285 35.1105 26.453 35.8157C24.8774 36.5208 22.7302 35.2544 21.6287 32.995C20.5272 30.7356 20.9176 28.3323 22.4514 27.6415ZM47.5486 27.6415C49.0824 28.3323 49.4728 30.7356 48.3713 32.995C47.2698 35.2544 45.1226 36.5208 43.547 35.8157C41.9715 35.1105 41.609 32.7216 42.6686 30.4478C43.798 28.2172 45.9592 26.9364 47.5486 27.6415ZM45.2202 43.1551C45.2759 44.5079 44.2721 46.0045 43.073 46.5658C40.5772 47.7459 37.6213 45.2994 34.8466 45.2994C32.072 45.2994 29.0882 47.8466 26.6342 46.5658C25.2399 45.8606 24.2779 43.9898 24.4591 42.4356C24.7101 40.2913 27.2059 39.14 28.6838 37.5714C30.6498 35.5422 32.0441 31.7286 34.8466 31.7286C37.6352 31.7286 39.1132 35.4847 40.9955 37.5714C42.5431 39.3271 45.1226 40.8094 45.2202 43.1551Z" fill="#FFA55A"/>
</svg>
