<svg width="28" height="26" viewBox="0 0 28 26" fill="none" xmlns="http://www.w3.org/2000/svg">
<path d="M8.91083 0.0216486C10.5561 -0.223 12.299 1.63345 12.8009 4.19506C13.3029 6.74228 12.3966 9.01607 10.7513 9.27511C9.11997 9.53415 7.36316 7.6777 6.84727 5.11609C6.33138 2.56887 7.26556 0.295079 8.91083 0.0216486ZM18.88 0.0216486C20.5392 0.295079 21.4595 2.56887 20.9715 5.11609C20.4416 7.6777 18.6988 9.53415 17.0535 9.27511C15.3943 9.01607 14.488 6.74228 15.0039 4.19506C15.5058 1.63345 17.2487 -0.223 18.88 0.0216486ZM1.45135 6.64154C3.04085 5.93638 5.202 7.21718 6.33138 9.4478C7.39105 11.7216 7.02853 14.1105 5.45298 14.8157C3.87742 15.5208 1.73021 14.2544 0.628718 11.995C-0.472774 9.73562 -0.0823721 7.33231 1.45135 6.64154ZM26.5486 6.64154C28.0824 7.33231 28.4728 9.73562 27.3713 11.995C26.2698 14.2544 24.1226 15.5208 22.547 14.8157C20.9715 14.1105 20.609 11.7216 21.6686 9.4478C22.798 7.21718 24.9592 5.93638 26.5486 6.64154ZM24.2202 22.1551C24.2759 23.5079 23.2721 25.0045 22.073 25.5658C19.5772 26.7459 16.6213 24.2994 13.8466 24.2994C11.072 24.2994 8.08819 26.8466 5.63423 25.5658C4.23994 24.8606 3.27788 22.9898 3.45914 21.4356C3.71011 19.2913 6.20589 18.14 7.68385 16.5714C9.6498 14.5422 11.0441 10.7286 13.8466 10.7286C16.6352 10.7286 18.1132 14.4847 19.9955 16.5714C21.5431 18.3271 24.1226 19.8094 24.2202 22.1551Z" fill="#FFA55A"/>
</svg>
