<svg id="Layer_1" data-name="Layer 1" xmlns="http://www.w3.org/2000/svg" width="68" height="67" viewBox="0 0 68 67">
    <title>icon</title>
    <rect width="68" height="67" rx="20" style="fill:#FFF9F4" />
    <rect x="17.977" y="45.059" width="30.89" height="1.95" style="fill:#EE585B" />
    <path
        d="M48.077,23.739q-7.155-3.045-14.28-6.11a.393.393,0,0,0-.35.01l-11.7,5.01-2.12.91c-.62.27-.62.27-.62.96v1.41h29.25v-.38c0-.51,0-1.01.01-1.5C48.277,23.859,48.247,23.819,48.077,23.739Zm-12.59.27a2.634,2.634,0,0,1-1.88.79h-.02a2.666,2.666,0,0,1-1.87-4.57,2.657,2.657,0,0,1,1.89-.79h.02a2.689,2.689,0,0,1,2.66,2.68A2.626,2.626,0,0,1,35.487,24.009Z"
        style="fill:#EE585B" />
    <rect x="42.387" y="27.709" width="3.64" height="15.58" style="fill:#EE585B" />
    <rect x="26.277" y="27.709" width="3.57" height="15.58" style="fill:#EE585B" />
    <rect x="37.007" y="27.719" width="3.58" height="15.57" style="fill:#EE585B" />
    <rect x="31.647" y="27.719" width="3.56" height="15.57" style="fill:#EE585B" />
    <rect x="21.237" y="27.719" width="3.24" height="15.59" style="fill:#EE585B" />
    <path
        d="M34.527,22.129a.92.92,0,0,1-.92.9h-.02a.9.9,0,0,1-.89-.93.918.918,0,0,1,.28-.65.881.881,0,0,1,.64-.25A.924.924,0,0,1,34.527,22.129Z"
        style="fill:#EE585B" />
</svg>