<svg id="Layer_1" data-name="Layer 1" xmlns="http://www.w3.org/2000/svg" width="68" height="67" viewBox="0 0 68 67">
    <title>icon</title>
    <rect width="68" height="67" rx="20" style="fill:#FFF9F4" />
    <g id="GQSvSP.tif">
        <path
            d="M31.284,49.666a.871.871,0,0,1-.5-.891c.014-1.066,0-2.133.006-3.2,0-.643.24-.885.872-.886H42.01c.614,0,.857.247.857.866,0,1.078-.009,2.156.006,3.233a.839.839,0,0,1-.518.877Z"
            style="fill:#EE585B" />
        <path
            d="M16.782,45.2a.845.845,0,0,1,.88-.514q5.156.012,10.312,0c.646,0,.873.228.874.879,0,1.066-.011,2.133.006,3.2a.88.88,0,0,1-.483.9H16.782Z"
            style="fill:#EE585B" />
        <path
            d="M16.782,31.344a.889.889,0,0,1,.9-.481c3.428.011,6.856.006,10.284.007.662,0,.881.212.882.862q0,1.617,0,3.234c0,.65-.221.866-.88.866-3.428,0-6.857,0-10.285.007a.9.9,0,0,1-.9-.481Z"
            style="fill:#EE585B" />
        <path
            d="M39.419,25.657,37.073,28c-.153.152-.309.3-.456.459a.974.974,0,0,0,0,1.393.963.963,0,0,0,1.369-.022c.855-.837,1.7-1.688,2.541-2.537a2.4,2.4,0,0,0,.221-.3c.131.114.205.171.271.237Q42.4,28.611,43.786,30a.985.985,0,0,1-.469,1.772q-5.075,1.4-10.153,2.787a.978.978,0,0,1-1.272-1.271q1.4-5.094,2.8-10.183a.973.973,0,0,1,1.734-.463c.973.964,1.938,1.935,2.907,2.9C39.356,25.566,39.372,25.594,39.419,25.657Z"
            style="fill:#3B5CA5" />
        <path
            d="M29.805,42.747H24.662c-.647,0-.877-.23-.878-.874q0-1.617,0-3.235c0-.614.247-.861.865-.861q5.177,0,10.351,0c.618,0,.861.246.863.865q0,1.633,0,3.267c0,.6-.245.838-.85.838Q32.409,42.749,29.805,42.747Z"
            style="fill:#EE585B" />
        <path
            d="M43.846,42.747H38.7c-.7,0-.9-.2-.9-.911,0-1.078,0-2.156,0-3.234,0-.584.24-.825.827-.826q5.206,0,10.414,0c.576,0,.818.254.819.835q0,1.666,0,3.332c0,.559-.246.8-.814.8Q46.451,42.749,43.846,42.747Z"
            style="fill:#EE585B" />
        <path
            d="M43.454,24.393l-2.581,2.586-1.391-1.4L42.076,23c-.14-.117-.273-.211-.386-.325a.735.735,0,0,1,0-1.2q2.079-2.085,4.161-4.163c.168-.168.334-.338.5-.5a.726.726,0,0,1,1.157-.009q1.08,1.07,2.149,2.15a.719.719,0,0,1-.007,1.134c-.78.79-1.569,1.572-2.354,2.357Q46.17,23.568,45.037,24.7c-.491.49-.831.491-1.318,0C43.628,24.611,43.55,24.506,43.454,24.393Z"
            style="fill:#3B5CA5" />
    </g>
</svg>