<svg id="Layer_1" data-name="Layer 1" xmlns="http://www.w3.org/2000/svg" width="68" height="67" viewBox="0 0 68 67"><title>icon</title><rect width="68" height="67" rx="20" style="fill:#FFF9F4"/><g id="fsnDzf.tif"><path d="M17.726,32.521l32.292,0h.236v3.8c-.5.024-1,.017-1.485.078a3.787,3.787,0,0,0-3.269,3.62c-.022.879-.006,1.759-.008,2.638v.372H41.673c-.006-.113-.016-.225-.016-.338,0-1.123.007-2.246,0-3.369a2.87,2.87,0,1,0-5.738-.137c-.021,1.165,0,2.331,0,3.5v.357H32.1c-.005-.117-.015-.228-.015-.34,0-1.144.007-2.288,0-3.432a2.861,2.861,0,0,0-2.512-2.889,2.831,2.831,0,0,0-3.2,2.548c-.062,1.236-.024,2.478-.031,3.717v.393H22.507c0-.738.008-1.455,0-2.172a8.478,8.478,0,0,0-.072-1.392,3.8,3.8,0,0,0-3.753-3.125l-.953-.008Z" style="fill:#EE585B"/><path d="M41.056,20.062c.812.642,1.621,1.288,2.437,1.925q3.282,2.559,6.566,5.113c.091.071.2.188.205.286.014,1.058.009,2.116.009,3.2H48.362c0-.68-.013-1.355.007-2.028a.618.618,0,0,0-.286-.579c-.611-.453-1.2-.929-1.832-1.416L44.69,28.376c-.565.659-1.136,1.314-1.69,1.982a.648.648,0,0,1-.569.253q-1.588-.018-3.177,0a.468.468,0,0,1-.457-.25q-2.281-3.609-4.581-7.207c-.062-.1-.127-.191-.213-.321-.079.115-.144.205-.2.3q-2.284,3.59-4.564,7.182a.561.561,0,0,1-.558.3c-1.058-.017-2.118,0-3.177-.016a.685.685,0,0,1-.45-.2c-.977-1.116-1.937-2.246-2.9-3.371-.123-.145-.248-.288-.4-.46a16.3,16.3,0,0,1-1.415,1.08,1.346,1.346,0,0,0-.71,1.459,12.837,12.837,0,0,1,.011,1.513H17.726V27.245c.078-.054.158-.1.233-.162q3.352-2.607,6.7-5.216c.764-.6,1.52-1.2,2.281-1.8ZM32.246,22H28.3v6.21Zm7.473,0H35.755l3.964,6.23Zm1.958,6.947,3.059-3.57L41.677,23ZM23.265,25.382l3.052,3.56V23.009Z" style="fill:#EE585B"/><path d="M17.726,44.981c.127-.005.254-.013.38-.013H50.25v1.914H18.139c-.138,0-.275,0-.413.007Z" style="fill:#EE585B"/></g></svg>