<svg id="Layer_1" data-name="Layer 1" xmlns="http://www.w3.org/2000/svg" width="68" height="67" viewBox="0 0 68 67"><title>icon</title><rect width="68" height="67" rx="20" style="fill:#f4f1fd"/><g id="W0Cs2M.tif"><path d="M33.485,29.447A9.451,9.451,0,0,0,24.81,27.3a9.646,9.646,0,0,0-7.6,7.725c-.1.408-.141.829-.21,1.244v1.388a1.642,1.642,0,0,1,.045.2,9.951,9.951,0,0,0,8.9,9.08A9.625,9.625,0,0,0,33.1,44.915a9.554,9.554,0,0,0,3.807-6.8A9.627,9.627,0,0,0,33.485,29.447Z" style="fill:#8965ee"/><path d="M39.752,16.113c.657.08,1.318.135,1.97.244a10.363,10.363,0,0,1,4.864,1.88,3.186,3.186,0,0,1,1.321,2.641q-.022,10.65,0,21.3a3.3,3.3,0,0,1-1.486,2.832,10.335,10.335,0,0,1-4.081,1.63,17.5,17.5,0,0,1-6.088.191c-.7-.1-1.392-.269-2.169-.423l.436-.351a11.775,11.775,0,0,0,3.224-4.189.445.445,0,0,1,.5-.3,16.381,16.381,0,0,0,6.274-.965,13.186,13.186,0,0,0,1.406-.682.321.321,0,0,0,.162-.216c.011-.79.007-1.581.007-2.416a4.215,4.215,0,0,1-2.308,1.656,13.85,13.85,0,0,1-5.228.8l.292-3.647c.033,0,.148-.01.264-.013a16.119,16.119,0,0,0,5.711-1.087,10.8,10.8,0,0,0,1.1-.562.328.328,0,0,0,.164-.216c.013-.682.008-1.365.008-2.1a1.784,1.784,0,0,0-.34.187A7.3,7.3,0,0,1,41.9,33.963c-1.058.168-2.137.2-3.207.29-.14.012-.243,0-.288-.176a11.441,11.441,0,0,0-1.483-3.409.508.508,0,0,1-.034-.121c.12.013.223.028.326.036a17.2,17.2,0,0,0,7.3-.9,12.553,12.553,0,0,0,1.4-.686c.069-.036.157-.124.158-.188.011-.691.007-1.381.007-2.124a1.572,1.572,0,0,0-.322.173,6.888,6.888,0,0,1-3.451,1.609,15.913,15.913,0,0,1-7.115-.03.869.869,0,0,1-.364-.185,11.221,11.221,0,0,0-4.882-2.633.241.241,0,0,1-.224-.282c.007-1.559,0-3.118.007-4.676a3.224,3.224,0,0,1,1.622-2.671,10.525,10.525,0,0,1,4.492-1.626c.674-.1,1.353-.166,2.03-.246Zm-.962,1.811a15.563,15.563,0,0,0-3.968.485,6.654,6.654,0,0,0-2.769,1.335,1.043,1.043,0,0,0,0,1.784,5.834,5.834,0,0,0,2.365,1.214,15.641,15.641,0,0,0,8.392.093,6.552,6.552,0,0,0,2.777-1.319,1.012,1.012,0,0,0-.007-1.75,7.213,7.213,0,0,0-1.576-.922A13.4,13.4,0,0,0,38.79,17.924Z" style="fill:#8965ee"/><path d="M32.389,35.008h-6.4v1.631h.738a1.22,1.22,0,0,1,.191-.355,1.235,1.235,0,0,1,.776-.474,2.036,2.036,0,0,1,.409-.044,2.34,2.34,0,0,1,2,1.484q.617,1.13,1.25,2.455l-.562.3q-.174-.416-.845-1.741a2.107,2.107,0,0,0-1.675-1.282,1.009,1.009,0,0,0-.661.2.712.712,0,0,0-.338.587.605.605,0,0,0,.033.2.492.492,0,0,0,.529.332,1.909,1.909,0,0,0,.72-.169l.611,1.031a1.714,1.714,0,0,1-.927.278,1.331,1.331,0,0,1-.682-.185,2.086,2.086,0,0,1-.939-1.594h-.785a3.21,3.21,0,0,1-.4.513,1.9,1.9,0,0,1-.955.453l1.845,2.268-.64.58-2.346-2.984a6.415,6.415,0,0,1-.377-.535,1.408,1.408,0,0,1-.251-.753.513.513,0,0,1,.437-.578.682.682,0,0,1,.125-.011A.736.736,0,0,1,23.9,37a.694.694,0,0,0,.4-.06.833.833,0,0,0,.251-.361v-1.57H22.131l-.688-1.277H31.592Z" style="fill:#f4f1fd"/></g></svg>