<svg id="Layer_1" data-name="Layer 1" xmlns="http://www.w3.org/2000/svg" width="68" height="67" viewBox="0 0 68 67">
    <title>icon</title>
    <rect width="68" height="67" rx="20" style="fill:#FFF9F4" />
    <g id="sya10P.tif">
        <path
            d="M30.478,20.568h7.174a.613.613,0,0,0,.1.042,2.388,2.388,0,0,1,1.985,2.062,8.236,8.236,0,0,1,.008,1.157h.345c1.8,0,3.605-.01,5.407,0a2.375,2.375,0,0,1,2.286,1.5,4.937,4.937,0,0,1,.2.618v1.3a2.936,2.936,0,0,0-.047.291,12.05,12.05,0,0,1-.5,2.826,6.838,6.838,0,0,1-2.835,3.916,6.756,6.756,0,0,1-3.681.954c-1.113.009-2.227,0-3.341,0-.078,0-.156-.01-.248-.016,0-.573.01-1.124,0-1.676a2.378,2.378,0,0,0-2.008-2.326,14.678,14.678,0,0,0-1.924-.055A2.446,2.446,0,0,0,30.8,33.759v1.466a1.19,1.19,0,0,1-.129.016c-1.259,0-2.52.04-3.776-.013a6.278,6.278,0,0,1-5.905-4.087,12.143,12.143,0,0,1-.84-4.7,2.448,2.448,0,0,1,2.589-2.614q2.649,0,5.3,0h.319c0-.313-.013-.6,0-.888a2.371,2.371,0,0,1,1.352-2.105A5.647,5.647,0,0,1,30.478,20.568Zm7.663,3.252c0-.279,0-.531,0-.783A.816.816,0,0,0,37.3,22.2c-.38-.006-.76,0-1.14,0q-2.632,0-5.266,0a.805.805,0,0,0-.882.674A7.851,7.851,0,0,0,30,23.82Z"
            style="fill:#EE585B" />
        <path
            d="M47.978,33.123v11.3a1.047,1.047,0,0,1-1.095.6Q34,45.017,21.122,45.025a.844.844,0,0,1-.97-.958V33.085c.087.12.129.175.168.231a7.593,7.593,0,0,0,5.993,3.492c1.379.1,2.769.048,4.154.064.107,0,.213,0,.327,0,.007.089.011.151.018.212A2.427,2.427,0,0,0,33.018,39.3c.64.051,1.286.026,1.929.014a2.417,2.417,0,0,0,2.278-1.775c.06-.213.087-.436.131-.666.133,0,.259,0,.385,0,1.439-.035,2.881-.032,4.317-.118A6.86,6.86,0,0,0,46.571,34.8,21.255,21.255,0,0,0,47.978,33.123Z"
            style="fill:#EE585B" />
        <path
            d="M35.7,35.249c0,.516,0,1.031,0,1.546a.825.825,0,0,1-.9.892c-.5,0-.995,0-1.492,0a.816.816,0,0,1-.869-.865q-.006-1.587,0-3.174a.812.812,0,0,1,.856-.85q.773-.008,1.546,0a.814.814,0,0,1,.856.851C35.7,34.182,35.7,34.716,35.7,35.249Z"
            style="fill:#EE585B" />
    </g>
</svg>