<svg id="Layer_1" data-name="Layer 1" xmlns="http://www.w3.org/2000/svg" width="68" height="67" viewBox="0 0 68 67"><title>icon</title><rect width="68" height="67" rx="20" style="fill:#f1fbfd"/><g id="IV2dnP.tif"><path d="M37.2,16.53a1.241,1.241,0,0,1,.739,1.3c-.016.958.022,1.917.053,2.875a.7.7,0,0,0,.153.409,14.222,14.222,0,0,1,3.577,7.6,28.89,28.89,0,0,1,.17,2.932c.022.572.007,1.146,0,1.719a1.025,1.025,0,0,1-1.283,1.074,1.982,1.982,0,0,1-1.691-1.982c-.007-.992,0-1.984,0-2.976a.867.867,0,0,0-.583-.9,1.024,1.024,0,0,0-1.177.261,1.3,1.3,0,0,0-.215.7c-.014,2.921-.006,5.842-.013,8.762a4.416,4.416,0,0,1-.106,1.014A1.325,1.325,0,0,1,35.3,40.4a1.481,1.481,0,0,1-1.329-1.448c-.012-1.377,0-2.755,0-4.133q0-1.62,0-3.24c0-.711-.341-1.09-.983-1.093s-1,.38-1,1.109c0,2.425,0,4.85,0,7.274A1.488,1.488,0,1,1,29,38.849q0-3.687,0-7.373a.993.993,0,1,0-1.982-.062c-.007,1.18,0,2.359,0,3.538a1.48,1.48,0,0,1-.979,1.4A1.412,1.412,0,0,1,24.4,35.9a1.616,1.616,0,0,1-.341-.867,42.412,42.412,0,0,1,.167-5.942,13.871,13.871,0,0,1,3.549-7.669.821.821,0,0,0,.24-.613c-.013-.981.019-1.962-.015-2.942a1.248,1.248,0,0,1,.737-1.332Z" style="fill:#2667A9"/><path d="M49.9,43.98a8.882,8.882,0,0,1-.611.761q-2.6,2.617-5.21,5.218a1.039,1.039,0,0,1-1.706-.011c-.707-.726-1.421-1.446-2.119-2.182a.849.849,0,0,0-.633-.278,13.829,13.829,0,0,1-4.4-.968c-.037-.014-.072-.033-.149-.069a26.714,26.714,0,0,0,3.8-3.469,4.947,4.947,0,0,0,.969-5.566,9.514,9.514,0,0,0-.765-1.149c-.062-.091-.122-.184-.188-.284A14.921,14.921,0,0,0,40.4,36.4a2.976,2.976,0,0,0,3.483-2.937c.007-.505,0-1.009,0-1.585.1.108.157.164.207.227a14.443,14.443,0,0,1,3.115,8.273.862.862,0,0,0,.223.51c.641.653,1.313,1.275,1.955,1.926a5.932,5.932,0,0,1,.52.707Z" style="fill:#2667A9"/><path d="M22.056,31.889c0,1.062-.01,2.063,0,3.065A3.457,3.457,0,0,0,25.7,38.411a9.023,9.023,0,0,0,1.3-.245,12.365,12.365,0,0,0,.075,1.267,3.3,3.3,0,0,0,2.248,2.743,3.342,3.342,0,0,0,3.46-.65c.051-.042.1-.084.154-.125.007-.006.02-.006.063-.017a3.688,3.688,0,0,0,1.825.948,3.606,3.606,0,0,0,1.987-.208c-.544.573-1.062,1.207-1.668,1.744a14.224,14.224,0,0,1-8.9,3.638.855.855,0,0,0-.5.236c-.736.729-1.453,1.477-2.176,2.22a1.033,1.033,0,0,1-1.683.007l-5.4-5.4a1.034,1.034,0,0,1,0-1.684c.684-.688,1.376-1.368,2.044-2.071a.938.938,0,0,0,.229-.542,14.462,14.462,0,0,1,3.2-8.277A1.189,1.189,0,0,1,22.056,31.889Z" style="fill:#2667A9"/></g></svg>