<svg width="27" height="27" viewBox="0 0 27 27" fill="none" xmlns="http://www.w3.org/2000/svg">
<path d="M3.42002 24.1457H12.5831V26.7222H3.42002C1.96702 26.7222 0.802002 25.5756 0.802002 24.1457V3.53398C0.802002 2.11693 1.96702 0.95752 3.42002 0.95752H19.1282C20.5812 0.95752 21.7462 2.11693 21.7462 3.53398V14.5355L19.7827 13.4791L19.1282 13.8398V3.53398H12.5831V13.8398L9.31057 10.9413L6.03804 13.8398V3.53398H3.42002V24.1457ZM26.9822 20.281L19.7827 16.4163L12.5831 20.281L19.7827 24.1457L26.9822 20.281ZM15.2011 22.9734V25.5499L19.7827 28.0104L24.3642 25.5499V22.9734L19.7827 25.4339L15.2011 22.9734Z" fill="#EE585B"/>
</svg>
