<svg width="78" height="78" viewBox="0 0 78 78" fill="none" xmlns="http://www.w3.org/2000/svg">
<path d="M27.6775 7.54834V15.0967L28.5908 15.7056C30.3786 16.897 31.4517 18.9024 31.4517 21.0511V25.1612H59.1291V7.54834H27.6775Z" fill="#EE585B"/>
<path d="M27.6774 62.903H5.03223V42.7739H27.6774V62.903Z" fill="#EE585B"/>
<path d="M22.6451 70.4517H10.0645V72.9678H22.6451V70.4517Z" fill="#848484"/>
<path d="M64.1613 28.9355V0H7.54839V30.1935H6.29032C2.82184 30.1935 0 33.0154 0 36.4839V71.7097C0 75.1782 2.82184 78 6.29032 78H26.4194C29.8878 78 32.7097 75.1782 32.7097 71.7097V62.9032H70.4516V62.8718C74.6674 62.5485 78 59.0234 78 54.7258V28.9355H64.1613ZM6.29032 32.7097H26.4194C28.5002 32.7097 30.1935 34.403 30.1935 36.4839V37.7419H2.51613V36.4839C2.51613 34.403 4.20948 32.7097 6.29032 32.7097ZM30.1935 40.2581V65.4194H2.51613V40.2581H30.1935ZM26.4194 75.4839H6.29032C4.20948 75.4839 2.51613 73.7905 2.51613 71.7097V67.9355H30.1935V71.7097C30.1935 73.7905 28.5002 75.4839 26.4194 75.4839ZM26.4194 30.1935H10.0645V2.51613H61.6452V54.7258C61.6452 56.9224 62.5208 58.9164 63.9361 60.3871H32.7097V36.4839C32.7097 33.0154 29.8878 30.1935 26.4194 30.1935ZM75.4839 54.7258C75.4839 57.8471 72.9438 60.3871 69.8226 60.3871C66.7013 60.3871 64.1613 57.8471 64.1613 54.7258V31.4516H75.4839V54.7258Z" fill="#3B5CA5"/>
<path d="M32.7096 21.5418C32.7096 18.4105 30.8741 15.644 28.1114 14.3734C28.6209 13.4663 28.9354 12.4347 28.9354 11.3225C28.9354 7.85407 26.1136 5.03223 22.6451 5.03223C19.1766 5.03223 16.3548 7.85407 16.3548 11.3225C16.3548 12.4347 16.6693 13.4663 17.1788 14.3734C14.4161 15.644 12.5806 18.4105 12.5806 21.5418V27.6774H32.7096V21.5418ZM22.6451 7.54836C24.7259 7.54836 26.4193 9.24171 26.4193 11.3225C26.4193 13.4034 24.7259 15.0967 22.6451 15.0967C20.5642 15.0967 18.8709 13.4034 18.8709 11.3225C18.8709 9.24171 20.5642 7.54836 22.6451 7.54836ZM30.1935 25.1613H15.0967V21.5418C15.0967 19.1452 16.6756 17.0681 18.9552 16.3925C19.9943 17.1512 21.2625 17.6129 22.6451 17.6129C24.0277 17.6129 25.2958 17.1512 26.335 16.3925C28.6146 17.0681 30.1935 19.1452 30.1935 21.5418V25.1613Z" fill="#848484"/>
<path d="M37.742 30.1934H35.2258V32.7095H37.742V30.1934Z" fill="#848484"/>
<path d="M59.129 30.1934H40.2581V32.7095H59.129V30.1934Z" fill="#848484"/>
<path d="M59.1292 55.355H56.613V57.8711H59.1292V55.355Z" fill="#848484"/>
<path d="M54.0968 55.355H35.2258V57.8711H54.0968V55.355Z" fill="#848484"/>
<path d="M59.1291 50.3228H35.2258V52.8389H59.1291V50.3228Z" fill="#848484"/>
<path d="M59.1291 45.29H35.2258V47.8062H59.1291V45.29Z" fill="#848484"/>
<path d="M59.1291 40.2578H35.2258V42.7739H59.1291V40.2578Z" fill="#848484"/>
<path d="M59.1291 35.2261H35.2258V37.7422H59.1291V35.2261Z" fill="#848484"/>
<path d="M12.5806 47.8066H10.0645V50.3228H12.5806V47.8066Z" fill="#848484"/>
<path d="M22.6451 47.8066H15.0967V50.3228H22.6451V47.8066Z" fill="#848484"/>
<path d="M22.645 55.355H20.1289V57.8711H22.645V55.355Z" fill="#848484"/>
<path d="M17.6128 55.355H10.0645V57.8711H17.6128V55.355Z" fill="#848484"/>
</svg>
