<svg width="52" height="52" viewBox="0 0 52 52" fill="none" xmlns="http://www.w3.org/2000/svg">
    <path
        d="M37.8409 28.6604C35.5612 28.2016 33.213 28.2016 30.9333 28.6604C26.9447 29.4674 23.3571 31.627 20.7772 34.774C18.1972 37.9211 16.7832 41.8625 16.7742 45.9319C16.7743 46.8295 16.9735 47.7158 17.3575 48.5271C17.7415 49.3384 18.3007 50.0543 18.9948 50.6234C19.6889 51.1924 20.5007 51.6004 21.3715 51.8178C22.2423 52.0353 23.1505 52.0568 24.0307 51.8809C30.8676 50.5058 37.9099 50.5058 44.7468 51.8809C45.6267 52.0563 46.5346 52.0343 47.405 51.8166C48.2754 51.5989 49.0867 51.1908 49.7804 50.6218C50.4741 50.0529 51.033 49.3371 51.4168 48.5261C51.8006 47.7151 51.9998 46.8291 52 45.9319C51.9909 41.8625 50.5769 37.9211 47.997 34.774C45.417 31.627 41.8295 29.4674 37.8409 28.6604Z"
        fill="#2667A9" />
    <path
        d="M34.387 26.3087C38.5559 26.3087 41.9354 22.9292 41.9354 18.7603C41.9354 14.5914 38.5559 11.2119 34.387 11.2119C30.2182 11.2119 26.8386 14.5914 26.8386 18.7603C26.8386 22.9292 30.2182 26.3087 34.387 26.3087Z"
        fill="#2667A9" />
    <path
        d="M37.7419 5.03226H35.2258V2.51613C35.2258 1.84881 34.9607 1.20882 34.4888 0.736957C34.017 0.265091 33.377 0 32.7097 0H2.51613C1.84881 0 1.20882 0.265091 0.736957 0.736957C0.265091 1.20882 0 1.84881 0 2.51613V22.6452C0 23.3125 0.265091 23.9525 0.736957 24.4243C1.20882 24.8962 1.84881 25.1613 2.51613 25.1613H5.03226V27.6774C5.03226 28.3447 5.29735 28.9847 5.76922 29.4566C6.24108 29.9285 6.88107 30.1935 7.54839 30.1935H37.7419C38.4093 30.1935 39.0492 29.9285 39.5211 29.4566C39.993 28.9847 40.2581 28.3447 40.2581 27.6774V7.54839C40.2581 6.88107 39.993 6.24108 39.5211 5.76922C39.0492 5.29735 38.4093 5.03226 37.7419 5.03226ZM1.67742 22.6452V2.51613C1.67742 2.29369 1.76578 2.08036 1.92307 1.92307C2.08036 1.76578 2.29369 1.67742 2.51613 1.67742H32.7097C32.9321 1.67742 33.1454 1.76578 33.3027 1.92307C33.46 2.08036 33.5484 2.29369 33.5484 2.51613V22.6452C33.5484 22.8676 33.46 23.0809 33.3027 23.2382C33.1454 23.3955 32.9321 23.4839 32.7097 23.4839H2.51613C2.29369 23.4839 2.08036 23.3955 1.92307 23.2382C1.76578 23.0809 1.67742 22.8676 1.67742 22.6452ZM38.5806 27.6774C38.5806 27.8999 38.4923 28.1132 38.335 28.2705C38.1777 28.4278 37.9644 28.5161 37.7419 28.5161H7.54839C7.32595 28.5161 7.11262 28.4278 6.95533 28.2705C6.79804 28.1132 6.70968 27.8999 6.70968 27.6774V25.1613H32.7097C33.377 25.1613 34.017 24.8962 34.4888 24.4243C34.9607 23.9525 35.2258 23.3125 35.2258 22.6452V6.70968H37.7419C37.9644 6.70968 38.1777 6.79804 38.335 6.95533C38.4923 7.11262 38.5806 7.32595 38.5806 7.54839V27.6774Z"
        fill="#DC4346" />
    <path
        d="M10.0646 14.2581C11.1764 14.2594 12.2422 14.7017 13.0284 15.4878C13.8145 16.274 14.2568 17.3399 14.2581 18.4517C14.2581 18.6741 14.3465 18.8874 14.5038 19.0447C14.6611 19.202 14.8744 19.2904 15.0968 19.2904C15.3193 19.2904 15.5326 19.202 15.6899 19.0447C15.8472 18.8874 15.9355 18.6741 15.9355 18.4517C15.9355 16.8946 15.317 15.4013 14.216 14.3003C13.115 13.1992 11.6216 12.5807 10.0646 12.5807C8.50749 12.5807 7.01419 13.1992 5.91317 14.3003C4.81215 15.4013 4.1936 16.8946 4.1936 18.4517C4.1936 18.6741 4.28197 18.8874 4.43926 19.0447C4.59654 19.202 4.80987 19.2904 5.03231 19.2904C5.25475 19.2904 5.46808 19.202 5.62537 19.0447C5.78266 18.8874 5.87102 18.6741 5.87102 18.4517C5.87235 17.3399 6.3146 16.274 7.10076 15.4878C7.88691 14.7017 8.95278 14.2594 10.0646 14.2581Z"
        fill="#DC4346" />
    <path
        d="M10.0646 10.9033C10.7281 10.9033 11.3767 10.7065 11.9284 10.3379C12.4801 9.96926 12.9101 9.4453 13.164 8.83229C13.4179 8.21927 13.4844 7.54472 13.3549 6.89395C13.2255 6.24317 12.906 5.6454 12.4368 5.17621C11.9676 4.70703 11.3698 4.38751 10.7191 4.25807C10.0683 4.12862 9.39373 4.19506 8.78071 4.44898C8.1677 4.7029 7.64374 5.13289 7.27511 5.6846C6.90647 6.2363 6.70972 6.88492 6.70972 7.54844C6.70972 8.4382 7.06317 9.29152 7.69233 9.92067C8.32148 10.5498 9.1748 10.9033 10.0646 10.9033ZM10.0646 5.87102C10.3963 5.87102 10.7206 5.9694 10.9965 6.15372C11.2723 6.33804 11.4873 6.60002 11.6143 6.90652C11.7412 7.21303 11.7745 7.5503 11.7097 7.87569C11.645 8.20108 11.4853 8.49997 11.2507 8.73456C11.0161 8.96915 10.7172 9.12891 10.3918 9.19363C10.0664 9.25836 9.72914 9.22514 9.42264 9.09818C9.11613 8.97122 8.85415 8.75622 8.66983 8.48037C8.48552 8.20452 8.38714 7.88021 8.38714 7.54844C8.38714 7.10356 8.56386 6.67691 8.87844 6.36233C9.19302 6.04775 9.61968 5.87102 10.0646 5.87102Z"
        fill="#DC4346" />
    <path
        d="M19.2904 7.54851H30.1936C30.416 7.54851 30.6294 7.46015 30.7867 7.30286C30.9439 7.14557 31.0323 6.93224 31.0323 6.7098C31.0323 6.48736 30.9439 6.27403 30.7867 6.11675C30.6294 5.95946 30.416 5.87109 30.1936 5.87109H19.2904C19.0679 5.87109 18.8546 5.95946 18.6973 6.11675C18.54 6.27403 18.4517 6.48736 18.4517 6.7098C18.4517 6.93224 18.54 7.14557 18.6973 7.30286C18.8546 7.46015 19.0679 7.54851 19.2904 7.54851Z"
        fill="#DC4346" />
    <path
        d="M19.2904 12.5806H30.1936C30.416 12.5806 30.6294 12.4923 30.7867 12.335C30.9439 12.1777 31.0323 11.9643 31.0323 11.7419C31.0323 11.5195 30.9439 11.3061 30.7867 11.1489C30.6294 10.9916 30.416 10.9032 30.1936 10.9032H19.2904C19.0679 10.9032 18.8546 10.9916 18.6973 11.1489C18.54 11.3061 18.4517 11.5195 18.4517 11.7419C18.4517 11.9643 18.54 12.1777 18.6973 12.335C18.8546 12.4923 19.0679 12.5806 19.2904 12.5806Z"
        fill="#DC4346" />
    <path
        d="M19.2904 17.613H30.1936C30.416 17.613 30.6294 17.5246 30.7867 17.3673C30.9439 17.21 31.0323 16.9967 31.0323 16.7743C31.0323 16.5518 30.9439 16.3385 30.7867 16.1812C30.6294 16.0239 30.416 15.9355 30.1936 15.9355H19.2904C19.0679 15.9355 18.8546 16.0239 18.6973 16.1812C18.54 16.3385 18.4517 16.5518 18.4517 16.7743C18.4517 16.9967 18.54 17.21 18.6973 17.3673C18.8546 17.5246 19.0679 17.613 19.2904 17.613Z"
        fill="#DC4346" />
</svg>