<svg width="52" height="52" viewBox="0 0 52 52" fill="none" xmlns="http://www.w3.org/2000/svg">
<path d="M34.8839 33.5338C44.1202 33.5338 51.6078 26.027 51.6078 16.7669C51.6078 7.5068 44.1202 0 34.8839 0C25.6475 0 18.1599 7.5068 18.1599 16.7669C18.1599 26.027 25.6475 33.5338 34.8839 33.5338Z" fill="#EE585B"/>
<path d="M34.8839 0C34.2139 0 33.5535 0.0406455 32.9041 0.117516C41.2072 1.09945 47.6483 8.17849 47.6483 16.7669C47.6483 25.3553 41.2072 32.4344 32.9041 33.4163C33.5534 33.4931 34.2138 33.5338 34.8839 33.5338C44.1203 33.5338 51.6079 26.027 51.6079 16.7669C51.6079 7.50683 44.1203 0 34.8839 0Z" fill="#EE585B"/>
<path d="M39.8173 9.58166C39.4782 9.35153 39.0164 9.43964 38.7862 9.77903L29.8658 22.921C29.6355 23.2602 29.7238 23.722 30.0631 23.9522C30.1908 24.0389 30.3358 24.0805 30.4793 24.0805C30.7171 24.0805 30.9507 23.9664 31.0942 23.7549L40.0146 10.613C40.245 10.2737 40.1567 9.81189 39.8173 9.58166Z" fill="white"/>
<path d="M39.7715 17.1923C38.2265 17.1923 36.9695 18.7372 36.9695 20.6363C36.9695 22.5354 38.2265 24.0803 39.7715 24.0803C41.3164 24.0803 42.5735 22.5354 42.5735 20.6363C42.5735 18.7372 41.3165 17.1923 39.7715 17.1923ZM39.7715 22.5954C39.0575 22.5954 38.4543 21.6982 38.4543 20.6363C38.4543 19.5743 39.0576 18.6771 39.7715 18.6771C40.4855 18.6771 41.0886 19.5743 41.0886 20.6363C41.0887 21.6982 40.4856 22.5954 39.7715 22.5954Z" fill="white"/>
<path d="M32.7978 12.8975C32.7978 10.9984 31.5408 9.45349 29.9959 9.45349C28.4509 9.45349 27.1938 10.9984 27.1938 12.8975C27.1938 14.7966 28.4508 16.3415 29.9959 16.3415C31.5408 16.3415 32.7978 14.7966 32.7978 12.8975ZM28.6787 12.8975C28.6787 11.8355 29.282 10.9384 29.9959 10.9384C30.7098 10.9384 31.313 11.8355 31.313 12.8975C31.313 13.9595 30.7098 14.8567 29.9959 14.8567C29.282 14.8567 28.6787 13.9596 28.6787 12.8975Z" fill="white"/>
<path d="M13.8969 49.5195C13.8969 50.8894 10.786 52 6.94845 52C3.11093 52 0 50.8894 0 49.5195C0 48.7794 0 45.5637 0 45.5637H13.897C13.8969 45.5637 13.8969 48.1496 13.8969 49.5195Z" fill="#FFE563"/>
<path d="M9.22901 45.5637V49.5195C9.22901 50.597 7.30369 51.5138 4.6145 51.8562C5.34415 51.949 6.12953 52 6.94855 52C10.7861 52 13.897 50.8894 13.897 49.5195C13.897 48.1496 13.897 45.5637 13.897 45.5637H9.22901Z" fill="#FFDC2E"/>
<path d="M13.8969 45.5638C13.8969 46.9337 10.786 48.0443 6.94845 48.0443C3.11093 48.0443 0 46.9337 0 45.5638C0 44.8237 0 41.608 0 41.608H13.897C13.8969 41.6079 13.8969 44.1938 13.8969 45.5638Z" fill="#FFB700"/>
<path d="M9.22901 41.6078V45.5636C9.22901 46.6411 7.30369 47.5579 4.6145 47.9002C5.34415 47.9931 6.12953 48.0441 6.94855 48.0441C10.7861 48.0441 13.897 46.9335 13.897 45.5636C13.897 44.1937 13.897 41.6078 13.897 41.6078H9.22901Z" fill="#F5B000"/>
<path d="M13.8969 41.6078C13.8969 42.9777 10.786 44.0883 6.94845 44.0883C3.11093 44.0883 0 42.9777 0 41.6078C0 40.8677 0 37.652 0 37.652H13.897C13.8969 37.652 13.8969 40.2378 13.8969 41.6078Z" fill="#FFE563"/>
<path d="M9.22901 37.652V41.6078C9.22901 42.6853 7.30369 43.6021 4.6145 43.9444C5.34415 44.0373 6.12953 44.0883 6.94855 44.0883C10.7861 44.0883 13.897 42.9777 13.897 41.6078C13.897 40.2378 13.897 37.652 13.897 37.652H9.22901Z" fill="#FFDC2E"/>
<path d="M13.8969 37.6522C13.8969 39.0221 10.786 40.1327 6.94845 40.1327C3.11093 40.1327 0 39.0221 0 37.6522C0 36.9121 0 33.6964 0 33.6964H13.897C13.8969 33.6963 13.8969 36.2822 13.8969 37.6522Z" fill="#FFB700"/>
<path d="M9.22901 33.6963V37.6521C9.22901 38.7297 7.30369 39.6464 4.6145 39.9887C5.34415 40.0816 6.12953 40.1326 6.94855 40.1326C10.7861 40.1326 13.897 39.022 13.897 37.6521C13.897 36.2822 13.897 33.6963 13.897 33.6963H9.22901Z" fill="#F5B000"/>
<path d="M6.94845 36.1767C10.786 36.1767 13.8969 35.0662 13.8969 33.6962C13.8969 32.3263 10.786 31.2157 6.94845 31.2157C3.11093 31.2157 0 32.3263 0 33.6962C0 35.0662 3.11093 36.1767 6.94845 36.1767Z" fill="#FFE563"/>
<path d="M27.7939 49.5195C27.7939 50.8894 24.6829 52 20.8454 52C17.0079 52 13.897 50.8894 13.897 49.5195C13.897 48.7794 13.897 45.5637 13.897 45.5637H27.7939V49.5195Z" fill="#FFB700"/>
<path d="M23.1257 45.5637V49.5195C23.1257 50.597 21.2004 51.5138 18.5112 51.8562C19.2409 51.949 20.0263 52 20.8453 52C24.6828 52 27.7937 50.8894 27.7937 49.5195C27.7937 48.1496 27.7937 45.5637 27.7937 45.5637H23.1257Z" fill="#F5B000"/>
<path d="M27.7939 45.5638C27.7939 46.9337 24.6829 48.0443 20.8454 48.0443C17.0079 48.0443 13.897 46.9337 13.897 45.5638C13.897 44.8237 13.897 41.608 13.897 41.608H27.7939C27.7939 41.6079 27.7939 44.1938 27.7939 45.5638Z" fill="#FFE563"/>
<path d="M23.1257 41.6078V45.5636C23.1257 46.6411 21.2004 47.5579 18.5112 47.9002C19.2409 47.9931 20.0263 48.0441 20.8453 48.0441C24.6828 48.0441 27.7937 46.9335 27.7937 45.5636C27.7937 44.1937 27.7937 41.6078 27.7937 41.6078H23.1257Z" fill="#FFDC2E"/>
<path d="M27.7939 41.6078C27.7939 42.9777 24.6829 44.0883 20.8454 44.0883C17.0079 44.0883 13.897 42.9777 13.897 41.6078C13.897 40.8677 13.897 37.652 13.897 37.652H27.7939V41.6078Z" fill="#FFB700"/>
<path d="M23.1257 37.652V41.6078C23.1257 42.6853 21.2004 43.6021 18.5112 43.9444C19.2409 44.0373 20.0263 44.0883 20.8453 44.0883C24.6828 44.0883 27.7937 42.9777 27.7937 41.6078C27.7937 40.2378 27.7937 37.652 27.7937 37.652H23.1257Z" fill="#F5B000"/>
<path d="M27.7939 37.6521C27.7939 39.022 24.6829 40.1326 20.8454 40.1326C17.0079 40.1326 13.897 39.022 13.897 37.6521C13.897 36.912 13.897 33.6963 13.897 33.6963H27.7939C27.7939 33.6962 27.7939 36.282 27.7939 37.6521Z" fill="#FFE563"/>
<path d="M23.1257 33.6962V37.6519C23.1257 38.7296 21.2004 39.6463 18.5112 39.9886C19.2409 40.0815 20.0263 40.1325 20.8453 40.1325C24.6828 40.1325 27.7937 39.0219 27.7937 37.6519C27.7937 36.282 27.7937 33.6962 27.7937 33.6962H23.1257Z" fill="#FFDC2E"/>
<path d="M27.7939 33.6334C27.7939 35.0033 24.6829 36.1139 20.8454 36.1139C17.0079 36.1139 13.897 35.0033 13.897 33.6334C13.897 32.8933 13.897 29.6776 13.897 29.6776H27.7939C27.7939 29.6775 27.7939 32.2634 27.7939 33.6334Z" fill="#FFB700"/>
<path d="M23.1257 29.6775V33.6333C23.1257 34.7108 21.2004 35.6276 18.5112 35.9699C19.2409 36.0628 20.0263 36.1138 20.8453 36.1138C24.6828 36.1138 27.7937 35.0032 27.7937 33.6333C27.7937 32.2634 27.7937 29.6775 27.7937 29.6775H23.1257Z" fill="#F5B000"/>
<path d="M27.7941 29.6148C27.7941 30.9848 24.6832 32.0954 20.8457 32.0954C17.0081 32.0954 13.8972 30.9848 13.8972 29.6148C13.8972 28.8748 13.8972 25.6591 13.8972 25.6591H27.7941C27.7941 25.6589 27.7941 28.2448 27.7941 29.6148Z" fill="#FFE563"/>
<path d="M23.126 25.6589V29.6147C23.126 30.6922 21.2007 31.609 18.5115 31.9514C19.2411 32.0443 20.0265 32.0952 20.8455 32.0952C24.683 32.0952 27.794 30.9846 27.794 29.6147C27.794 28.2448 27.794 25.6589 27.794 25.6589H23.126Z" fill="#FFDC2E"/>
<path d="M20.8454 28.1394C24.6829 28.1394 27.7938 27.0288 27.7938 25.6589C27.7938 24.2889 24.6829 23.1783 20.8454 23.1783C17.0079 23.1783 13.897 24.2889 13.897 25.6589C13.897 27.0288 17.0079 28.1394 20.8454 28.1394Z" fill="#FFB700"/>
<path d="M41.6908 45.5637V49.5195C41.6908 49.5195 38.5799 52 34.7424 52C30.9049 52 27.7939 50.8894 27.7939 49.5195C27.7939 48.7794 27.7939 45.5637 27.7939 45.5637H41.6908Z" fill="#FFE563"/>
<path d="M37.0227 45.5637V49.5195C37.0227 50.597 35.0974 51.5138 32.4082 51.8562C33.1378 51.949 33.9232 52 34.7423 52C38.5798 52 41.6907 50.8894 41.6907 49.5195C41.6907 48.1496 41.6907 45.5637 41.6907 45.5637H37.0227Z" fill="#FFDC2E"/>
<path d="M41.6908 45.5638C41.6908 46.9337 38.5799 48.0443 34.7424 48.0443C30.9049 48.0443 27.7939 46.9337 27.7939 45.5638C27.7939 44.8237 27.7939 41.608 27.7939 41.608H41.691C41.6908 41.6079 41.6908 44.1938 41.6908 45.5638Z" fill="#FFB700"/>
<path d="M37.023 41.6079V45.5637C37.023 46.6412 35.0976 47.558 32.4084 47.9003C33.1381 47.9932 33.9235 48.0442 34.7425 48.0442C38.58 48.0442 41.6909 46.9336 41.6909 45.5637C41.6909 44.1938 41.6909 41.6079 41.6909 41.6079H37.023Z" fill="#F5B000"/>
<path d="M34.7424 44.0884C38.5799 44.0884 41.6908 42.9778 41.6908 41.6078C41.6908 40.2379 38.5799 39.1273 34.7424 39.1273C30.9049 39.1273 27.7939 40.2379 27.7939 41.6078C27.7939 42.9778 30.9049 44.0884 34.7424 44.0884Z" fill="#FFE563"/>
</svg>
