<svg id="Layer_1" data-name="Layer 1" xmlns="http://www.w3.org/2000/svg" width="68" height="67" viewBox="0 0 68 67">
    <title>icon</title>
    <rect width="68" height="67" rx="20" style="fill:#FFF9F4" />
    <g id="W1nrPa.tif">
        <path
            d="M17.141,38.561V20.949a.335.335,0,0,0,.04-.089,3.041,3.041,0,0,1,3.107-2.606c7.354.012,14.708,0,22.061.018a3.481,3.481,0,0,1,1.44.307,2.95,2.95,0,0,1,1.72,2.89q0,2.258,0,4.516V26.4H45.9c.986,0,1.971,0,2.957,0a2.056,2.056,0,0,1,.514.048,1.432,1.432,0,0,1,1.043,1.562q0,9.828,0,19.657c0,1.191-.511,1.7-1.7,1.7H38.648c-.108,0-.217,0-.325-.008a1.451,1.451,0,0,1-1.429-1.5c0-.169,0-.338,0-.529h-.433q-6.32,0-12.639,0a1.063,1.063,0,0,1-1.169-1.165c0-.542.031-1.085-.008-1.624a1.156,1.156,0,0,1,1.3-1.286c1.223.031,2.448.008,3.672.008h.4V41.233H24.334q-2.047,0-4.094,0a2.845,2.845,0,0,1-2.519-1.285A7.8,7.8,0,0,1,17.141,38.561Zm3.606-16.694V34.988H36.893v-.369q0-3.28,0-6.561A1.486,1.486,0,0,1,38.56,26.4c1,0,1.993,0,2.989,0h.345V21.867Zm18.314,7.894V44.078h9.185V29.761ZM36.869,43.253v-2H34.637v2Zm6.849,4.637a1.151,1.151,0,1,0-1.151-1.162A1.164,1.164,0,0,0,43.718,47.89Z"
            style="fill:#EE585B" />
    </g>
</svg>