<svg width="24" height="35" viewBox="0 0 24 35" fill="none" xmlns="http://www.w3.org/2000/svg">
<path d="M10.2857 3.5H13.7143L15.4286 0H8.57143L10.2857 3.5ZM0 19.25V35H24V19.25C24 14.42 20.16 10.5 15.4286 10.5V7H17.1429V5.25H6.85714V7H8.57143V10.5C3.84 10.5 0 14.42 0 19.25ZM3.42857 19.25C3.42857 16.3625 5.74286 14 8.57143 14H15.4286C18.2571 14 20.5714 16.3625 20.5714 19.25V31.5H3.42857V19.25ZM6.85714 24.5H10.2857V28H13.7143V24.5H17.1429V21H13.7143V17.5H10.2857V21H6.85714V24.5Z" fill="#3BB54A"/>
</svg>
