<svg width="68" height="67" viewBox="0 0 68 67" fill="none" xmlns="http://www.w3.org/2000/svg">
    <rect width="68" height="67" rx="20" fill="#FFF9F4" />
    <path
        d="M32.2857 17.5H35.7143L37.4286 14H30.5714L32.2857 17.5ZM22 33.25V49H46V33.25C46 28.42 42.16 24.5 37.4286 24.5V21H39.1429V19.25H28.8571V21H30.5714V24.5C25.84 24.5 22 28.42 22 33.25ZM25.4286 33.25C25.4286 30.3625 27.7429 28 30.5714 28H37.4286C40.2571 28 42.5714 30.3625 42.5714 33.25V45.5H25.4286V33.25ZM28.8571 38.5H32.2857V42H35.7143V38.5H39.1429V35H35.7143V31.5H32.2857V35H28.8571V38.5Z"
        fill="#EE585B" />
</svg>