<svg width="27" height="27" viewBox="0 0 27 27" fill="none" xmlns="http://www.w3.org/2000/svg">
<path d="M25.2683 20.4878C25.9928 20.4878 26.6876 20.2 27.1999 19.6877C27.7122 19.1754 28 18.4806 28 17.7561V2.73171C28 2.00721 27.7122 1.31239 27.1999 0.800098C26.6876 0.287804 25.9928 0 25.2683 0H10.8722C11.3502 0.833171 11.6098 1.77561 11.6098 2.73171H25.2683V17.7561H12.9756V20.4878H25.2683ZM18.439 6.82927V9.56098H10.2439V27.3171H7.5122V19.122H4.78049V27.3171H2.04878V16.3902H0V9.56098C0 8.83648 0.287804 8.14166 0.800098 7.62937C1.31239 7.11707 2.00721 6.82927 2.73171 6.82927H18.439ZM8.87805 2.73171C8.87805 3.4562 8.59025 4.15102 8.07795 4.66332C7.56566 5.17561 6.87084 5.46341 6.14634 5.46341C5.42185 5.46341 4.72703 5.17561 4.21473 4.66332C3.70244 4.15102 3.41463 3.4562 3.41463 2.73171C3.41463 2.00721 3.70244 1.31239 4.21473 0.800098C4.72703 0.287804 5.42185 0 6.14634 0C6.87084 0 7.56566 0.287804 8.07795 0.800098C8.59025 1.31239 8.87805 2.00721 8.87805 2.73171Z" fill="#EE585B"/>
</svg>
