<svg width="46" height="53" viewBox="0 0 46 53" fill="none" xmlns="http://www.w3.org/2000/svg">
<path d="M44.6768 52.3357H6.59497V1.06371C6.59497 0.476352 7.07132 0 7.65868 0H44.6768C45.2642 0 45.7405 0.476352 45.7405 1.06371V51.272C45.7405 51.8593 45.2642 52.3357 44.6768 52.3357Z" fill="#DDF5FF"/>
<path d="M42.9746 0V20.6237C42.9746 21.4774 42.0131 21.9917 41.3128 21.5029C39.7624 20.4209 37.8777 19.7856 35.8477 19.7856C30.5687 19.7856 26.274 24.0804 26.274 29.3594C26.274 29.4256 26.2748 29.4915 26.276 29.5578C26.2883 30.1508 25.8064 30.6359 25.213 30.6359H6.59497V52.3357H36.8052V39.8028C36.8052 39.2949 37.1638 38.8561 37.6625 38.7598C38.9913 38.5035 40.2231 37.9716 41.296 37.2258C42.0052 36.733 42.9746 37.2262 42.9746 38.0898V52.3357H44.6764C45.2642 52.3357 45.7401 51.8593 45.7401 51.272V1.06371C45.7405 0.476352 45.2642 0 44.6768 0H42.9746Z" fill="#C1E9F4"/>
<path d="M26.1679 4.46777H15.318C14.1429 4.46777 13.1902 5.42008 13.1902 6.59519V15.9561C13.1902 17.1312 14.1429 18.0835 15.318 18.0835H37.0178C38.1929 18.0835 39.1456 17.1312 39.1456 15.9561V6.59519C39.1456 5.42008 38.1929 4.46777 37.0178 4.46777H26.1679Z" fill="#FFDA88"/>
<path d="M37.0176 4.46777H34.9968C36.1715 4.46777 37.1242 5.42008 37.1242 6.59519V15.9561C37.1242 17.1312 36.1715 18.0835 34.9968 18.0835H37.0176C38.1927 18.0835 39.1454 17.1312 39.1454 15.9561V6.59519C39.1454 5.42048 38.1927 4.46777 37.0176 4.46777Z" fill="#FFCD69"/>
<path d="M1.06371 32.7627C0.476352 32.7627 0 33.239 0 33.8264V51.2718C0 51.8591 0.476352 52.3351 1.06371 52.3351H33.6142C34.2015 52.3351 34.6779 51.8591 34.6779 51.2718V32.7627H1.06371Z" fill="#ABDE97"/>
<path d="M32.8696 32.7627V52.3355H33.6143C34.2017 52.3355 34.678 51.8591 34.678 51.2718V32.7627H32.8696Z" fill="#82CD64"/>
<path d="M17.3387 49.0381H6.91524C6.45885 49.0381 6.04519 48.7502 5.90783 48.3154C5.65388 47.5116 5.09009 46.8971 4.26316 46.6348C3.81755 46.4934 3.5105 46.0857 3.5105 45.6182V39.5338C3.5105 39.0842 3.80078 38.6953 4.22323 38.5412C5.02301 38.2493 5.63392 37.6264 5.90344 36.8598C6.05078 36.4405 6.45566 36.167 6.90007 36.167H27.7578C28.2129 36.167 28.6302 36.4473 28.7759 36.8781C29.0479 37.6807 29.654 38.2868 30.4562 38.5583C30.8874 38.7045 31.1673 39.1217 31.1673 39.5765V45.619C31.1673 46.0774 30.8774 46.4946 30.439 46.6284C29.6244 46.8771 29.0223 47.4629 28.7632 48.2922C28.6266 48.7306 28.2345 49.0385 27.7753 49.0385H17.3387V49.0381Z" fill="#6DC54A"/>
<path d="M29.6005 39.7897C29.6105 39.7941 29.6205 39.7985 29.6305 39.8025C29.7068 39.8349 29.7575 39.9083 29.7575 39.991V45.2141C29.7575 45.2971 29.7068 45.3702 29.6305 45.4026C28.6878 45.8026 27.9315 46.5589 27.5318 47.5016C27.4991 47.5779 27.426 47.6286 27.3434 47.6286H5.58447C5.71464 47.8274 5.81965 48.0467 5.89712 48.283C6.04326 48.7278 6.44534 49.0385 6.91371 49.0385H27.7754C28.2346 49.0385 28.6267 48.7302 28.7632 48.2922C29.0224 47.4629 29.6249 46.8771 30.4391 46.6284C30.8771 46.4946 31.1674 46.0774 31.1674 45.619V39.5765C31.1674 39.1217 30.8875 38.7045 30.4562 38.5583C29.654 38.2868 29.0479 37.6807 28.776 36.8781C28.6303 36.4473 28.213 36.167 27.7578 36.167H27.4807V36.4916C27.4807 37.9111 28.2985 39.2248 29.6005 39.7897Z" fill="#5DB33A"/>
<path d="M43.2941 29.359C43.2941 33.4717 39.96 36.8054 35.8477 36.8054C31.7354 36.8054 28.4014 33.4717 28.4014 29.359C28.4014 25.2468 31.7354 21.9131 35.8477 21.9131C39.96 21.9131 43.2941 25.2468 43.2941 29.359Z" fill="#FF5781"/>
<path d="M40.375 23.4492C41.3377 24.7038 41.9111 26.2726 41.9111 27.9764C41.9111 32.0886 38.5774 35.4227 34.4651 35.4227C32.7614 35.4227 31.1926 34.8493 29.938 33.8866C31.2988 35.6607 33.4394 36.8055 35.8479 36.8055C39.9602 36.8055 43.2942 33.4718 43.2942 29.3591C43.2942 26.9506 42.1491 24.81 40.375 23.4492Z" fill="#E04955"/>
<path d="M20.7428 6.96729H16.488C16.0475 6.96729 15.6902 7.32425 15.6902 7.76507C15.6902 8.20548 16.0472 8.56285 16.488 8.56285H17.8176V14.7858C17.8176 15.2262 18.175 15.5836 18.6154 15.5836C19.0562 15.5836 19.4132 15.2262 19.4132 14.7858V8.56285H20.7428C21.1836 8.56285 21.5406 8.20548 21.5406 7.76507C21.5406 7.32425 21.1836 6.96729 20.7428 6.96729Z" fill="#495959"/>
<path d="M27.2316 6.96729H25.1042C24.0776 6.96729 23.2427 7.8022 23.2427 8.82877V14.7854C23.2427 15.2262 23.6 15.5832 24.0405 15.5832C24.4809 15.5832 24.8382 15.2262 24.8382 14.7854V12.073H27.4975V14.7854C27.4975 15.2262 27.8549 15.5832 28.2953 15.5832C28.7361 15.5832 29.0931 15.2262 29.0931 14.7854V8.82877C29.0931 7.8022 28.2582 6.96729 27.2316 6.96729ZM24.8382 10.4774V8.82877C24.8382 8.68223 24.9576 8.56285 25.1042 8.56285H27.2316C27.3781 8.56285 27.4975 8.68183 27.4975 8.82877V10.4774H24.8382Z" fill="#495959"/>
<path d="M34.6532 11.2754L36.5302 8.17854C36.7586 7.80201 36.638 7.31128 36.2611 7.08289C35.8846 6.85449 35.3938 6.97508 35.1654 7.35161L33.7204 9.73616L32.275 7.35161C32.047 6.97508 31.5563 6.85449 31.1793 7.08289C30.8028 7.31128 30.6822 7.80161 30.9106 8.17854L32.7873 11.2754L30.9106 14.3723C30.6822 14.7488 30.8024 15.2396 31.1793 15.468C31.3087 15.5462 31.4513 15.5834 31.5922 15.5834C31.8617 15.5834 32.1253 15.4468 32.275 15.1992L33.7204 12.8147L35.1654 15.1992C35.3156 15.4468 35.5787 15.5834 35.8486 15.5834C35.9896 15.5834 36.1321 15.5462 36.2611 15.468C36.638 15.2396 36.7586 14.7488 36.5302 14.3723L34.6532 11.2754Z" fill="#495959"/>
<path d="M21.7989 41.7966H21.2474C20.8769 39.9782 19.2654 38.6055 17.3388 38.6055C15.4126 38.6055 13.8007 39.9782 13.4302 41.7966H12.8652C12.4247 41.7966 12.0674 42.154 12.0674 42.5944C12.0674 43.0352 12.4247 43.3922 12.8652 43.3922H13.4302C13.8007 45.2109 15.4126 46.5837 17.3388 46.5837C19.2654 46.5837 20.8769 45.2109 21.2474 43.3922H21.7989C22.2393 43.3922 22.5966 43.0352 22.5966 42.5944C22.5966 42.154 22.2393 41.7966 21.7989 41.7966ZM17.3388 44.9877C16.0192 44.9877 14.9455 43.914 14.9455 42.5944C14.9455 41.2747 16.0192 40.201 17.3388 40.201C18.6585 40.201 19.7321 41.2747 19.7321 42.5944C19.7321 43.914 18.6585 44.9877 17.3388 44.9877Z" fill="#5DB33A"/>
<path d="M27.2064 41.7969H24.5284C24.0876 41.7969 23.7302 42.1542 23.7302 42.5947C23.7302 43.0355 24.0876 43.3924 24.5284 43.3924H27.2064C27.6473 43.3924 28.0046 43.0355 28.0046 42.5947C28.0046 42.1542 27.6473 41.7969 27.2064 41.7969Z" fill="#5DB33A"/>
<path d="M10.1496 41.7969H7.47112C7.0307 41.7969 6.67334 42.1542 6.67334 42.5947C6.67334 43.0355 7.0307 43.3924 7.47112 43.3924H10.1496C10.59 43.3924 10.9473 43.0355 10.9473 42.5947C10.9473 42.1542 10.5904 41.7969 10.1496 41.7969Z" fill="#5DB33A"/>
<path d="M35.3235 27.2107V26.4393C35.3235 25.5133 34.5701 24.7603 33.6445 24.7603C32.7185 24.7603 31.9651 25.5133 31.9651 26.4393V27.2107C31.9651 28.1366 32.7185 28.8897 33.6445 28.8897C34.5701 28.8897 35.3235 28.1366 35.3235 27.2107Z" fill="#495959"/>
<path d="M38.0515 29.8281C37.1255 29.8281 36.3721 30.5816 36.3721 31.5071V32.2786C36.3721 33.2045 37.1255 33.9576 38.0515 33.9576C38.977 33.9576 39.7305 33.2045 39.7305 32.2786V31.5071C39.7305 30.5816 38.977 29.8281 38.0515 29.8281Z" fill="#495959"/>
<path d="M38.2001 24.8503C37.8092 24.6467 37.3276 24.798 37.1236 25.1889L33.1575 32.7906C32.9538 33.1811 33.1051 33.663 33.4957 33.8671C33.6134 33.9286 33.7396 33.9577 33.8642 33.9577C34.1517 33.9577 34.4296 33.8016 34.5721 33.5289L38.5383 25.9268C38.7419 25.5363 38.5906 25.0544 38.2001 24.8503Z" fill="#495959"/>
<path d="M26.8059 23.1361H13.1901C12.7497 23.1361 12.3923 22.7791 12.3923 22.3383C12.3923 21.8979 12.7497 21.5405 13.1901 21.5405H26.8059C27.2467 21.5405 27.6041 21.8979 27.6041 22.3383C27.6041 22.7791 27.2467 23.1361 26.8059 23.1361Z" fill="#495959"/>
<path d="M22.5511 30.263H13.1901C12.7497 30.263 12.3923 29.9056 12.3923 29.4652C12.3923 29.0244 12.7497 28.667 13.1901 28.667H22.5511C22.9919 28.667 23.3488 29.0244 23.3488 29.4652C23.3488 29.9056 22.9919 30.263 22.5511 30.263Z" fill="#495959"/>
<path d="M22.5511 26.6996H13.1901C12.7497 26.6996 12.3923 26.3426 12.3923 25.9018C12.3923 25.4614 12.7497 25.104 13.1901 25.104H22.5511C22.9919 25.104 23.3488 25.461 23.3488 25.9018C23.3488 26.3426 22.9919 26.6996 22.5511 26.6996Z" fill="#495959"/>
</svg>
