<?xml version="1.0" encoding="UTF-8"?>
<svg fill:#3c5ca5 id="Layer_1" data-name="Layer 1" xmlns="http://www.w3.org/2000/svg" viewBox="0 0 100 100">
  <defs>
    <style>
      .cls-1 {
        fill: #EE585B;
      }

      .cls-2 {
        fill: #3c5ca5;
      }
    </style>
  </defs>
  <rect class="cls-1" x="14.08" y="16.83" width="25.45" height="32.02"/>
  <path class="cls-1" d="M44.51,69.07h.89c8.07,0,14.62,6.55,14.62,14.62v5.78h-27.28v-8.62c0-6.5,5.28-11.78,11.78-11.78Z"/>
  <path class="cls-1" d="M30.71,55.92h52.95c0,10.22-8.3,18.52-18.52,18.52H32.24c-2.59,0-4.69-2.1-4.69-4.69v-10.68c0-1.74,1.41-3.16,3.16-3.16Z"/>
  <path class="cls-2" d="M84.24,48.6h-1.02c-.7-1.91-2.52-3.24-4.65-3.24h-31.32c-.81,0-1.59,.2-2.27,.54V13.87c0-.76-.62-1.37-1.37-1.37-.66,0-1.2,.46-1.34,1.07v-.18c0-2.99-2.43-5.42-5.42-5.42H16.75c-2.99,0-5.42,2.43-5.42,5.42v2.22c0,.98,.6,1.82,1.44,2.17v28.03c0,1.82,.75,3.52,2.03,4.75-.48,.71-.75,1.56-.75,2.47,0,2.44,1.99,4.43,4.43,4.43h7.99v12.98c0,3.16,2.54,5.73,5.69,5.78l-2.06,14.22c-.06,.39,.06,.8,.32,1.1,.26,.3,.64,.47,1.04,.47h29.29c.42,0,.82-.19,1.08-.52s.36-.76,.26-1.17l-3.36-14.1h6.3c5.42,0,10.53-2.09,14.4-5.87,3.59-3.51,5.74-8.13,6.13-13.09,1.81-.56,3.12-2.25,3.12-4.23,0-2.44-1.99-4.43-4.43-4.43Zm-36.99-.49h31.32c.52,0,1.01,.18,1.39,.49H45.87c.38-.3,.86-.49,1.38-.49Zm-6.6-2.3V23.28c.7-.31,1.19-1.01,1.19-1.82s-.49-1.51-1.19-1.82v-1.78c.82-.27,1.44-.98,1.58-1.85V48.12c0,.17,.03,.33,.09,.48h-2.3c.41-.86,.63-1.81,.63-2.79ZM14.08,15.23v-1.83c0-1.47,1.2-2.67,2.67-2.67h20.11c1.47,0,2.67,1.2,2.67,2.67v1.83H14.08Zm1.44,30.59V17.98h22.39v27.84c0,1.05-.45,2.06-1.21,2.79H18.48c-.51,0-1,.09-1.45,.25-.94-.72-1.5-1.83-1.5-3.03Zm61.98,22.57c-3.35,3.28-7.79,5.09-12.48,5.09h-8.04c-.42,0-.82,.19-1.08,.52s-.36,.76-.26,1.17l3.36,14.1h-25.96l2.06-14.22c.06-.39-.06-.8-.32-1.1-.26-.3-.64-.47-1.04-.47h-1.49c-1.67,0-3.04-1.36-3.04-3.04v-12.98h53.56c-.42,4.14-2.26,7.98-5.27,10.93Zm6.74-13.68H18.48c-.93,0-1.68-.75-1.68-1.68s.75-1.68,1.68-1.68h63.66s0,0,0,0,0,0,0,0h2.1c.93,0,1.68,.75,1.68,1.68,0,.93-.75,1.68-1.68,1.68Z"/>
</svg>