<svg width="24" height="38" viewBox="0 0 24 38" fill="none" xmlns="http://www.w3.org/2000/svg">
<path d="M20.3807 37.3482H21.8718C23.0471 37.3482 23.9998 36.3955 23.9998 35.2202V2.12797C23.9999 0.952744 23.0471 0 21.8719 0H2.12797C0.952671 0 0 0.952744 0 2.12797V35.2202C0 36.3955 0.952744 37.3482 2.12797 37.3482H17.963" fill="#415E72"/>
<path d="M21.2362 6.06689H2.7644V31.2809H21.2362V6.06689Z" fill="#CFDCE5"/>
<path d="M15.5631 3.52066H8.43709C8.08571 3.52066 7.80078 3.2358 7.80078 2.88435C7.80078 2.5329 8.08563 2.24805 8.43709 2.24805H15.5631C15.9145 2.24805 16.1995 2.5329 16.1995 2.88435C16.1995 3.2358 15.9145 3.52066 15.5631 3.52066Z" fill="#344F5E"/>
<path d="M18.1409 18.6741H15.186V25.8955H8.81385V18.6741H5.85889L12.0003 11.4526L12.6425 12.2086L18.1409 18.6741Z" fill="#FF6F52"/>
<path d="M11.9999 36.2244C12.9838 36.2244 13.7815 35.4267 13.7815 34.4428C13.7815 33.4588 12.9838 32.6611 11.9999 32.6611C11.0159 32.6611 10.2183 33.4588 10.2183 34.4428C10.2183 35.4267 11.0159 36.2244 11.9999 36.2244Z" fill="#344F5E"/>
<path d="M21.2359 6.06738V31.2814H5.62988L14.901 6.06738H21.2359Z" fill="#DFE9EF"/>
<path d="M18.141 18.674H15.1861V25.8954H8.81396V22.6216L12.6427 12.2085L18.141 18.674Z" fill="#FC8C7A"/>
</svg>
