<svg width="54" height="46" viewBox="0 0 54 46" fill="none" xmlns="http://www.w3.org/2000/svg">
<path d="M39.1938 22.5485V23.1597C39.1938 23.9086 39.3146 24.6526 39.5514 25.363L40.9358 29.5161H43.5486V19.9355H41.8067C40.3637 19.9357 39.1938 21.1054 39.1938 22.5485Z" fill="#5A4146"/>
<path d="M51.119 24.3575L49.6452 29.5159L42.6775 23.4192C41.7154 23.4192 40.9355 22.6393 40.9355 21.6773C40.9355 20.2343 42.1054 19.0645 43.5484 19.0645L48.7581 19.2581C49.7202 19.2581 50.5 20.038 50.5 21L51 22.5C51.0001 23.1473 51.2968 23.7349 51.119 24.3575Z" fill="#694B4B"/>
<path d="M47.9027 32.1294H42.677V35.9841H47.9027V32.1294Z" fill="#E6AF78"/>
<path d="M42.6775 33.7287C43.4853 34.057 44.3661 34.2417 45.2904 34.2417C46.2146 34.2417 47.0954 34.057 47.9032 33.7287V32.1289H42.6775V33.7287Z" fill="#D29B6E"/>
<path d="M52.1048 35.4422L47.903 34.2418L45.2903 35.9756L42.6775 34.2417L38.4759 35.4422C37.3541 35.7628 36.5808 36.788 36.5808 37.9546V44.3223C36.5808 44.8034 36.9707 45.1933 37.4518 45.1933H53.129C53.6101 45.1933 54 44.8034 54 44.3223V37.9546C54 36.7879 53.2266 35.7628 52.1048 35.4422Z" fill="#D5DCED"/>
<path d="M46.1613 45.193H44.4194L44.8549 35.9834H45.7259L46.1613 45.193Z" fill="#D5DCED"/>
<path d="M45.2902 32.9996C42.404 32.9996 40.0645 30.6599 40.0645 27.7739V26.7535C40.0645 26.2915 40.248 25.8484 40.5746 25.5217L42.154 23.9423C42.4884 23.6079 42.9457 23.4156 43.4184 23.4305C46.2026 23.5183 48.6669 24.1148 50.0141 25.4305C50.3439 25.7526 50.516 26.2031 50.516 26.664V27.7739C50.516 30.66 48.1763 32.9996 45.2902 32.9996Z" fill="#F0C087"/>
<path d="M42.6773 26.9696C42.6773 25.9649 43.5211 25.1663 44.5237 25.2302C46.282 25.3424 48.8911 25.6362 50.4917 26.4062C50.4395 26.0387 50.2817 25.6918 50.0141 25.4305C48.6669 24.1148 46.2026 23.5183 43.4184 23.4305L43.4183 23.4306V23.4305C42.9457 23.4156 42.4883 23.608 42.154 23.9423L40.5747 25.5216C40.248 25.8482 40.0645 26.2913 40.0645 26.7534V27.7738C40.0645 30.1569 41.6613 32.1634 43.8423 32.7918C43.1164 31.8962 42.6774 30.7592 42.6774 29.5157L42.6773 26.9696Z" fill="#E6AF78"/>
<path d="M50.5161 40.5495C50.5161 39.8564 50.7914 39.1919 51.2814 38.7019L53.5233 36.46C53.823 36.8883 53.9999 37.4039 53.9999 37.9543V44.3221C53.9999 44.8031 53.61 45.193 53.129 45.193H50.5161V40.5495Z" fill="#C7CFE2"/>
<path d="M45.7259 37.7253H44.8549C44.6144 37.7253 44.4194 37.5303 44.4194 37.2898V35.9834H46.1613V37.2898C46.1613 37.5303 45.9664 37.7253 45.7259 37.7253Z" fill="#D5DCED"/>
<path d="M45.2905 35.9754L43.8142 37.103C43.5599 37.2972 43.1923 37.2194 43.0386 36.9386L41.7144 34.5203L42.2474 33.7072C42.3656 33.5269 42.6176 33.4962 42.7757 33.6428L45.2905 35.9754Z" fill="#C7CFE2"/>
<path d="M45.2905 35.9753L46.7668 37.103C47.021 37.2972 47.3887 37.2194 47.5424 36.9386L48.8666 34.5203L48.3336 33.7072C48.2154 33.5269 47.9634 33.4962 47.8053 33.6428L45.2905 35.9753Z" fill="#C7CFE2"/>
<path d="M15.5909 32.6359C14.8466 30.6638 14.2563 27.2738 14.1288 25.5088C13.8862 22.1501 11.3551 19.4121 7.93353 19.4121C4.51194 19.4121 1.98082 22.1502 1.73824 25.5088C1.61073 27.2737 1.02043 30.6638 0.276144 32.6359C0.112141 33.0706 0.301456 33.55 0.72955 33.744C1.5271 34.1055 3.22755 34.8136 5.27838 35.0894H10.5886C12.6298 34.8129 14.3422 34.1044 15.1374 33.744C15.5656 33.55 15.7549 33.0706 15.5909 32.6359Z" fill="#5A4146"/>
<path d="M15.1376 33.744C15.5656 33.55 15.755 33.0706 15.5909 32.6359C14.8467 30.6638 14.2563 27.2738 14.1289 25.5088C13.8864 22.1501 11.3552 19.4121 7.93371 19.4121C7.92506 19.4121 7.91652 19.4121 7.90787 19.4122C5.28246 19.4229 4.35466 23.0034 6.61473 24.3394C6.75046 24.4196 6.83747 24.4582 6.83747 24.4582L8.817 35.0894H10.5888C12.63 34.8127 14.3424 34.1043 15.1376 33.744Z" fill="#694B4B"/>
<path d="M14.2334 36.8381L11.4148 35.429C10.8246 35.1339 10.4518 34.5306 10.4519 33.8708L10.4521 31.2578H5.22621V33.8709C5.22621 34.5307 4.85348 35.1338 4.26329 35.4289L1.44476 36.8381C0.559573 37.2807 0.000488281 38.1854 0.000488281 39.175V44.322C0.000488281 44.8029 0.390403 45.193 0.871442 45.193H14.8068C15.2878 45.193 15.6778 44.8029 15.6778 44.322V39.1751C15.6778 38.1854 15.1186 37.2807 14.2334 36.8381Z" fill="#E6AF78"/>
<path d="M7.8392 34.7416C8.77702 34.7416 9.67529 34.5483 10.4988 34.2042C10.4772 34.0944 10.452 33.9852 10.452 33.8708L10.4522 31.2578H5.22624V33.8709C5.22624 33.9859 5.20103 34.0956 5.1792 34.2058C6.00322 34.5482 6.90107 34.7416 7.8392 34.7416Z" fill="#D29B6E"/>
<path d="M14.2334 36.838L12.2255 35.8341C11.2944 37.2718 9.67959 38.2254 7.83917 38.2254C5.99876 38.2254 4.38384 37.2718 3.45277 35.834L1.44487 36.838C0.559679 37.2806 0.000488281 38.1853 0.000488281 39.1749V44.3219C0.000488281 44.803 0.390403 45.1929 0.871442 45.1929H14.8068C15.2878 45.1929 15.6778 44.803 15.6778 44.3219V39.175C15.6778 38.1853 15.1186 37.2806 14.2334 36.838Z" fill="#D5DCED"/>
<path d="M7.83903 32.9998C5.18209 32.9998 2.98836 31.017 2.65666 28.4505C2.60857 28.0786 2.78733 27.714 3.12209 27.5451C3.52308 27.3429 4.10579 27.0018 4.66371 26.504C5.28502 25.9496 5.64952 25.365 5.85539 24.9359C6.03268 24.5663 6.44021 24.3573 6.8374 24.4586C9.90399 25.2408 11.9917 26.8362 12.7492 27.4876C12.9525 27.6624 13.0697 27.9203 13.0488 28.1878C12.8378 30.8803 10.5859 32.9998 7.83903 32.9998Z" fill="#F0C087"/>
<path d="M12.7493 27.4876C11.9919 26.8362 9.9041 25.2408 6.83751 24.4586C6.44032 24.3573 6.0328 24.5663 5.8555 24.9359C5.69962 25.2609 5.44196 25.675 5.05964 26.0977C5.05954 26.0988 5.05922 26.0996 5.05912 26.1007C4.94047 26.2351 4.81411 26.3699 4.66393 26.5041C4.106 27.002 3.52329 27.343 3.12231 27.5452C2.78755 27.7141 2.60889 28.0788 2.65688 28.4507C2.95482 30.7557 4.75853 32.5904 7.04697 32.9403C6.00421 32.231 5.22639 31.2554 5.22639 29.5162V28.2742C5.42425 28.1282 5.62347 27.9825 5.82365 27.8039C6.30775 27.3719 6.73036 26.8723 7.06923 26.3344C9.41515 27.0664 11.0056 28.2857 11.6086 28.8042C11.7736 28.9489 12.1833 29.3265 12.6625 29.7761C12.8687 29.2799 13.0051 28.7475 13.0488 28.188C13.0698 27.9204 12.9526 27.6625 12.7493 27.4876Z" fill="#E6AF78"/>
<path d="M0.531413 37.6055C0.19592 38.0508 0.000488281 38.597 0.000488281 39.1755V44.3225C0.000488281 44.8035 0.390403 45.1935 0.871442 45.1935H3.4843V40.8049C3.4843 40.2758 3.24373 39.7753 2.83051 39.4447L0.531413 37.6055Z" fill="#C7CFE2"/>
<path d="M39.5132 35.6495L32.2259 32.9995L27.0002 34.7415L21.7744 32.9996L14.4871 35.6496C13.1104 36.1503 12.1938 37.4587 12.1938 38.9236V44.3221C12.1938 44.8031 12.5838 45.1931 13.0648 45.1931H40.9355C41.4166 45.1931 41.8065 44.8031 41.8065 44.3221V38.9236C41.8065 37.4586 40.8901 36.1502 39.5132 35.6495Z" fill="#FF5781"/>
<path d="M26.0878 36.4834L25.2583 45.1928H28.7421L27.9126 36.4834H26.0878Z" fill="#FF5781"/>
<path d="M27.9146 37.6802H26.0858C25.749 37.6802 25.4761 37.4073 25.4761 37.0705V34.7417H28.5242V37.0705C28.5243 37.4072 28.2514 37.6802 27.9146 37.6802Z" fill="#FF5781"/>
<path d="M40.869 36.5498C41.4571 37.181 41.8065 38.0217 41.8065 38.9235V44.3219C41.8065 44.803 41.4166 45.1929 40.9356 45.1929H36.5808V42.2811C36.5808 41.3571 36.9478 40.471 37.6012 39.8177L40.869 36.5498Z" fill="#D23C69"/>
<path d="M36.5809 15.0382L35 7.5C35 6.53792 33.462 6 32.5 6H24.3874C20.5393 6 17.4197 9.11953 17.4197 12.9677V15.0382C17.4197 15.9743 17.5706 16.9043 17.8667 17.7924L18.1566 18.6621C18.2454 18.9286 18.2906 19.2075 18.2906 19.4884V19.9354H35.7098V19.4884C35.7098 19.2075 35.7551 18.9286 35.8439 18.6621L36.1338 17.7924C36.4299 16.9042 36.5809 15.9742 36.5809 15.0382Z" fill="#5A4146"/>
<path d="M21.7744 9.53823C21.7744 11.4923 23.3585 13.0765 25.3126 13.0765H25.8025L26.039 19.9353H35.7097V19.4883C35.7097 19.2074 35.7549 18.9285 35.8437 18.662L36.1336 17.7923C36.4297 16.9042 36.5806 15.9742 36.5806 15.0381L34.4999 8C34.4999 7.03792 33.9619 6.5 32.9999 6.5L25.3126 6C23.3585 6 21.7744 7.58413 21.7744 9.53823Z" fill="#694B4B"/>
<path d="M20.1176 2.32143L18 13C21.8118 11.1429 25.5882 10.9881 27 11.1429V0L20.1176 2.32143Z" fill="#4F4648"/>
<path d="M33.8824 2.32143L36 13C32.1882 11.1429 28.4118 10.9881 27 11.1429V0L33.8824 2.32143Z" fill="#655E5F"/>
<path d="M40.4118 15.5476L39 22.6667C41.5412 21.4286 44.0588 21.3254 45 21.4286V14L40.4118 15.5476Z" fill="#4F4648"/>
<path d="M49.5882 15.5476L51 22.6667C48.4588 21.4286 45.9412 21.3254 45 21.4286V14L49.5882 15.5476Z" fill="#655E5F"/>
<path d="M32.2263 26.9033H21.7744V34.7417H32.2263V26.9033Z" fill="#E6AF78"/>
<path d="M21.7745 29.8484C23.3131 30.7397 25.0943 31.2581 27.0002 31.2581C28.9061 31.2581 30.6875 30.7397 32.226 29.8484V26.9033H21.7744L21.7745 29.8484Z" fill="#D29B6E"/>
<path d="M27.0003 34.7419L24.2225 37.5197C23.8492 37.8931 23.2321 37.851 22.9129 37.4304L20.0327 33.6352L20.7861 32.0476C21.0084 31.5791 21.5883 31.4074 22.0297 31.6795L27.0003 34.7419Z" fill="#D23C69"/>
<path d="M27.0002 34.7419L29.7781 37.5197C30.1514 37.8931 30.7685 37.851 31.0876 37.4304L33.9679 33.6352L33.2145 32.0476C32.9922 31.5791 32.4123 31.4074 31.9708 31.6795L27.0002 34.7419Z" fill="#D23C69"/>
<path d="M27.0002 29.5162C22.19 29.5162 18.2905 25.6168 18.2905 20.8066V19.7862C18.2905 19.3242 18.474 18.8812 18.8007 18.5544L19.5222 17.8329C19.8488 17.5063 20.0323 17.0632 20.0323 16.6012V14.5133C20.0323 14.11 20.3032 13.7596 20.6956 13.6669C22.7555 13.1804 29.1655 12.028 33.5278 15.2363C33.8111 15.4446 33.9677 15.7868 33.9677 16.1385V16.6012C33.9677 17.0631 34.1512 17.5062 34.4778 17.8329L35.1993 18.5544C35.526 18.8811 35.7095 19.3241 35.7095 19.7862V20.8066C35.7098 25.6168 31.8103 29.5162 27.0002 29.5162Z" fill="#F0C087"/>
<path d="M33.5279 15.2358C30.4598 12.9793 26.3844 12.8817 23.5164 13.1906C22.3065 13.3208 21.3069 13.5222 20.6958 13.6665C20.3034 13.7592 20.0325 14.1095 20.0325 14.5128V16.6006C20.0325 17.0626 19.849 17.5057 19.5223 17.8324L18.8008 18.5539C18.474 18.8807 18.2905 19.3238 18.2905 19.7858V20.8061C18.2905 25.2594 21.6349 28.9255 25.9477 29.446C24.4449 27.881 23.5162 25.7601 23.5162 23.419V17.0528C23.5162 16.1702 24.1726 15.4325 25.0483 15.3227C27.1384 15.0606 30.9667 14.9031 33.9677 16.6008V16.138C33.9679 15.7864 33.811 15.444 33.5279 15.2358Z" fill="#E6AF78"/>
<path d="M13.1314 36.5498C12.5433 37.181 12.1938 38.0217 12.1938 38.9235V44.3219C12.1938 44.803 12.5838 45.1929 13.0648 45.1929H17.4196V42.2811C17.4196 41.3571 17.0525 40.471 16.3992 39.8177L13.1314 36.5498Z" fill="#D23C69"/>
</svg>
