<svg width="26" height="30" viewBox="0 0 26 30" fill="none" xmlns="http://www.w3.org/2000/svg">
<path d="M12.7089 28.6105C12.0359 28.2774 11.3629 27.9448 10.7319 27.534C8.29778 25.9497 6.35719 23.8897 4.83557 21.4247C3.18874 18.7569 2.1713 15.8518 1.58051 12.7864C1.29089 11.2836 1.12337 9.76722 1.03074 8.23921C0.969963 7.23708 1.00438 6.23629 0.983601 5.23512C0.978071 4.97175 1.08551 4.7937 1.31124 4.66876C4.33918 2.99261 7.51203 1.71594 10.9606 1.22781C13.1244 0.921543 15.2573 1.14163 17.3647 1.69135C19.8811 2.34775 22.2595 3.33915 24.5313 4.59745C24.729 4.70699 24.8285 4.84922 24.87 5.07296C25.0267 5.91767 24.9885 6.76893 24.9459 7.61556C24.8834 8.85615 24.7474 10.0915 24.5378 11.3173C23.7983 15.6406 22.2207 19.6112 19.5189 23.0935C17.9156 25.16 16.0356 26.9346 13.7784 28.2847C13.5866 28.3994 13.3878 28.5022 13.1922 28.6106C13.0311 28.6105 12.87 28.6105 12.7089 28.6105ZM1.92743 6.58637C1.9314 7.75855 2.01038 8.92585 2.13742 10.0908C2.35123 12.0513 2.72816 13.9778 3.33538 15.8558C4.35668 19.0146 5.8987 21.8703 8.23824 24.2612C9.5184 25.5695 10.9543 26.6648 12.5888 27.4987C12.8542 27.6341 13.0649 27.6357 13.3052 27.4669C13.7002 27.1893 14.1187 26.9446 14.5072 26.6586C17.9025 24.1589 20.3305 20.9072 21.9336 17.0279C23.4373 13.3892 24.0519 9.58193 24.0338 5.65908C24.0329 5.4566 23.9519 5.35727 23.7836 5.26798C21.8421 4.23814 19.8291 3.3836 17.715 2.7744C15.4204 2.11322 13.0955 1.82708 10.7182 2.22146C7.66597 2.72779 4.84035 3.86808 2.11981 5.30197C1.97108 5.38036 1.92184 5.48753 1.92539 5.64711C1.93237 5.96003 1.92743 6.27323 1.92743 6.58637Z" fill="#43ABAA" stroke="#43ABAA"/>
<path d="M12.9677 19.8714C10.9641 19.8714 8.9604 19.8717 6.95677 19.8712C6.38789 19.871 6.2492 19.7301 6.2492 19.1554C6.2492 18.2622 6.21145 17.3674 6.45372 16.4911C6.93234 14.7598 7.91826 13.4036 9.43956 12.4475C9.65434 12.3126 9.72145 12.2478 9.54544 12.0013C7.69474 9.40925 9.28444 5.87144 12.4979 5.46761C14.7795 5.18088 16.8748 6.82143 17.1619 9.09036C17.2984 10.1691 17.0535 11.1744 16.3811 12.0481C16.2389 12.2328 16.2705 12.3014 16.4582 12.4212C18.5806 13.7759 19.6733 15.7121 19.7071 18.2361C19.7118 18.5849 19.7086 18.9338 19.7053 19.2826C19.7016 19.6907 19.5275 19.868 19.1128 19.8699C18.1647 19.874 17.2165 19.8714 16.2684 19.8714C15.1681 19.8715 14.0679 19.8714 12.9677 19.8714ZM12.9771 18.9277C12.9771 18.927 12.9771 18.9263 12.9771 18.9256C14.8025 18.9256 16.6279 18.9221 18.4532 18.93C18.6827 18.9309 18.7775 18.8719 18.7634 18.6292C18.7411 18.2461 18.7695 17.8624 18.7167 17.478C18.4439 15.4913 17.4052 14.0375 15.6741 13.0559C15.5432 12.9817 15.441 12.9839 15.3064 13.0662C13.7645 14.0088 12.2139 13.9999 10.6687 13.0758C10.5142 12.9834 10.4006 12.9873 10.2515 13.0677C9.55565 13.4422 8.9633 13.9414 8.47131 14.5551C7.5547 15.6986 7.1505 17.0126 7.19152 18.4725C7.20548 18.9701 7.15383 18.9271 7.63519 18.9273C9.41583 18.9281 11.1965 18.9277 12.9771 18.9277ZM12.9675 12.8151C14.7852 12.8173 16.2397 11.3942 16.241 9.61237C16.2423 7.84247 14.7914 6.40042 13.004 6.39495C11.1937 6.38942 9.71748 7.82368 9.71415 9.59132C9.71077 11.3816 11.1552 12.8129 12.9675 12.8151Z" fill="#43ABAA" stroke="#43ABAA"/>
</svg>
