<svg width="48" height="47" viewBox="0 0 48 47" fill="none" xmlns="http://www.w3.org/2000/svg">
<path d="M0.462158 15.0763C0.462158 6.79201 7.17789 0.0762939 15.4622 0.0762939H33C41.2842 0.0762939 48 6.79202 48 15.0763V31.915C48 40.1993 41.2842 46.915 33 46.915H15.4621C7.17787 46.915 0.462158 40.1993 0.462158 31.915V15.0763Z" fill="#F4F1FD"/>
<path d="M21.139 26.0207C21.6044 26.0207 21.9818 25.6434 21.9818 25.1779C21.9818 24.7124 21.6044 24.3351 21.139 24.3351C20.6735 24.3351 20.2961 24.7124 20.2961 25.1779C20.2961 25.6434 20.6735 26.0207 21.139 26.0207Z" fill="#8965EE"/>
<path d="M21.8719 23.9692C22.3374 23.9692 22.7147 23.5919 22.7147 23.1264C22.7147 22.6609 22.3374 22.2836 21.8719 22.2836C21.4064 22.2836 21.0291 22.6609 21.0291 23.1264C21.0291 23.5919 21.4064 23.9692 21.8719 23.9692Z" fill="#8965EE"/>
<path d="M22.9424 25.5993C23.4079 25.5993 23.7853 25.222 23.7853 24.7565C23.7853 24.291 23.4079 23.9137 22.9424 23.9137C22.477 23.9137 22.0996 24.291 22.0996 24.7565C22.0996 25.222 22.477 25.5993 22.9424 25.5993Z" fill="#8965EE"/>
<path d="M23.8299 23.8627C24.2954 23.8627 24.6727 23.4853 24.6727 23.0198C24.6727 22.5543 24.2954 22.177 23.8299 22.177C23.3644 22.177 22.9871 22.5543 22.9871 23.0198C22.9871 23.4853 23.3644 23.8627 23.8299 23.8627Z" fill="#8965EE"/>
<path d="M25.1565 25.8025C25.622 25.8025 25.9994 25.4251 25.9994 24.9596C25.9994 24.4942 25.622 24.1168 25.1565 24.1168C24.6911 24.1168 24.3137 24.4942 24.3137 24.9596C24.3137 25.4251 24.6911 25.8025 25.1565 25.8025Z" fill="#8965EE"/>
<path d="M25.7164 23.7602C26.1818 23.7602 26.5592 23.3829 26.5592 22.9174C26.5592 22.4519 26.1818 22.0746 25.7164 22.0746C25.2509 22.0746 24.8735 22.4519 24.8735 22.9174C24.8735 23.3829 25.2509 23.7602 25.7164 23.7602Z" fill="#8965EE"/>
<path d="M26.5589 27.5145C27.0244 27.5145 27.4017 27.1372 27.4017 26.6717C27.4017 26.2062 27.0244 25.8289 26.5589 25.8289C26.0934 25.8289 25.7161 26.2062 25.7161 26.6717C25.7161 27.1372 26.0934 27.5145 26.5589 27.5145Z" fill="#8965EE"/>
<path d="M27.2137 25.8983C27.6792 25.8983 28.0565 25.521 28.0565 25.0555C28.0565 24.59 27.6792 24.2126 27.2137 24.2126C26.7482 24.2126 26.3708 24.59 26.3708 25.0555C26.3708 25.521 26.7482 25.8983 27.2137 25.8983Z" fill="#8965EE"/>
<path d="M28.3655 27.7024C28.831 27.7024 29.2084 27.325 29.2084 26.8595C29.2084 26.3941 28.831 26.0167 28.3655 26.0167C27.9001 26.0167 27.5227 26.3941 27.5227 26.8595C27.5227 27.325 27.9001 27.7024 28.3655 27.7024Z" fill="#8965EE"/>
<path d="M30.1565 27.605C30.622 27.605 30.9994 27.2276 30.9994 26.7621C30.9994 26.2967 30.622 25.9193 30.1565 25.9193C29.6911 25.9193 29.3137 26.2967 29.3137 26.7621C29.3137 27.2276 29.6911 27.605 30.1565 27.605Z" fill="#8965EE"/>
<path d="M31.8978 28.3546C32.3632 28.3546 32.7406 27.9773 32.7406 27.5118C32.7406 27.0463 32.3632 26.6689 31.8978 26.6689C31.4323 26.6689 31.0549 27.0463 31.0549 27.5118C31.0549 27.9773 31.4323 28.3546 31.8978 28.3546Z" fill="#8965EE"/>
<path d="M29.4205 25.9566C29.8859 25.9566 30.2633 25.5793 30.2633 25.1138C30.2633 24.6483 29.8859 24.271 29.4205 24.271C28.955 24.271 28.5776 24.6483 28.5776 25.1138C28.5776 25.5793 28.955 25.9566 29.4205 25.9566Z" fill="#8965EE"/>
<path d="M31.6893 26.3916C32.1547 26.3916 32.5321 26.0142 32.5321 25.5488C32.5321 25.0833 32.1547 24.7059 31.6893 24.7059C31.2238 24.7059 30.8464 25.0833 30.8464 25.5488C30.8464 26.0142 31.2238 26.3916 31.6893 26.3916Z" fill="#8965EE"/>
<path d="M33.7701 29.0972C34.2356 29.0972 34.6129 28.7198 34.6129 28.2543C34.6129 27.7888 34.2356 27.4115 33.7701 27.4115C33.3046 27.4115 32.9272 27.7888 32.9272 28.2543C32.9272 28.7198 33.3046 29.0972 33.7701 29.0972Z" fill="#8965EE"/>
<path d="M28.212 24.0935C28.6774 24.0935 29.0548 23.7161 29.0548 23.2507C29.0548 22.7852 28.6774 22.4078 28.212 22.4078C27.7465 22.4078 27.3691 22.7852 27.3691 23.2507C27.3691 23.7161 27.7465 24.0935 28.212 24.0935Z" fill="#8965EE"/>
<path d="M30.2154 23.886C30.6809 23.886 31.0582 23.5086 31.0582 23.0431C31.0582 22.5777 30.6809 22.2003 30.2154 22.2003C29.7499 22.2003 29.3726 22.5777 29.3726 23.0431C29.3726 23.5086 29.7499 23.886 30.2154 23.886Z" fill="#8965EE"/>
<path d="M27.3692 22.2395C27.8347 22.2395 28.212 21.8621 28.212 21.3967C28.212 20.9312 27.8347 20.5538 27.3692 20.5538C26.9037 20.5538 26.5264 20.9312 26.5264 21.3967C26.5264 21.8621 26.9037 22.2395 27.3692 22.2395Z" fill="#8965EE"/>
<path d="M33.2286 25.572C33.694 25.572 34.0714 25.1947 34.0714 24.7292C34.0714 24.2637 33.694 23.8864 33.2286 23.8864C32.7631 23.8864 32.3857 24.2637 32.3857 24.7292C32.3857 25.1947 32.7631 25.572 33.2286 25.572Z" fill="#8965EE"/>
<path d="M25.1473 21.9464C25.6127 21.9464 25.9901 21.569 25.9901 21.1036C25.9901 20.6381 25.6127 20.2607 25.1473 20.2607C24.6818 20.2607 24.3044 20.6381 24.3044 21.1036C24.3044 21.569 24.6818 21.9464 25.1473 21.9464Z" fill="#8965EE"/>
<path d="M33.5992 27.3575C34.0647 27.3575 34.442 26.9802 34.442 26.5147C34.442 26.0492 34.0647 25.6719 33.5992 25.6719C33.1337 25.6719 32.7563 26.0492 32.7563 26.5147C32.7563 26.9802 33.1337 27.3575 33.5992 27.3575Z" fill="#8965EE"/>
<path d="M35.7513 28.7565C36.2168 28.7565 36.5941 28.3791 36.5941 27.9136C36.5941 27.4481 36.2168 27.0708 35.7513 27.0708C35.2858 27.0708 34.9084 27.4481 34.9084 27.9136C34.9084 28.3791 35.2858 28.7565 35.7513 28.7565Z" fill="#8965EE"/>
<path d="M37.4734 29.5997C37.9389 29.5997 38.3163 29.2224 38.3163 28.7569C38.3163 28.2914 37.9389 27.9141 37.4734 27.9141C37.008 27.9141 36.6306 28.2914 36.6306 28.7569C36.6306 29.2224 37.008 29.5997 37.4734 29.5997Z" fill="#8965EE"/>
<path d="M38.5023 31.2857C38.9677 31.2857 39.3451 30.9084 39.3451 30.4429C39.3451 29.9774 38.9677 29.6001 38.5023 29.6001C38.0368 29.6001 37.6594 29.9774 37.6594 30.4429C37.6594 30.9084 38.0368 31.2857 38.5023 31.2857Z" fill="#8965EE"/>
<path d="M40.1573 30.568C40.6228 30.568 41.0001 30.1906 41.0001 29.7251C41.0001 29.2597 40.6228 28.8823 40.1573 28.8823C39.6918 28.8823 39.3145 29.2597 39.3145 29.7251C39.3145 30.1906 39.6918 30.568 40.1573 30.568Z" fill="#8965EE"/>
<path d="M39.1724 28.8462C39.6379 28.8462 40.0152 28.4688 40.0152 28.0033C40.0152 27.5379 39.6379 27.1605 39.1724 27.1605C38.7069 27.1605 38.3296 27.5379 38.3296 28.0033C38.3296 28.4688 38.7069 28.8462 39.1724 28.8462Z" fill="#8965EE"/>
<path d="M40.1573 32.8852C40.6228 32.8852 41.0001 32.5079 41.0001 32.0424C41.0001 31.5769 40.6228 31.1996 40.1573 31.1996C39.6918 31.1996 39.3145 31.5769 39.3145 32.0424C39.3145 32.5079 39.6918 32.8852 40.1573 32.8852Z" fill="#8965EE"/>
<path d="M37.3841 27.9133C37.8496 27.9133 38.2269 27.536 38.2269 27.0705C38.2269 26.605 37.8496 26.2277 37.3841 26.2277C36.9186 26.2277 36.5413 26.605 36.5413 27.0705C36.5413 27.536 36.9186 27.9133 37.3841 27.9133Z" fill="#8965EE"/>
<path d="M35.2857 27.2344C35.7512 27.2344 36.1285 26.857 36.1285 26.3915C36.1285 25.9261 35.7512 25.5487 35.2857 25.5487C34.8202 25.5487 34.4429 25.9261 34.4429 26.3915C34.4429 26.857 34.8202 27.2344 35.2857 27.2344Z" fill="#8965EE"/>
<path d="M12.9748 24.782C13.5178 25.2551 14.0619 25.7429 14.6212 26.2129C16.6638 27.9296 18.7301 29.6164 21.0007 31.0294C21.8004 31.5274 22.611 32.0463 23.5773 32.1422C24.3467 32.2187 25.1266 32.263 25.8984 32.2319C28.4626 32.1274 30.9907 31.708 33.5164 31.2819C34.7911 31.0667 36.0639 30.8391 37.4734 30.5936C37.3313 30.4154 37.2264 30.2895 37.1274 30.1594C36.7129 29.6149 36.1358 29.3038 35.5186 29.0653C34.616 28.7161 33.6613 28.6202 32.7062 28.5969C31.1002 28.5577 29.4965 28.3382 27.8862 28.6715C27.0573 28.8431 26.2203 28.6097 25.435 28.3126C24.6668 28.0217 23.8942 27.7187 23.1734 27.3295C21.7709 26.5722 20.399 25.7573 19.0241 24.9506C18.6749 24.7459 18.5992 24.2775 18.8151 23.9683C19.0455 23.639 19.4463 23.5636 19.8028 23.7796C20.5956 24.2608 21.3805 24.7564 22.1849 25.2174C23.6725 26.07 25.1825 26.8794 26.8818 27.2379C27.1552 27.2958 27.4492 27.302 27.7285 27.2752C28.139 27.2359 28.3119 26.9994 28.2462 26.5912C28.2179 26.4133 28.1608 26.2078 28.0443 26.0824C27.7114 25.7243 27.3809 25.339 26.9769 25.0757C26.0829 24.4927 25.1495 23.9687 24.2224 23.4374C23.0724 22.7775 22.1402 21.8454 21.1261 21.0142C20.6822 20.6506 20.2075 20.2758 19.6828 20.0684C18.3836 19.5557 17.0052 19.4008 15.6112 19.4198C15.5017 19.4214 15.3669 19.5274 15.292 19.6229C15.1999 19.7398 15.1576 19.8964 15.0951 20.0362C14.3936 21.6061 13.6922 23.1764 12.9748 24.782ZM6.87109 24.4014C8.10154 24.7587 9.30674 25.1149 10.5166 25.4551C10.8199 25.5406 11.1586 25.3417 11.2934 25.0438C11.7618 24.0052 12.2248 22.9639 12.6963 21.9269C13.2404 20.7306 13.7951 19.539 14.3384 18.342C14.521 17.9396 14.4045 17.5734 14.0137 17.3625C13.1472 16.8952 12.2726 16.4431 11.4002 15.9867C10.8029 15.6745 10.2036 15.3657 9.58717 15.0457C8.68026 18.1695 7.78228 21.2624 6.87109 24.4014Z" fill="#8965EE"/>
</svg>
