<svg width="35" height="18" viewBox="0 0 35 18" fill="none" xmlns="http://www.w3.org/2000/svg">
    <path
        d="M15.139 11.0206C15.6044 11.0206 15.9818 10.6433 15.9818 10.1778C15.9818 9.71231 15.6044 9.33496 15.139 9.33496C14.6735 9.33496 14.2961 9.71231 14.2961 10.1778C14.2961 10.6433 14.6735 11.0206 15.139 11.0206Z"
        fill="#8965EE" />
    <path
        d="M15.8719 8.9691C16.3374 8.9691 16.7147 8.59175 16.7147 8.12627C16.7147 7.66079 16.3374 7.28345 15.8719 7.28345C15.4064 7.28345 15.0291 7.66079 15.0291 8.12627C15.0291 8.59175 15.4064 8.9691 15.8719 8.9691Z"
        fill="#8965EE" />
    <path
        d="M16.9424 10.5992C17.4079 10.5992 17.7853 10.2219 17.7853 9.7564C17.7853 9.29092 17.4079 8.91357 16.9424 8.91357C16.477 8.91357 16.0996 9.29092 16.0996 9.7564C16.0996 10.2219 16.477 10.5992 16.9424 10.5992Z"
        fill="#8965EE" />
    <path
        d="M17.8299 8.86265C18.2954 8.86265 18.6727 8.48531 18.6727 8.01983C18.6727 7.55435 18.2954 7.177 17.8299 7.177C17.3644 7.177 16.9871 7.55435 16.9871 8.01983C16.9871 8.48531 17.3644 8.86265 17.8299 8.86265Z"
        fill="#8965EE" />
    <path
        d="M19.1565 10.8024C19.622 10.8024 19.9994 10.425 19.9994 9.95952C19.9994 9.49405 19.622 9.1167 19.1565 9.1167C18.6911 9.1167 18.3137 9.49405 18.3137 9.95952C18.3137 10.425 18.6911 10.8024 19.1565 10.8024Z"
        fill="#8965EE" />
    <path
        d="M19.7164 8.76011C20.1818 8.76011 20.5592 8.38277 20.5592 7.91729C20.5592 7.45181 20.1818 7.07446 19.7164 7.07446C19.2509 7.07446 18.8735 7.45181 18.8735 7.91729C18.8735 8.38277 19.2509 8.76011 19.7164 8.76011Z"
        fill="#8965EE" />
    <path
        d="M20.5589 12.5145C21.0244 12.5145 21.4017 12.1372 21.4017 11.6717C21.4017 11.2062 21.0244 10.8289 20.5589 10.8289C20.0934 10.8289 19.7161 11.2062 19.7161 11.6717C19.7161 12.1372 20.0934 12.5145 20.5589 12.5145Z"
        fill="#8965EE" />
    <path
        d="M21.2137 10.8983C21.6792 10.8983 22.0565 10.521 22.0565 10.0555C22.0565 9.58999 21.6792 9.21265 21.2137 9.21265C20.7482 9.21265 20.3708 9.58999 20.3708 10.0555C20.3708 10.521 20.7482 10.8983 21.2137 10.8983Z"
        fill="#8965EE" />
    <path
        d="M22.3655 12.7025C22.831 12.7025 23.2084 12.3252 23.2084 11.8597C23.2084 11.3942 22.831 11.0168 22.3655 11.0168C21.9001 11.0168 21.5227 11.3942 21.5227 11.8597C21.5227 12.3252 21.9001 12.7025 22.3655 12.7025Z"
        fill="#8965EE" />
    <path
        d="M24.1565 12.6048C24.622 12.6048 24.9994 12.2275 24.9994 11.762C24.9994 11.2965 24.622 10.9192 24.1565 10.9192C23.6911 10.9192 23.3137 11.2965 23.3137 11.762C23.3137 12.2275 23.6911 12.6048 24.1565 12.6048Z"
        fill="#8965EE" />
    <path
        d="M25.8978 13.3546C26.3632 13.3546 26.7406 12.9773 26.7406 12.5118C26.7406 12.0463 26.3632 11.6689 25.8978 11.6689C25.4323 11.6689 25.0549 12.0463 25.0549 12.5118C25.0549 12.9773 25.4323 13.3546 25.8978 13.3546Z"
        fill="#8965EE" />
    <path
        d="M23.4205 10.9566C23.8859 10.9566 24.2633 10.5793 24.2633 10.1138C24.2633 9.64834 23.8859 9.271 23.4205 9.271C22.955 9.271 22.5776 9.64834 22.5776 10.1138C22.5776 10.5793 22.955 10.9566 23.4205 10.9566Z"
        fill="#8965EE" />
    <path
        d="M25.6893 11.3915C26.1547 11.3915 26.5321 11.0141 26.5321 10.5486C26.5321 10.0832 26.1547 9.70581 25.6893 9.70581C25.2238 9.70581 24.8464 10.0832 24.8464 10.5486C24.8464 11.0141 25.2238 11.3915 25.6893 11.3915Z"
        fill="#8965EE" />
    <path
        d="M27.7701 14.0973C28.2356 14.0973 28.6129 13.7199 28.6129 13.2544C28.6129 12.789 28.2356 12.4116 27.7701 12.4116C27.3046 12.4116 26.9272 12.789 26.9272 13.2544C26.9272 13.7199 27.3046 14.0973 27.7701 14.0973Z"
        fill="#8965EE" />
    <path
        d="M22.212 9.09337C22.6774 9.09337 23.0548 8.71602 23.0548 8.25054C23.0548 7.78506 22.6774 7.40771 22.212 7.40771C21.7465 7.40771 21.3691 7.78506 21.3691 8.25054C21.3691 8.71602 21.7465 9.09337 22.212 9.09337Z"
        fill="#8965EE" />
    <path
        d="M24.2154 8.88585C24.6809 8.88585 25.0582 8.5085 25.0582 8.04302C25.0582 7.57754 24.6809 7.2002 24.2154 7.2002C23.7499 7.2002 23.3726 7.57754 23.3726 8.04302C23.3726 8.5085 23.7499 8.88585 24.2154 8.88585Z"
        fill="#8965EE" />
    <path
        d="M21.3692 7.23961C21.8347 7.23961 22.212 6.86226 22.212 6.39678C22.212 5.9313 21.8347 5.55396 21.3692 5.55396C20.9037 5.55396 20.5264 5.9313 20.5264 6.39678C20.5264 6.86226 20.9037 7.23961 21.3692 7.23961Z"
        fill="#8965EE" />
    <path
        d="M27.2286 10.5721C27.694 10.5721 28.0714 10.1948 28.0714 9.7293C28.0714 9.26382 27.694 8.88647 27.2286 8.88647C26.7631 8.88647 26.3857 9.26382 26.3857 9.7293C26.3857 10.1948 26.7631 10.5721 27.2286 10.5721Z"
        fill="#8965EE" />
    <path
        d="M19.1473 6.94639C19.6127 6.94639 19.9901 6.56905 19.9901 6.10357C19.9901 5.63809 19.6127 5.26074 19.1473 5.26074C18.6818 5.26074 18.3044 5.63809 18.3044 6.10357C18.3044 6.56905 18.6818 6.94639 19.1473 6.94639Z"
        fill="#8965EE" />
    <path
        d="M27.5992 12.3575C28.0647 12.3575 28.442 11.9802 28.442 11.5147C28.442 11.0492 28.0647 10.6719 27.5992 10.6719C27.1337 10.6719 26.7563 11.0492 26.7563 11.5147C26.7563 11.9802 27.1337 12.3575 27.5992 12.3575Z"
        fill="#8965EE" />
    <path
        d="M29.7513 13.7565C30.2168 13.7565 30.5941 13.3791 30.5941 12.9136C30.5941 12.4481 30.2168 12.0708 29.7513 12.0708C29.2858 12.0708 28.9084 12.4481 28.9084 12.9136C28.9084 13.3791 29.2858 13.7565 29.7513 13.7565Z"
        fill="#8965EE" />
    <path
        d="M31.4734 14.5997C31.9389 14.5997 32.3163 14.2224 32.3163 13.7569C32.3163 13.2914 31.9389 12.9141 31.4734 12.9141C31.008 12.9141 30.6306 13.2914 30.6306 13.7569C30.6306 14.2224 31.008 14.5997 31.4734 14.5997Z"
        fill="#8965EE" />
    <path
        d="M32.5023 16.2857C32.9677 16.2857 33.3451 15.9084 33.3451 15.4429C33.3451 14.9774 32.9677 14.6001 32.5023 14.6001C32.0368 14.6001 31.6594 14.9774 31.6594 15.4429C31.6594 15.9084 32.0368 16.2857 32.5023 16.2857Z"
        fill="#8965EE" />
    <path
        d="M34.1573 15.568C34.6228 15.568 35.0001 15.1906 35.0001 14.7251C35.0001 14.2597 34.6228 13.8823 34.1573 13.8823C33.6918 13.8823 33.3145 14.2597 33.3145 14.7251C33.3145 15.1906 33.6918 15.568 34.1573 15.568Z"
        fill="#8965EE" />
    <path
        d="M33.1724 13.8463C33.6379 13.8463 34.0152 13.4689 34.0152 13.0035C34.0152 12.538 33.6379 12.1606 33.1724 12.1606C32.7069 12.1606 32.3296 12.538 32.3296 13.0035C32.3296 13.4689 32.7069 13.8463 33.1724 13.8463Z"
        fill="#8965EE" />
    <path
        d="M34.1573 17.8851C34.6228 17.8851 35.0001 17.5078 35.0001 17.0423C35.0001 16.5768 34.6228 16.1995 34.1573 16.1995C33.6918 16.1995 33.3145 16.5768 33.3145 17.0423C33.3145 17.5078 33.6918 17.8851 34.1573 17.8851Z"
        fill="#8965EE" />
    <path
        d="M31.3841 12.9134C31.8496 12.9134 32.2269 12.5361 32.2269 12.0706C32.2269 11.6051 31.8496 11.2278 31.3841 11.2278C30.9186 11.2278 30.5413 11.6051 30.5413 12.0706C30.5413 12.5361 30.9186 12.9134 31.3841 12.9134Z"
        fill="#8965EE" />
    <path
        d="M29.2857 12.2345C29.7512 12.2345 30.1285 11.8571 30.1285 11.3917C30.1285 10.9262 29.7512 10.5488 29.2857 10.5488C28.8202 10.5488 28.4429 10.9262 28.4429 11.3917C28.4429 11.8571 28.8202 12.2345 29.2857 12.2345Z"
        fill="#8965EE" />
    <path
        d="M6.97478 9.78204C7.51776 10.2551 8.06191 10.7429 8.6212 11.2129C10.6638 12.9296 12.7301 14.6164 15.0007 16.0294C15.8004 16.5274 16.611 17.0463 17.5773 17.1422C18.3467 17.2187 19.1266 17.263 19.8984 17.2319C22.4626 17.1274 24.9907 16.708 27.5164 16.2819C28.7911 16.0667 30.0639 15.8391 31.4734 15.5936C31.3313 15.4154 31.2264 15.2895 31.1274 15.1594C30.7129 14.6149 30.1358 14.3038 29.5186 14.0653C28.616 13.7161 27.6613 13.6202 26.7062 13.5969C25.1002 13.5577 23.4965 13.3382 21.8862 13.6715C21.0573 13.8431 20.2203 13.6097 19.435 13.3126C18.6668 13.0217 17.8942 12.7187 17.1734 12.3295C15.7709 11.5722 14.399 10.7573 13.0241 9.9506C12.6749 9.74592 12.5992 9.27751 12.8151 8.96834C13.0455 8.63898 13.4463 8.56363 13.8028 8.77958C14.5956 9.26081 15.3805 9.7564 16.1849 10.2174C17.6725 11.07 19.1825 11.8794 20.8818 12.2379C21.1552 12.2958 21.4492 12.302 21.7285 12.2752C22.139 12.2359 22.3119 11.9994 22.2462 11.5912C22.2179 11.4133 22.1608 11.2078 22.0443 11.0824C21.7114 10.7243 21.3809 10.339 20.9769 10.0757C20.0829 9.49268 19.1495 8.96873 18.2224 8.4374C17.0724 7.77751 16.1402 6.84535 15.1261 6.01418C14.6822 5.65064 14.2075 5.27583 13.6828 5.06843C12.3836 4.55574 11.0052 4.40077 9.61123 4.4198C9.50171 4.42136 9.36693 4.52739 9.29197 4.62293C9.19992 4.73984 9.15758 4.89637 9.09505 5.03619C8.3936 6.6061 7.69215 8.1764 6.97478 9.78204ZM0.871094 9.40141C2.10154 9.75873 3.30674 10.1149 4.51661 10.4551C4.81994 10.5406 5.15863 10.3417 5.2934 10.0438C5.76181 9.00524 6.22478 7.96394 6.6963 6.92692C7.24045 5.73065 7.79508 4.53904 8.33845 3.342C8.521 2.93961 8.40448 2.57335 8.01375 2.36245C7.14723 1.89521 6.27256 1.44311 5.40021 0.986745C4.80286 0.674472 4.20356 0.365695 3.58717 0.0456543C2.68026 3.16955 1.78228 6.26237 0.871094 9.40141Z"
        fill="#8965EE" />
</svg>