<svg width="55" height="61" viewBox="0 0 55 61" fill="none" xmlns="http://www.w3.org/2000/svg">
<path d="M3.05396 0H43.7735C45.4601 0 46.8274 1.36728 46.8274 3.05396V46.8274C46.8274 48.5141 45.4601 49.8814 43.7735 49.8814H3.05396C1.36728 49.8814 0 48.5141 0 46.8274V3.05396C0 1.36728 1.36728 0 3.05396 0Z" fill="#EBF7FF"/>
<path d="M43.7735 0H3.05396C1.36728 0 0 1.36728 0 3.05396V8.1439H46.8274V3.05396C46.8274 1.36728 45.4601 0 43.7735 0Z" fill="#3B5CA5"/>
<path d="M3.05396 3.05402H5.08993V5.08999H3.05396V3.05402Z" fill="white"/>
<path d="M7.12598 3.05402H9.16195V5.08999H7.12598V3.05402Z" fill="white"/>
<path d="M11.198 3.05402H13.234V5.08999H11.198V3.05402Z" fill="white"/>
<path d="M48.8917 60.0076H37.6938V41.6838H29.7096C28.4969 41.6838 27.5139 40.7008 27.5139 39.4881C27.5139 38.4077 28.2999 37.4878 29.3672 37.3193L44.1855 34.9796C45.7099 34.7388 47.1743 35.6732 47.5983 37.1572L48.8917 41.6838V60.0076Z" fill="#F5BE9A"/>
<path d="M39.7203 40.2419L41.3343 38.6279C41.7318 38.2303 42.3762 38.2303 42.7737 38.6279C43.1712 39.0254 43.1712 39.6698 42.7737 40.0673L41.1597 41.6813C40.7622 42.0788 40.1178 42.0788 39.7203 41.6813C39.3227 41.2838 39.3227 40.6394 39.7203 40.2419Z" fill="#EC917F"/>
<path d="M52.9064 41.6838H24.4602L22.8528 42.7555H20.3598C19.7976 42.7555 19.3418 43.2113 19.3418 43.7735C19.3418 44.3356 19.7976 44.7914 20.3598 44.7914H23.0137L24.4602 45.7557H52.9639C54.0884 45.7557 54.9999 44.8442 55 43.7199C55 43.6871 54.9992 43.6542 54.9976 43.6214C54.9459 42.5264 54.0027 41.6838 52.9064 41.6838Z" fill="#3B5CA5"/>
<path d="M54.9997 43.7198C54.9997 42.5953 54.0882 41.6838 52.9637 41.6838H50.9277V45.7557H52.9637C54.0882 45.7557 54.9997 44.8442 54.9997 43.7198Z" fill="#E3E4E2"/>
<path d="M37.694 53.8996L35.4395 52.9979C33.727 52.3128 32.604 50.6542 32.604 48.8097L29.1653 45.3703C28.7602 44.9654 28.5327 44.4161 28.5327 43.8433C28.5327 42.6506 29.4995 41.6838 30.6922 41.6838H31.0769C31.4121 41.6838 31.7428 41.7619 32.0426 41.9118L39.7306 45.7557L42.7845 48.8097L37.694 53.8996Z" fill="#F5BE9A"/>
<path d="M39.7199 45.7557C40.1174 45.3582 40.7618 45.3582 41.1594 45.7557L42.7734 47.3697C43.1709 47.7673 43.1709 48.4117 42.7734 48.8092C42.3759 49.2067 41.7315 49.2067 41.3339 48.8092L39.7199 47.1952C39.3225 46.7978 39.3225 46.1532 39.7199 45.7557Z" fill="#EC917F"/>
<path d="M5.08984 13.2338H21.3776V29.5216H5.08984V13.2338Z" fill="#EE585B"/>
<path d="M13.2339 23.4137C14.9206 23.4137 16.2879 22.0464 16.2879 20.3597C16.2879 18.6731 14.9206 17.3058 13.2339 17.3058C11.5472 17.3058 10.1799 18.6731 10.1799 20.3597C10.1799 22.0464 11.5472 23.4137 13.2339 23.4137Z" fill="#FAFDFF"/>
<path d="M9.16187 29.5216V27.4856C9.16187 25.2368 10.985 23.4137 13.2338 23.4137C15.4827 23.4137 17.3058 25.2368 17.3058 27.4856V29.5216H9.16187Z" fill="#FFF9F4"/>
<path d="M9.16187 32.5757H21.3777V34.6117H9.16187V32.5757Z" fill="#EE585B"/>
<path d="M5.08984 32.5757H7.12582V34.6117H5.08984V32.5757Z" fill="#EE585B"/>
<path d="M30.5396 14.2519H42.7554V16.2879H30.5396V14.2519Z" fill="#EE585B"/>
<path d="M26.4675 18.3239H42.7553V20.3598H26.4675V18.3239Z" fill="#EE585B"/>
<path d="M26.4675 22.3958H42.7553V24.4318H26.4675V22.3958Z" fill="#EE585B"/>
<path d="M26.4675 26.4678H42.7553V28.5037H26.4675V26.4678Z" fill="#EE585B"/>
<path d="M26.4675 14.2519H28.5035V16.2879H26.4675V14.2519Z" fill="#EE585B"/>
<path d="M5.01711 45.1695L3.12671 44.4134L4.53128 40.9021C4.89661 39.9886 5.9333 39.5441 6.84682 39.9094C7.25198 40.0714 7.58359 40.3766 7.77878 40.7668L8.53871 42.2867L10.1124 41.2377C10.8195 40.7685 11.759 40.8615 12.3604 41.4602L13.6554 42.7555H17.3057V44.7915H13.55C13.0773 44.7929 12.6236 44.6049 12.2903 44.2697L11.068 43.0475L9.42818 44.1408C8.60959 44.6866 7.50355 44.4654 6.95765 43.6469C6.91668 43.5854 6.87952 43.5214 6.84656 43.4553L6.21121 42.1845L5.01711 45.1695Z" fill="#EB5849"/>
</svg>
