<svg width="48" height="47" viewBox="0 0 48 47" fill="none" xmlns="http://www.w3.org/2000/svg">
    <path
        d="M0.462158 15.0763C0.462158 6.79201 7.17789 0.0762939 15.4622 0.0762939H33C41.2842 0.0762939 48 6.79202 48 15.0763V31.915C48 40.1993 41.2842 46.915 33 46.915H15.4621C7.17787 46.915 0.462158 40.1993 0.462158 31.915V15.0763Z"
        fill="#FFFFFF" />
    <path
        d="M13 10.9999C13 19.1234 13 27.2363 13 35.3467C17.0626 35.3467 21.1129 35.3467 25.1709 35.3467C25.1709 27.2261 25.1709 19.117 25.1709 10.9999C21.1117 10.9999 17.0605 10.9999 13 10.9999ZM20.6205 14.0492C21.6299 14.0492 22.6313 14.0492 23.6424 14.0492C23.6424 15.0591 23.6424 16.0609 23.6424 17.0737C22.6372 17.0737 21.6354 17.0737 20.6205 17.0737C20.6205 16.0622 20.6205 15.0599 20.6205 14.0492ZM14.5289 14.0484C15.5366 14.0484 16.5334 14.0484 17.542 14.0484C17.542 15.0557 17.542 16.0613 17.542 17.0758C16.538 17.0758 15.5379 17.0758 14.5289 17.0758C14.5289 16.0685 14.5289 15.0671 14.5289 14.0484ZM17.5403 20.1476C17.5403 21.1481 17.5403 22.1486 17.5403 23.1665C16.5351 23.1665 15.5375 23.1665 14.5302 23.1665C14.5302 22.1592 14.5302 21.1578 14.5302 20.1476C15.5316 20.1476 16.5292 20.1476 17.5403 20.1476ZM17.5441 29.2534C16.5389 29.2534 15.5413 29.2534 14.5264 29.2534C14.5264 28.2432 14.5264 27.2456 14.5264 26.2374C15.5324 26.2374 16.533 26.2374 17.5441 26.2374C17.5441 27.2443 17.5441 28.2453 17.5441 29.2534ZM23.6411 29.2513C22.6346 29.2513 21.6333 29.2513 20.6188 29.2513C20.6188 28.2402 20.6188 27.2422 20.6188 26.2357C21.6265 26.2357 22.6283 26.2357 23.6411 26.2357C23.6411 27.2413 23.6411 28.2419 23.6411 29.2513ZM23.6445 23.1665C22.6325 23.1665 21.6345 23.1665 20.6247 23.1665C20.6247 22.1647 20.6247 21.1633 20.6247 20.1505C21.6265 20.1505 22.6321 20.1505 23.6445 20.1505C23.6445 21.1549 23.6445 22.152 23.6445 23.1665Z"
        fill="#EE585B" />
    <path
        d="M37.349 18.6212C33.7936 18.6212 30.2518 18.6212 26.707 18.6212C26.707 19.1297 26.707 19.6285 26.707 20.1252C30.2598 20.1252 33.8017 20.1252 37.349 20.1252C37.349 19.6205 37.349 19.1293 37.349 18.6212Z"
        fill="#3B5CA5" />
    <path
        d="M26.7078 21.666C26.7078 26.2337 26.7078 30.7912 26.7078 35.3509C27.7227 35.3509 28.7253 35.3509 29.7474 35.3509C29.7474 33.3232 29.7474 31.3027 29.7474 29.2835C31.2746 29.2835 32.7828 29.2835 34.3008 29.2835C34.3008 29.351 34.3008 29.4059 34.3008 29.4604C34.3008 31.369 34.3025 33.2776 34.2974 35.1862C34.297 35.3269 34.3375 35.3619 34.4735 35.3611C35.3778 35.3556 36.2816 35.3585 37.1858 35.3577C37.2386 35.3577 37.2914 35.3522 37.3489 35.3488C37.3489 30.7811 37.3489 26.2316 37.3489 21.6655C33.7931 21.6659 30.2509 21.666 26.7078 21.666Z"
        fill="#3B5CA5" />
</svg>