<svg width="25" height="25" viewBox="0 0 25 25" fill="none" xmlns="http://www.w3.org/2000/svg">
    <path
        d="M0 0C0 8.12348 0 16.2364 0 24.3468C4.06258 24.3468 8.11292 24.3468 12.1709 24.3468C12.1709 16.2263 12.1709 8.11714 12.1709 0C8.11165 0 4.06047 0 0 0ZM7.62046 3.04937C8.62988 3.04937 9.63127 3.04937 10.6424 3.04937C10.6424 4.05921 10.6424 5.06102 10.6424 6.07381C9.63718 6.07381 8.63537 6.07381 7.62046 6.07381C7.62046 5.06229 7.62046 4.06005 7.62046 3.04937ZM1.52891 3.04852C2.53663 3.04852 3.53338 3.04852 4.54195 3.04852C4.54195 4.05583 4.54195 5.06144 4.54195 6.07593C3.53803 6.07593 2.5379 6.07593 1.52891 6.07593C1.52891 5.06862 1.52891 4.06723 1.52891 3.04852ZM4.54026 9.14768C4.54026 10.1482 4.54026 11.1488 4.54026 12.1666C3.53507 12.1666 2.53748 12.1666 1.53017 12.1666C1.53017 11.1593 1.53017 10.1579 1.53017 9.14768C2.53157 9.14768 3.52916 9.14768 4.54026 9.14768ZM4.54406 18.2535C3.53887 18.2535 2.54128 18.2535 1.52637 18.2535C1.52637 17.2433 1.52637 16.2457 1.52637 15.2375C2.53241 15.2375 3.53296 15.2375 4.54406 15.2375C4.54406 16.2444 4.54406 17.2454 4.54406 18.2535ZM10.6411 18.2514C9.63465 18.2514 8.63326 18.2514 7.61877 18.2514C7.61877 17.2403 7.61877 16.2423 7.61877 15.2359C8.6265 15.2359 9.62831 15.2359 10.6411 15.2359C10.6411 16.2415 10.6411 17.242 10.6411 18.2514ZM10.6445 12.1666C9.63253 12.1666 8.63452 12.1666 7.62468 12.1666C7.62468 11.1648 7.62468 10.1634 7.62468 9.15063C8.6265 9.15063 9.63211 9.15063 10.6445 9.15063C10.6445 10.155 10.6445 11.1521 10.6445 12.1666Z"
        fill="#2667A9" />
    <path
        d="M24.349 7.62134C20.7936 7.62134 17.2518 7.62134 13.707 7.62134C13.707 8.12985 13.707 8.62864 13.707 9.12533C17.2598 9.12533 20.8017 9.12533 24.349 9.12533C24.349 8.62062 24.349 8.12942 24.349 7.62134Z"
        fill="#2667A9" />
    <path
        d="M13.7078 10.6662C13.7078 15.2339 13.7078 19.7915 13.7078 24.3512C14.7227 24.3512 15.7253 24.3512 16.7474 24.3512C16.7474 22.3235 16.7474 20.303 16.7474 18.2837C18.2746 18.2837 19.7828 18.2837 21.3008 18.2837C21.3008 18.3513 21.3008 18.4062 21.3008 18.4607C21.3008 20.3693 21.3025 22.2779 21.2974 24.1865C21.297 24.3271 21.3375 24.3622 21.4735 24.3613C22.3778 24.3558 23.2816 24.3588 24.1858 24.3579C24.2386 24.3579 24.2914 24.3524 24.3489 24.3491C24.3489 19.7814 24.3489 15.2318 24.3489 10.6658C20.7931 10.6662 17.2509 10.6662 13.7078 10.6662Z"
        fill="#2667A9" />
</svg>