<svg width="24" height="26" viewBox="0 0 24 26" fill="none" xmlns="http://www.w3.org/2000/svg">
    <path
        d="M23.4702 0H5.72885C5.45113 0 5.22408 0.25545 5.22408 0.567775V12.092H0.50477C0.227051 12.0916 0 12.3471 0 12.6594V22.4802C0 24.4104 1.41329 26 3.12932 26C3.17967 26 20.8707 26 20.8707 26C22.5867 26 24 24.4104 24 22.4802V0.567775C23.975 0.25545 23.7479 0 23.4702 0ZM1.03456 22.4802V13.2554H5.22377V22.4802C5.22377 23.7858 4.28991 24.8362 3.129 24.8362C1.9681 24.8362 1.03456 23.7861 1.03456 22.4802ZM22.9401 22.4802C22.9401 23.7858 22.0063 24.8362 20.8453 24.8362H5.4258C5.93057 24.2118 6.23331 23.3886 6.23331 22.4802V1.16383H22.9401V22.4802Z"
        fill="#2667A9" />
    <path
        d="M13.8802 6.67022H20.4923C20.77 6.67022 20.997 6.41477 20.997 6.10244C20.997 5.79012 20.77 5.53467 20.4923 5.53467H13.8802C13.6025 5.53467 13.3755 5.79012 13.3755 6.10244C13.3501 6.41477 13.5775 6.67022 13.8802 6.67022Z"
        fill="#2667A9" />
    <path
        d="M13.8803 13.0569H20.4923C20.77 13.0569 20.9971 12.8015 20.9971 12.4892C20.9971 12.1768 20.77 11.9214 20.4923 11.9214H13.8803C13.6025 11.9214 13.3755 12.1768 13.3755 12.4892C13.3755 12.8015 13.5775 13.0569 13.8803 13.0569Z"
        fill="#2667A9" />
    <path
        d="M13.8802 19.4148H20.4923C20.77 19.4148 20.997 19.1594 20.997 18.8471C20.997 18.5347 20.77 18.2793 20.4923 18.2793H13.8802C13.6025 18.2793 13.3755 18.5347 13.3755 18.8471C13.3501 19.1594 13.5775 19.4148 13.8802 19.4148Z"
        fill="#2667A9" />
    <path
        d="M9.11067 7.32341C9.21168 7.43684 9.33772 7.49371 9.48909 7.49371C9.64045 7.49371 9.7668 7.43684 9.8675 7.29514L12.6941 3.80399C12.8961 3.57681 12.8708 3.20794 12.6688 2.98076C12.4667 2.75359 12.1386 2.78219 11.9369 3.00904L9.48909 6.04616L8.73193 5.13779C8.5299 4.91061 8.20183 4.88234 8.00011 5.10951C7.79808 5.33669 7.77306 5.70556 7.97478 5.93274L9.11067 7.32341Z"
        fill="#2667A9" />
    <path
        d="M11.9369 9.70724L9.48909 12.7444L8.73193 11.836C8.5299 11.6088 8.20183 11.5805 8.00011 11.8077C7.79808 12.0349 7.77306 12.4038 7.97478 12.6309L9.11035 13.9933C9.21137 14.1068 9.3374 14.1636 9.48877 14.1636C9.64014 14.1636 9.76649 14.1068 9.86719 13.9651L12.6938 10.4739C12.8958 10.2467 12.8705 9.87786 12.6684 9.65069C12.467 9.42351 12.139 9.45179 11.9369 9.70724Z"
        fill="#2667A9" />
    <path
        d="M11.9369 16.3495L9.48909 19.3584L8.73193 18.45C8.5299 18.2228 8.20183 18.2228 8.00011 18.4217C7.79808 18.6489 7.77306 19.0178 7.97478 19.245L9.11035 20.6074C9.21137 20.7208 9.3374 20.7777 9.48877 20.7777C9.64014 20.7777 9.76649 20.7208 9.86719 20.5791L12.6938 17.0879C12.8958 16.8608 12.8705 16.4919 12.6684 16.2647C12.467 16.0941 12.139 16.0941 11.9369 16.3495Z"
        fill="#2667A9" />
</svg>