<svg id="Layer_1" data-name="Layer 1" xmlns="http://www.w3.org/2000/svg" width="68" height="67" viewBox="0 0 68 67">
    <title>icon</title>
    <!-- <rect width="68" height="67" rx="20" style="fill:#FFF9F4" /> -->
    <g id="Z7GH0R.tif">
        <path
            d="M46.347,25.212V49.587H22.1V17.751H38.886v7.461Zm-15.54,5.216-4.566,4.56,1.237,1.241,3.243-3.256L34.8,37.055l5.642-5.617V33.2h1.846V28.213H37.335V30.07h1.7l-4.3,4.284ZM26.148,40.8H42.355V38.973H26.148Zm16.207,1.908h-16.2v1.829h16.2Z"
            style="fill:#EE585B" />
        <path
            d="M22.1,17.751V49.587h24.25a1.079,1.079,0,0,1-.248.06q-5.628,0-11.255,0H22.035q0-15.809,0-31.619A1.326,1.326,0,0,1,22.1,17.751Z"
            style="fill:#EE585B" />
        <path d="M45.826,23.337H40.771V18.182Z" style="fill:#EE585B" />
    </g>
</svg>