<svg width="48" height="47" viewBox="0 0 48 47" fill="none" xmlns="http://www.w3.org/2000/svg">
    <path
        d="M0.462158 15.0763C0.462158 6.79201 7.17789 0.0762939 15.4622 0.0762939H33C41.2842 0.0762939 48 6.79202 48 15.0763V31.915C48 40.1993 41.2842 46.915 33 46.915H15.4621C7.17787 46.915 0.462158 40.1993 0.462158 31.915V15.0763Z"
        fill="#EBF8ED" />
    <path
        d="M35.4702 9.99988H17.7289C17.4511 9.99988 17.2241 10.2553 17.2241 10.5677V22.0918H12.5048C12.2271 22.0915 12 22.347 12 22.6593V32.4801C12 34.4103 13.4133 35.9999 15.1293 35.9999C15.1797 35.9999 32.8707 35.9999 32.8707 35.9999C34.5867 35.9999 36 34.4103 36 32.4801V10.5677C35.975 10.2553 35.7479 9.99988 35.4702 9.99988ZM13.0346 32.4801V23.2553H17.2238V32.4801C17.2238 33.7857 16.2899 34.8361 15.129 34.8361C13.9681 34.8361 13.0346 33.786 13.0346 32.4801ZM34.9401 32.4801C34.9401 33.7857 34.0063 34.8361 32.8453 34.8361H17.4258C17.9306 34.2117 18.2333 33.3885 18.2333 32.4801V11.1637H34.9401V32.4801Z"
        fill="#EE585B" />
    <path
        d="M25.8802 16.6702H32.4923C32.77 16.6702 32.997 16.4148 32.997 16.1024C32.997 15.7901 32.77 15.5347 32.4923 15.5347H25.8802C25.6025 15.5347 25.3755 15.7901 25.3755 16.1024C25.3501 16.4148 25.5775 16.6702 25.8802 16.6702Z"
        fill="#3B5CA5" />
    <path
        d="M25.8803 23.0568H32.4923C32.77 23.0568 32.9971 22.8014 32.9971 22.489C32.9971 22.1767 32.77 21.9213 32.4923 21.9213H25.8803C25.6025 21.9213 25.3755 22.1767 25.3755 22.489C25.3755 22.8014 25.5775 23.0568 25.8803 23.0568Z"
        fill="#3B5CA5" />
    <path
        d="M25.8802 29.4148H32.4923C32.77 29.4148 32.997 29.1594 32.997 28.8471C32.997 28.5347 32.77 28.2793 32.4923 28.2793H25.8802C25.6025 28.2793 25.3755 28.5347 25.3755 28.8471C25.3501 29.1594 25.5775 29.4148 25.8802 29.4148Z"
        fill="#3B5CA5" />
    <path
        d="M21.1107 17.3232C21.2117 17.4366 21.3377 17.4935 21.4891 17.4935C21.6405 17.4935 21.7668 17.4366 21.8675 17.2949L24.6941 13.8037C24.8961 13.5766 24.8708 13.2077 24.6688 12.9805C24.4667 12.7533 24.1386 12.7819 23.9369 13.0088L21.4891 16.0459L20.7319 15.1375C20.5299 14.9104 20.2018 14.8821 20.0001 15.1093C19.7981 15.3364 19.7731 15.7053 19.9748 15.9325L21.1107 17.3232Z"
        fill="#3B5CA5" />
    <path
        d="M23.9369 19.7072L21.4891 22.7444L20.7319 21.836C20.5299 21.6088 20.2018 21.5805 20.0001 21.8077C19.7981 22.0349 19.7731 22.4038 19.9748 22.6309L21.1103 23.9933C21.2114 24.1068 21.3374 24.1636 21.4888 24.1636C21.6401 24.1636 21.7665 24.1068 21.8672 23.9651L24.6938 20.4739C24.8958 20.2467 24.8705 19.8779 24.6684 19.6507C24.467 19.4235 24.139 19.4518 23.9369 19.7072Z"
        fill="#3B5CA5" />
    <path
        d="M23.9369 26.3493L21.4891 29.3581L20.7319 28.4498C20.5299 28.2226 20.2018 28.2226 20.0001 28.4215C19.7981 28.6487 19.7731 29.0175 19.9748 29.2447L21.1103 30.6071C21.2114 30.7205 21.3374 30.7774 21.4888 30.7774C21.6401 30.7774 21.7665 30.7205 21.8672 30.5788L24.6938 27.0877C24.8958 26.8605 24.8705 26.4916 24.6684 26.2645C24.467 26.0938 24.139 26.0938 23.9369 26.3493Z"
        fill="#3B5CA5" />
</svg>