<?xml version="1.0" encoding="UTF-8"?>
<svg id="Layer_1" data-name="Layer 1" xmlns="http://www.w3.org/2000/svg" viewBox="0 0 171.53 170.08">
  <defs>
    <style>
      .cls-1 {
        fill: #3c5ca5;
      }
    </style>
  </defs>
  <path class="cls-1" d="m61.01,63.74c-5.45,2.1-9.89,3.81-14.79,5.69,3.41,8.12,6.63,15.8,9.88,23.47,1.47,3.49,1.14,6.59-2.26,8.85-3.29,2.19-7.98,1.16-9.72-2.66-4.65-10.23-9.05-20.58-13.19-31.01-1.6-4.03.42-7.11,4.64-8.74,6.62-2.56,13.29-5.02,19.83-7.76,3.13-1.31,5.85-3.6,9.05-4.65,2.75-.9,6.58-1.8,8.69-.64,2.35,1.29,4.49,4.85,4.65,7.53.56,9.47.44,18.99.14,28.48-.14,4.3,1.04,5.89,5.79,5.72,9.41-.34,18.83,0,28.25-.14,4.76-.07,8.24,1.45,11.07,5.26,7.98,10.73,16.27,21.25,24.38,31.89,2.49,3.26,2.94,6.8.48,10.24-2.23,3.13-5.65,4.17-9.21,2.93-2.12-.74-4.14-2.46-5.54-4.23-6.96-8.76-13.57-17.77-20.63-26.45-1.34-1.65-4.15-3.03-6.32-3.1-10.98-.31-21.97-.13-32.96-.15-9.49-.01-12.23-2.58-12.24-11.49-.01-9.32,0-18.63,0-29.07Z"/>
  <path class="cls-1" d="m30.89,86.34c3.51,8.17,6.88,14.58,5.43,23.23-3.07,18.37,11.19,35.48,30.39,38.61,19.09,3.12,37.77-8.83,42.21-27,.35-1.42.65-2.86,1.31-5.76,3.7,4.86,6.8,8.7,9.57,12.76.57.83.2,2.6-.31,3.69-7.97,17.02-21.65,27.34-41.02,29.3-21.14,2.14-38.02-5.87-48.98-23.31-10.15-16.14-9.85-32.87-.06-49.32.25-.43.55-.83,1.45-2.2Z"/>
  <path class="cls-1" d="m53.51,24.11c-.08-8.48,6.84-15.34,15.7-15.53,8.75-.2,16.13,6.55,16.35,14.95.22,8.62-7.04,15.8-15.99,15.82-8.8.01-15.97-6.8-16.06-15.23Z"/>
  <path class="cls-1" d="m49.25,118.8c-.04-1.39,2.08-1.57,2.33-.2,1.78,9.61,7.35,16.48,18.92,17.57,13.99,1.32,20.94-6.02,23.55-17.69.29-1.31,2.3-1.11,2.31.22.06,5.37-3.23,11.44-8.45,15.47-9.01,6.94-21.93,6.7-30.71-.58-4.79-3.97-7.79-9.76-7.95-14.8Z"/>
</svg>