<?xml version="1.0" encoding="UTF-8"?>
<svg id="Layer_1" data-name="Layer 1" xmlns="http://www.w3.org/2000/svg" viewBox="0 0 171.53 170.08">
  <defs>
    <style>
      .cls-1 {
        fill: #3c5ca5;
      }
    </style>
  </defs>
  <path class="cls-1" d="m93.49,138.72c0,5.14.07,9.68-.02,14.22-.11,5.36-3.06,8-8.31,8.14-5.43.14-8.93-2.25-9.24-7.92-.25-4.56-.05-9.14-.05-14.98-4.92,0-9.42.16-13.91-.04-5.64-.25-7.86-3-7.69-9.1.14-5.05,2.03-8.36,7.74-8.58,4.65-.17,10.89.81,13.44-1.72,2.38-2.36.84-8.69,1.02-13.27.03-.84-.12-1.7.03-2.51,1.22-6.67-1.16-9.99-7.92-12.7-19.03-7.62-28.87-28.19-24.41-48.4,4.31-19.49,22.45-33.46,42.68-32.86,20.62.61,37.56,15.36,40.99,35.71,3.33,19.72-7.96,39.67-27.07,46.51-5.28,1.89-7.2,4.2-6.76,9.71.52,6.39.12,12.85.12,20.14,4.97,0,9.32-.11,13.66.03,5.79.19,7.93,2.7,7.84,8.87-.08,6.03-2.4,8.58-8.14,8.72-4.34.11-8.68.02-14.01.02Zm19.93-87.08c.06-15.48-12.37-27.98-27.77-27.93-15.1.05-27.57,12.37-27.75,27.43-.18,15.35,12.26,28.12,27.56,28.28,15.32.16,27.91-12.34,27.97-27.78Z"/>
</svg>