<svg width="24" height="24" viewBox="0 0 24 24" fill="none" xmlns="http://www.w3.org/2000/svg">
<rect x="0.5" y="0.5" width="22.7313" height="22.7313" rx="7.5" stroke="#3B5CA5"/>
<path d="M12 11.4286C11.6211 11.4286 11.2578 11.2781 10.9898 11.0102C10.7219 10.7422 10.5714 10.3789 10.5714 10C10.5714 9.62112 10.7219 9.25776 10.9898 8.98985C11.2578 8.72194 11.6211 8.57143 12 8.57143C12.3789 8.57143 12.7422 8.72194 13.0102 8.98985C13.2781 9.25776 13.4286 9.62112 13.4286 10C13.4286 10.1876 13.3916 10.3734 13.3198 10.5467C13.248 10.72 13.1428 10.8775 13.0102 11.0102C12.8775 11.1428 12.72 11.248 12.5467 11.3198C12.3734 11.3916 12.1876 11.4286 12 11.4286V11.4286ZM12 6C10.9391 6 9.92172 6.42143 9.17157 7.17157C8.42143 7.92172 8 8.93913 8 10C8 13 12 17.4286 12 17.4286C12 17.4286 16 13 16 10C16 8.93913 15.5786 7.92172 14.8284 7.17157C14.0783 6.42143 13.0609 6 12 6V6Z" fill="#EE585B"/>
</svg>
