<?xml version="1.0" encoding="UTF-8"?>
<svg id="Layer_1" data-name="Layer 1" xmlns="http://www.w3.org/2000/svg" viewBox="0 0 171.53 170.08">
  <defs>
    <style>
      .cls-1 {
        fill: #3c5ca5;
      }
    </style>
  </defs>
  <path class="cls-1" d="m36.26,52.1c0,4.65-.1,9.3.02,13.95.18,7-4.43,8.05-9.85,8.03-5.29-.02-10.16-.7-10.14-7.76.03-12.96-.17-25.93.08-38.89.14-7.27,5-11.86,12.27-11.72,12.96.25,25.91.9,38.86,1.27,6.58.19,7.62,4.6,7.43,9.69-.19,5.05-.53,10.3-7.73,10.23-4.45-.05-8.89,0-15.32,0,7.78,7.77,14.82,14.17,21.07,21.27,5.08,5.76,9.16,7.37,17.13,3.87,21.18-9.29,45.82-.53,57.98,19.04,12.02,19.35,8.74,44.5-7.85,60.21-16.54,15.65-41.9,17.48-60.56,4.36-18.86-13.26-25.86-38.16-15.9-59.02,2.51-5.25,1.97-8.1-2.11-11.94-8.01-7.55-15.43-15.73-23.09-23.65-.76.36-1.53.72-2.29,1.08Zm71.04,85.54c17.38.01,31.51-14.25,31.34-31.62-.17-17-14.28-30.91-31.36-30.91-17.11,0-31.12,13.86-31.28,30.93-.16,17.43,13.87,31.58,31.31,31.6Z"/>
</svg>