<svg xmlns="http://www.w3.org/2000/svg" id="Layer_1" data-name="Layer 1" viewBox="443.22 229.85 512.01 512">
  <path d="m443.22,552.85c2.79-16.33,13.19-27.66,24.44-38.86,70.25-69.91,140.34-139.98,210.26-210.22,12.26-12.32,26.25-18.39,43.69-18.12,29.14.46,58.3.13,87.45.13h5.77c.73-2.3,1.35-4.49,2.11-6.64,9.67-27.13,28.6-43.37,57.02-48.44.78-.14,1.51-.56,2.27-.85,5.33,0,10.67,0,16,0,.94.3,1.86.69,2.83.87,29.64,5.54,48.75,22.86,57.61,51.58,1.07,3.45,1.72,7.03,2.56,10.55v15c-2.17,7.47-3.53,15.31-6.68,22.34-8.73,19.45-23.82,32.08-44.16,38.44-1.11.35-2.25.61-3.36.96-.47.15-.9.42-1.65.77,0,6.7,0,13.52,0,20.34,0,24.83-.23,49.66.08,74.48.2,16.13-5.37,29.41-16.8,40.71-26.06,25.78-51.88,51.8-77.82,77.71-1.41,1.41-2.83,2.88-4.48,3.95-3.9,2.53-9.21,1.77-12.36-1.53-3.27-3.42-3.77-8.47-1.03-12.38,1.14-1.62,2.62-3.01,4.03-4.42,25.56-25.58,51.02-51.26,76.77-76.64,7.97-7.86,11.82-16.68,11.74-27.99-.3-41.82-.6-83.66.09-125.47.33-19.76-14.15-34.86-33.63-33.4-3.79.28-7.62.04-11.91.04.7,11.12,5.13,20.13,11.86,28.18.96,1.15,2.08,2.17,2.99,3.36,3.51,4.6,3.02,10.31-1.13,13.9-4.03,3.49-9.48,3.4-13.54-.6-9.61-9.47-15.83-20.89-18.9-34.02-.79-3.37-.21-8.41-2.24-9.82-2.65-1.83-7.27-.97-11.05-.98-27.49-.05-54.99.13-82.48-.11-10.32-.09-18.61,3.43-25.88,10.71-73.34,73.47-146.79,146.83-220.19,220.25-13.74,13.74-13.76,31.39-.07,45.1,43.22,43.27,86.46,86.51,129.73,129.73,13.94,13.92,31.54,13.97,45.5.07,24.32-24.22,48.56-48.53,72.83-72.8,1.18-1.18,2.31-2.42,3.6-3.46,4.28-3.47,9.88-3.2,13.57.57,3.45,3.53,3.72,9.14.55,13.23-1.02,1.31-2.25,2.45-3.43,3.63-21.91,21.92-44.04,43.63-65.66,65.84-10.78,11.07-22.07,20.71-37.89,23.31h-13c-15.91-2.83-27.14-12.82-38.07-23.88-37.45-37.89-75.12-75.56-113-113.02-11.38-11.25-22.03-22.61-24.93-39.1v-13Zm455.94-204.33c19.75-2.6,36.94-26.92,35.95-50.09-1.11-25.91-22.4-47.39-48.09-48.5-23.48-1.02-47.89,16.11-50.56,36.11,17.9-1.65,34.61.84,48.07,14.1,13.64,13.43,16.2,30.29,14.64,48.37Z"/>
  <path d="m657.48,554.03c5.24,5.11,10.55,10.16,15.7,15.36,4.93,4.99,5.23,10.73,1,15.02-4.14,4.2-10.18,3.95-15.04-.89-19.23-19.15-38.42-38.33-57.56-57.56-5.09-5.11-5.08-10.66-.11-15.77,4.99-5.13,10.02-10.23,15.2-15.17,11.91-11.37,28.95-12.99,41.64-4.09,12.39,8.7,16.26,24.29,9.85,39.66-.25.61-.48,1.22-1.02,2.57,8.04.56,15.76,1.09,23.47,1.63,3.32.23,6.67.25,9.94.77,5.54.89,9.01,5.28,8.64,10.44-.4,5.4-4.65,9.4-10.51,9.14-10.97-.49-21.93-1.34-32.89-2.01-2.59-.16-5.19-.24-7.78-.35-.17.42-.34.84-.51,1.26Zm-18.56-19.33c3.54-3.79,7.15-7.06,10.01-10.89,3.72-4.97,3-11.78-1-15.55-3.88-3.65-10.51-4.14-15.2-.5-3.86,3-7.19,6.69-10.5,9.83,5.72,5.87,10.95,11.22,16.69,17.11Z"/>
  <path d="m744.46,395.36c5.46,5.29,10.47,10.15,16.02,15.53,4.81-4.93,9.8-10.26,15.04-15.32,4.64-4.48,10.15-4.6,14.3-.7,4.31,4.05,4.44,9.91-.12,14.66-5.07,5.28-10.45,10.25-15.49,15.16,5.46,5.5,10.48,10.57,15.81,15.94,5.41-5.48,10.85-11.09,16.4-16.58,5.08-5.02,10.67-5.43,15.03-1.28,4.33,4.12,3.99,10.4-.98,15.43-7.5,7.59-15.03,15.14-22.62,22.62-5.76,5.68-10.79,5.72-16.48.06-19.01-18.93-37.98-37.9-56.92-56.91-5.88-5.91-5.83-10.89.06-16.84,7.39-7.46,14.81-14.88,22.27-22.27,5.11-5.06,11.2-5.55,15.42-1.35,4.35,4.33,3.93,10.14-1.25,15.41-5.37,5.46-10.84,10.82-16.49,16.44Z"/>
  <path d="m686.35,453.22c5.58,5.4,10.59,10.25,16.16,15.64,4.77-4.89,9.75-10.22,14.98-15.28,4.65-4.49,10.16-4.62,14.31-.74,4.32,4.04,4.46,9.93-.08,14.66-5.06,5.28-10.44,10.26-15.55,15.25,5.47,5.44,10.52,10.46,15.92,15.83,5.22-5.3,10.54-10.78,15.95-16.17,5.48-5.46,11.37-5.91,15.74-1.32,4.08,4.28,3.47,10.28-1.64,15.43-7.39,7.45-14.8,14.9-22.27,22.27-5.77,5.69-10.8,5.76-16.48.1-19.13-19.04-38.22-38.13-57.26-57.27-5.44-5.47-5.38-10.62.02-16.11,7.6-7.72,15.26-15.38,22.97-22.98,4.83-4.77,10.95-5.12,15.07-1.04,4.25,4.21,4.01,10.07-.87,15.04-5.48,5.58-11.15,10.98-16.96,16.69Z"/>
  <path d="m564.46,575.11c5.23,5.07,10.09,9.78,15.91,15.42,4.36-4.67,8.98-9.87,13.88-14.8,3.42-3.44,7.66-4.05,11.93-1.7,4.09,2.25,5.88,6.06,4.8,10.55-.55,2.28-2.11,4.54-3.78,6.27-4.39,4.55-9.08,8.8-13.98,13.48,1.54,1.7,2.57,2.93,3.7,4.06,6.34,6.38,12.8,12.66,19.04,19.14,4.46,4.63,4.48,10.73.38,14.7-3.97,3.83-9.78,3.64-14.36-.48-.62-.56-1.2-1.16-1.78-1.75-18.39-18.38-36.78-36.76-55.15-55.16-6.84-6.86-6.83-11.43.01-18.29,6.94-6.97,13.87-13.94,20.87-20.85,4.9-4.84,10.86-5.28,15.07-1.26,4.47,4.27,4.17,10.18-.99,15.4-5.13,5.2-10.42,10.24-15.55,15.27Z"/>
  <path d="m763.29,600.98c5.36-.04,9.87,4.4,9.96,9.81.1,5.47-4.14,9.94-9.59,10.1-5.59.16-10.34-4.44-10.31-9.97.03-5.27,4.65-9.89,9.93-9.93Z"/>
</svg>