<svg xmlns="http://www.w3.org/2000/svg" id="Layer_1" data-name="Layer 1" viewBox="877.8 144.05 512.01 512">
  <path d="m877.8,467.05c2.79-16.33,13.19-27.66,24.44-38.86,70.25-69.91,140.34-139.98,210.26-210.22,12.26-12.32,26.25-18.39,43.69-18.12,29.14.46,58.3.13,87.45.13h5.77c.73-2.3,1.35-4.49,2.11-6.64,9.67-27.13,28.6-43.37,57.02-48.44.78-.14,1.51-.56,2.27-.85,5.33,0,10.67,0,16,0,.94.3,1.86.69,2.83.87,29.64,5.54,48.75,22.86,57.61,51.58,1.07,3.45,1.72,7.03,2.56,10.55v15c-2.17,7.47-3.53,15.31-6.68,22.34-8.73,19.45-23.82,32.08-44.16,38.44-1.11.35-2.25.61-3.36.96-.47.15-.9.42-1.65.77,0,6.7,0,13.52,0,20.34,0,24.83-.23,49.66.08,74.48.2,16.13-5.37,29.41-16.8,40.71-26.06,25.78-51.88,51.8-77.82,77.71-1.41,1.41-2.83,2.88-4.48,3.95-3.9,2.53-9.21,1.77-12.36-1.53-3.27-3.42-3.77-8.47-1.03-12.38,1.14-1.62,2.62-3.01,4.03-4.42,25.56-25.58,51.02-51.26,76.77-76.64,7.97-7.86,11.82-16.68,11.74-27.99-.3-41.82-.6-83.66.09-125.47.33-19.76-14.15-34.86-33.63-33.4-3.79.28-7.62.04-11.91.04.7,11.12,5.13,20.13,11.86,28.18.96,1.15,2.08,2.17,2.99,3.36,3.51,4.6,3.02,10.31-1.13,13.9-4.03,3.49-9.48,3.4-13.54-.6-9.61-9.47-15.83-20.89-18.9-34.02-.79-3.37-.21-8.41-2.24-9.82-2.65-1.83-7.27-.97-11.05-.98-27.49-.05-54.99.13-82.48-.11-10.32-.09-18.61,3.43-25.88,10.71-73.34,73.47-146.79,146.83-220.19,220.25-13.74,13.74-13.76,31.39-.07,45.1,43.22,43.27,86.46,86.51,129.73,129.73,13.94,13.92,31.54,13.97,45.5.07,24.32-24.22,48.56-48.53,72.83-72.8,1.18-1.18,2.31-2.42,3.6-3.46,4.28-3.47,9.88-3.2,13.57.57,3.45,3.53,3.72,9.14.55,13.23-1.02,1.31-2.25,2.45-3.43,3.63-21.91,21.92-44.04,43.63-65.66,65.84-10.78,11.07-22.07,20.71-37.89,23.31h-13c-15.91-2.83-27.14-12.82-38.07-23.88-37.45-37.89-75.12-75.56-113-113.02-11.38-11.25-22.03-22.61-24.93-39.1v-13Zm455.94-204.33c19.75-2.6,36.94-26.92,35.95-50.09-1.11-25.91-22.4-47.39-48.09-48.5-23.48-1.02-47.89,16.11-50.56,36.11,17.9-1.65,34.61.84,48.07,14.1,13.64,13.43,16.2,30.29,14.64,48.37Z"/>
  <path d="m1197.86,515.18c5.36-.04,9.87,4.4,9.96,9.81.1,5.47-4.14,9.94-9.59,10.1-5.59.16-10.34-4.44-10.31-9.97.03-5.27,4.65-9.89,9.93-9.93Z"/>
  <g>
    <path d="m1056.1,553.25l-65.22-62.22,11.57-12.12,65.22,62.22-11.57,12.12Zm-8.18-28.86l-11.16-10.65,8.54-8.96c3.83-4.01,5.68-8.16,5.57-12.45-.12-4.29-2.15-8.32-6.1-12.09-3.73-3.56-7.66-5.21-11.77-4.95-4.11.26-8.08,2.4-11.9,6.41l-8.37,8.77-11.16-10.65,8.37-8.77c7.8-8.17,15.75-12.66,23.86-13.47,8.11-.8,15.67,2.14,22.68,8.83,7.78,7.42,11.67,15.4,11.67,23.95,0,8.55-3.89,16.91-11.69,25.08l-8.54,8.96Z"/>
    <path d="m1103.65,503.42l-47.25-81.05,14.2-14.88,83.18,43.39-12.49,13.09-61.46-34.25-.79.83,37.1,59.78-12.49,13.09Zm-3.29-21.29l-11.21-10.69,31.55-33.07,11.21,10.69-31.55,33.07Z"/>
    <path d="m1117.29,380.82l-10.88-10.39,39.35-41.24,10.88,10.39-39.35,41.24Zm68.18,37.32l-65.22-62.22,11.57-12.12,65.22,62.22-11.57,12.12Zm-13.85,14.51l-10.93-10.43,39.35-41.24,10.93,10.43-39.35,41.24Z"/>
    <path d="m1222.97,378.83l-65.21-62.22,11.57-12.12,65.22,62.22-11.57,12.12Zm10.96-11.48l-11.57-11.04,4.86-5.1c5.7-5.97,8.26-12.08,7.7-18.32-.57-6.24-4.14-12.5-10.72-18.78-7.23-6.89-14.12-10.62-20.67-11.17-6.55-.55-12.68,2.16-18.38,8.13l-4.69,4.91-12.62-9.94,5.74-6.02c19.48-20.42,40.4-19.97,62.75,1.35,21.13,20.16,21.95,40.45,2.46,60.87l-4.86,5.1Z"/>
  </g>
</svg>